<svg width="60" height="60" viewBox="0 0 60 60" fill="none" xmlns="http://www.w3.org/2000/svg">
<g clip-path="url(#clip0)">
<path d="M12.2126 5.23718H11.4156C10.1633 5.23718 9.25244 6.26185 9.25244 7.40037V56.2428C9.25244 57.4952 10.2771 58.406 11.4156 58.406H43.2942C44.5465 58.406 45.4573 57.3813 45.4573 56.2428V51.461C45.4573 51.0056 45.3435 50.5502 45.0019 50.2087L14.0342 6.148C13.5788 5.57874 12.8957 5.23718 12.2126 5.23718Z" fill="#C3E2FC"/>
<path d="M12.3264 5.46497H11.5294C10.277 5.46497 9.36621 6.48963 9.36621 7.62815V56.4706C9.36621 57.723 10.3909 58.6338 11.5294 58.6338H43.4079C44.6603 58.6338 45.5711 57.6091 45.5711 56.4706V51.6888C45.5711 51.2334 45.4573 50.778 45.1157 50.4365L14.148 6.48963C13.6926 5.80652 13.0095 5.46497 12.3264 5.46497Z" fill="#C3E2FC"/>
<path d="M50.5806 54.3074H13.3511V1.59399H38.5123L50.5806 15.8255V54.3074Z" fill="white"/>
<path d="M34.9829 1.02474V14.3454C34.9829 16.6224 36.8045 18.4441 39.0816 18.4441H51.036L50.9222 15.4839L39.0816 0.910889L34.9829 1.02474Z" fill="#C3E2FC"/>
<path d="M38.2847 2.27698V14.6868H50.353L38.2847 2.27698Z" fill="white"/>
<path d="M8.00006 8.19734C8.00006 5.9203 9.82168 4.09867 12.0987 4.09867C12.0987 1.82163 13.9204 0 16.1974 0H38.9678L51.4915 14.4592V51.8026C51.4915 54.0796 49.6699 55.9013 47.3928 55.9013C47.3928 58.1783 45.5712 59.9999 43.2941 59.9999C43.2941 59.9999 17.7769 60 12.3264 60C10.0493 60 8 58.5199 8 56.129C8 49.2359 8.00006 8.19734 8.00006 8.19734ZM12.0987 6.148C10.9602 6.148 10.0494 7.05882 10.0494 8.19734V55.9013C10.0494 57.0398 10.9602 57.9506 12.0987 57.9506H43.1803C44.3188 57.9506 45.2296 57.0398 45.2296 55.9013H16.3112C14.0342 55.9013 12.2126 54.0796 12.2126 51.6888V6.148H12.0987ZM36.9184 2.04933H16.3112C15.1727 2.04933 14.2619 2.96015 14.2619 4.09867V51.8026C14.2619 52.9411 15.1727 53.8519 16.3112 53.8519H47.3928C48.5313 53.8519 49.4422 52.9411 49.4422 51.8026V16.5085H41.131C38.8539 16.5085 37.0323 14.6869 37.0323 12.4099L36.9184 2.04933ZM39.0816 3.074V12.296C39.0816 13.4345 39.9924 14.3453 41.131 14.3453H48.759L39.0816 3.074Z" fill="#333E50"/>
<path d="M44.4326 26.6414H20.296C19.6129 26.6414 19.1575 27.2106 19.1575 27.7799C19.1575 28.3491 19.7267 28.9184 20.296 28.9184H44.4326C45.1157 28.9184 45.5711 28.3491 45.5711 27.7799C45.5711 27.2106 45.1157 26.6414 44.4326 26.6414Z" fill="#333E50"/>
<path d="M44.4326 31.6509H20.296C19.6129 31.6509 19.1575 32.2201 19.1575 32.7894C19.1575 33.3587 19.7267 33.9279 20.296 33.9279H44.4326C45.1157 33.9279 45.5711 33.3587 45.5711 32.7894C45.5711 32.2201 45.1157 31.6509 44.4326 31.6509Z" fill="#333E50"/>
<path d="M44.4326 36.5464H20.296C19.6129 36.5464 19.1575 37.1156 19.1575 37.6849C19.1575 38.368 19.7267 38.8234 20.296 38.8234H44.4326C45.1157 38.8234 45.5711 38.2542 45.5711 37.6849C45.5711 37.1156 45.1157 36.5464 44.4326 36.5464Z" fill="#333E50"/>
<path d="M44.4326 41.5559H20.296C19.6129 41.5559 19.1575 42.1252 19.1575 42.6944C19.1575 43.3775 19.7267 43.8329 20.296 43.8329H44.4326C45.1157 43.8329 45.5711 43.2637 45.5711 42.6944C45.5711 42.0113 45.1157 41.5559 44.4326 41.5559Z" fill="#333E50"/>
</g>
<defs>
<clipPath id="clip0">
<rect width="60" height="60" fill="white"/>
</clipPath>
</defs>
</svg>
