<svg width="60" height="60" viewBox="0 0 60 60" fill="none" xmlns="http://www.w3.org/2000/svg">
<path d="M30.0001 58.92C45.9722 58.92 58.9201 45.972 58.9201 30C58.9201 14.0279 45.9722 1.07996 30.0001 1.07996C14.028 1.07996 1.08008 14.0279 1.08008 30C1.08008 45.972 14.028 58.92 30.0001 58.92Z" fill="#95CE5A"/>
<path d="M30 2.7C45.06 2.7 57.3 14.94 57.3 30C57.3 45.06 45.06 57.3 30 57.3C14.94 57.3 2.7 45.06 2.7 30C2.7 14.94 14.94 2.7 30 2.7ZM30 0C13.44 0 0 13.44 0 30C0 46.56 13.44 60 30 60C46.56 60 60 46.56 60 30C60 13.44 46.56 0 30 0Z" fill="#333E50"/>
<path d="M20.04 35.4H18.66H18.06V34.8V23.7C18.06 23.16 18 22.92 18 22.86C17.82 22.26 17.4 22.02 16.74 22.02C16.44 22.02 16.02 22.26 15.6 22.68L11.4 26.88C11.1 27.18 10.98 27.42 10.98 27.78C10.98 28.14 11.1 28.44 11.4 28.74C11.7 29.04 12 29.16 12.36 29.16C12.66 29.16 13.08 28.92 13.56 28.44L14.46 27.54L15.48 26.52V27.96V34.8V35.4H14.88H13.5C13.08 35.4 12.78 35.52 12.54 35.76C12.3 36 12.18 36.3 12.18 36.72C12.18 37.14 12.3 37.44 12.54 37.68C12.78 37.92 13.08 38.04 13.5 38.04H20.04C20.46 38.04 20.76 37.92 21 37.68C21.24 37.44 21.36 37.14 21.36 36.72C21.36 36.36 21.24 36 21 35.76C20.76 35.52 20.4 35.4 20.04 35.4Z" fill="#333E50"/>
<path d="M31.98 29.4L31.68 29.1L31.92 28.8C32.52 28.02 32.82 27.18 32.82 26.16C32.82 24.96 32.4 24 31.56 23.1C30.72 22.26 29.7 21.84 28.5 21.84C27.3 21.84 26.34 22.26 25.44 23.1C24.6 23.94 24.18 24.96 24.18 26.16C24.18 27.12 24.48 28.02 25.08 28.8L25.32 29.1L25.14 29.4C24.06 30.42 23.52 31.62 23.52 33.12C23.52 34.56 24 35.7 25.02 36.72C26.04 37.74 27.18 38.22 28.62 38.22C30.06 38.22 31.2 37.74 32.22 36.72C33.24 35.7 33.72 34.56 33.72 33.12C33.6 31.62 33.06 30.36 31.98 29.4ZM29.88 27.48C29.52 27.84 29.04 28.02 28.56 28.02C28.02 28.02 27.6 27.84 27.24 27.48C26.88 27.12 26.7 26.64 26.7 26.16C26.7 25.68 26.88 25.2 27.24 24.84C27.6 24.48 28.08 24.3 28.56 24.3C29.04 24.3 29.52 24.48 29.88 24.84C30.24 25.2 30.42 25.68 30.42 26.16C30.42 26.64 30.24 27.12 29.88 27.48ZM26.64 31.2C27.18 30.66 27.78 30.42 28.5 30.42C29.22 30.42 29.88 30.66 30.36 31.2C30.9 31.74 31.14 32.34 31.14 33.06C31.14 33.78 30.9 34.44 30.36 34.92C29.82 35.46 29.22 35.7 28.5 35.7C27.78 35.7 27.12 35.46 26.64 34.92C26.1 34.38 25.86 33.78 25.86 33.06C25.86 32.34 26.16 31.74 26.64 31.2Z" fill="#333E50"/>
<path d="M49.14 28.92H46.14H45.54V28.32V25.32C45.54 25.02 45.48 24.72 45.24 24.54C45 24.36 44.82 24.24 44.46 24.24C44.1 24.24 43.86 24.3 43.68 24.54C43.5 24.72 43.38 24.96 43.38 25.32V28.32V28.92H42.78H39.78C39.48 28.92 39.18 28.98 39 29.22C38.82 29.4 38.7 29.64 38.7 30C38.7 30.3 38.82 30.54 39 30.78C39.18 30.96 39.42 31.08 39.78 31.08H42.78H43.38V31.68V34.68C43.38 34.98 43.5 35.22 43.68 35.4C43.86 35.58 44.1 35.7 44.46 35.7C44.76 35.7 45 35.58 45.24 35.4C45.42 35.22 45.54 34.98 45.54 34.62V31.62V31.02H46.14H49.14C49.44 31.02 49.68 30.9 49.92 30.72C50.1 30.54 50.22 30.3 50.22 29.94C50.22 29.64 50.16 29.34 49.92 29.16C49.74 28.98 49.5 28.92 49.14 28.92Z" fill="#333E50"/>
</svg>
