<svg width="60" height="60" viewBox="0 0 60 60" fill="none" xmlns="http://www.w3.org/2000/svg">
<path d="M56.7443 54.4855H2.97803V58.7413H56.7443V54.4855Z" fill="#C3E2FC"/>
<path d="M30.5344 1.39003L5.49609 17.6434L6.57313 19.3026L31.6114 3.04919L30.5344 1.39003Z" fill="#C3E2FC"/>
<path d="M7.71313 53.2268V49.2108L9.21164 48.9711V29.5505L7.71313 28.5914V23.3167H12.1487V53.2268H7.71313Z" fill="#C3E2FC"/>
<path d="M25.0959 53.2268V49.2108L26.5944 48.9711V29.5505L25.0959 28.5914V23.3167H29.5915V53.2268H25.0959Z" fill="#C3E2FC"/>
<path d="M42.5383 53.2268V49.2108L44.0368 48.9711V29.5505L42.5383 28.5914V23.3167H46.7941V53.2268H42.5383Z" fill="#C3E2FC"/>
<path d="M54.5265 52.4476H53.2677V51.1888C53.2677 49.4506 52.2488 48.1918 50.7503 47.7123V29.7902C52.2488 29.3107 53.2677 27.8122 53.2677 26.3137V25.0549H54.5265C55.2458 25.0549 55.7852 24.5754 55.7852 23.7962V20.0799H57.044C57.5235 20.0799 58.0629 19.8402 58.3027 19.0609C58.5425 18.3417 58.3027 18.042 57.8232 17.5624L30.3706 0.17982C29.8911 -0.0599401 29.3516 -0.0599401 29.1119 0.17982L23.6573 3.8961C23.6573 3.8961 22.3986 4.91508 23.1778 5.87413C23.8971 6.59341 25.1558 5.87413 25.1558 5.87413L29.6514 2.87712L52.7882 17.5624H6.45455C6.45455 17.5624 20.3606 8.75125 20.6603 8.57143C20.7203 8.57143 21.9191 7.85215 21.1399 6.83317C20.6603 5.81419 19.1618 6.59341 19.1618 6.59341L1.47952 17.8621C1 18.1019 1 18.5814 1 19.1209C1.23976 19.8402 1.71928 20.1399 2.25874 20.1399H3.51748V23.8561C3.51748 24.5754 3.997 25.1149 4.77622 25.1149H6.03497V26.3736C6.03497 28.1119 7.05395 29.3706 8.55245 29.8501V47.7722C7.05395 48.2517 6.03497 49.7502 6.03497 51.2487V52.5075H4.71628C2.73826 52.5075 1 54.2458 1 56.2238V58.7413C1 59.4605 1.47952 60 2.25874 60H36.1249C36.1249 60 38.1029 60 38.1029 58.7413C38.1029 57.4825 36.1249 57.4825 36.1249 57.4825H3.45754V56.2238C3.45754 55.5045 3.93706 54.965 4.71628 54.965H54.5265C55.2458 54.965 55.7852 55.4446 55.7852 56.2238V57.4825H46.015C46.015 57.4825 44.037 57.4825 44.037 58.7413C44.037 60 46.015 60 46.015 60H56.984C57.7033 60 58.2428 59.5205 58.2428 58.7413V56.2238C58.2428 54.1858 56.5045 52.4476 54.5265 52.4476ZM50.7503 26.3137C50.7503 27.033 50.2707 27.5724 49.4915 27.5724H44.5165C43.7972 27.5724 43.2577 27.0929 43.2577 26.3137V25.0549H50.7503V26.3137ZM48.2927 30.0899V47.5325H45.7752V30.0899H48.2927ZM5.97503 22.5974V20.0799H53.2677V22.5974H5.97503ZM27.1339 27.5724C26.4146 27.5724 25.8751 27.0929 25.8751 26.3137V25.0549H33.3676V26.3137C33.3676 27.033 32.8881 27.5724 32.1089 27.5724H27.1339ZM30.8502 30.0899V47.5325H28.3327V30.0899H30.8502ZM9.69131 27.5724C8.97203 27.5724 8.43257 27.0929 8.43257 26.3137V25.0549H15.9251V26.3137C15.9251 27.033 15.4456 27.5724 14.6663 27.5724H9.69131ZM13.4076 30.0899V47.5325H10.8901V30.0899H13.4076ZM15.9251 52.4476H8.43257V51.1888C8.43257 50.4695 8.91209 49.9301 9.69131 49.9301H14.6663C15.3856 49.9301 15.9251 50.4096 15.9251 51.1888V52.4476ZM23.3576 51.2487V52.5075H18.3826V51.2487C18.3826 49.5105 17.3636 48.2517 15.8651 47.7722V29.7902C17.3636 29.3107 18.3826 27.8122 18.3826 26.3137V25.0549H23.3576V26.3137C23.3576 28.0519 24.3766 29.3107 25.8751 29.7902V47.7123C24.3766 48.2517 23.3576 49.5105 23.3576 51.2487ZM33.3077 52.4476H25.8751V51.1888C25.8751 50.4695 26.3546 49.9301 27.1339 49.9301H32.1089C32.8282 49.9301 33.3676 50.4096 33.3676 51.1888L33.3077 52.4476ZM40.8002 51.2487V52.5075H35.8252V51.2487C35.8252 49.5105 34.8062 48.2517 33.3077 47.7722V29.7902C34.8062 29.3107 35.8252 27.8122 35.8252 26.3137V25.0549H40.8002V26.3137C40.8002 28.0519 41.8192 29.3107 43.3177 29.7902V47.7123C41.8192 48.2517 40.8002 49.5105 40.8002 51.2487ZM50.7503 52.4476H43.3177V51.1888C43.3177 50.4695 43.7972 49.9301 44.5764 49.9301H49.5515C50.2707 49.9301 50.8102 50.4096 50.8102 51.1888V52.4476H50.7503Z" fill="#333E50"/>
<path d="M29.5915 15.1049C31.5115 15.1049 33.068 13.5484 33.068 11.6284C33.068 9.70835 31.5115 8.15186 29.5915 8.15186C27.6715 8.15186 26.115 9.70835 26.115 11.6284C26.115 13.5484 27.6715 15.1049 29.5915 15.1049Z" fill="#95CE5A"/>
<path d="M29.5915 16.3637C26.8342 16.3637 24.8562 14.1459 24.8562 11.6284C24.8562 9.11094 27.074 6.89316 29.5915 6.89316C32.3487 6.89316 34.3267 9.11094 34.3267 11.6284C34.3267 14.1459 32.3487 16.3637 29.5915 16.3637ZM29.5915 8.87118C28.093 8.87118 26.8342 10.1299 26.8342 11.6284C26.8342 13.1269 28.093 14.3857 29.5915 14.3857C31.09 14.3857 32.3487 13.1269 32.3487 11.6284C32.3487 10.1299 31.09 8.87118 29.5915 8.87118Z" fill="#333E50"/>
</svg>
