<svg width="60" height="60" viewBox="0 0 60 60" fill="none" xmlns="http://www.w3.org/2000/svg">
<path d="M24.0598 53.1L36.2398 52.98L32.2798 58.32L25.2598 56.82L24.0598 53.1Z" fill="#95CE5A"/>
<path d="M32.0399 43.2H11.3999V24.84C11.3999 14.7 19.6199 6.42001 29.8199 6.42001L40.9199 10.56L44.9399 16.44C44.9399 16.44 29.4599 10.62 23.8199 23.52C18.5399 35.46 32.0399 43.2 32.0399 43.2Z" fill="#C3E2FC"/>
<path d="M30 11.46C31.68 11.46 31.68 14.1 30 14.1C23.82 14.1 18.84 19.2 18.84 25.26C18.84 26.94 16.2 26.94 16.2 25.26C16.2 17.7 22.38 11.46 30 11.46Z" fill="#333E50"/>
<path d="M37.6199 54.12C36.6599 57.54 33.5999 60 29.9999 60C26.2799 60 23.1599 57.54 22.3799 54.12H8.2799C5.0399 54.12 2.3999 51.48 2.3999 48.24C2.3999 45 5.0399 42.36 8.2799 42.36H10.3199V25.26C10.3199 14.4 19.1399 5.57999 29.9999 5.57999C40.6799 5.57999 49.5599 14.4 49.5599 25.26V42.3H51.7199C54.8399 42.3 57.5999 44.94 57.5999 48.18C57.5999 51.42 54.7799 54.06 51.7199 54.06H37.6199V54.12ZM12.9599 42.3H47.0399V25.26C47.0399 15.96 39.2999 8.21999 29.9999 8.21999C20.5199 8.21999 12.9599 15.96 12.9599 25.26V42.3ZM25.0199 54.12C25.7999 55.98 27.8399 57.36 29.9999 57.36C32.1599 57.36 34.0199 55.98 34.7999 54.12H25.0199ZM51.7199 44.94H8.2799C6.4199 44.94 5.0399 46.32 5.0399 48.18C5.0399 49.86 6.4199 51.42 8.2799 51.42H51.7199C53.3999 51.42 54.9599 49.86 54.9599 48.18C54.9599 46.38 53.3999 44.94 51.7199 44.94Z" fill="#333E50"/>
<path d="M26.28 2.64C24.6 2.64 24.6 0 26.28 0H33.54C35.4 0 35.4 2.64 33.54 2.64H26.28Z" fill="#333E50"/>
</svg>
