<svg width="60" height="60" viewBox="0 0 60 60" fill="none" xmlns="http://www.w3.org/2000/svg">
<g clip-path="url(#clip0)">
<path d="M4.61987 26.22L8.69987 30.6L6.41987 36.78L12.7199 39.18L13.6199 45.6L20.9399 45.18L24.1199 51.06L30.2999 47.16L35.8199 50.64L39.4199 45.12L45.5999 46.02L46.9799 39.42L53.3999 37.02L51.1199 30.72L55.9199 25.74L50.9999 21.12L53.5199 14.52L46.4399 12.42L46.1399 6.11998L39.8399 6.89998L35.5199 0.599976C35.5199 0.599976 31.3199 4.07998 30.8999 4.19998C30.4799 4.31998 24.2999 1.49998 24.2999 1.49998L20.5799 7.01998L13.9799 5.93998L13.1999 13.02L6.47987 15.3L9.65987 22.02L4.61987 26.22Z" fill="#95CE5A"/>
<path d="M1.19992 51.96L11.2199 50.16L13.0199 59.22C13.0799 59.64 13.3799 59.94 13.7999 60C13.8599 60 13.9199 60 13.9799 60C14.3399 60 14.6399 59.82 14.8199 59.58L21.8399 49.08L23.3399 51.54C23.4599 51.78 23.6999 51.96 23.9999 52.02C24.0599 52.02 24.1799 52.02 24.2399 52.02C24.4199 52.02 24.5999 51.96 24.7799 51.84L29.9999 48.36L35.2799 51.84C35.7599 52.14 36.3599 52.02 36.6599 51.54C36.6599 51.54 36.6599 51.54 36.6599 51.48L38.1599 49.02L45.1799 59.52C45.3599 59.82 45.6599 59.94 46.0199 59.94C46.0799 59.94 46.1399 59.94 46.1999 59.94C46.6199 59.88 46.9199 59.58 46.9799 59.16L48.7799 50.04L58.9199 51C59.4599 51.06 59.9399 50.64 59.9999 50.1C59.9999 49.86 59.9399 49.62 59.8199 49.44L52.4999 38.46L53.7599 38.04C54.2999 37.86 54.5999 37.32 54.4199 36.78V36.72L52.1999 30.96L56.7599 26.7C57.1799 26.34 57.1799 25.68 56.8199 25.26L56.7599 25.2L52.1999 21L54.4199 15.24C54.5999 14.7 54.3599 14.16 53.8799 13.92H53.8199L47.8199 12.06L47.2799 5.87998C47.2799 5.57998 47.0999 5.33998 46.9199 5.15998C46.6799 4.97998 46.4399 4.91998 46.1399 4.97998L39.8399 5.81998L36.6599 0.479979C36.3599 -2.13124e-05 35.7599 -0.120021 35.2799 0.119979C35.2799 0.119979 35.2799 0.119979 35.2199 0.119979L29.9999 3.59998L24.7199 0.119979C24.2399 -0.180021 23.6399 -0.0600213 23.3399 0.419979C23.3399 0.419979 23.3399 0.419979 23.3399 0.479979L20.1599 5.81998L13.8599 4.97998C13.3199 4.91998 12.7799 5.27998 12.7199 5.81998V5.87998L12.1799 12.06L6.17992 13.92C5.63992 14.1 5.33992 14.64 5.51992 15.18V15.24L7.79992 21L3.23992 25.26C2.81992 25.62 2.81992 26.28 3.17992 26.7L3.23992 26.76L7.79992 31.02L5.57992 36.78C5.39992 37.32 5.63992 37.86 6.11992 38.1H6.17992L7.49992 38.52L0.11992 50.52C-0.18008 51 -8.03731e-05 51.6 0.41992 51.9C0.65992 51.96 0.95992 52.02 1.19992 51.96ZM56.9999 48.84L48.0599 48C47.5799 47.94 47.0999 48.3 46.9799 48.78L45.4799 56.4L39.2999 47.16L39.8999 46.2L46.1399 47.04C46.6799 47.1 47.2199 46.74 47.2799 46.2V46.14L47.8199 39.96L50.5799 39.12L56.9999 48.84ZM5.39992 25.98L9.65992 22.02C9.95992 21.72 10.0799 21.3 9.89992 20.94L7.79992 15.54L13.4399 13.8C13.7999 13.68 14.0999 13.32 14.1599 12.96L14.6399 7.19998L20.5199 8.03998C20.9399 8.09998 21.2999 7.91998 21.5399 7.55998L24.5399 2.51998L29.4599 5.75998C29.8199 5.99998 30.2399 5.99998 30.5399 5.75998L35.4599 2.39998L38.4599 7.43998C38.6399 7.79998 39.0599 7.97998 39.4799 7.91998L45.3599 7.07998L45.8399 12.84C45.8999 13.26 46.1399 13.56 46.5599 13.68L52.1999 15.42L50.0999 20.82C49.9799 21.18 50.0399 21.66 50.3399 21.9L54.5999 25.86L50.3399 30C50.0399 30.3 49.9199 30.72 50.0999 31.08L52.1999 36.48L46.5599 38.22C46.1999 38.34 45.8999 38.7 45.8399 39.06L45.3599 44.82L39.4799 44.04C39.0599 43.98 38.6999 44.16 38.4599 44.52L35.4599 49.56L30.5399 46.32C30.1799 46.08 29.7599 46.08 29.4599 46.32L24.5399 49.56L21.5399 44.52C21.3599 44.22 21.0599 44.04 20.6999 44.04C20.6399 44.04 20.5799 44.04 20.5799 44.04L14.6999 44.88L14.2199 39.12C14.1599 38.7 13.9199 38.4 13.4999 38.28L7.79992 36.48L9.89992 31.08C10.0199 30.72 9.95992 30.24 9.65992 30L5.39992 25.98ZM9.47992 39.12L12.1799 39.96L12.7199 46.14C12.7199 46.44 12.8999 46.68 13.0799 46.86C13.3199 47.04 13.5599 47.1 13.8599 47.04L20.0999 46.2L20.6999 47.16L14.5199 56.46L13.0199 48.84C12.8999 48.3 12.4199 47.94 11.8799 48.06L2.99992 49.62L9.47992 39.12Z" fill="#333E50"/>
<path d="M42.2399 34.74H17.9399C16.6799 34.74 15.6599 33.72 15.6599 32.46V19.8C15.6599 18.54 16.6799 17.52 17.9399 17.52H42.2399C43.4999 17.52 44.5199 18.54 44.5199 19.8V32.4C44.5799 33.72 43.5599 34.74 42.2399 34.74Z" fill="white"/>
<path d="M44.34 21.84H15.72V24.54H44.34V21.84Z" fill="#C3E2FC"/>
<path d="M27.06 30.36H20.1C19.62 30.36 19.2 30.78 19.2 31.26C19.2 31.74 19.62 32.16 20.1 32.16H27.06C27.54 32.16 27.96 31.74 27.96 31.26C27.96 30.78 27.54 30.36 27.06 30.36Z" fill="#333E50"/>
<path d="M42.48 16.74H17.52C15.84 16.74 14.52 18.12 14.52 19.74V33.06C14.52 34.74 15.9 36.06 17.52 36.06H29.4V36H42.42C44.1 36 45.42 34.62 45.42 33L45.48 23.04V19.74C45.48 18.06 44.16 16.74 42.48 16.74ZM43.68 25.38V33C43.68 33.72 43.14 34.26 42.42 34.26H17.52C16.8 34.26 16.26 33.72 16.26 33V25.38H43.68ZM43.68 22.26V23.64H16.26V22.26H43.68ZM43.74 19.74V20.52H16.26V19.74C16.26 19.02 16.8 18.48 17.52 18.48H42.48C43.2 18.48 43.74 19.02 43.74 19.74Z" fill="#333E50"/>
<path d="M37.74 31.5H40.02C40.56 31.5 40.98 31.02 40.98 30.54V29.4C40.98 28.86 40.5 28.44 40.02 28.44H37.74C37.2 28.44 36.78 28.92 36.78 29.4V30.48C36.72 31.02 37.2 31.5 37.74 31.5Z" fill="#95CE5A"/>
<path d="M40.02 27.54H37.74C36.78 27.54 36 28.32 36 29.28V30.36C36 31.32 36.78 32.1 37.74 32.1H40.02C40.98 32.1 41.76 31.32 41.76 30.36V29.28C41.76 28.38 40.92 27.54 40.02 27.54ZM40.32 29.4V30.48C40.32 30.66 40.2 30.78 40.02 30.78H37.74C37.56 30.78 37.44 30.66 37.44 30.48V29.4C37.44 29.22 37.56 29.1 37.74 29.1H40.02C40.2 29.1 40.32 29.22 40.32 29.4Z" fill="#333E50"/>
<path d="M23.7 27.42H20.1C19.62 27.42 19.2 27.84 19.2 28.32C19.2 28.8 19.62 29.22 20.1 29.22H23.7C24.18 29.22 24.6 28.8 24.6 28.32C24.6 27.84 24.24 27.42 23.7 27.42Z" fill="#333E50"/>
</g>
<defs>
<clipPath id="clip0">
<rect width="60" height="60" fill="white"/>
</clipPath>
</defs>
</svg>
