<svg width="123" height="100" fill="none" xmlns="http://www.w3.org/2000/svg"><path d="M116.107 21.91A5.484 5.484 0 01110.6 16.4c0-.367 0-.734.122-1.101h-9.302v.367a5.485 5.485 0 01-5.508 5.508 5.074 5.074 0 01-1.959-.367v6.242c.367.857.612 1.836.612 2.938 0 3.06-1.59 5.508-3.672 5.508-2.08 0-3.672-2.448-3.672-5.508 0-.735.123-1.347.245-1.959H77.185c0 .245.122.612.122.857a5.485 5.485 0 01-5.508 5.508c-.49 0-.98-.122-1.346-.245v12.363h8.2a4.227 4.227 0 01-.612-2.203 4.388 4.388 0 014.407-4.407 4.388 4.388 0 014.406 4.407c0 .856-.245 1.59-.612 2.203h11.016v-.735h20.318V21.665c-.489.122-.979.245-1.469.245zm-10.281 17.38a4.388 4.388 0 01-4.406-4.406 4.388 4.388 0 014.406-4.407 4.388 4.388 0 014.406 4.407 4.388 4.388 0 01-4.406 4.406z" fill="#95CE5A"/><path d="M27.001 28.397s-8.2 4.65-8.446 11.383c-.611 12.117 8.446 16.034 8.446 16.034l-5.875-.245-6.61-8.078-1.713-11.873 4.039-8.813L27 28.397zM9.743 61.69l11.995 11.26 2.325-6.243 3.795-.367 1.59 6.487 12.118-10.526-7.588-3.917-11.506-.49-12.73 3.795z" fill="#C3E2FC"/><path d="M22.472 59.975l.98 4.896L21.37 85.19l10.159-.367-4.04-20.074 2.204-4.529-3.672-.979-3.55.734z" fill="#95CE5A"/><path d="M115.74 71.114v2.448c0 1.101-.979 2.08-2.081 2.08h-12.484c-1.102 0-2.081-.979-2.081-2.08v-2.448h16.646z" fill="#C3E2FC"/><path d="M120.759 44.92h-1.714V14.933c0-.98-.734-1.714-1.714-1.714H94.197c-.978 0-1.713.735-1.713 1.714V26.56H70.82c-.98 0-1.714.734-1.714 1.713V44.92h-1.713c-.98 0-1.714.735-1.714 1.714v38.31c0 .98.734 1.715 1.713 1.715h53.367c.979 0 1.713-.735 1.713-1.714V46.634c0-.98-.734-1.714-1.713-1.714zm-4.896-28.274v3.305a3.291 3.291 0 01-3.305-3.305h3.305zm-20.074 0h3.305a3.291 3.291 0 01-3.305 3.305v-3.305zm6.732 0h6.61a6.582 6.582 0 006.609 6.61V44.92H95.79V23.256c3.671 0 6.731-2.938 6.731-6.61zM92.484 29.988v3.305a3.291 3.291 0 01-3.304-3.305h3.304zm-19.95 0h3.304a3.291 3.291 0 01-3.305 3.305v-3.305zm0 6.61a6.582 6.582 0 006.609-6.61h6.61a6.582 6.582 0 006.609 6.61v8.322h-3.305a6.582 6.582 0 00-6.61-6.61 6.582 6.582 0 00-6.609 6.61h-3.305v-8.323zm13.34 8.322h-6.609a3.291 3.291 0 013.305-3.304 3.291 3.291 0 013.305 3.304zm33.293 38.311h-50.06V48.225h50.183l-.123 35.006z" fill="#333E50"/><path d="M114.149 59.975h-13.341c-.98 0-1.714.735-1.714 1.714v10.037c0 .979.734 1.713 1.714 1.713h13.341c.979 0 1.714-.734 1.714-1.713V61.689c0-.98-.857-1.714-1.714-1.714zm-1.714 9.915h-10.036v-6.61h10.036v6.61zM105.826 41.616a6.582 6.582 0 006.61-6.61 6.582 6.582 0 00-6.61-6.61 6.582 6.582 0 00-6.61 6.61c-.122 3.672 2.938 6.61 6.61 6.61zm0-10.037a3.291 3.291 0 013.305 3.305 3.291 3.291 0 01-3.305 3.304 3.291 3.291 0 01-3.305-3.304 3.291 3.291 0 013.305-3.305zM24.309 90.82v1.591c0 .49.367.857.856.857h1.592c.49 0 .856-.367.856-.857v-1.59a.837.837 0 00-.856-.858h-1.592a.837.837 0 00-.856.857zM25.165 96.573h1.592c.49 0 .856.367.856.857v1.59c0 .49-.367.858-.856.858h-1.592a.837.837 0 01-.856-.857V97.43c0-.49.367-.857.856-.857zM31.897 96.573h1.591c.49 0 .857.367.857.857v1.59c0 .49-.367.858-.857.858h-1.59a.837.837 0 01-.858-.857V97.43c0-.49.367-.857.857-.857zM38.507 96.573h1.59c.49 0 .858.367.858.857v1.59c0 .49-.367.858-.857.858h-1.591a.837.837 0 01-.857-.857V97.43c0-.49.367-.857.857-.857zM45.239 96.573h1.468c.49 0 .98.367.98.98v1.468c0 .49-.368.979-.98.979H45.24c-.49 0-.98-.367-.98-.98v-1.468c0-.49.49-.98.98-.98zM65.067 96.573h1.469c.49 0 .98.367.98.98v1.468c0 .49-.368.979-.98.979h-1.469c-.49 0-.98-.367-.98-.98v-1.468c.123-.49.49-.98.98-.98zM71.799 96.573h1.469c.49 0 .979.367.979.98v1.468c0 .49-.367.979-.98.979H71.8c-.49 0-.98-.367-.98-.98v-1.468c0-.49.368-.98.98-.98zM78.409 96.573h1.469c.49 0 .979.367.979.98v1.468c0 .49-.367.979-.98.979H78.41c-.49 0-.98-.367-.98-.98v-1.468c0-.49.49-.98.98-.98zM85.14 96.573h1.47c.489 0 .979.367.979.98v1.468c0 .49-.368.979-.98.979h-1.468c-.49 0-.98-.367-.98-.98v-1.468c0-.49.368-.98.98-.98zM91.75 96.573h1.469c.49 0 .98.367.98.98v1.468c0 .49-.368.979-.98.979H91.75c-.49 0-.979-.367-.979-.98v-1.468c0-.49.49-.98.98-.98zM98.36 96.573h1.468c.49 0 .98.367.98.98v1.468c0 .49-.368.979-.98.979H98.36c-.49 0-.98-.367-.98-.98v-1.468c.123-.49.49-.98.98-.98zM105.092 89.963h1.468c.49 0 .979.368.979.98v1.468c0 .49-.367.98-.979.98h-1.468c-.49 0-.98-.368-.98-.98v-1.469c0-.611.49-.979.98-.979zM51.726 96.573h1.469c.49 0 .979.367.979.98v1.468c0 .49-.367.979-.98.979h-1.468c-.49 0-.98-.367-.98-.98v-1.468c.123-.49.49-.98.98-.98zM58.458 96.573h1.468c.49 0 .98.367.98.98v1.468c0 .49-.368.979-.98.979h-1.468c-.49 0-.98-.367-.98-.98v-1.468c0-.49.49-.98.98-.98zM105.092 96.573h1.468c.49 0 .979.367.979.98v1.468c0 .49-.367.979-.979.979h-1.468c-.49 0-.98-.367-.98-.98v-1.468c0-.49.49-.98.98-.98zM25.165 0h1.592c.49 0 .856.367.856.857v1.591c0 .49-.367.857-.856.857h-1.592a.837.837 0 01-.856-.857V.857c0-.49.367-.857.856-.857zM25.165 6.732h1.592c.49 0 .856.367.856.857v1.59c0 .49-.367.858-.856.858h-1.592a.837.837 0 01-.856-.857V7.589c0-.49.367-.857.856-.857zM31.897 0h1.591c.49 0 .857.367.857.857v1.591c0 .49-.367.857-.857.857h-1.59a.837.837 0 01-.858-.857V.857c0-.49.367-.857.857-.857zM38.507 0h1.59c.49 0 .858.367.858.857v1.591c0 .49-.367.857-.857.857h-1.591a.837.837 0 01-.857-.857V.857c0-.49.367-.857.857-.857zM45.239 0h1.59c.49 0 .858.367.858.857v1.591c0 .49-.368.857-.857.857h-1.591a.837.837 0 01-.857-.857V.857c-.123-.49.367-.857.857-.857zM51.726 0h1.591c.49 0 .857.367.857.857v1.591c0 .49-.367.857-.857.857h-1.591a.837.837 0 01-.857-.857V.857c0-.49.367-.857.857-.857zM58.335 0h1.591c.49 0 .857.367.857.857v1.591c0 .49-.367.857-.857.857h-1.59a.837.837 0 01-.858-.857V.857c0-.49.367-.857.857-.857zM65.067 0h1.591c.49 0 .857.367.857.857v1.591c0 .49-.367.857-.857.857h-1.59a.837.837 0 01-.858-.857V.857c0-.49.368-.857.857-.857zM71.677 0h1.59c.49 0 .858.367.858.857v1.591c0 .49-.368.857-.857.857h-1.591a.837.837 0 01-.857-.857V.857c0-.49.367-.857.857-.857zM78.409 0h1.59c.49 0 .858.367.858.857v1.591c0 .49-.368.857-.857.857h-1.591a.837.837 0 01-.857-.857V.857c-.123-.49.367-.857.856-.857zM85.018 0h1.591c.49 0 .857.367.857.857v1.591c0 .49-.367.857-.857.857h-1.59a.837.837 0 01-.858-.857V.857c0-.49.368-.857.857-.857zM91.75 0h1.591c.49 0 .857.367.857.857v1.591c0 .49-.367.857-.857.857h-1.59a.837.837 0 01-.858-.857V.857C90.771.367 91.26 0 91.75 0zM98.36 0h1.59c.49 0 .857.367.857.857v1.591c0 .49-.367.857-.856.857H98.36a.837.837 0 01-.857-.857V.857c0-.49.367-.857.856-.857zM104.969 6.61h1.591c.49 0 .857.367.857.856v1.592c0 .49-.367.856-.857.856h-1.591a.837.837 0 01-.857-.856V7.466c0-.49.367-.856.857-.856zM104.969 0h1.591c.49 0 .857.367.857.857v1.591c0 .49-.367.857-.857.857h-1.591a.837.837 0 01-.857-.857V.857c0-.49.367-.857.857-.857zM25.165 12.974h1.592c.49 0 .856.367.856.857v1.591c0 .49-.367.857-.856.857h-1.592a.837.837 0 01-.856-.857v-1.591c0-.367.367-.857.856-.857zM51.358 72.827c0-4.773-2.937-9.302-8.323-12.484-3.182-1.959-7.099-3.305-11.383-4.04l-.49-.122.368-.245c2.325-1.958 4.039-4.529 4.773-5.875 1.102-1.958 2.204-4.161 3.06-6.365v-.122h.123c1.713-.857 3.06-3.427 3.06-4.896 0-1.713-.367-2.693-1.347-3.55h-.122v-.122c0-2.938-.367-6.854-1.959-9.792-1.713-3.305-5.14-5.018-9.547-5.018h-7.833c-4.407 0-7.834 1.836-9.547 5.018-1.591 2.938-1.836 6.61-1.959 9.792v.123h-.122c-1.224.856-1.346 2.203-1.346 3.671.244 1.347 1.346 4.284 3.06 4.774h.122v.122c.857 2.326 1.836 4.53 3.06 6.488 1.346 2.08 2.815 4.161 4.773 5.752l.368.245-.49.123c-4.162.734-8.2 2.08-11.383 4.039-5.263 3.182-8.2 7.588-8.2 12.362a25.023 25.023 0 010 4.284c-.123 2.08-.123 3.917.244 5.753.367 1.468 1.346 2.692 2.57 3.427 1.224.734 2.816.98 5.019.98 10.404.121 21.42.121 35.373 0 2.203 0 3.794-.246 5.018-.98 1.224-.734 2.204-1.836 2.57-3.305.613-1.836.49-4.04.368-6.61h.245-.245c.245-1.101.122-2.203.122-3.427zM17.944 48.47c-1.47-2.448-2.693-5.508-3.55-8.446v-.122l.122-.122c.367-.368.612-.735.612-1.224 0-3.672.612-5.386.612-5.508.49-.98 1.47-1.836 2.815-2.326a4.841 4.841 0 012.57-.245h.123c3.183 2.204 6.61 2.204 9.792 0h.123s1.223-.122 2.203.245c.856.367 1.958.98 2.57 2.326 0 .122.612 1.713.612 5.508 0 .49.245.979.612 1.224l.123.122v.122c-.857 2.816-2.081 5.876-3.55 8.324-1.714 2.692-4.406 6.732-7.834 6.732-3.916-.49-6.242-3.795-7.956-6.61zm9.791 13.464v1.224s-1.468.979-1.59 1.101h-.613l-1.591-1.101v-1.224c0-.245 0-.49.122-.612h.123c.734-.367 1.101-.367 1.713-.367.49 0 .98.122 1.714.367l.122.122c-.122 0 0 .123 0 .49zm-5.14 4.406l-3.06 17.38H12.68v-3.916c0-.49-.245-.857-.49-1.224-.367-.367-.856-.49-1.223-.49-.857.123-1.47.857-1.47 1.592v3.916H8.275c-1.958 0-2.938-.244-3.427-.49-.612-.366-.857-.611-.98-1.468-.367-1.102-.244-3.06-.244-5.508v-.122-3.427c-.123-3.672 2.08-6.855 6.61-9.67 1.1-.612 2.202-1.224 3.182-1.591h.122l5.018 5.14c.368.368.857.49 1.347.49.49-.122.979-.367 1.224-.734l.49-.735.244.123c.245.122.49.245.612.49l.245.244h-.122zm5.997 17.503H22.84v-.245l1.47-8.078.122-.612c.367-2.08.734-4.406 1.101-6.487h.49l2.693 15.422h-.123zm19.34-2.08c-.246.734-.49 1.101-1.102 1.346-.49.245-1.47.612-3.427.612H42.3v-3.917c0-.49-.245-.857-.49-1.224-.367-.367-.856-.49-1.224-.49-.857.123-1.469.857-1.469 1.592v3.916h-6.854l-3.182-17.503.122-.122c.367-.245.612-.367.98-.612l.244-.122.49.856c.245.368.734.735 1.224.735.49.122 1.101-.123 1.346-.49l4.896-5.018h.123c1.101.49 2.08.98 3.06 1.469 4.406 2.692 6.731 5.997 6.731 9.67V75.886c-.122 2.816 0 4.774-.367 5.876z" fill="#333E50"/></svg>