<svg width="143" height="100" fill="none" xmlns="http://www.w3.org/2000/svg"><path d="M27.473 28.397s-8.2 4.65-8.445 11.383c-.612 12.117 8.445 16.034 8.445 16.034l-5.875-.245-6.61-8.078-1.713-11.873 4.04-8.813 10.158 1.592zM10.092 60.343l9.425 9.67-2.448 15.054 3.182-.367 4.284-17.993 3.795-.367 6.12-7.956-11.506-.49-12.852 2.449z" fill="#C3E2FC"/><path d="M22.944 59.976l.98 4.896-2.081 20.318 10.159-.367-4.04-20.074 2.204-4.528-3.672-.98-3.55.735z" fill="#95CE5A"/><path d="M24.78 90.82v1.591c0 .49.368.857.857.857h1.591c.49 0 .857-.367.857-.857V90.82a.837.837 0 00-.857-.857h-1.59a.837.837 0 00-.858.857zM25.637 96.573h1.591c.49 0 .857.367.857.857v1.59c0 .49-.367.858-.857.858h-1.59a.837.837 0 01-.858-.857V97.43c0-.49.368-.857.857-.857zM32.369 96.573h1.591c.49 0 .857.367.857.857v1.59c0 .49-.367.858-.857.858H32.37a.837.837 0 01-.857-.857V97.43c0-.49.367-.857.857-.857zM38.978 96.573h1.592c.49 0 .856.367.856.857v1.59c0 .49-.367.858-.856.858h-1.592a.837.837 0 01-.856-.857V97.43c0-.49.367-.857.856-.857zM45.71 96.573h1.47c.489 0 .979.367.979.98v1.468c0 .49-.368.979-.98.979h-1.468c-.49 0-.98-.367-.98-.98v-1.468c0-.49.49-.98.98-.98zM65.54 96.573h1.468c.49 0 .98.367.98.98v1.468c0 .49-.368.979-.98.979h-1.469c-.49 0-.979-.367-.979-.98v-1.468c.123-.49.49-.98.98-.98zM72.271 96.573h1.469c.49 0 .98.367.98.98v1.468c0 .49-.368.979-.98.979h-1.469c-.49 0-.979-.367-.979-.98v-1.468c0-.49.367-.98.98-.98zM78.881 96.573h1.469c.49 0 .979.367.979.98v1.468c0 .49-.367.979-.98.979h-1.468c-.49 0-.98-.367-.98-.98v-1.468c0-.49.49-.98.98-.98zM85.613 96.573h1.469c.49 0 .979.367.979.98v1.468c0 .49-.368.979-.98.979h-1.468c-.49 0-.98-.367-.98-.98v-1.468c0-.49.368-.98.98-.98zM92.222 96.573h1.469c.49 0 .98.367.98.98v1.468c0 .49-.368.979-.98.979h-1.469c-.49 0-.98-.367-.98-.98v-1.468c0-.49.49-.98.98-.98zM98.832 96.573h1.469c.489 0 .979.367.979.98v1.468c0 .49-.367.979-.979.979h-1.47c-.489 0-.978-.367-.978-.98v-1.468c.122-.49.49-.98.979-.98zM105.564 89.963h1.468c.49 0 .98.367.98.98v1.468c0 .49-.368.98-.98.98h-1.468c-.49 0-.98-.368-.98-.98v-1.469c0-.612.49-.979.98-.979zM52.198 96.573h1.469c.49 0 .979.367.979.98v1.468c0 .49-.367.979-.98.979h-1.468c-.49 0-.98-.367-.98-.98v-1.468c.123-.49.49-.98.98-.98zM58.93 96.573h1.468c.49 0 .98.367.98.98v1.468c0 .49-.368.979-.98.979H58.93c-.49 0-.98-.367-.98-.98v-1.468c0-.49.49-.98.98-.98zM105.564 96.573h1.468c.49 0 .98.367.98.98v1.468c0 .49-.368.979-.98.979h-1.468c-.49 0-.98-.367-.98-.98v-1.468c0-.49.49-.98.98-.98zM25.637 0h1.591c.49 0 .857.367.857.857v1.591c0 .49-.367.857-.857.857h-1.59a.837.837 0 01-.858-.857V.857c0-.49.368-.857.857-.857zM25.637 6.732h1.591c.49 0 .857.367.857.857V9.18c0 .49-.367.857-.857.857h-1.59a.837.837 0 01-.858-.857V7.589c0-.49.368-.857.857-.857zM32.369 0h1.591c.49 0 .857.367.857.857v1.591c0 .49-.367.857-.857.857H32.37a.837.837 0 01-.857-.857V.857c0-.49.367-.857.857-.857zM38.978 0h1.592c.49 0 .856.367.856.857v1.591c0 .49-.367.857-.856.857h-1.592a.837.837 0 01-.856-.857V.857c0-.49.367-.857.856-.857zM45.71 0h1.592c.49 0 .856.367.856.857v1.591c0 .49-.367.857-.856.857H45.71a.837.837 0 01-.857-.857V.857C44.73.367 45.22 0 45.71 0zM52.198 0h1.591c.49 0 .857.367.857.857v1.591c0 .49-.367.857-.857.857h-1.591a.837.837 0 01-.857-.857V.857c0-.49.367-.857.857-.857zM58.807 0h1.591c.49 0 .857.367.857.857v1.591c0 .49-.367.857-.857.857h-1.59a.837.837 0 01-.858-.857V.857c0-.49.368-.857.857-.857zM65.54 0h1.59c.49 0 .857.367.857.857v1.591c0 .49-.367.857-.856.857h-1.592a.837.837 0 01-.856-.857V.857c0-.49.367-.857.856-.857zM72.149 0h1.591c.49 0 .857.367.857.857v1.591c0 .49-.367.857-.857.857h-1.591a.837.837 0 01-.857-.857V.857c0-.49.367-.857.857-.857zM78.88 0h1.592c.49 0 .857.367.857.857v1.591c0 .49-.367.857-.857.857H78.88a.837.837 0 01-.857-.857V.857C77.9.367 78.39 0 78.88 0zM85.49 0h1.592c.49 0 .856.367.856.857v1.591c0 .49-.367.857-.856.857H85.49a.837.837 0 01-.856-.857V.857c0-.49.367-.857.856-.857zM92.222 0h1.592c.49 0 .857.367.857.857v1.591c0 .49-.368.857-.857.857h-1.591a.837.837 0 01-.857-.857V.857c-.123-.49.367-.857.856-.857zM98.832 0h1.591c.49 0 .857.367.857.857v1.591c0 .49-.367.857-.857.857h-1.591a.837.837 0 01-.857-.857V.857c0-.49.367-.857.857-.857zM104.952 5.386h2.448c.245 0 .49.244.49.49v2.447c0 .245-.245.49-.49.49h-2.448c-.245 0-.49-.245-.49-.49V5.875c.123-.245.245-.49.49-.49zM105.441 0h1.591c.49 0 .857.367.857.857v1.591c0 .49-.367.857-.857.857h-1.591a.837.837 0 01-.857-.857V.857c0-.49.368-.857.857-.857zM25.637 12.974h1.591c.49 0 .857.367.857.857v1.591c0 .49-.367.857-.857.857h-1.59a.837.837 0 01-.858-.857v-1.591c0-.367.368-.857.857-.857zM51.83 72.827c0-4.773-2.937-9.302-8.323-12.484-3.182-1.959-7.099-3.305-11.383-4.04l-.49-.122.368-.245c2.325-1.958 4.04-4.529 4.773-5.875 1.102-1.958 2.204-4.161 3.06-6.365v-.122h.123c1.713-.857 3.06-3.427 3.06-4.896 0-1.713-.367-2.693-1.347-3.55h-.122v-.122c0-2.938-.367-6.854-1.958-9.792-1.714-3.305-5.141-5.018-9.547-5.018H22.21c-4.406 0-7.834 1.836-9.547 5.018-1.591 2.938-1.836 6.61-1.959 9.792v.123h-.122c-1.224.856-1.346 2.203-1.346 3.672.244 1.346 1.346 4.283 3.06 4.773h.122v.122c.857 2.326 1.836 4.53 3.06 6.488 1.346 2.08 2.815 4.161 4.774 5.752l.367.245-.49.123c-4.161.734-8.2 2.08-11.383 4.039-5.263 3.182-8.2 7.588-8.2 12.362a25.024 25.024 0 010 4.284c-.123 2.08-.123 3.917.244 5.753.367 1.468 1.347 2.692 2.57 3.427 1.225.734 2.816.98 5.019.98 10.404.121 21.42.121 35.373 0 2.203 0 3.795-.246 5.019-.98 1.224-.734 2.203-1.836 2.57-3.305.612-1.836.49-4.04.367-6.61h.245-.245c.245-1.101.123-2.203.123-3.427zM18.417 48.47c-1.47-2.448-2.693-5.508-3.55-8.446v-.122l.123-.122c.367-.368.611-.735.611-1.224 0-3.672.612-5.386.612-5.508.49-.98 1.47-1.836 2.816-2.326a4.842 4.842 0 012.57-.245h.122c3.183 2.204 6.61 2.204 9.792 0h.123s1.224-.122 2.203.245c.857.367 1.958.98 2.57 2.326 0 .122.612 1.713.612 5.508 0 .49.245.979.612 1.224l.123.122v.122c-.857 2.816-2.081 5.876-3.55 8.324-1.713 2.692-4.406 6.732-7.833 6.732-3.917-.49-6.243-3.795-7.956-6.61zm9.792 13.464v1.224s-1.47.979-1.592 1.101h-.612l-1.59-1.101v-1.224c0-.245 0-.49.122-.612h.122c.734-.367 1.102-.367 1.714-.367.49 0 .979.122 1.713.367l.123.122c-.123 0 0 .123 0 .49zm-5.141 4.406l-3.06 17.38h-6.855v-3.916c0-.49-.244-.857-.49-1.224-.366-.367-.856-.49-1.223-.49-.857.123-1.469.857-1.469 1.592v3.916H8.746c-1.958 0-2.937-.244-3.427-.49-.612-.366-.857-.611-.98-1.468-.366-1.102-.244-3.06-.244-5.508v-.122-3.427c-.122-3.672 2.08-6.855 6.61-9.67 1.101-.612 2.203-1.224 3.182-1.591h.122l5.019 5.14c.367.368.856.49 1.346.49.49-.122.98-.367 1.224-.734l.49-.735.244.123c.245.122.49.245.612.49l.245.244h-.122zm5.997 17.503h-5.752v-.245l1.468-8.078.123-.612c.367-2.08.734-4.406 1.101-6.487h.49l2.693 15.422h-.123zm19.34-2.08c-.245.734-.49 1.101-1.102 1.346-.49.245-1.469.612-3.427.612h-1.102v-3.917c0-.49-.245-.857-.49-1.224-.367-.367-.856-.49-1.224-.49-.856.123-1.468.857-1.468 1.592v3.916h-6.855l-3.182-17.503.122-.122c.368-.245.612-.367.98-.612l.244-.122.49.856c.245.368.734.735 1.224.735.49.122 1.102-.123 1.346-.49l4.896-5.018h.123c1.101.49 2.08.98 3.06 1.469 4.406 2.692 6.732 5.997 6.732 9.67V75.886c-.123 2.816 0 4.774-.368 5.876z" fill="#333E50"/><path d="M140.325 80.171H71.904v5.386h68.421V80.17zM106.952 12.645l-31.827 20.66 1.4 2.156 31.826-20.66-1.399-2.156zM78.023 78.58v-5.14l1.836-.245V48.47l-1.836-1.224v-6.732h5.63V78.58h-5.63zM100.178 78.58v-5.14l1.836-.245V48.47l-1.836-1.224v-6.732h5.631V78.58h-5.631zM122.333 78.58v-5.14l1.958-.245V48.47l-1.958-1.224v-6.732h5.385V78.58h-5.385z" fill="#C3E2FC"/><path d="M137.632 77.601h-1.591V76.01c0-2.203-1.347-3.795-3.183-4.407V48.837c1.959-.612 3.183-2.57 3.183-4.406V42.84h1.591c.979 0 1.591-.612 1.591-1.592v-4.65h1.591c.612 0 1.347-.368 1.592-1.347.367-.98 0-1.346-.612-1.959L106.91 11.138c-.612-.367-1.347-.367-1.591 0l-6.977 4.652s-1.591 1.346-.612 2.57c.98.979 2.57 0 2.57 0l5.753-3.794 29.376 18.726H76.31S93.936 22.154 94.425 21.91c.123 0 1.591-.979.612-2.203-.612-1.346-2.57-.367-2.57-.367L69.945 33.537c-.612.367-.612.98-.612 1.592.368.979.98 1.346 1.591 1.346h1.592v4.651c0 .98.612 1.591 1.59 1.591h1.47v1.591c0 2.204 1.346 3.795 3.182 4.407V71.48c-1.958.612-3.182 2.57-3.182 4.406v1.592h-1.714c-2.57 0-4.651 2.203-4.651 4.65v3.305c0 .98.612 1.592 1.591 1.592h43.085s2.57 0 2.57-1.591c0-1.592-2.57-1.592-2.57-1.592H72.516v-1.59c0-.98.612-1.592 1.59-1.592h63.404c.979 0 1.591.612 1.591 1.591v1.591h-12.485s-2.57 0-2.57 1.591c0 1.592 2.57 1.592 2.57 1.592h13.831c.979 0 1.591-.612 1.591-1.591v-3.183c.245-2.448-1.958-4.651-4.406-4.651zm-4.774-33.17c0 .979-.612 1.591-1.591 1.591h-6.365c-.979 0-1.591-.612-1.591-1.591V42.84h9.547v1.59zm-3.182 4.773v22.277h-3.182V49.204h3.182zm-53.978-9.67v-3.181h60.22v3.182h-60.22zm26.928 6.366c-.979 0-1.591-.612-1.591-1.592v-1.59h9.547v1.59c0 .98-.612 1.592-1.591 1.592h-6.365zm4.773 3.304v22.277h-3.182V49.204h3.182zM80.594 45.9c-.98 0-1.591-.612-1.591-1.592v-1.59h9.547v1.59c0 .98-.612 1.592-1.591 1.592h-6.365zm4.651 3.304v22.277h-3.182V49.204h3.182zm3.183 28.397H78.88V76.01c0-.98.612-1.591 1.59-1.591h6.243c.98 0 1.591.612 1.591 1.59l.123 1.592zm9.424-1.469v1.591H91.61v-1.59c0-2.204-1.346-3.795-3.182-4.407V48.837c1.958-.612 3.182-2.57 3.182-4.406V42.84h6.365v1.59c0 2.204 1.346 3.795 3.182 4.407v22.766c-1.958.612-3.305 2.326-3.305 4.53zm12.73 1.469h-9.547V76.01c0-.98.612-1.591 1.591-1.591h6.365c.979 0 1.591.612 1.591 1.59v1.592zm9.547-1.469v1.591h-6.365v-1.59c0-2.204-1.346-3.795-3.182-4.407V48.837c1.958-.612 3.182-2.57 3.182-4.406V42.84h6.365v1.59c0 2.204 1.346 3.795 3.182 4.407v22.766c-1.958.612-3.182 2.326-3.182 4.53zm12.729 1.469h-9.547V76.01c0-.98.612-1.591 1.591-1.591h6.365c.979 0 1.591.612 1.591 1.59v1.592z" fill="#333E50"/><path d="M105.808 29.988a4.407 4.407 0 100-8.814 4.407 4.407 0 000 8.814z" fill="#95CE5A"/><path d="M105.808 31.701c-3.427 0-5.997-2.937-5.997-5.997s2.937-5.998 5.997-5.998c3.428 0 5.998 2.938 5.998 5.998s-2.448 5.997-5.998 5.997zm0-9.547c-1.958 0-3.427 1.591-3.427 3.427 0 1.959 1.591 3.428 3.427 3.428a3.422 3.422 0 003.428-3.428c0-1.836-1.592-3.427-3.428-3.427z" fill="#333E50"/></svg>