<svg width="122" height="100" fill="none" xmlns="http://www.w3.org/2000/svg"><path d="M106.179 3.52H73.412c-6.19 0-11.287 4.975-11.287 11.286v36.65c0 6.311 5.097 11.287 11.287 11.287h32.645c6.311 0 11.287-5.097 11.287-11.287v-36.65c.121-6.31-4.976-11.287-11.165-11.287zM77.781 54.853c0 1.457-1.214 2.67-2.67 2.67h-3.763c-1.456 0-2.67-1.213-2.67-2.67v-3.762c0-1.456 1.214-2.67 2.67-2.67h3.763c1.456 0 2.67 1.214 2.67 2.67v3.762zm0-11.286c0 1.456-1.214 2.67-2.67 2.67h-3.763c-1.456 0-2.67-1.214-2.67-2.67v-3.762c0-1.456 1.214-2.67 2.67-2.67h3.763c1.456 0 2.67 1.213 2.67 2.67v3.762zm0-11.286c0 1.456-1.214 2.67-2.67 2.67h-3.763c-1.456 0-2.67-1.214-2.67-2.67v-3.763c0-1.456 1.214-2.67 2.67-2.67h3.763c1.456 0 2.67 1.214 2.67 2.67v3.763zm16.747 22.572c0 1.457-1.213 2.67-2.67 2.67h-3.762c-1.456 0-2.67-1.213-2.67-2.67v-3.762c0-1.456 1.214-2.67 2.67-2.67h3.762c1.457 0 2.67 1.214 2.67 2.67v3.762zm0-11.286c0 1.456-1.213 2.67-2.67 2.67h-3.762c-1.456 0-2.67-1.214-2.67-2.67v-3.762c0-1.456 1.214-2.67 2.67-2.67h3.762c1.457 0 2.67 1.213 2.67 2.67v3.762zm0-11.286c0 1.456-1.213 2.67-2.67 2.67h-3.762c-1.456 0-2.67-1.214-2.67-2.67v-3.763c0-1.456 1.214-2.67 2.67-2.67h3.762c1.457 0 2.67 1.214 2.67 2.67v3.763zm16.626 22.694c0 1.456-1.213 2.67-2.67 2.67h-3.762c-1.456 0-2.67-1.214-2.67-2.67v-3.762c0-1.457 1.214-2.67 2.67-2.67h3.762c1.457 0 2.67 1.213 2.67 2.67v3.762zm0-11.408c0 1.456-1.213 2.67-2.67 2.67h-3.762c-1.456 0-2.67-1.214-2.67-2.67v-3.762c0-1.456 1.214-2.67 2.67-2.67h3.762c1.457 0 2.67 1.213 2.67 2.67v3.762zm0-11.286c0 1.456-1.213 2.67-2.67 2.67h-3.762c-1.456 0-2.67-1.214-2.67-2.67v-3.763c0-1.456 1.214-2.67 2.67-2.67h3.762c1.457 0 2.67 1.214 2.67 2.67v3.763zm0-12.5a3.263 3.263 0 01-3.276 3.276H71.834a3.263 3.263 0 01-3.277-3.276v-5.34a3.263 3.263 0 013.277-3.277h36.044a3.263 3.263 0 013.276 3.277v5.34z" fill="#95CE5A"/><path d="M106.057 63.592H73.412c-6.675 0-12.136-5.46-12.136-12.136v-36.65a.83.83 0 01.85-.85.83.83 0 01.849.85v36.65c0 5.704 4.733 10.437 10.437 10.437h32.645c5.704 0 10.437-4.733 10.437-10.437v-36.65c0-5.704-4.733-10.437-10.437-10.437H73.412a.83.83 0 01-.85-.85.83.83 0 01.85-.85h32.645c6.675 0 12.136 5.462 12.136 12.137v36.65c0 6.675-5.461 12.136-12.136 12.136zm2.427-4.975h-3.762a3.521 3.521 0 01-3.519-3.52v-3.762a3.521 3.521 0 013.519-3.52h3.762a3.522 3.522 0 013.52 3.52v3.762c0 1.82-1.699 3.52-3.52 3.52zm-3.883-9.345c-.971 0-1.821.85-1.821 1.82v3.762c0 .971.85 1.82 1.821 1.82h3.883c.971 0 1.821-.849 1.821-1.82v-3.762c0-.97-.85-1.82-1.821-1.82h-3.883zm-12.864 9.223h-3.762a3.522 3.522 0 01-3.52-3.52v-3.761a3.522 3.522 0 013.52-3.52h3.762c1.942 0 3.52 1.7 3.52 3.52v3.762c.12 1.941-1.457 3.52-3.52 3.52zm-3.762-9.223c-.971 0-1.82.85-1.82 1.82v3.762c0 .971.849 1.82 1.82 1.82h3.762c.97 0 1.82-.849 1.82-1.82v-3.762c0-.97-.85-1.82-1.82-1.82h-3.762zM75.11 58.495h-3.763a3.522 3.522 0 01-3.519-3.52v-3.761a3.522 3.522 0 013.52-3.52h3.762c1.941 0 3.519 1.7 3.519 3.52v3.762a3.522 3.522 0 01-3.52 3.52zm-3.884-9.223c-.97 0-1.82.85-1.82 1.82v3.762c0 .971.85 1.82 1.82 1.82h3.762c.971 0 1.82-.849 1.82-1.82v-3.762c0-.97-.849-1.82-1.82-1.82h-3.762zm37.257-2.063h-3.762a3.521 3.521 0 01-3.519-3.52v-3.762a3.521 3.521 0 013.519-3.52h3.762c1.942 0 3.52 1.7 3.52 3.52v3.762a3.522 3.522 0 01-3.52 3.52zm-3.883-9.224c-.971 0-1.821.85-1.821 1.82v3.763c0 .97.85 1.82 1.821 1.82h3.883c.971 0 1.821-.85 1.821-1.82v-3.762c0-.971-.85-1.82-1.821-1.82h-3.883zM91.737 47.21h-3.762a3.522 3.522 0 01-3.52-3.52v-3.762a3.522 3.522 0 013.52-3.52h3.762c1.942 0 3.52 1.7 3.52 3.52v3.762c.12 1.942-1.457 3.52-3.52 3.52zm-3.762-9.224c-.971 0-1.82.85-1.82 1.82v3.763c0 .97.849 1.82 1.82 1.82h3.762c.97 0 1.82-.85 1.82-1.82v-3.762c0-.971-.85-1.82-1.82-1.82h-3.762zM75.11 47.21h-3.763a3.522 3.522 0 01-3.519-3.52v-3.762a3.522 3.522 0 013.52-3.52h3.762c1.941 0 3.519 1.7 3.519 3.52v3.762a3.522 3.522 0 01-3.52 3.52zm-3.884-9.224c-.97 0-1.82.85-1.82 1.82v3.763c0 .97.85 1.82 1.82 1.82h3.762c.971 0 1.82-.85 1.82-1.82v-3.762c0-.971-.849-1.82-1.82-1.82h-3.762zm37.257-2.184h-3.762a3.521 3.521 0 01-3.519-3.52V28.52A3.521 3.521 0 01104.722 25h3.762c1.942 0 3.52 1.699 3.52 3.52v3.762a3.522 3.522 0 01-3.52 3.519zm-3.883-9.223c-.971 0-1.821.85-1.821 1.82v3.762c0 .971.85 1.82 1.821 1.82h3.883c.971 0 1.821-.849 1.821-1.82v-3.762c0-.97-.85-1.82-1.821-1.82h-3.883zM91.737 35.8h-3.762a3.522 3.522 0 01-3.52-3.52V28.52A3.522 3.522 0 0187.975 25h3.762c1.942 0 3.52 1.699 3.52 3.52v3.762c.12 1.941-1.457 3.519-3.52 3.519zm-3.762-9.223c-.971 0-1.82.85-1.82 1.82v3.762c0 .971.849 1.82 1.82 1.82h3.762c.97 0 1.82-.849 1.82-1.82v-3.762c0-.97-.85-1.82-1.82-1.82h-3.762zM75.11 35.8h-3.763a3.522 3.522 0 01-3.519-3.52V28.52A3.522 3.522 0 0171.349 25h3.762c1.941 0 3.519 1.699 3.519 3.52v3.762a3.522 3.522 0 01-3.52 3.519zm-3.884-9.223c-.97 0-1.82.85-1.82 1.82v3.762c0 .971.85 1.82 1.82 1.82h3.762c.971 0 1.82-.849 1.82-1.82v-3.762c0-.97-.849-1.82-1.82-1.82h-3.762zm36.651-2.67H71.834a4.092 4.092 0 01-4.126-4.126v-5.34a4.092 4.092 0 014.126-4.127h35.922a4.092 4.092 0 014.126 4.127v5.34c.122 2.305-1.699 4.126-4.004 4.126zM71.834 12.015c-1.456 0-2.427 1.092-2.427 2.427v5.34c0 1.456 1.092 2.427 2.427 2.427h35.922c1.457 0 2.427-1.093 2.427-2.427v-5.34c0-1.457-1.092-2.427-2.427-2.427H71.834zm49.15.97a.83.83 0 01-.849-.85c0-5.703-4.733-10.436-10.437-10.436a.83.83 0 01-.85-.85.83.83 0 01.85-.849c6.675 0 12.136 5.461 12.136 12.136a.83.83 0 01-.85.85z" fill="#333E50"/><path d="M91.009 42.718c-4.976-.97-9.709 1.578-13.228 4.733-.971.85-2.185.243-2.306-.97-.364-6.675-5.583-12.258-12.258-12.864-7.767-.729-12.257 5.825-12.864 12.864-.121 1.577-2.063 1.82-2.67.364-1.941-5.34-6.31-10.559-12.62-9.588-6.069.971-9.224 7.16-9.71 12.743-.121.97-1.092 1.82-2.063 1.214-5.825-4.248-16.747-3.762-18.81 4.49-.971 3.64.606 7.767 3.762 9.709 3.64 2.184 8.616 1.82 12.621 1.092 1.092-.121 2.184.97 1.578 2.063-2.306 3.52-4.127 7.524-4.005 11.893.121 3.884 2.67 6.675 5.825 8.495 7.646 4.248 14.563-1.335 17.354-8.373.365-.971 2.428-1.578 2.67 0 .85 6.067 3.52 12.378 8.617 16.262 4.611 3.519 11.044 3.276 15.048-.85 4.733-4.733 3.763-13.592 1.82-19.296-.242-.728.122-1.213.729-1.578.728-.364 1.578-.121 1.942.729 2.791 7.767 10.922 10.558 18.568 8.859 6.796-1.457 12.014-6.554 14.077-13.107 3.398-10.437-2.063-26.578-14.077-28.884z" fill="#C3E2FC"/><path d="M87.125 44.417c-4.49-.849-8.859 1.457-12.014 4.248-.85.728-2.063.243-2.063-.85-.365-5.825-5.097-10.8-11.165-11.286-7.04-.607-11.166 5.097-11.772 11.408-.122 1.335-1.942 1.578-2.427.364-1.82-4.733-5.826-9.466-11.53-8.495-5.46.97-10.194 6.31-10.68 11.165-.12.85-.97 1.578-1.82.97-5.46-3.64-13.35-3.276-15.412 4.127-.85 3.277.607 6.918 3.52 8.617 3.276 1.941 6.067 2.305 9.708 1.698.97-.12 2.063.729 1.335 1.82-2.063 3.156-1.82 5.947-1.82 9.71.12 3.52 2.427 5.946 5.34 7.524 6.917 3.762 12.863.97 15.533-5.218.364-.971 2.185-1.335 2.428 0 .849 5.46 3.519 8.737 8.13 12.135 4.127 3.034 10.073 2.913 13.835-.728 4.37-4.126 5.098-10.437 3.277-15.534-.243-.728.122-1.092.607-1.335.607-.242 1.578-.121 1.82.728 2.549 6.918 8.374 7.767 15.292 6.311 6.189-1.213 11.043-5.825 12.864-11.65 2.912-9.588-2.063-23.665-12.986-25.729z" fill="#fff"/><path d="M24.018 52.184c-.364 0-.728-.12-1.092-.364-4.247-2.912-11.529-3.64-15.291.122-.364.364-.85.364-1.214 0s-.364-.85 0-1.214c4.49-4.247 12.622-3.64 17.476-.242.121 0 .243.12.364 0a.667.667 0 00.364-.607c.607-5.947 4.005-12.379 10.437-13.471 6.918-1.092 11.65 4.733 13.592 10.194.122.364.243.485.486.485.242 0 .485-.242.485-.606.364-4.49 2.306-8.495 5.219-10.923 2.305-1.941 5.34-2.912 8.616-2.548.486 0 .85.485.728.97 0 .486-.485.85-.97.729-2.792-.243-5.34.485-7.282 2.184-2.549 2.185-4.248 5.704-4.612 9.83-.121 1.093-.97 1.942-1.942 2.063-.97.122-1.941-.485-2.305-1.577-1.82-4.976-5.826-9.952-11.65-8.98-5.462.97-8.496 6.674-8.982 12.014-.12.85-.606 1.577-1.334 1.941h-1.093z" fill="#333E50"/><path d="M47.683 39.32a.927.927 0 01-.606-.242c-1.093-1.214-2.063-1.942-3.398-2.67-.364-.243-.607-.728-.364-1.093.242-.363.728-.606 1.092-.363 1.335.728 2.548 1.699 3.762 3.033.364.364.243.85 0 1.214-.121 0-.243.121-.486.121zM91.13 85.68c-.364 0-.728-.243-.85-.729-.12-.485.243-.85.607-.97 6.311-1.335 11.529-6.19 13.471-12.622 1.942-6.068.85-13.713-2.67-19.66-1.82-3.155-5.34-7.16-10.8-8.252-5.22-.971-10.074 2.427-12.5 4.611-.608.607-1.578.728-2.306.486-.85-.364-1.335-1.093-1.335-1.942-.365-4.733-3.277-8.98-7.525-10.922-.485-.243-.606-.729-.364-1.093.243-.485.728-.606 1.092-.364 4.733 2.185 8.132 7.04 8.496 12.379 0 .243.12.485.364.485.121.122.364 0 .606-.121 4.612-4.005 9.588-5.825 13.957-4.976 4.854.971 8.98 4.127 12.014 9.102 3.762 6.31 4.855 14.563 2.913 20.995-2.185 7.04-7.767 12.258-14.684 13.714-.365-.121-.486-.121-.486-.121zM105.086 82.039c-.243 0-.364-.121-.607-.243a.933.933 0 01-.121-1.213c2.063-2.306 3.398-5.34 4.005-8.617.121-.485.485-.728.971-.728.485.121.728.485.728.97-.607 3.642-2.185 6.918-4.369 9.467-.243.243-.364.364-.607.364zM60.062 100c-2.67 0-5.34-.85-7.646-2.549-4.611-3.519-7.888-9.708-8.859-16.747 0-.243-.121-.243-.242-.243-.243 0-.729.243-.85.486-1.942 4.733-5.461 8.373-9.345 9.83-3.034 1.092-6.189.728-9.223-.971-4.005-2.185-6.19-5.461-6.31-9.224-.122-3.883 1.213-7.888 4.125-12.378.122-.121.122-.243 0-.486-.12-.242-.363-.364-.728-.242-3.762.606-9.223 1.213-13.228-1.214C4.236 64.2 2.538 59.83 3.51 55.704c.121-.486.606-.728 1.092-.607.485.121.728.607.607 1.092-.85 3.398.606 7.16 3.398 8.738 3.52 2.185 8.616 1.578 12.136.971.97-.121 1.82.243 2.427 1.092.485.728.485 1.578 0 2.306-2.67 4.126-3.884 7.888-3.884 11.408.122 4.005 3.034 6.432 5.462 7.767 2.67 1.456 5.34 1.699 7.888.85 3.398-1.214 6.553-4.49 8.252-8.86.364-.97 1.578-1.578 2.549-1.456.85.121 1.456.728 1.699 1.699.97 6.675 3.883 12.379 8.252 15.655 4.37 3.277 10.316 2.913 13.957-.728 4.369-4.369 3.519-12.621 1.577-18.447-.364-1.092.122-2.063 1.092-2.548.607-.243 1.214-.364 1.82-.121.608.242.972.728 1.215 1.335 1.456 3.883 4.126 6.553 8.13 7.888.486.121.729.607.486 1.092-.121.486-.607.728-1.092.486-4.37-1.578-7.525-4.612-9.224-8.86-.12-.121-.12-.242-.242-.364h-.486c-.242.122-.364.243-.242.486 2.184 6.553 2.912 15.412-1.942 20.267C66.25 98.786 63.217 100 60.062 100zM4.6 68.447c-.12 0-.363 0-.485-.122-1.577-1.213-2.79-2.67-3.519-4.247-.121-.486 0-.971.485-1.093.486-.12.971 0 1.093.486.485 1.335 1.577 2.548 2.912 3.52.364.242.486.849.243 1.213-.243.121-.485.243-.728.243z" fill="#333E50"/><path d="M44.285 62.257c0 1.093-.364 2.063-1.213 2.792-.728.728-1.7 1.213-2.791 1.213-1.093 0-2.064-.364-2.792-1.213-.728-.729-1.213-1.7-1.213-2.792 0-1.092.364-2.063 1.213-2.791.728-.728 1.7-1.214 2.792-1.214 1.092 0 2.063.364 2.79 1.214.729.85 1.214 1.7 1.214 2.791zm-1.577 0c0-.728-.243-1.213-.728-1.699-.486-.485-.971-.728-1.7-.728-.728 0-1.213.243-1.699.728-.485.486-.728.971-.728 1.7 0 .727.243 1.213.728 1.698.486.486.971.728 1.7.728.728 0 1.213-.242 1.699-.728.606-.485.728-1.092.728-1.699zM50.839 65.413c0 .243-.122.364-.243.485s-.364.243-.485.243c-.243 0-.365-.122-.486-.243s-.243-.364-.243-.485V62.5c0-.121-.121-.364-.121-.485-.243-.122-.364-.122-.607-.122s-.364.122-.485.122c-.122.121-.122.242-.122.485v2.913c0 .243-.121.364-.242.485-.122.121-.364.243-.486.243-.242 0-.364-.122-.485-.243-.122-.121-.243-.364-.243-.485v-4.248c0-.242.121-.364.243-.485.121-.122.364-.243.485-.243.243 0 .364.121.486.121.242-.121.606-.121.97-.121.607 0 1.093.243 1.578.728.364.364.728.971.728 1.578v2.67h-.242zM55.693 65.413c0 .242-.121.364-.243.485-.121.121-.364.243-.485.243-.486 0-.971-.122-1.214-.486-.364-.364-.485-.728-.485-1.213v-5.34c0-.243.121-.364.243-.485.12-.122.364-.243.485-.243.243 0 .364.121.486.242.12.122.242.365.242.486v5.34c0 .121.121.364.364.364s.364.121.486.243c0 .12.121.12.121.364zM59.577 59.102c0 .243-.122.485-.243.728-.122.122-.364.243-.728.243-.243 0-.486-.121-.729-.243-.242-.121-.242-.364-.242-.728 0-.243.121-.485.242-.728.122-.122.365-.243.729-.243.242 0 .485.121.728.243.121.242.242.485.242.728zm-.243 6.31c0 .243-.122.365-.243.486s-.364.243-.485.243c-.243 0-.364-.122-.486-.243-.121-.121-.242-.364-.242-.485v-4.248c0-.243.12-.364.242-.485.122-.122.364-.243.486-.243.242 0 .364.121.485.243.121.121.243.364.243.485v4.248zM66.373 65.413c0 .243-.122.364-.243.485s-.364.243-.486.243c-.242 0-.364-.122-.485-.243s-.243-.364-.243-.485V62.5c0-.121-.121-.364-.121-.485-.364-.122-.364-.122-.728-.122-.243 0-.364.122-.486.122-.121.121-.121.242-.121.485v2.913c0 .243-.121.364-.243.485-.121.121-.364.243-.485.243-.243 0-.364-.122-.486-.243-.121-.121-.242-.364-.242-.485v-4.248c0-.242.121-.364.242-.485.122-.122.364-.243.486-.243.242 0 .364.121.485.121.243-.121.607-.121.971-.121.607 0 1.092.243 1.578.728.364.364.728.971.728 1.578-.121-.122-.121 2.67-.121 2.67zM73.776 64.32c0 .122 0 .243-.122.365a3.694 3.694 0 01-.97.97c-.365.243-.971.364-1.457.364-.728 0-1.578-.242-2.063-.85-.607-.606-.85-1.213-.85-2.062 0-.728.243-1.578.85-2.063.607-.607 1.214-.85 2.063-.85.364 0 .728.122 1.214.243.364.121.728.364.97.728.243.364.365.607.365.971 0 .243-.122.364-.364.607l-2.913 1.577c.121.122.364.122.607.122.364 0 .607-.122.85-.243.12-.121.242-.364.363-.485a.927.927 0 01.607-.243c.243 0 .364.121.607.243.121.242.243.485.243.606zm-1.942-2.305c-.121-.122-.364-.122-.607-.122-.364 0-.728.122-.97.364-.244.243-.365.607-.365.971l1.942-1.213z" fill="#333E50"/></svg>