<svg width="100" height="100" viewBox="0 0 100 100" fill="none" xmlns="http://www.w3.org/2000/svg">
<path d="M71.1291 43.0569H27.8723V47.1529H71.1291V43.0569Z" fill="#C3E2FC"/>
<path d="M34.4658 59.1409C33.9663 59.1409 33.5667 58.7413 33.5667 58.2418C33.5667 57.7422 33.9663 57.3427 34.4658 57.3427H44.9553C45.4548 57.3427 45.8544 57.7422 45.8544 58.2418C45.8544 58.7413 45.4548 59.1409 44.9553 59.1409H34.4658Z" fill="#C3E2FC"/>
<path d="M34.4658 58.2417C33.9663 58.2417 33.5667 57.8421 33.5667 57.3426C33.5667 56.8431 33.9663 56.4435 34.4658 56.4435H44.9553C45.4548 56.4435 45.8544 56.8431 45.8544 57.3426C45.8544 57.8421 45.4548 58.2417 44.9553 58.2417H34.4658Z" fill="#333E50"/>
<path d="M64.5356 52.947H61.139C59.9402 52.947 58.9412 53.946 58.9412 55.1448V56.8431C58.9412 58.0419 59.9402 59.0409 61.139 59.0409H64.5356C65.7344 59.0409 66.7334 58.0419 66.7334 56.8431V55.1448C66.7334 53.946 65.7344 52.947 64.5356 52.947Z" fill="#C3E2FC"/>
<path d="M22.3779 61.4385C22.1781 61.0389 21.6786 60.8391 21.279 60.939L11.5887 64.935C11.1891 65.1348 10.9893 65.6343 11.0892 66.0339C11.289 66.4335 11.7885 66.6333 12.1881 66.5334L21.8784 62.5374C22.3779 62.3376 22.4778 61.8381 22.3779 61.4385Z" fill="#333E50"/>
<path d="M27.6726 28.6713C27.9723 28.971 28.5717 28.971 28.8714 28.6713C29.1711 28.3716 29.1711 27.7722 28.8714 27.4725L21.4788 20.0799C21.1791 19.7802 20.5797 19.7802 20.28 20.0799C19.9803 20.3796 19.9803 20.979 20.28 21.2787L27.6726 28.6713Z" fill="#333E50"/>
<path d="M37.4626 21.7782C37.6624 22.1778 38.1619 22.3776 38.5615 22.2777C38.9611 22.0779 39.1609 21.5784 39.061 21.1788L35.065 11.4885C34.8652 11.0889 34.3657 10.8891 33.9661 10.989C33.5665 11.1888 33.3667 11.6883 33.4666 12.0879L37.4626 21.7782Z" fill="#333E50"/>
<path d="M4.196 49.2507H0.999199C0.499698 49.2507 0.100098 49.6503 0.100098 50.1498C0.100098 50.5494 0.499698 50.949 0.999199 50.949H4.2959C4.6955 50.949 5.0951 50.5494 5.0951 50.0499C5.0951 49.6503 4.6955 49.2507 4.196 49.2507Z" fill="#333E50"/>
<path d="M11.5885 34.8652L21.2788 38.8612C21.6784 39.061 22.2778 38.8612 22.3777 38.3617C22.5775 37.9621 22.3777 37.3627 21.8782 37.2628L12.1879 33.2667C11.7883 33.0669 11.1889 33.2667 11.089 33.7663C10.8892 34.1659 11.089 34.7653 11.5885 34.8652Z" fill="#333E50"/>
<path d="M20.0799 49.9501C20.0799 49.4506 19.6803 49.1509 19.1808 49.1509H8.69134C8.19184 49.1509 7.79224 49.5505 7.79224 50.05C7.79224 50.5495 8.19184 50.9491 8.69134 50.9491H19.1808C19.6803 50.8492 20.0799 50.4496 20.0799 49.9501Z" fill="#333E50"/>
<path d="M17.083 18.1818C17.3827 18.4815 17.9821 18.4815 18.2818 18.1818C18.5815 17.8821 18.5815 17.2827 18.2818 16.983L15.9841 14.6853C15.6844 14.3856 15.085 14.3856 14.7853 14.6853C14.4856 14.985 14.4856 15.5844 14.7853 15.8841L17.083 18.1818Z" fill="#333E50"/>
<path d="M72.4277 28.6713L79.8203 21.2787C80.12 20.979 80.12 20.3796 79.8203 20.0799C79.5206 19.7802 78.9212 19.7802 78.6215 20.0799L71.2289 27.4725C70.9292 27.7722 70.9292 28.3716 71.2289 28.6713C71.6285 29.0709 72.128 29.0709 72.4277 28.6713Z" fill="#333E50"/>
<path d="M83.0171 18.1818L85.3148 15.8841C85.6145 15.5844 85.6145 14.985 85.3148 14.6853C85.0151 14.3856 84.4157 14.3856 84.116 14.6853L81.8183 16.983C81.5186 17.2827 81.5186 17.8821 81.8183 18.1818C82.2179 18.4815 82.7174 18.4815 83.0171 18.1818Z" fill="#333E50"/>
<path d="M50.0502 19.8801C50.5497 19.8801 50.9493 19.4805 50.9493 18.981V8.59136C50.9493 8.09186 50.5497 7.69226 50.0502 7.69226C49.5507 7.69226 49.1511 8.09186 49.1511 8.59136V19.0809C49.1511 19.4805 49.5507 19.8801 50.0502 19.8801Z" fill="#333E50"/>
<path d="M77.7225 38.4615C77.9223 38.8611 78.4218 39.0609 78.8214 38.961L88.5117 34.965C88.9113 34.7652 89.1111 34.2657 89.0112 33.8661C88.8114 33.4665 88.3119 33.2667 87.9123 33.3666L78.222 37.3626C77.8224 37.5624 77.6226 38.0619 77.7225 38.4615Z" fill="#333E50"/>
<path d="M61.5387 22.2777C61.9383 22.4775 62.5377 22.2777 62.6376 21.7782L66.6336 12.0879C66.8334 11.6883 66.6336 11.0889 66.1341 10.989C65.7345 10.7892 65.235 10.989 65.0352 11.4885L61.0392 21.1788C60.8394 21.5784 61.0392 22.0779 61.5387 22.2777Z" fill="#333E50"/>
<path d="M50.0502 4.99501C50.5497 4.99501 50.9493 4.5954 50.9493 4.0959V0.899101C50.8494 0.3996 50.5497 0 50.0502 0C49.5507 0 49.1511 0.3996 49.1511 0.899101V4.1958C49.1511 4.5954 49.5507 4.99501 50.0502 4.99501Z" fill="#333E50"/>
<path d="M62.6375 78.1219C62.4377 77.7223 61.9382 77.5225 61.5386 77.6224C61.139 77.8222 60.9392 78.3217 61.0391 78.7213L65.0351 88.4117C65.2349 88.8113 65.7344 89.0111 66.134 88.9112C66.5336 88.7114 66.7334 88.2119 66.6335 87.8123L62.6375 78.1219Z" fill="#333E50"/>
<path d="M99.1011 48.951H95.8044C95.3049 48.951 94.9053 49.3507 94.9053 49.8502C94.9053 50.3497 95.3049 50.7493 95.8044 50.7493H99.1011C99.6006 50.7493 100 50.3497 100 49.8502C100 49.3507 99.6006 48.951 99.1011 48.951Z" fill="#333E50"/>
<path d="M91.309 48.951H80.8195C80.32 48.951 79.9204 49.3507 79.9204 49.8502C79.9204 50.3497 80.32 50.7493 80.8195 50.7493H91.309C91.8085 50.7493 92.2081 50.3497 92.2081 49.8502C92.2081 49.3507 91.8085 48.951 91.309 48.951Z" fill="#333E50"/>
<path d="M88.5118 64.9351L78.8215 60.9391C78.4219 60.7393 77.8225 60.9391 77.7226 61.4386C77.5228 61.8382 77.7226 62.4376 78.2221 62.5375L87.9124 66.5335C88.312 66.7333 88.9114 66.5335 89.0113 66.034C89.2111 65.6344 89.0113 65.1349 88.5118 64.9351Z" fill="#333E50"/>
<path d="M17.083 81.7184L14.7853 84.0161C14.4856 84.3158 14.4856 84.9152 14.7853 85.2149C15.085 85.5146 15.6844 85.5146 15.9841 85.2149L18.2818 82.9172C18.5815 82.6175 18.5815 82.0181 18.2818 81.7184C17.9821 81.4187 17.3827 81.4187 17.083 81.7184Z" fill="#333E50"/>
<path d="M74.5257 49.3506L72.4278 44.8551V39.86C72.4278 37.6622 70.6296 35.7641 68.3319 35.7641H68.232L66.0342 31.0688C65.0352 29.0708 62.6376 28.1717 60.6396 29.0708L46.3539 35.7641H30.5696C28.3718 35.7641 26.4737 37.5623 26.4737 39.86V45.0549L26.3738 45.1548C24.3758 46.1538 23.4767 48.5514 24.3758 50.5494L26.4737 55.0449V60.0399C26.4737 62.2377 28.2719 64.1358 30.5696 64.1358H30.7694L32.9672 68.8311C33.9662 70.8291 36.3638 71.7282 38.3618 70.8291L52.5477 64.1358H68.232C70.4298 64.1358 72.3279 62.3376 72.3279 60.0399V54.8451L72.4278 54.7452C74.5257 53.7462 75.4248 51.3486 74.5257 49.3506ZM28.2719 43.2567H70.6296V46.2537H28.2719V43.2567ZM61.3389 30.6692C62.5377 30.1697 63.9363 30.6692 64.4358 31.7681L64.5357 32.0678L56.7435 35.6642H50.4498L61.3389 30.6692ZM30.5696 37.5623H68.3319C69.6306 37.5623 70.6296 38.5613 70.6296 39.9599V41.6583H28.2719V39.9599C28.2719 38.5613 29.2709 37.5623 30.5696 37.5623ZM26.5736 49.8501L26.174 50.0499L26.0741 49.7502C25.6745 48.8511 25.8743 47.7522 26.5736 47.0529V49.8501ZM37.6625 69.1308C36.4637 69.6303 35.0651 69.1308 34.5656 68.0319L32.6675 64.1358H48.5517L37.6625 69.1308ZM68.3319 62.3376H30.5696C29.2709 62.3376 28.2719 61.3386 28.2719 60.0399V47.952H70.6296V59.94C70.6296 61.2387 69.6306 62.3376 68.3319 62.3376ZM72.4278 52.7472V48.951L72.9273 50.0499C73.3269 50.949 73.1271 52.0479 72.4278 52.7472Z" fill="#333E50"/>
<path d="M72.4277 71.1288C72.128 70.8291 71.5286 70.8291 71.2289 71.1288C70.9292 71.4285 70.9292 72.0279 71.2289 72.3276L78.6215 79.7202C78.9212 80.0199 79.5206 80.0199 79.8203 79.7202C80.12 79.4205 80.12 78.8211 79.8203 78.5214L72.4277 71.1288Z" fill="#333E50"/>
<path d="M38.5616 77.6223C38.162 77.4225 37.5626 77.6223 37.4627 78.1218L33.4667 87.8122C33.2669 88.2118 33.4667 88.8112 33.9662 88.9111C34.3658 89.1109 34.9652 88.9111 35.0651 88.4116L39.0611 78.7212C39.2609 78.3216 39.0611 77.8221 38.5616 77.6223Z" fill="#333E50"/>
<path d="M27.6726 71.1288L20.28 78.5214C19.9803 78.8211 19.9803 79.4205 20.28 79.7202C20.5797 80.0199 21.1791 80.0199 21.4788 79.7202L28.8714 72.3276C29.1711 72.0279 29.1711 71.4285 28.8714 71.1288C28.4718 70.8291 27.9723 70.8291 27.6726 71.1288Z" fill="#333E50"/>
<path d="M83.0171 81.7184C82.7174 81.4187 82.118 81.4187 81.8183 81.7184C81.5186 82.0181 81.5186 82.6175 81.8183 82.9172L84.116 85.2149C84.4157 85.5146 85.0151 85.5146 85.3148 85.2149C85.6145 84.9152 85.6145 84.3158 85.3148 84.0161L83.0171 81.7184Z" fill="#333E50"/>
<path d="M50.0502 94.9052C49.5507 94.9052 49.1511 95.3048 49.1511 95.8043V99.101C49.1511 99.6005 49.5507 100 50.0502 100C50.5497 100 50.9493 99.6005 50.9493 99.101V95.8043C50.8494 95.3048 50.5497 94.9052 50.0502 94.9052Z" fill="#333E50"/>
<path d="M50.0502 79.9201C49.5507 79.9201 49.1511 80.3197 49.1511 80.8192V91.3087C49.1511 91.8082 49.5507 92.2078 50.0502 92.2078C50.5497 92.2078 50.9493 91.8082 50.9493 91.3087V80.7193C50.8494 80.3197 50.5497 79.9201 50.0502 79.9201Z" fill="#333E50"/>
<path d="M61.1391 57.6423H64.5357C65.3349 57.6423 66.0342 56.943 66.0342 56.1438V54.4455C66.0342 53.6463 65.3349 52.947 64.5357 52.947H61.1391C60.3399 52.947 59.6406 53.6463 59.6406 54.4455V56.1438C59.6406 56.943 60.3399 57.6423 61.1391 57.6423Z" fill="#95CE5A"/>
<path d="M64.5356 58.2417H61.139C59.9402 58.2417 58.9412 57.2427 58.9412 56.0439V54.3456C58.9412 53.1468 59.9402 52.1478 61.139 52.1478H64.5356C65.7344 52.1478 66.7334 53.1468 66.7334 54.3456V56.0439C66.7334 57.2427 65.7344 58.2417 64.5356 58.2417ZM61.139 53.5464C60.6395 53.5464 60.2399 53.946 60.2399 54.4455V56.1438C60.2399 56.6433 60.6395 57.0429 61.139 57.0429H64.5356C65.0351 57.0429 65.4347 56.6433 65.4347 56.1438V54.4455C65.4347 53.946 65.0351 53.5464 64.5356 53.5464H61.139Z" fill="#333E50"/>
<path d="M34.4658 54.5454C33.9663 54.5454 33.5667 54.1458 33.5667 53.6463C33.5667 53.1468 33.9663 52.7472 34.4658 52.7472H39.9603C40.4598 52.7472 40.8594 53.1468 40.8594 53.6463C40.8594 54.1458 40.4598 54.5454 39.9603 54.5454H34.4658Z" fill="#C3E2FC"/>
<path d="M34.4658 53.7463C33.9663 53.7463 33.5667 53.3467 33.5667 52.8472C33.5667 52.3477 33.9663 51.9481 34.4658 51.9481H39.9603C40.4598 51.9481 40.8594 52.3477 40.8594 52.8472C40.8594 53.3467 40.4598 53.7463 39.9603 53.7463H34.4658Z" fill="#333E50"/>
</svg>
