<svg width="101" height="100" viewBox="0 0 101 100" fill="none" xmlns="http://www.w3.org/2000/svg">
<path d="M20.1 49.9C20.1 49.5 19.7 49.1 19.2 49.1H8.70005C8.20005 49.1 7.80005 49.5 7.80005 50C7.80005 50.5 8.20005 50.9 8.70005 50.9L19.2 50.8C19.7 50.8 20.1 50.4 20.1 49.9Z" fill="#333E50"/>
<path d="M27.6001 28.7C27.9001 29 28.5001 29 28.8001 28.7C29.1001 28.4 29.1001 27.8 28.8001 27.5L21.4001 20.1C21.1001 19.8 20.5001 19.8 20.2001 20.1C19.9001 20.4 19.9001 21 20.2001 21.3L27.6001 28.7Z" fill="#333E50"/>
<path d="M11.5001 35L21.2001 39C21.6001 39.1 22.1001 38.9 22.3001 38.5C22.4001 38.1 22.2001 37.6 21.8001 37.4L12.1001 33.4C11.7001 33.3 11.2001 33.5 11.0001 33.9C10.9001 34.3 11.1001 34.8 11.5001 35Z" fill="#333E50"/>
<path d="M4.2 49.2H0.9C0.4 49.2 0 49.5999 0 50.0999C0 50.5999 0.4 51 0.9 51H4.1C4.6 51 5 50.5999 5.1 50.0999C5.1 49.5999 4.7 49.2 4.2 49.2Z" fill="#333E50"/>
<path d="M22.3 61.5C22.1 61 21.6 60.8 21.2 61L11.5 65C11 65.2 10.8 65.7 11 66.1C11.2 66.6 11.7 66.8 12.1 66.6L21.8 62.6C22.3 62.4 22.5 61.9 22.3 61.5Z" fill="#333E50"/>
<path d="M72.4001 28.7L79.8001 21.3C80.1001 21 80.1001 20.4 79.8001 20.1C79.5001 19.8 78.9001 19.8 78.6001 20.1L71.2001 27.5C70.9001 27.8 70.9001 28.4 71.2001 28.7C71.5001 29 72.1001 29 72.4001 28.7Z" fill="#333E50"/>
<path d="M82.9999 18.2C82.9999 18.2 85.4 15.8 85.3 15.9C85.6 15.6 85.6 15 85.3 14.7C85 14.4 84.3999 14.4 84.0999 14.7L81.8 17C81.5 17.3 81.5 17.9 81.8 18.2C82.1 18.5 82.6999 18.5 82.9999 18.2Z" fill="#333E50"/>
<path d="M77.6999 38.5C77.8999 39 78.3999 39.2 78.7999 39L88.4999 35C88.9999 34.8 89.1999 34.3 88.9999 33.9C88.7999 33.4 88.2999 33.2 87.8999 33.4L78.1999 37.4C77.6999 37.6 77.4999 38.1 77.6999 38.5Z" fill="#333E50"/>
<path d="M50.0001 5C50.5001 5 50.8001 4.6 50.8001 4.1H50.9001V0.9C50.9001 0.4 50.5001 0 50.0001 0C49.5001 0 49.1001 0.4 49.1001 0.9V4.1C49.1001 4.6 49.5001 5 50.0001 5Z" fill="#333E50"/>
<path d="M49.9 20C50.4 20 50.8 19.6 50.8 19.1V8.59995C50.8 8.09995 50.4 7.69995 49.9 7.69995C49.4 7.69995 49 8.09995 49 8.59995V19.1C49 19.6 49.4 20 49.9 20Z" fill="#333E50"/>
<path d="M61.5001 22.2C61.9001 22.3 62.4001 22.1 62.6001 21.7L66.6001 12C66.7001 11.6 66.5001 11.1 66.1001 10.9C65.7001 10.8 65.2001 11 65.0001 11.4L61.0001 21.1C60.9001 21.5 61.1001 22 61.5001 22.2Z" fill="#333E50"/>
<path d="M37.3999 21.7C37.5999 22.2 38.0999 22.4 38.4999 22.2C38.9999 22 39.1999 21.5 38.9999 21.1L34.9999 11.4C34.7999 10.9 34.2999 10.7 33.8999 10.9C33.3999 11.1 33.1999 11.6 33.3999 12L37.3999 21.7Z" fill="#333E50"/>
<path d="M17.0001 18.2C17.3001 18.5 17.9001 18.5 18.2001 18.2C18.5001 17.9 18.5001 17.3 18.2001 17L15.9001 14.7C15.6001 14.4 15.0001 14.4 14.7001 14.7C14.4001 15 14.4001 15.6 14.7001 15.9L17.0001 18.2Z" fill="#333E50"/>
<path d="M72.3 60.1001V54.9001L72.4 54.8001C74.4 53.8001 75.3 51.4001 74.4 49.4001L72.3 44.9001V39.9001C72.3 37.7001 70.5 35.8001 68.2 35.8001H68.1L66 31.1001C65 29.1001 62.6 28.2001 60.6 29.1001L46.3 35.8001H30.5C28.3 35.8001 26.4 37.6001 26.4 39.9001V45.1001L26.3 45.2001C24.3 46.2001 23.4 48.6001 24.3 50.6001L26.4 55.1001V60.1001C26.4 62.3001 28.2 64.2001 30.5 64.2001H30.7L32.9 68.9001C33.9 70.9001 36.3 71.8001 38.3 70.9001L52.5 64.2001H68.2C70.4 64.2001 72.3 62.4001 72.3 60.1001ZM72.4 49.0001L72.9 50.1001C73.3 51.0001 73.1 52.1001 72.4 52.8001V49.0001ZM26.5 49.9001L26.1 50.1001L26 49.8001C25.6 48.9001 25.8 47.8001 26.5 47.1001V49.9001ZM61.3 30.7001C62.5 30.2001 63.9 30.7001 64.4 31.8001L64.5 32.1001L56.7 35.7001L50.4 35.8001L61.3 30.7001ZM37.6 69.2001C36.4 69.7001 35 69.2001 34.5 68.1001L32.6 64.2001L48.5 64.1001L37.6 69.2001ZM70.5 60.0001C70.5 61.3001 69.5 62.3001 68.2 62.3001H30.5C29.2 62.3001 28.2 61.3001 28.2 60.0001V39.9001C28.2 38.6001 29.2 37.6001 30.5 37.6001H68.3C69.6 37.6001 70.6 38.6001 70.5 39.9001V60.0001Z" fill="#333E50"/>
<path d="M82.9999 81.8C82.6999 81.5 82.1 81.5 81.8 81.8C81.5 82.1 81.5 82.6999 81.8 82.9999L84.1999 85.3999C84.4999 85.6999 85.0999 85.6999 85.3999 85.3999C85.6999 85.0999 85.6999 84.4999 85.3999 84.1999L82.9999 81.8Z" fill="#333E50"/>
<path d="M72.4001 71.2C72.1001 70.9 71.5001 70.9 71.2001 71.2C70.9001 71.5 70.9001 72.1 71.2001 72.4L78.6001 79.8C78.9001 80.1 79.5001 80.1 79.8001 79.8C80.1001 79.5 80.1001 78.9 79.8001 78.6L72.4001 71.2Z" fill="#333E50"/>
<path d="M88.5 65L78.8001 61C78.4001 60.9 77.9 61.1 77.7 61.5C77.6 61.9 77.8 62.4 78.2 62.6L87.9 66.6C88.3 66.7 88.8 66.5 89 66.1C89.1 65.7 88.9 65.2 88.5 65Z" fill="#333E50"/>
<path d="M99.2 48.9H95.9C95.4 48.9 95 49.3 95 49.8C95 50.3 95.4 50.7 95.9 50.7H99.2C99.7 50.7 100.1 50.3 100.1 49.8C100.1 49.3 99.7 48.9 99.2 48.9Z" fill="#333E50"/>
<path d="M91.4 48.9H80.9C80.4 48.9 80 49.3 80 49.8C80 50.3 80.4 50.7 80.9 50.7H91.4C91.9 50.7 92.3 50.3 92.3 49.8C92.3 49.3 91.9 48.9 91.4 48.9Z" fill="#333E50"/>
<path d="M27.6001 71.2L20.2001 78.6C19.9001 78.9 19.9001 79.5 20.2001 79.8C20.5001 80.1 21.1001 80.1 21.4001 79.8L28.8001 72.4C29.1001 72.1 29.1001 71.5 28.8001 71.2C28.5001 70.9 27.9001 70.9 27.6001 71.2Z" fill="#333E50"/>
<path d="M49.9 94.9C49.4 94.9 49 95.3 49 95.8V99.1C49 99.6 49.4 100 49.9 100C50.4 100 50.8 99.6 50.8 99.1V95.8C50.8 95.3 50.4 94.9 49.9 94.9Z" fill="#333E50"/>
<path d="M16.9 81.9L14.6 84.2C14.3 84.5 14.3 85.1 14.6 85.4C14.9 85.7 15.5 85.7 15.8 85.4L18.1 83.1C18.4 82.8 18.4 82.2 18.1 81.9C17.8 81.6 17.2 81.6 16.9 81.9Z" fill="#333E50"/>
<path d="M38.5 77.7C38.1 77.6 37.6 77.8 37.4 78.2L33.4 87.9C33.3 88.3 33.5 88.8 33.9 89C34.3 89.1 34.8 88.9 35 88.5L39 78.8001C39.1 78.4001 38.9 77.9 38.5 77.7Z" fill="#333E50"/>
<path d="M49.9 79.9C49.4 79.9 49 80.3 49 80.8V91.3C49 91.8 49.4 92.2 49.9 92.2C50.4 92.2 50.8 91.8 50.8 91.3V80.8C50.8 80.3 50.4 79.9 49.9 79.9Z" fill="#333E50"/>
<path d="M62.6 78.1999C62.4 77.6999 61.9 77.4999 61.5 77.6999C61 77.8999 60.8 78.3999 61 78.7999L65 88.4999C65.2 88.9999 65.7 89.1999 66.1 88.9999C66.6 88.7999 66.8 88.2999 66.6 87.8999L62.6 78.1999Z" fill="#333E50"/>
<path d="M34.7 53H65.5C66.0999 53 66.5 53.5 66.5 54C66.5 54.6 66 55 65.5 55H34.7C34.1 55 33.7 54.5 33.7 54C33.7 53.5 34.1 53 34.7 53Z" fill="#C3E2FC"/>
<path d="M55.5001 42.3H65.8001C66.4001 42.3 66.8001 42.8 66.8001 43.3C66.8001 43.9 66.3001 44.3 65.8001 44.3H55.5001C54.9001 44.3 54.5001 43.8 54.5001 43.3C54.4001 42.8 54.9001 42.3 55.5001 42.3Z" fill="#C3E2FC"/>
<path d="M34.7 57.2H52.5C53.1 57.2 53.5 57.7 53.5 58.2C53.5 58.8 53 59.2 52.5 59.2H34.7C34.1 59.2 33.7 58.7 33.7 58.2C33.7 57.7 34.1 57.2 34.7 57.2Z" fill="#C3E2FC"/>
<path d="M35.5999 48H38.7C39.5 48 40.0999 47.3999 40.0999 46.5999V45.0999C40.0999 44.2999 39.5 43.7 38.7 43.7H35.5999C34.7999 43.7 34.2 44.2999 34.2 45.0999V46.5999C34.2 47.3999 34.7999 48 35.5999 48Z" fill="#95CE5A"/>
<path d="M38.6 48.6H35.5C34.4 48.6 33.5 47.7 33.5 46.6V45.1C33.5 44 34.4 43.1 35.5 43.1H38.6C39.7 43.1 40.6 44 40.6 45.1V46.6C40.6 47.7 39.7 48.6 38.6 48.6ZM35.6 44.3C35.2 44.3 34.8 44.7 34.8 45.1V46.6C34.8 47 35.2 47.4 35.6 47.4H38.7C39.1 47.4 39.5 47 39.5 46.6V45.1C39.5 44.7 39.1 44.3 38.7 44.3H35.6Z" fill="#333E50"/>
<path d="M55.2999 43.3C54.7999 43.3 54.3999 42.9 54.3999 42.4C54.3999 41.9 54.7999 41.5 55.2999 41.5H65.7999C66.2999 41.5 66.6999 41.9 66.6999 42.4C66.6999 42.9 66.2999 43.3 65.7999 43.3H55.2999Z" fill="#333E50"/>
<path d="M49.4 58.2C48.9 58.2 48.5 57.8 48.5 57.3C48.5 56.8 48.9 56.4 49.4 56.4H52.7C53.2 56.4 53.6 56.8 53.6 57.3C53.6 57.8 53.2 58.2 52.7 58.2H49.4Z" fill="#333E50"/>
<path d="M34.4 58.3C33.9 58.3 33.5 57.9 33.5 57.4C33.5 56.9 33.9 56.5 34.4 56.5H44.9C45.4 56.5 45.8 56.9 45.8 57.4C45.8 57.9 45.4 58.3 44.9 58.3H34.4Z" fill="#333E50"/>
<path d="M60.2001 53.8C59.7001 53.8 59.3 53.4 59.3 52.9C59.3 52.4 59.7001 52 60.2001 52H65.7C66.2 52 66.6 52.4 66.6 52.9C66.6 53.4 66.2 53.8 65.7 53.8H60.2001Z" fill="#333E50"/>
<path d="M51.5999 53.8C51.0999 53.8 50.7 53.4 50.7 52.9C50.7 52.4 51.0999 52 51.5999 52H57.0999C57.5999 52 58 52.4 58 52.9C58 53.4 57.5999 53.8 57.0999 53.8H51.5999Z" fill="#333E50"/>
<path d="M43.0001 53.8C42.5001 53.8 42.1001 53.4 42.1001 52.9C42.1001 52.4 42.5001 52 43.0001 52H48.5001C49.0001 52 49.4001 52.4 49.4001 52.9C49.4001 53.4 49.0001 53.8 48.5001 53.8H43.0001Z" fill="#333E50"/>
<path d="M34.4 53.8C33.9 53.8 33.5 53.4 33.5 52.9C33.5 52.4 33.9 52 34.4 52H39.9C40.4 52 40.8 52.4 40.8 52.9C40.8 53.4 40.4 53.8 39.9 53.8H34.4Z" fill="#333E50"/>
</svg>
