<svg width="60" height="60" fill="none" xmlns="http://www.w3.org/2000/svg"><path fill="#95CE5A" d="M30 2h14v56H30z"/><path fill="#C3E2FC" d="M1 3h14v55H1z"/><path fill="#fff" d="M4 32h8v16H4zM4 6h8v22H4zM32 4h10v18H32z"/><circle cx="22" cy="14" r="3" fill="#95CE5A"/><circle cx="52" cy="18" r="3" fill="#95CE5A"/><circle cx="37" cy="31" r="3" fill="#fff"/><circle cx="37" cy="43" r="3" fill="#fff"/><path d="M59 6H46V3a3 3 0 00-3-3H31a3 3 0 00-3 3v3H16V5a3 3 0 00-3-3H3a3 3 0 00-3 3v54a1 1 0 001 1h58a1 1 0 001-1V7a1 1 0 00-1-1zM2 5a1 1 0 011-1h10a1 1 0 011 1v53H2V5zm14 3h12v50H16V8zm14-5a1 1 0 011-1h12a1 1 0 011 1v55H30V3zm28 55H46V8h12v50z" fill="#333E50"/><path d="M49 53h6a1 1 0 000-2h-6a1 1 0 000 2zM49 56h6a1 1 0 000-2h-6a1 1 0 000 2zM41 51h-8a1 1 0 000 2h8a1 1 0 000-2zM41 54h-8a1 1 0 000 2h8a1 1 0 000-2zM25 51h-6a1 1 0 000 2h6a1 1 0 000-2zM25 54h-6a1 1 0 000 2h6a1 1 0 000-2zM11 51H5a1 1 0 000 2h6a1 1 0 000-2zM11 54H5a1 1 0 000 2h6a1 1 0 000-2zM22 10a4 4 0 100 8 4 4 0 000-8zm0 6a2 2 0 110-4 2 2 0 010 4zM52 22a4 4 0 100-8 4 4 0 000 8zm0-6a2 2 0 110 4 2 2 0 010-4zM37 35a4 4 0 100-8 4 4 0 000 8zm0-6a2 2 0 110 4 2 2 0 010-4zM37 47a4 4 0 100-8 4 4 0 000 8zm0-6a2 2 0 110 4 2 2 0 010-4zM42 3H32a1 1 0 00-1 1v18a1 1 0 001 1h10a1 1 0 001-1V4a1 1 0 00-1-1zm-1 18h-8V5h8v16zM12 31H4a1 1 0 00-1 1v16a1 1 0 001 1h8a1 1 0 001-1V32a1 1 0 00-1-1zm-1 16H5V33h6v14zM12 5H4a1 1 0 00-1 1v22a1 1 0 001 1h8a1 1 0 001-1V6a1 1 0 00-1-1zm-1 22H5V7h6v20zM51 24v24a1 1 0 002 0V24a1 1 0 00-2 0zM23 48V20a1 1 0 00-2 0v28a1 1 0 002 0z" fill="#333E50"/></svg>