<svg width="60" height="60" viewBox="0 0 60 60" fill="none" xmlns="http://www.w3.org/2000/svg">
<path fill-rule="evenodd" clip-rule="evenodd" d="M21 31C19.3431 31 18 32.3431 18 34V47C18 48.6569 19.3431 50 21 50H39C40.6569 50 42 48.6569 42 47V34C42 32.3431 40.6569 31 39 31H21ZM30 40C31.1046 40 32 39.1046 32 38C32 36.8954 31.1046 36 30 36C28.8954 36 28 36.8954 28 38C28 39.1046 28.8954 40 30 40Z" fill="#95CE5A"/>
<rect x="1" y="3" width="58" height="9" rx="2" fill="#C3E2FC"/>
<path d="M37.0312 6.5625C36.3844 6.5625 35.8594 7.0875 35.8594 7.73438C35.8594 8.38125 36.3844 8.90625 37.0312 8.90625C37.6781 8.90625 38.2031 8.38125 38.2031 7.73438C38.2031 7.0875 37.6781 6.5625 37.0312 6.5625Z" fill="#333E50"/>
<path d="M18.2812 6.5625C17.6344 6.5625 17.1094 7.0875 17.1094 7.73438C17.1094 8.38125 17.6344 8.90625 18.2812 8.90625C18.9281 8.90625 19.4531 8.38125 19.4531 7.73438C19.4531 7.0875 18.9281 6.5625 18.2812 6.5625Z" fill="#333E50"/>
<path d="M13.5938 6.5625C12.9469 6.5625 12.4219 7.0875 12.4219 7.73438C12.4219 8.38125 12.9469 8.90625 13.5938 8.90625C14.2406 8.90625 14.7656 8.38125 14.7656 7.73438C14.7656 7.0875 14.2406 6.5625 13.5938 6.5625Z" fill="#333E50"/>
<path d="M8.90625 6.5625C8.25937 6.5625 7.73438 7.0875 7.73438 7.73438C7.73438 8.38125 8.25937 8.90625 8.90625 8.90625C9.55313 8.90625 10.0781 8.38125 10.0781 7.73438C10.0781 7.0875 9.55313 6.5625 8.90625 6.5625Z" fill="#333E50"/>
<path d="M56.4844 1.875H3.51562C1.57711 1.875 0 3.45211 0 5.39062V54.6094C0 56.5479 1.57711 58.125 3.51562 58.125H56.4844C58.4229 58.125 60 56.5479 60 54.6094V5.39062C60 3.45211 58.4229 1.875 56.4844 1.875ZM57.6562 54.6094C57.6562 55.2555 57.1305 55.7812 56.4844 55.7812H3.51562C2.86945 55.7812 2.34375 55.2555 2.34375 54.6094V13.5938H57.6562V54.6094ZM57.6562 11.25H2.34375V5.39062C2.34375 4.74445 2.86945 4.21875 3.51562 4.21875H56.4844C57.1305 4.21875 57.6562 4.74445 57.6562 5.39062V11.25Z" fill="#333E50"/>
<path d="M39.375 30H38.2031V26.4844C38.2031 21.958 34.5413 18.2812 30 18.2812C25.4768 18.2812 21.7969 21.9612 21.7969 26.4844V30H20.625C18.6865 30 17.1094 31.5771 17.1094 33.5156V47.5781C17.1094 49.5166 18.6865 51.0938 20.625 51.0938H39.375C41.3135 51.0938 42.8906 49.5166 42.8906 47.5781V33.5156C42.8906 31.5771 41.3135 30 39.375 30ZM24.1406 26.4844C24.1406 23.2535 26.7691 20.625 30 20.625C33.246 20.625 35.8594 23.253 35.8594 26.4844V30H24.1406V26.4844ZM40.5469 47.5781C40.5469 48.2243 40.0212 48.75 39.375 48.75H20.625C19.9788 48.75 19.4531 48.2243 19.4531 47.5781V33.5156C19.4531 32.8695 19.9788 32.3438 20.625 32.3438C22.5168 32.3438 36.5436 32.3438 39.375 32.3438C40.0212 32.3438 40.5469 32.8695 40.5469 33.5156V47.5781Z" fill="#333E50"/>
<path d="M51.7969 6.5625H41.7188C41.0716 6.5625 40.5469 7.08715 40.5469 7.73438C40.5469 8.3816 41.0716 8.90625 41.7188 8.90625H51.7969C52.444 8.90625 52.9688 8.3816 52.9688 7.73438C52.9688 7.08715 52.444 6.5625 51.7969 6.5625Z" fill="#333E50"/>
<path d="M30 34.6875C28.0615 34.6875 26.4844 36.2646 26.4844 38.2031C26.4844 39.7308 27.4642 41.0334 28.8281 41.5172V45.2344C28.8281 45.8816 29.3529 46.4062 30 46.4062C30.6471 46.4062 31.1719 45.8816 31.1719 45.2344V41.5172C32.5358 41.0334 33.5156 39.7309 33.5156 38.2031C33.5156 36.2646 31.9385 34.6875 30 34.6875ZM30 39.375C29.3538 39.375 28.8281 38.8493 28.8281 38.2031C28.8281 37.557 29.3538 37.0312 30 37.0312C30.6462 37.0312 31.1719 37.557 31.1719 38.2031C31.1719 38.8493 30.6462 39.375 30 39.375Z" fill="#333E50"/>
</svg>
