<svg width="60" height="60" viewBox="0 0 60 60" fill="none" xmlns="http://www.w3.org/2000/svg">
<path d="M57.24 52.14H2.75995C1.91995 52.14 1.19995 51.48 1.19995 50.58V15.42C1.19995 14.58 1.85995 13.86 2.75995 13.86H55.62C57.36 13.86 58.8 15.3 58.8 17.04V50.58C58.8 51.48 58.14 52.14 57.24 52.14Z" fill="white"/>
<path d="M0.179932 26.88C0.179932 32.16 4.25993 36.48 9.53993 36.48H50.3399C55.6199 36.48 59.7599 32.16 59.7599 26.88H57.8399C57.8399 31.02 54.4799 34.38 50.3399 34.38H9.53993C5.39993 34.38 2.03993 31.02 2.03993 26.88H0.179932Z" fill="#C3E2FC"/>
<path d="M28.4401 29.2801C29.7601 29.2801 30.9001 30.3601 30.9001 31.7401V36.2401C30.9001 37.5601 29.8201 38.7001 28.4401 38.7001H28.2001C26.8801 38.7001 25.7401 37.6201 25.7401 36.2401V31.7401C25.7401 30.4201 26.8201 29.2801 28.2001 29.2801H28.4401ZM28.4401 27.1801H28.2001C25.6801 27.1801 23.6401 29.2201 23.6401 31.7401V36.2401C23.6401 38.7601 25.6801 40.8001 28.2001 40.8001H28.4401C30.9601 40.8001 33.0001 38.7601 33.0001 36.2401V31.7401C33.0001 29.2201 30.9601 27.1801 28.4401 27.1801Z" fill="#C3E2FC"/>
<path d="M31.02 38.22H29.04C27.78 38.22 26.76 37.2 26.76 35.94V30.12C26.76 28.86 27.78 27.84 29.04 27.84H31.02C32.28 27.84 33.3 28.86 33.3 30.12V35.94C33.3 37.2 32.28 38.22 31.02 38.22Z" fill="#95CE5A"/>
<path d="M56.34 12.6H39.48V9.78C39.48 7.68 37.8 6 35.7 6H24.24C22.14 6 20.46 7.68 20.46 9.78V12.6H3.66C1.62 12.6 0 14.22 0 16.26V49.74C0 51.78 1.62 53.4 3.66 53.4H56.34C58.38 53.4 60 51.78 60 49.74V16.26C60 14.22 58.38 12.6 56.34 12.6ZM22.62 9.72C22.62 8.82 23.34 8.04 24.3 8.04H35.76C36.66 8.04 37.44 8.76 37.44 9.72V12.54H22.62V9.72ZM57.9 49.74C57.9 50.58 57.18 51.3 56.34 51.3H3.66C2.82 51.3 2.1 50.58 2.1 49.74V30.96C3.84 33.18 6.54 34.56 9.6 34.56H25.38V35.64C25.38 38.16 27.42 40.2 29.94 40.2H30.18C32.7 40.2 34.74 38.16 34.74 35.64V34.56H50.4C53.46 34.56 56.16 33.12 57.9 30.96V49.74ZM27.48 35.64V31.14C27.48 29.82 28.56 28.68 29.94 28.68H30.18C31.5 28.68 32.64 29.76 32.64 31.14V35.64C32.64 36.96 31.56 38.1 30.18 38.1H29.94C28.56 38.04 27.48 36.96 27.48 35.64ZM50.4 32.46H34.68V31.14C34.68 28.62 32.64 26.58 30.12 26.58H29.88C27.36 26.58 25.32 28.62 25.32 31.14V32.46H9.6C5.46 32.46 2.1 29.1 2.1 24.96V16.26C2.1 15.42 2.82 14.7 3.66 14.7H56.34C57.18 14.7 57.9 15.42 57.9 16.26V24.96C57.9 29.1 54.54 32.46 50.4 32.46Z" fill="#333E50"/>
</svg>
