<svg width="60" height="60" viewBox="0 0 60 60" fill="none" xmlns="http://www.w3.org/2000/svg">
<path d="M58.0201 1.79999H10.5601V49.26H58.0201V1.79999Z" fill="white"/>
<path d="M47.2198 46.8H18.5998C15.5998 46.8 13.0798 44.34 13.0798 41.28V12.66C13.0798 9.66001 15.5398 7.14001 18.5998 7.14001H47.2198C50.2198 7.14001 52.7398 9.60001 52.7398 12.66V41.28C52.7398 44.4 50.2198 46.8 47.2198 46.8Z" fill="#C3E2FC"/>
<path d="M12.72 13.8H17.28C17.82 13.8 18.24 14.22 18.24 14.76C18.24 15.3 17.82 15.72 17.28 15.72H12.72C12.18 15.72 11.76 15.3 11.76 14.76C11.76 14.22 12.18 13.8 12.72 13.8Z" fill="#C3E2FC"/>
<path d="M13.2 36.96H17.76C18.3 36.96 18.72 37.38 18.72 37.92C18.72 38.46 18.3 38.88 17.76 38.88H13.2C12.66 38.88 12.24 38.46 12.24 37.92C12.3 37.44 12.72 36.96 13.2 36.96Z" fill="#C3E2FC"/>
<path d="M54.6599 0H13.86C11.04 0 8.69995 2.34 8.69995 5.22V45.96C8.69995 48.48 10.44 50.52 12.9 51.06V52.08C12.9 53.4 13.98 54.54 15.36 54.54H19.32C20.64 54.54 21.78 53.46 21.78 52.08V51.12H47.6399V52.08C47.6399 53.4 48.7199 54.54 50.0999 54.54H54.0599C55.3799 54.54 56.5199 53.46 56.5199 52.08V50.82C58.6199 50.04 59.9999 48.12 59.9999 45.84V5.22C59.8199 2.28 57.4799 0 54.6599 0ZM19.5599 52.08C19.5599 52.32 19.3799 52.38 19.2599 52.38H15.3C15.06 52.38 15 52.2 15 52.08V51.12H19.6799L19.5599 52.08ZM53.9399 52.44H49.9799C49.74 52.44 49.68 52.26 49.68 52.14V51.18H54.3599V52.14C54.2999 52.32 54.18 52.44 53.9399 52.44ZM57.7799 45.96C57.7799 47.7 56.3399 49.08 54.6599 49.08H13.86C12.12 49.08 10.74 47.64 10.74 45.96V5.22C10.74 3.48 12.18 2.1 13.86 2.1H54.5999C56.3399 2.1 57.7199 3.54 57.7199 5.22L57.7799 45.96C57.7799 45.96 57.72 45.96 57.7799 45.96Z" fill="#333E50"/>
<path d="M49.74 43.44H18.96C17.46 43.44 16.26 42.24 16.26 40.74V9.36003C16.26 7.86003 17.46 6.66003 18.96 6.66003H49.8C51.3 6.66003 52.5 7.86003 52.5 9.36003V40.8C52.44 42.24 51.24 43.44 49.74 43.44Z" fill="white"/>
<path d="M50.88 6.90002L26.04 43.44H29.58L52.5 9.72003V9.42002C52.5 8.28002 51.84 7.32002 50.88 6.90002Z" fill="#47C0EA"/>
<path d="M39.1801 6.72003H36.9001L16.3201 37.02V40.38L39.1801 6.72003Z" fill="#47C0EA"/>
<path d="M30.8401 43.44H32.9401L52.5001 14.58V11.52L30.8401 43.44Z" fill="#47C0EA"/>
<path d="M52.5001 28.62V23.22L38.8201 43.44H42.4801L52.5001 28.62Z" fill="#47C0EA"/>
<path d="M48.3 43.44H49.74C51.24 43.44 52.44 42.24 52.5 40.8V37.26L48.3 43.44Z" fill="#47C0EA"/>
<path d="M24.12 6.72003H18.96C17.46 6.72003 16.26 7.92003 16.26 9.42003V18.24L24.12 6.72003Z" fill="#47C0EA"/>
<path d="M16.3201 26.82V33.54L34.5601 6.72003H30.0001L16.3201 26.82Z" fill="#47C0EA"/>
<path d="M24.8401 43.44L49.7401 6.72003H44.6401L44.9401 6.90003L20.1001 43.44H24.8401Z" fill="#47C0EA"/>
<path d="M24.2999 6.12H20.0999C17.2799 6.12 14.8799 8.46 14.8799 11.34V13.08H13.4399C12.8999 13.08 12.4199 13.56 12.4199 14.1C12.4199 14.64 12.8999 15.12 13.4399 15.12H14.8799V35.88H13.4399C12.8999 35.88 12.4199 36.36 12.4199 36.9C12.4199 37.44 12.8999 37.92 13.4399 37.92H14.8799V39.66C14.8799 42.48 17.2199 44.88 20.0999 44.88H48.5399C51.3599 44.88 53.7599 42.54 53.7599 39.66V11.34C53.7599 8.52 51.4199 6.12 48.5399 6.12H31.1399C31.1399 6.12 30.0599 6.3 30.0599 7.14C30.0599 7.98 31.2599 8.16 31.2599 8.16H48.4199C50.1599 8.16 51.5399 9.59999 51.5399 11.28V39.72C51.5399 41.46 50.0999 42.84 48.4199 42.84H20.0999C18.3599 42.84 16.9799 41.4 16.9799 39.72V37.98H18.4199C18.9599 37.98 19.4399 37.5 19.4399 36.96C19.4399 36.42 18.9599 35.94 18.4199 35.94H16.9799V15.18H18.4199C18.9599 15.18 19.4399 14.7 19.4399 14.16C19.4399 13.62 18.9599 13.14 18.4199 13.14H16.9799V11.4C16.9799 9.66 18.4199 8.28 20.0999 8.28H24.2999C24.2999 8.28 25.4999 8.28 25.4999 7.26C25.4999 6.24 24.2999 6.12 24.2999 6.12Z" fill="#333E50"/>
<path d="M44.3398 18.3001L44.1598 18.2401L43.9798 18.1801C39.4798 15.4801 33.5998 16.9801 30.9598 21.4801C28.3198 25.9801 29.7598 31.8601 34.2598 34.5001C37.0198 36.1801 40.5598 36.2401 43.3798 34.8001H43.4998H43.5598C48.2398 32.3401 49.9198 26.5801 47.5198 21.9601C46.9198 20.4001 45.7798 19.1401 44.3398 18.3001ZM39.3598 18.9001C40.3198 18.9001 41.3998 19.1401 42.2998 19.5001L39.1798 24.7201C38.8798 24.7801 38.6398 24.9001 38.3998 25.0201L32.4598 23.8201C33.3598 20.8201 36.1798 18.9001 39.3598 18.9001ZM31.9198 26.2201C31.9198 26.0401 31.9198 25.9201 31.9198 25.8001L37.8598 27.0001C38.0998 27.4201 38.4598 27.7801 38.9398 27.8401L41.6998 33.1801C37.8598 34.5001 33.5998 32.4601 32.3398 28.6801C32.0998 27.9001 31.9198 27.1201 31.9198 26.2201ZM43.6198 32.2201L40.8598 26.8801C41.0398 26.5801 41.0398 26.0401 40.8598 25.6801L43.9798 20.4601C47.0998 23.0401 47.5798 27.7201 44.9998 30.8401C44.6398 31.4401 44.0998 31.9201 43.6198 32.2201Z" fill="#333E50"/>
<path d="M39.36 27.06C39.8239 27.06 40.2 26.6839 40.2 26.22C40.2 25.7561 39.8239 25.38 39.36 25.38C38.8961 25.38 38.52 25.7561 38.52 26.22C38.52 26.6839 38.8961 27.06 39.36 27.06Z" fill="#95CE5A"/>
<path d="M24.24 22.5599H1.26001V58.7399H24.24V22.5599Z" fill="white"/>
<path d="M20.5201 26.52H4.32007V35.7H20.5201V26.52Z" fill="#C3E2FC"/>
<path d="M20.58 46.2H16.8V55.38H20.58V46.2Z" fill="#95CE5A"/>
<path d="M23.34 56.82C23.34 57.24 22.98 57.6 22.56 57.6H2.76C2.34 57.6 1.98 57.24 1.98 56.82V24.24C1.98 23.82 2.34 23.46 2.76 23.46H22.56H22.68C23.04 23.52 23.28 23.82 23.28 24.18C23.34 24.24 23.34 56.82 23.34 56.82ZM25.32 24.24C25.32 24.06 25.32 23.94 25.26 23.76C25.14 22.92 24.48 22.08 23.88 21.84C23.28 21.6 22.62 21.48 21.9 21.48C21.18 21.48 2.76 21.48 2.76 21.48C1.26 21.48 0 22.74 0 24.24V56.76C0 58.26 1.26 59.52 2.76 59.52H22.56C24.06 59.52 25.32 58.26 25.32 56.76V24.24Z" fill="#333E50"/>
<path d="M8.40003 38.94H4.80003C4.26003 38.94 3.78003 39.36 3.78003 39.96V43.44C3.84003 43.92 4.26003 44.4 4.80003 44.4H8.40003C8.94003 44.4 9.42003 43.98 9.42003 43.38V39.9C9.42003 39.36 8.94003 38.94 8.40003 38.94ZM7.44003 42.42H5.82003V40.92H7.44003V42.42Z" fill="#333E50"/>
<path d="M14.4601 38.94H10.8601C10.3201 38.94 9.84009 39.36 9.84009 39.96V43.44C9.84009 43.98 10.2601 44.46 10.8601 44.46H14.4601C15.0001 44.46 15.4801 44.04 15.4801 43.44V39.96C15.4201 39.36 15.0001 38.94 14.4601 38.94ZM13.4401 42.42H11.8201V40.92H13.4401V42.42Z" fill="#333E50"/>
<path d="M20.5199 38.94H16.9199C16.3799 38.94 15.8999 39.36 15.8999 39.96V43.44C15.8999 43.98 16.3199 44.46 16.9199 44.46H20.5199C21.0599 44.46 21.5399 44.04 21.5399 43.44V39.96C21.4799 39.36 21.0599 38.94 20.5199 38.94ZM19.4999 42.42H17.8799V40.92H19.4999V42.42Z" fill="#333E50"/>
<path d="M8.40003 44.88H4.80003C4.26003 44.88 3.78003 45.3 3.78003 45.9V49.38C3.78003 49.92 4.20003 50.4 4.80003 50.4H8.40003C8.94003 50.4 9.42003 49.98 9.42003 49.38V45.9C9.42003 45.3 8.94003 44.88 8.40003 44.88ZM7.44003 48.36H5.82003V46.86H7.44003V48.36Z" fill="#333E50"/>
<path d="M14.4601 44.88H10.8601C10.3201 44.88 9.84009 45.3 9.84009 45.9V49.38C9.84009 49.92 10.2601 50.4 10.8601 50.4H14.4601C15.0001 50.4 15.4801 49.98 15.4801 49.38V45.9C15.4201 45.3 15.0001 44.88 14.4601 44.88ZM13.4401 48.36H11.8201V46.86H13.4401V48.36Z" fill="#333E50"/>
<path d="M8.40003 50.94H4.80003C4.26003 50.94 3.78003 51.36 3.78003 51.96V55.44C3.84003 55.92 4.26003 56.4 4.80003 56.4H8.40003C8.94003 56.4 9.42003 55.98 9.42003 55.38V51.9C9.42003 51.36 8.94003 50.94 8.40003 50.94ZM7.44003 54.42H5.82003V52.92H7.44003V54.42Z" fill="#333E50"/>
<path d="M14.4601 50.94H10.8601C10.3201 50.94 9.84009 51.36 9.84009 51.96V55.44C9.84009 55.98 10.2601 56.46 10.8601 56.46H14.4601C15.0001 56.46 15.4801 56.04 15.4801 55.44V51.96C15.4201 51.36 15.0001 50.94 14.4601 50.94ZM13.4401 54.42H11.8201V52.92H13.4401V54.42Z" fill="#333E50"/>
<path d="M20.5199 45.12H16.9199C16.3799 45.12 15.8999 45.54 15.8999 46.14V55.38C15.8999 55.92 16.3199 56.4 16.9199 56.4H20.5199C21.0599 56.4 21.5399 55.98 21.5399 55.38V46.14C21.4799 45.6 21.0599 45.12 20.5199 45.12ZM19.4999 54.42H17.8799V47.1H19.4999V54.42Z" fill="#333E50"/>
<path d="M20.82 25.62H4.49998C3.95998 25.62 3.47998 26.04 3.47998 26.64V36.18C3.47998 36.72 3.89998 37.2 4.49998 37.2H20.82C21.36 37.2 21.84 36.78 21.84 36.18V26.64C21.78 26.1 21.36 25.62 20.82 25.62ZM19.8 35.16H5.45998V27.6H19.8V35.16Z" fill="#333E50"/>
<path d="M9.23996 34.5C9.71996 34.8 10.32 34.62 10.62 34.14L13.5 29.4C13.8 28.92 13.62 28.32 13.14 28.02C12.66 27.72 12.06 27.9 11.76 28.38L8.87996 33.12C8.63996 33.6 8.81996 34.2 9.23996 34.5Z" fill="#333E50"/>
<path d="M12.4799 34.5C12.9599 34.8 13.5599 34.62 13.8599 34.14L16.7399 29.4C17.0399 28.92 16.8599 28.32 16.3799 28.02C15.8999 27.72 15.2999 27.9 14.9999 28.38L12.1199 33.12C11.8799 33.6 12.0599 34.2 12.4799 34.5Z" fill="#333E50"/>
</svg>
