<svg width="60" height="60" viewBox="0 0 60 60" fill="none" xmlns="http://www.w3.org/2000/svg">
<path d="M32.46 14.04H15.9V17.94H32.46V14.04Z" fill="#C3E2FC"/>
<path d="M51.9 5.52008H31.6801V9.54008H51.9V5.52008Z" fill="#C3E2FC"/>
<path d="M46.8 23.34H43.56C43.02 23.34 42.6 23.76 42.6 24.3V29.28C42.6 29.88 43.02 30.3 43.56 30.3H46.8C47.34 30.3 47.76 29.88 47.76 29.34V24.3C47.82 23.76 47.4 23.34 46.8 23.34ZM45.78 25.26V28.32H44.58V25.26H45.78Z" fill="#333E50"/>
<path d="M39.9001 23.34H36.6601C36.1201 23.34 35.7001 23.76 35.7001 24.3V29.28C35.7001 29.88 36.1201 30.3 36.6601 30.3H39.9001C40.4401 30.3 40.8601 29.88 40.8601 29.34V24.3C40.8601 23.76 40.4401 23.34 39.9001 23.34ZM38.8801 25.26V28.32H37.6801V25.26H38.8801Z" fill="#333E50"/>
<path d="M46.8 33.36H43.56C43.02 33.36 42.6 33.78 42.6 34.32V39.36C42.6 39.84 43.02 40.32 43.56 40.32H46.8C47.34 40.32 47.76 39.9 47.76 39.36V34.32C47.82 33.72 47.4 33.36 46.8 33.36ZM45.78 35.22V38.28H44.58V35.22H45.78Z" fill="#333E50"/>
<path d="M39.9001 33.36H36.6601C36.1201 33.36 35.7001 33.78 35.7001 34.32V39.36C35.7001 39.84 36.1201 40.32 36.6601 40.32H39.9001C40.4401 40.32 40.8601 39.9 40.8601 39.36V34.32C40.8601 33.72 40.4401 33.36 39.9001 33.36ZM38.8801 35.22V38.28H37.6801V35.22H38.8801Z" fill="#333E50"/>
<path d="M46.8 42.7801H43.56C43.02 42.7801 42.6 43.2001 42.6 43.7401V48.7801C42.6 49.3201 43.02 49.7401 43.56 49.7401H46.8C47.34 49.7401 47.76 49.3201 47.76 48.7801V43.7401C47.82 43.2001 47.4 42.7801 46.8 42.7801ZM45.78 44.7001V47.8201H44.58V44.7601L45.78 44.7001Z" fill="#333E50"/>
<path d="M39.9001 42.7801H36.6601C36.1201 42.7801 35.7001 43.2001 35.7001 43.7401V48.7801C35.7001 49.3201 36.1201 49.7401 36.6601 49.7401H39.9001C40.4401 49.7401 40.8601 49.3201 40.8601 48.7801V43.7401C40.8601 43.2001 40.4401 42.7801 39.9001 42.7801ZM38.8801 44.7001V47.8201H37.6801V44.7601L38.8801 44.7001Z" fill="#333E50"/>
<path d="M46.8 13.4401H43.56C43.02 13.4401 42.6 13.8601 42.6 14.4001V19.4401C42.6 20.0401 42.96 20.4001 43.56 20.4001H46.8C47.34 20.4001 47.76 19.9801 47.76 19.4401V14.4001C47.82 13.8601 47.4 13.4401 46.8 13.4401ZM45.78 15.3601V18.4201H44.58V15.3601H45.78Z" fill="#333E50"/>
<path d="M39.9001 13.4401H36.6601C36.1201 13.4401 35.7001 13.8601 35.7001 14.4001V19.4401C35.7001 20.0401 36.0601 20.4001 36.6601 20.4001H39.9001C40.4401 20.4001 40.8601 19.9801 40.8601 19.4401V14.4001C40.8601 13.8601 40.4401 13.4401 39.9001 13.4401ZM38.8801 15.3601V18.4201H37.6801V15.3601H38.8801Z" fill="#333E50"/>
<path d="M51.9 52.6201V10.3201C52.38 10.2601 52.68 9.84006 52.68 9.36006V4.98006C52.68 4.50006 52.38 4.08006 51.9 4.02006V1.02006C51.9 0.480059 51.48 0.0600586 50.94 0.0600586H32.46C31.92 0.0600586 31.5 0.480059 31.5 1.02006V4.02006C31.02 4.08006 30.72 4.50006 30.72 4.98006V9.36006C30.72 9.84006 31.02 10.2601 31.5 10.3201V8.64006H16.68C16.14 8.64006 15.72 9.06006 15.72 9.60006V12.9001H15.66C15.12 12.9001 14.7 13.3201 14.7 13.8601V18.2401C14.7 18.7801 15.12 19.2001 15.66 19.2001H15.72V52.5601H15.18H15.12C14.58 52.6201 14.16 53.0401 14.16 53.5801C14.16 54.1201 14.58 54.5401 15.12 54.5401H58.98C59.52 54.5401 59.94 54.1201 59.94 53.5801C59.94 53.0401 59.28 52.6201 58.74 52.6201H51.9ZM49.86 10.3201V52.6801H33.42V10.3201H49.86ZM33.42 3.90006V1.92006H49.86V3.90006H33.42ZM50.7 5.94006V8.34006H32.64V5.94006H50.7ZM17.64 52.6201V19.2601H31.44V52.6201H17.64ZM31.44 14.8201V17.2201H16.62V14.8201H31.44ZM31.44 10.6201V12.9001H17.64V10.6201H31.44Z" fill="#333E50"/>
<path d="M54.48 41.7601C56.2363 41.7601 57.66 40.3364 57.66 38.5801C57.66 36.8238 56.2363 35.4001 54.48 35.4001C52.7238 35.4001 51.3 36.8238 51.3 38.5801C51.3 40.3364 52.7238 41.7601 54.48 41.7601Z" fill="#95CE5A"/>
<path d="M54.78 48.7801C56.5362 48.7801 57.96 47.3564 57.96 45.6001C57.96 43.8438 56.5362 42.4201 54.78 42.4201C53.0237 42.4201 51.6 43.8438 51.6 45.6001C51.6 47.3564 53.0237 48.7801 54.78 48.7801Z" fill="#95CE5A"/>
<path d="M57.06 41.2201C57.24 41.1001 57.36 40.9801 57.48 40.8601C58.2 40.1401 58.62 39.1201 58.62 37.9801C58.62 36.9001 58.2 35.8801 57.48 35.1001C56.76 34.3801 55.74 33.9601 54.66 33.9601C53.58 33.9601 52.56 34.3801 51.84 35.1001C51.12 35.8201 50.7 36.8401 50.7 37.9201C50.7 39.0001 51.12 40.0201 51.84 40.7401C51.96 40.8601 52.08 40.9801 52.26 41.1001C50.82 41.9401 49.92 43.4401 49.92 45.1201C49.92 47.4001 51.54 49.3201 53.76 49.8001V52.6201H55.62V49.9201C57.84 49.4401 59.46 47.4601 59.46 45.2401C59.4 43.5601 58.5 42.0601 57.06 41.2201ZM53.1 36.6601C53.52 36.2401 54 36.0601 54.54 36.0601C55.08 36.0601 55.62 36.3001 55.98 36.6601C56.34 37.0201 56.58 37.5601 56.58 38.1001C56.58 38.6401 56.34 39.1801 55.98 39.5401C55.2 40.3201 53.82 40.3201 53.04 39.5401C52.68 39.1801 52.44 38.5801 52.44 38.0401C52.56 37.4401 52.74 36.9601 53.1 36.6601ZM54.6 48.0601C53.04 48.0601 51.78 46.8601 51.78 45.2401C51.78 43.6801 53.04 42.4201 54.6 42.4201C56.16 42.4201 57.42 43.6801 57.42 45.2401C57.42 46.8601 56.16 48.0601 54.6 48.0601Z" fill="#333E50"/>
<path d="M24.24 22.5599H1.26001V58.7399H24.24V22.5599Z" fill="white"/>
<path d="M20.5201 26.52H4.32007V35.7H20.5201V26.52Z" fill="#C3E2FC"/>
<path d="M20.58 46.2H16.8V55.38H20.58V46.2Z" fill="#95CE5A"/>
<path d="M23.34 56.82C23.34 57.24 22.98 57.6 22.56 57.6H2.76C2.34 57.6 1.98 57.24 1.98 56.82V24.24C1.98 23.82 2.34 23.46 2.76 23.46H22.56H22.68C23.04 23.52 23.28 23.82 23.28 24.18C23.34 24.24 23.34 56.82 23.34 56.82ZM25.32 24.24C25.32 24.06 25.32 23.94 25.26 23.76C25.14 22.92 24.48 22.08 23.88 21.84C23.28 21.6 22.62 21.48 21.9 21.48C21.18 21.48 2.76 21.48 2.76 21.48C1.26 21.48 0 22.74 0 24.24V56.76C0 58.26 1.26 59.52 2.76 59.52H22.56C24.06 59.52 25.32 58.26 25.32 56.76V24.24Z" fill="#333E50"/>
<path d="M8.40003 38.94H4.80003C4.26003 38.94 3.78003 39.36 3.78003 39.96V43.44C3.84003 43.92 4.26003 44.4 4.80003 44.4H8.40003C8.94003 44.4 9.42003 43.98 9.42003 43.38V39.9C9.42003 39.36 8.94003 38.94 8.40003 38.94ZM7.44003 42.42H5.82003V40.92H7.44003V42.42Z" fill="#333E50"/>
<path d="M14.46 38.94H10.86C10.32 38.94 9.83997 39.36 9.83997 39.96V43.44C9.83997 43.98 10.26 44.46 10.86 44.46H14.46C15 44.46 15.48 44.04 15.48 43.44V39.96C15.42 39.36 15 38.94 14.46 38.94ZM13.44 42.42H11.82V40.92H13.44V42.42Z" fill="#333E50"/>
<path d="M20.52 38.94H16.92C16.38 38.94 15.9 39.36 15.9 39.96V43.44C15.9 43.98 16.32 44.46 16.92 44.46H20.52C21.06 44.46 21.54 44.04 21.54 43.44V39.96C21.48 39.36 21.06 38.94 20.52 38.94ZM19.5 42.42H17.88V40.92H19.5V42.42Z" fill="#333E50"/>
<path d="M8.40003 44.88H4.80003C4.26003 44.88 3.78003 45.3 3.78003 45.9V49.38C3.78003 49.92 4.20003 50.4 4.80003 50.4H8.40003C8.94003 50.4 9.42003 49.98 9.42003 49.38V45.9C9.42003 45.3 8.94003 44.88 8.40003 44.88ZM7.44003 48.36H5.82003V46.86H7.44003V48.36Z" fill="#333E50"/>
<path d="M14.46 44.88H10.86C10.32 44.88 9.83997 45.3 9.83997 45.9V49.38C9.83997 49.92 10.26 50.4 10.86 50.4H14.46C15 50.4 15.48 49.98 15.48 49.38V45.9C15.42 45.3 15 44.88 14.46 44.88ZM13.44 48.36H11.82V46.86H13.44V48.36Z" fill="#333E50"/>
<path d="M8.40003 50.94H4.80003C4.26003 50.94 3.78003 51.36 3.78003 51.96V55.44C3.84003 55.92 4.26003 56.4 4.80003 56.4H8.40003C8.94003 56.4 9.42003 55.98 9.42003 55.38V51.9C9.42003 51.36 8.94003 50.94 8.40003 50.94ZM7.44003 54.42H5.82003V52.92H7.44003V54.42Z" fill="#333E50"/>
<path d="M14.46 50.94H10.86C10.32 50.94 9.83997 51.36 9.83997 51.96V55.44C9.83997 55.98 10.26 56.46 10.86 56.46H14.46C15 56.46 15.48 56.04 15.48 55.44V51.96C15.42 51.36 15 50.94 14.46 50.94ZM13.44 54.42H11.82V52.92H13.44V54.42Z" fill="#333E50"/>
<path d="M20.52 45.12H16.92C16.38 45.12 15.9 45.54 15.9 46.14V55.38C15.9 55.92 16.32 56.4 16.92 56.4H20.52C21.06 56.4 21.54 55.98 21.54 55.38V46.14C21.48 45.6 21.06 45.12 20.52 45.12ZM19.5 54.42H17.88V47.1H19.5V54.42Z" fill="#333E50"/>
<path d="M20.82 25.62H4.49998C3.95998 25.62 3.47998 26.04 3.47998 26.64V36.18C3.47998 36.72 3.89998 37.2 4.49998 37.2H20.82C21.36 37.2 21.84 36.78 21.84 36.18V26.64C21.78 26.1 21.36 25.62 20.82 25.62ZM19.8 35.16H5.45998V27.6H19.8V35.16Z" fill="#333E50"/>
<path d="M9.23996 34.5C9.71996 34.8 10.32 34.62 10.62 34.14L13.5 29.4C13.8 28.92 13.62 28.32 13.14 28.02C12.66 27.72 12.06 27.9 11.76 28.38L8.87996 33.12C8.63996 33.6 8.81996 34.2 9.23996 34.5Z" fill="#333E50"/>
<path d="M12.4799 34.5C12.9599 34.8 13.5599 34.62 13.8599 34.14L16.7399 29.4C17.0399 28.92 16.8599 28.32 16.3799 28.02C15.8999 27.72 15.2999 27.9 14.9999 28.38L12.1199 33.12C11.8799 33.6 12.0599 34.2 12.4799 34.5Z" fill="#333E50"/>
</svg>
