<svg width="60" height="60" viewBox="0 0 60 60" fill="none" xmlns="http://www.w3.org/2000/svg">
<path d="M58.7999 7.5H19.6799V22.5L24.2399 23.28L24.5399 53.7H58.7999V7.5Z" fill="#C3E2FC"/>
<path d="M20.5201 26.52H4.32007V35.7H20.5201V26.52Z" fill="#C3E2FC"/>
<path d="M55.8 13.14H23.64V28.44H55.8V13.14Z" fill="white"/>
<path d="M55.8 32.7H23.64V48H55.8V32.7Z" fill="white"/>
<path d="M26.58 37.32L29.52 36.42L32.88 37.38L32.82 41.82L29.52 44.52L26.1 41.82L26.58 37.32Z" fill="#95CE5A"/>
<path d="M26.58 17.52L29.52 16.62L32.88 17.58L32.82 22.02L29.52 24.72L26.1 22.02L26.58 17.52Z" fill="#95CE5A"/>
<path d="M20.58 46.2H16.8V55.38H20.58V46.2Z" fill="#95CE5A"/>
<path d="M57.3 0.47998H21.54C20.04 0.47998 18.84 1.67998 18.84 3.17998V21.54H2.76C1.26 21.54 0 22.8 0 24.3V56.82C0 58.32 1.26 59.58 2.76 59.58H22.56C24.06 59.58 25.32 58.32 25.32 56.82V54.6H57.3C58.8 54.6 60 53.4 60 51.9V3.11998C60 1.67998 58.8 0.47998 57.3 0.47998ZM21.54 2.45998H57.36C57.72 2.45998 58.08 2.75998 58.08 3.17998V6.89998H20.88V3.11998C20.82 2.75998 21.12 2.45998 21.54 2.45998ZM23.34 56.82C23.34 57.24 22.98 57.6 22.56 57.6H2.76C2.34 57.6 1.98 57.24 1.98 56.82V24.24C1.98 23.82 2.34 23.46 2.76 23.46H22.56H22.68C23.04 23.52 23.28 23.82 23.28 24.18C23.34 24.24 23.34 56.82 23.34 56.82ZM25.32 33.72H55.02V47.4H25.32V33.72ZM25.26 23.76C25.14 22.92 24.6 22.2 23.88 21.84V13.74H55.02V27.42H25.32V24.3C25.32 24.12 25.32 23.94 25.26 23.76ZM57.3 52.62H25.32V49.44H56.04C56.58 49.44 57.06 49.02 57.06 48.42V32.76C57.06 32.22 56.64 31.74 56.04 31.74H25.32V29.4H56.04C56.58 29.4 57.06 28.98 57.06 28.38V12.72C57.06 12.18 56.64 11.7 56.04 11.7H22.86C22.32 11.7 21.84 12.12 21.84 12.72V21.54H20.76V8.87998H57.96V51.9C58.02 52.26 57.72 52.56 57.3 52.62Z" fill="#333E50"/>
<path d="M26.04 5.45998C26.58 5.45998 27 5.03998 27 4.49998C27 4.01998 26.58 3.59998 26.04 3.59998C25.5 3.59998 25.08 4.01998 25.08 4.55998C25.08 5.03998 25.5 5.45998 26.04 5.45998Z" fill="#333E50"/>
<path d="M28.98 5.45998C29.52 5.45998 29.94 5.03998 29.94 4.49998C29.94 3.95998 29.52 3.53998 28.98 3.53998C28.44 3.53998 28.02 3.95998 28.02 4.49998C28.02 5.03998 28.44 5.45998 28.98 5.45998Z" fill="#333E50"/>
<path d="M23.3999 5.45998C23.9399 5.45998 24.3599 5.03998 24.3599 4.49998C24.3599 3.95998 23.9399 3.59998 23.3999 3.59998C22.8599 3.59998 22.4399 4.01998 22.4399 4.55998C22.4399 5.03998 22.8599 5.45998 23.3999 5.45998Z" fill="#333E50"/>
<path d="M35.64 19.26H51.54C52.08 19.26 52.56 18.84 52.56 18.24C52.56 17.64 52.14 17.22 51.54 17.22H35.64C35.1 17.22 34.62 17.64 34.62 18.24C34.62 18.84 35.1 19.26 35.64 19.26Z" fill="#333E50"/>
<path d="M35.64 23.88H47.7C48.24 23.88 48.72 23.46 48.72 22.86C48.72 22.32 48.3 21.84 47.7 21.84H35.64C35.1 21.84 34.62 22.26 34.62 22.86C34.68 23.4 35.1 23.88 35.64 23.88Z" fill="#333E50"/>
<path d="M51.54 37.2599H35.64C35.1 37.2599 34.62 37.6799 34.62 38.28C34.62 38.88 35.04 39.3 35.64 39.3H51.54C52.08 39.3 52.56 38.88 52.56 38.28C52.56 37.6799 52.08 37.2599 51.54 37.2599Z" fill="#333E50"/>
<path d="M47.7 41.88H35.64C35.1 41.88 34.62 42.3 34.62 42.9C34.62 43.5 35.04 43.92 35.64 43.92H47.7C48.24 43.92 48.72 43.5 48.72 42.9C48.72 42.3 48.24 41.88 47.7 41.88Z" fill="#333E50"/>
<path d="M29.1 25.32C29.22 25.38 29.34 25.38 29.52 25.38C29.64 25.38 29.82 25.38 29.94 25.32C30.54 25.02 31.14 24.72 31.68 24.3C32.76 23.7 33.54 22.56 33.66 21.3V17.04C33.66 16.74 33.54 16.5 33.36 16.32C33.18 16.14 32.88 16.02 32.64 16.08C32.52 16.08 32.46 16.08 32.34 16.08C31.62 16.14 30.9 15.9 30.24 15.54C29.88 15.18 29.28 15.18 28.92 15.54C28.32 15.96 27.6 16.14 26.82 16.08C26.7 16.08 26.58 16.08 26.52 16.08C25.98 16.02 25.5 16.44 25.5 16.98V17.04V21.3C25.44 23.52 28.5 25.02 29.1 25.32ZM27.42 18C28.14 17.94 28.86 17.76 29.52 17.4C30.18 17.76 30.9 17.94 31.62 18V21.3C31.62 21.66 31.2 22.2 30.48 22.68C30.18 22.92 29.82 23.1 29.52 23.28C28.56 22.74 27.42 21.9 27.42 21.3V18Z" fill="#333E50"/>
<path d="M32.5799 36.06C32.4599 36.06 32.3999 36.06 32.2799 36.06C31.5599 36.12 30.8399 35.88 30.1799 35.52C29.8199 35.16 29.2199 35.16 28.8599 35.52C28.2599 35.94 27.5399 36.12 26.7599 36.06C26.6399 36.06 26.5199 36.06 26.4599 36.06C25.9199 36 25.4399 36.42 25.4399 37.02V37.08V41.34C25.4399 43.56 28.4999 45.06 29.1599 45.36C29.3999 45.48 29.6999 45.48 29.9999 45.36C30.5999 45.06 31.1999 44.76 31.7399 44.34C32.8199 43.74 33.5999 42.6 33.7199 41.34V37.08C33.7199 36.78 33.5999 36.54 33.4199 36.36C33.1199 36.12 32.8799 36.06 32.5799 36.06ZM31.6799 41.34C31.6799 41.7 31.2599 42.24 30.5399 42.72C30.2399 42.96 29.8799 43.14 29.5799 43.32C28.6199 42.78 27.4799 41.94 27.4799 41.34V38.04C28.1999 37.98 28.9199 37.8 29.5799 37.44C30.2399 37.8 30.9599 37.98 31.6799 38.04V41.34Z" fill="#333E50"/>
<path d="M8.40003 38.94H4.80003C4.26003 38.94 3.78003 39.36 3.78003 39.96V43.44C3.84003 43.92 4.26003 44.4 4.80003 44.4H8.40003C8.94003 44.4 9.42003 43.98 9.42003 43.38V39.9C9.42003 39.36 8.94003 38.94 8.40003 38.94ZM7.44003 42.42H5.82003V40.92H7.44003V42.42Z" fill="#333E50"/>
<path d="M14.46 38.94H10.86C10.32 38.94 9.83997 39.36 9.83997 39.96V43.44C9.83997 43.98 10.26 44.46 10.86 44.46H14.46C15 44.46 15.48 44.04 15.48 43.44V39.96C15.42 39.36 15 38.94 14.46 38.94ZM13.44 42.42H11.82V40.92H13.44V42.42Z" fill="#333E50"/>
<path d="M20.52 38.94H16.92C16.38 38.94 15.9 39.36 15.9 39.96V43.44C15.9 43.98 16.32 44.46 16.92 44.46H20.52C21.06 44.46 21.54 44.04 21.54 43.44V39.96C21.48 39.36 21.06 38.94 20.52 38.94ZM19.5 42.42H17.88V40.92H19.5V42.42Z" fill="#333E50"/>
<path d="M8.40003 44.88H4.80003C4.26003 44.88 3.78003 45.3 3.78003 45.9V49.38C3.78003 49.92 4.20003 50.4 4.80003 50.4H8.40003C8.94003 50.4 9.42003 49.98 9.42003 49.38V45.9C9.42003 45.3 8.94003 44.88 8.40003 44.88ZM7.44003 48.36H5.82003V46.86H7.44003V48.36Z" fill="#333E50"/>
<path d="M14.46 44.88H10.86C10.32 44.88 9.83997 45.3 9.83997 45.9V49.38C9.83997 49.92 10.26 50.4 10.86 50.4H14.46C15 50.4 15.48 49.98 15.48 49.38V45.9C15.42 45.3 15 44.88 14.46 44.88ZM13.44 48.36H11.82V46.86H13.44V48.36Z" fill="#333E50"/>
<path d="M8.40003 50.94H4.80003C4.26003 50.94 3.78003 51.36 3.78003 51.96V55.44C3.84003 55.92 4.26003 56.4 4.80003 56.4H8.40003C8.94003 56.4 9.42003 55.98 9.42003 55.38V51.9C9.42003 51.36 8.94003 50.94 8.40003 50.94ZM7.44003 54.42H5.82003V52.92H7.44003V54.42Z" fill="#333E50"/>
<path d="M14.46 50.94H10.86C10.32 50.94 9.83997 51.36 9.83997 51.96V55.44C9.83997 55.98 10.26 56.46 10.86 56.46H14.46C15 56.46 15.48 56.04 15.48 55.44V51.96C15.42 51.36 15 50.94 14.46 50.94ZM13.44 54.42H11.82V52.92H13.44V54.42Z" fill="#333E50"/>
<path d="M20.52 45.12H16.92C16.38 45.12 15.9 45.54 15.9 46.14V55.38C15.9 55.92 16.32 56.4 16.92 56.4H20.52C21.06 56.4 21.54 55.98 21.54 55.38V46.14C21.48 45.6 21.06 45.12 20.52 45.12ZM19.5 54.42H17.88V47.1H19.5V54.42Z" fill="#333E50"/>
<path d="M20.82 25.62H4.49998C3.95998 25.62 3.47998 26.04 3.47998 26.64V36.18C3.47998 36.72 3.89998 37.2 4.49998 37.2H20.82C21.36 37.2 21.84 36.78 21.84 36.18V26.64C21.78 26.1 21.36 25.62 20.82 25.62ZM19.8 35.16H5.45998V27.6H19.8V35.16Z" fill="#333E50"/>
<path d="M9.23996 34.5C9.71996 34.8 10.32 34.62 10.62 34.14L13.5 29.4C13.8 28.92 13.62 28.32 13.14 28.02C12.66 27.72 12.06 27.9 11.76 28.38L8.87996 33.12C8.63996 33.6 8.81996 34.2 9.23996 34.5Z" fill="#333E50"/>
<path d="M12.4799 34.5C12.9599 34.8 13.5599 34.62 13.8599 34.14L16.7399 29.4C17.0399 28.92 16.8599 28.32 16.3799 28.02C15.8999 27.72 15.2999 27.9 14.9999 28.38L12.1199 33.12C11.8799 33.6 12.0599 34.2 12.4799 34.5Z" fill="#333E50"/>
</svg>
