<svg width="60" height="60" viewBox="0 0 60 60" fill="none" xmlns="http://www.w3.org/2000/svg">
<path d="M48.5999 1.14001H11.6399V59.4H48.5999V1.14001Z" fill="white"/>
<path d="M42.6598 7.5H16.5598V22.26H42.6598V7.5Z" fill="#C3E2FC"/>
<path d="M42.7199 39.18H36.6599V53.94H42.7199V39.18Z" fill="#95CE5A"/>
<path d="M47.8199 0.54C46.9199 0.18 45.9599 0 44.88 0H14.04C11.94 0 10.2 1.74 10.2 3.84V56.16C10.2 58.26 11.94 60 14.04 60H45.8999C48 60 49.7399 58.26 49.7399 56.16V3.84C49.7399 3.6 49.74 3.48 49.68 3.24V3.12C49.5 1.98 48.5399 0.84 47.8199 0.54ZM45.9599 58.14H14.04C13.02 58.14 12.18 57.3 12.18 56.28V3.84C12.18 2.82 13.02 1.98 14.04 1.98H46.1999C47.0399 2.1 47.6999 2.82 47.6999 3.72H47.6399C47.7599 4.86 47.7599 9.48 47.7599 30C47.7599 43.14 47.7599 56.22 47.7599 56.22C47.8199 57.3 46.9199 58.14 45.9599 58.14Z" fill="#333E50"/>
<path d="M23.1601 28.08H17.3401C16.8601 28.08 16.3201 28.44 16.3201 29.1V34.68C16.3801 35.16 16.8001 35.64 17.3401 35.64H23.1601C23.6401 35.64 24.1801 35.28 24.1801 34.62V29.04C24.1801 28.5 23.7001 28.08 23.1601 28.08ZM22.2001 33.72H18.3601V30.06H22.2001V33.72Z" fill="#333E50"/>
<path d="M27.1199 28.08C26.6399 28.08 26.0999 28.44 26.0999 29.1V34.68C26.0999 35.16 26.4599 35.7 27.1199 35.7H32.9399C33.4199 35.7 33.9599 35.34 33.9599 34.68V29.1C33.8999 28.5 33.4799 28.08 32.9399 28.08H27.1199ZM31.8599 33.72H28.0199V30.06H31.8599V33.72Z" fill="#333E50"/>
<path d="M42.6601 35.76C43.1401 35.76 43.6801 35.4 43.6801 34.74V29.16C43.6201 28.56 43.2001 28.14 42.6601 28.14H36.8401C36.3601 28.14 35.8201 28.5 35.8201 29.16V34.74C35.8201 35.22 36.1801 35.76 36.8401 35.76H42.6601ZM37.8001 30.06H41.6401V33.72H37.8001V30.06Z" fill="#333E50"/>
<path d="M23.1601 37.68H17.3401C16.8601 37.68 16.3201 38.04 16.3201 38.7V44.28C16.3201 44.76 16.6801 45.3 17.3401 45.3H23.1601C23.6401 45.3 24.1801 44.94 24.1801 44.28V38.7C24.1801 38.04 23.6401 37.68 23.1601 37.68ZM22.2001 43.26H18.3601V39.6H22.2001V43.26Z" fill="#333E50"/>
<path d="M27.1199 37.68C26.6399 37.68 26.0999 38.04 26.0999 38.7V44.28C26.0999 44.76 26.4599 45.3 27.1199 45.3H32.9399C33.4199 45.3 33.9599 44.94 33.9599 44.28V38.7C33.8999 38.1 33.4799 37.68 32.9399 37.68H27.1199ZM31.8599 43.26H28.0199V39.6H31.8599V43.26Z" fill="#333E50"/>
<path d="M23.1601 47.4H17.3401C16.8601 47.4 16.3201 47.76 16.3201 48.42V54C16.3801 54.48 16.8001 54.96 17.3401 54.96H23.1601C23.6401 54.96 24.1801 54.6 24.1801 53.94V48.36C24.1801 47.82 23.7001 47.4 23.1601 47.4ZM22.2001 53.04H18.3601V49.38H22.2001V53.04Z" fill="#333E50"/>
<path d="M27.1199 47.4C26.6399 47.4 26.0999 47.76 26.0999 48.42V54C26.0999 54.48 26.4599 55.02 27.1199 55.02H32.9399C33.4199 55.02 33.9599 54.66 33.9599 54V48.42C33.8999 47.82 33.4799 47.4 32.9399 47.4H27.1199ZM31.8599 53.04H28.0199V49.38H31.8599V53.04Z" fill="#333E50"/>
<path d="M42.6601 54.96C43.1401 54.96 43.6801 54.6 43.6801 53.94V39.12C43.6201 38.58 43.2001 38.04 42.6601 38.04H36.8401C36.3601 38.04 35.8201 38.4 35.8201 39.06V53.94C35.8201 54.42 36.1801 54.96 36.8401 54.96H42.6601ZM37.8001 40.02H41.6401V53.04H37.8001V40.02Z" fill="#333E50"/>
<path d="M16.8601 6.66003C16.3801 6.66003 15.8401 7.02003 15.8401 7.68003V23.04C15.8401 23.52 16.2001 24.06 16.8601 24.06H43.1401C43.6201 24.06 44.1601 23.7 44.1601 23.04V7.74003C44.1001 7.20003 43.6801 6.66003 43.1401 6.66003H16.8601ZM42.1201 22.02H17.8201V8.64003H42.1201V22.02Z" fill="#333E50"/>
<path d="M30.9599 11.1C30.8999 10.86 30.7199 10.62 30.4799 10.44C29.9999 10.14 29.3999 10.32 29.0999 10.8L24.4799 18.42C24.2399 18.84 24.4199 19.5 24.8999 19.8C25.3799 20.1 25.9199 19.92 26.2799 19.38L30.8999 11.76C31.0199 11.52 31.0199 11.28 30.9599 11.1Z" fill="#333E50"/>
<path d="M34.26 10.8L29.64 18.42C29.4 18.84 29.58 19.5 30.06 19.8C30.36 19.98 30.6 19.92 30.78 19.92C31.02 19.86 31.26 19.68 31.44 19.44L36.06 11.82C36.24 11.52 36.24 11.28 36.18 11.1C36.12 10.86 35.94 10.62 35.7 10.44C35.22 10.14 34.62 10.32 34.26 10.8Z" fill="#333E50"/>
</svg>
