<svg width="60" height="60" viewBox="0 0 60 60" fill="none" xmlns="http://www.w3.org/2000/svg">
<g clip-path="url(#clip0)">
<path d="M55.8 25.5L15.3 25.56L19.26 16.26H51.7801L55.8 25.5Z" fill="#C3E2FC"/>
<path d="M27.1802 33.66L35.4602 36.3L44.1602 33.84L42.8402 38.04L35.5802 40.2L28.2002 37.98L27.1802 33.66Z" fill="#95CE5A"/>
<path d="M47.1 43.08H24.24V47.82H47.1V43.08Z" fill="#C3E2FC"/>
<path d="M48.1802 36.3L52.1402 28.98L55.5002 31.68L55.2602 34.68L48.1802 36.3Z" fill="#95CE5A"/>
<path d="M20.2201 28.5C19.9801 28.08 19.5601 27.9 19.2001 28.02C17.6401 28.26 16.2601 29.22 15.4201 30.66C14.9401 31.44 14.7001 32.34 14.6401 33.24C14.5801 34.02 14.5201 35.16 15.4201 35.34L23.2201 37.56C24.0601 37.8 24.7201 36.78 24.3001 36L20.2201 28.5ZM16.5001 33.54C16.5601 32.04 17.5201 30.72 18.8401 30.24L21.3601 34.92L16.5001 33.54ZM16.5001 37.38C17.0401 37.5 17.3401 38.1 17.2201 38.64L16.1401 43.56C15.8401 44.88 13.9201 44.4 14.2201 43.08L15.3001 38.16C15.4801 37.56 16.0201 37.2 16.5001 37.38C17.0401 37.5 16.0201 37.2 16.5001 37.38ZM56.5201 34.5C56.8801 31.38 54.8401 28.44 51.9601 28.02C51.5401 27.96 51.1201 28.14 50.9401 28.5L46.8601 36.06C46.4401 36.84 47.1601 37.86 47.9401 37.62L55.8001 35.4C56.1601 35.28 56.5201 34.92 56.5201 34.5C56.7601 33 56.5201 34.92 56.5201 34.5ZM49.7401 34.92L52.2601 30.24C53.5801 30.72 54.5401 32.04 54.6001 33.54L49.7401 34.92ZM45.6001 33.6C45.5401 33 44.9401 32.52 44.4001 32.7L35.5801 35.04L26.7601 32.7C25.9801 32.52 25.3201 33.42 25.6201 34.2L27.4801 38.34C27.6001 38.64 27.8401 38.82 28.1401 38.88L35.2801 40.74C35.4001 40.74 35.4601 40.8 35.5801 40.74C35.7001 40.74 35.8201 40.74 35.8801 40.74L43.0201 38.88C43.3201 38.82 43.5601 38.58 43.6801 38.34L45.5401 34.2C45.6001 33.96 45.6601 33.78 45.6001 33.6ZM42.1201 36.9L35.5801 38.58L29.0401 36.9L28.2601 35.22L35.2801 37.08C35.4601 37.14 35.5801 37.14 35.7601 37.08L42.7801 35.22L42.1201 36.9ZM57.7201 27.48C59.1001 27.24 60.1201 25.8 60.0001 24.3C59.8801 22.8 58.6201 21.6 57.2401 21.6H54.9001L50.8801 13.26C49.8001 11.58 48.0001 10.56 46.0801 10.56H36.5401V6.72C36.5401 5.34 34.5601 5.34 34.5601 6.72V10.56H25.0801C23.1601 10.56 21.3601 11.58 20.2801 13.26L16.2601 21.6H13.9201C12.5401 21.6 11.3401 22.68 11.1601 24.18C10.9201 25.74 11.9401 27.24 13.4401 27.54L11.5801 31.44C11.2801 32.22 11.1001 33 11.1001 33.84V43.08C11.1001 45 11.9401 46.8 13.3201 47.94V51.18C13.3201 53.04 14.7001 54.54 16.4401 54.54H22.0801C23.8201 54.54 25.2001 53.04 25.2001 51.18V49.2H45.8401V51.12C45.8401 52.98 47.2201 54.48 48.9601 54.48H54.6001C56.3401 54.48 57.7201 52.98 57.7201 51.12V47.88C59.1001 46.68 59.9401 44.88 59.9401 43.02V33.72C59.9401 32.88 59.7601 32.1 59.4601 31.26L57.7201 27.48ZM20.6401 17.04H50.5201L54.1801 24.66H16.9801L20.6401 17.04ZM57.2401 23.64C57.8401 23.64 58.2601 24.36 57.9601 24.9C57.6601 25.5 56.8801 25.5 56.5201 24.96L55.8601 23.58H57.2401V23.64ZM22.9201 13.32C23.5801 12.84 24.3001 12.6 25.1401 12.6H46.0801C47.3401 12.6 48.6001 13.26 49.3201 14.4L49.5601 14.88H21.6601L21.9001 14.34C22.1401 13.98 22.5001 13.62 22.9201 13.32C23.1001 13.2 22.6801 13.5 22.9201 13.32ZM13.9201 25.44C12.8401 25.44 12.8401 23.7 13.9201 23.7H15.2401L14.5801 25.08C14.4601 25.26 14.2201 25.44 13.9201 25.44ZM23.2801 51.12C23.2801 51.84 22.7401 52.38 22.1401 52.38H16.5001C15.8401 52.38 15.3601 51.84 15.3601 51.12V48.96C15.9001 49.14 16.4401 49.2 16.9801 49.2H23.3401V51.12H23.2801ZM46.2001 44.04C45.7801 45 45.7801 46.14 46.2001 47.1H24.9001C25.3201 46.14 25.3201 45 24.9001 44.04H46.2001ZM49.3201 44.04C51.1201 44.1 51.0601 47.1 49.2601 47.1C47.4601 47.1 47.4001 44.1 49.2001 44.04H49.3201ZM21.7801 47.1C20.8201 47.04 20.1601 45.96 20.5201 45L20.6401 44.7C21.2401 43.8 22.5601 43.8 23.0401 44.76C23.5801 45.72 22.9201 47.04 21.8401 47.04C21.9001 47.1 21.7801 47.1 21.7801 47.1ZM54.6601 52.38H49.0201C48.3601 52.38 47.8801 51.84 47.8801 51.12V49.2H54.2401C54.7801 49.2 55.3201 49.14 55.8601 48.96V51.12C55.8601 51.84 55.3201 52.38 54.6601 52.38ZM58.0201 43.02C58.0201 45.24 56.2801 47.16 54.1801 47.16H53.7601L51.6001 42.54C51.4201 42.18 51.1201 41.94 50.7001 41.94H49.3201C49.2601 41.94 49.1401 41.94 49.0801 41.94H20.4001C20.0401 41.94 19.6801 42.18 19.5001 42.54L17.3401 47.16H16.9201C14.8201 47.16 13.0801 45.3 13.0801 43.02V33.72C13.0801 33.18 13.2001 32.64 13.3801 32.16L15.9601 26.7H55.1401L57.6001 31.8L57.7201 32.1C57.9001 32.64 58.0201 33.18 58.0201 33.72V43.02ZM56.9401 43.08C57.2401 44.4 55.3201 44.88 55.0201 43.56L53.9401 38.64C53.6401 37.32 55.5601 36.84 55.8601 38.16L56.9401 43.08Z" fill="#333E50"/>
<path d="M24.24 22.5599H1.26001V58.7399H24.24V22.5599Z" fill="white"/>
<path d="M20.5201 26.52H4.32007V35.7H20.5201V26.52Z" fill="#C3E2FC"/>
<path d="M20.58 46.2H16.8V55.38H20.58V46.2Z" fill="#95CE5A"/>
<path d="M23.34 56.82C23.34 57.24 22.98 57.6 22.56 57.6H2.76C2.34 57.6 1.98 57.24 1.98 56.82V24.24C1.98 23.82 2.34 23.46 2.76 23.46H22.56H22.68C23.04 23.52 23.28 23.82 23.28 24.18C23.34 24.24 23.34 56.82 23.34 56.82ZM25.32 24.24C25.32 24.06 25.32 23.94 25.26 23.76C25.14 22.92 24.48 22.08 23.88 21.84C23.28 21.6 22.62 21.48 21.9 21.48C21.18 21.48 2.76 21.48 2.76 21.48C1.26 21.48 0 22.74 0 24.24V56.76C0 58.26 1.26 59.52 2.76 59.52H22.56C24.06 59.52 25.32 58.26 25.32 56.76V24.24Z" fill="#333E50"/>
<path d="M8.40003 38.94H4.80003C4.26003 38.94 3.78003 39.36 3.78003 39.96V43.44C3.84003 43.92 4.26003 44.4 4.80003 44.4H8.40003C8.94003 44.4 9.42003 43.98 9.42003 43.38V39.9C9.42003 39.36 8.94003 38.94 8.40003 38.94ZM7.44003 42.42H5.82003V40.92H7.44003V42.42Z" fill="#333E50"/>
<path d="M14.4601 38.94H10.8601C10.3201 38.94 9.84009 39.36 9.84009 39.96V43.44C9.84009 43.98 10.2601 44.46 10.8601 44.46H14.4601C15.0001 44.46 15.4801 44.04 15.4801 43.44V39.96C15.4201 39.36 15.0001 38.94 14.4601 38.94ZM13.4401 42.42H11.8201V40.92H13.4401V42.42Z" fill="#333E50"/>
<path d="M20.5199 38.94H16.9199C16.3799 38.94 15.8999 39.36 15.8999 39.96V43.44C15.8999 43.98 16.3199 44.46 16.9199 44.46H20.5199C21.0599 44.46 21.5399 44.04 21.5399 43.44V39.96C21.4799 39.36 21.0599 38.94 20.5199 38.94ZM19.4999 42.42H17.8799V40.92H19.4999V42.42Z" fill="#333E50"/>
<path d="M8.40003 44.88H4.80003C4.26003 44.88 3.78003 45.3 3.78003 45.9V49.38C3.78003 49.92 4.20003 50.4 4.80003 50.4H8.40003C8.94003 50.4 9.42003 49.98 9.42003 49.38V45.9C9.42003 45.3 8.94003 44.88 8.40003 44.88ZM7.44003 48.36H5.82003V46.86H7.44003V48.36Z" fill="#333E50"/>
<path d="M14.4601 44.88H10.8601C10.3201 44.88 9.84009 45.3 9.84009 45.9V49.38C9.84009 49.92 10.2601 50.4 10.8601 50.4H14.4601C15.0001 50.4 15.4801 49.98 15.4801 49.38V45.9C15.4201 45.3 15.0001 44.88 14.4601 44.88ZM13.4401 48.36H11.8201V46.86H13.4401V48.36Z" fill="#333E50"/>
<path d="M8.40003 50.94H4.80003C4.26003 50.94 3.78003 51.36 3.78003 51.96V55.44C3.84003 55.92 4.26003 56.4 4.80003 56.4H8.40003C8.94003 56.4 9.42003 55.98 9.42003 55.38V51.9C9.42003 51.36 8.94003 50.94 8.40003 50.94ZM7.44003 54.42H5.82003V52.92H7.44003V54.42Z" fill="#333E50"/>
<path d="M14.4601 50.94H10.8601C10.3201 50.94 9.84009 51.36 9.84009 51.96V55.44C9.84009 55.98 10.2601 56.46 10.8601 56.46H14.4601C15.0001 56.46 15.4801 56.04 15.4801 55.44V51.96C15.4201 51.36 15.0001 50.94 14.4601 50.94ZM13.4401 54.42H11.8201V52.92H13.4401V54.42Z" fill="#333E50"/>
<path d="M20.5199 45.12H16.9199C16.3799 45.12 15.8999 45.54 15.8999 46.14V55.38C15.8999 55.92 16.3199 56.4 16.9199 56.4H20.5199C21.0599 56.4 21.5399 55.98 21.5399 55.38V46.14C21.4799 45.6 21.0599 45.12 20.5199 45.12ZM19.4999 54.42H17.8799V47.1H19.4999V54.42Z" fill="#333E50"/>
<path d="M20.82 25.62H4.49998C3.95998 25.62 3.47998 26.04 3.47998 26.64V36.18C3.47998 36.72 3.89998 37.2 4.49998 37.2H20.82C21.36 37.2 21.84 36.78 21.84 36.18V26.64C21.78 26.1 21.36 25.62 20.82 25.62ZM19.8 35.16H5.45998V27.6H19.8V35.16Z" fill="#333E50"/>
<path d="M9.23996 34.5C9.71996 34.8 10.32 34.62 10.62 34.14L13.5 29.4C13.8 28.92 13.62 28.32 13.14 28.02C12.66 27.72 12.06 27.9 11.76 28.38L8.87996 33.12C8.63996 33.6 8.81996 34.2 9.23996 34.5Z" fill="#333E50"/>
<path d="M12.4799 34.5C12.9599 34.8 13.5599 34.62 13.8599 34.14L16.7399 29.4C17.0399 28.92 16.8599 28.32 16.3799 28.02C15.8999 27.72 15.2999 27.9 14.9999 28.38L12.1199 33.12C11.8799 33.6 12.0599 34.2 12.4799 34.5Z" fill="#333E50"/>
</g>
<defs>
<clipPath id="clip0">
<rect width="60" height="60" fill="white"/>
</clipPath>
</defs>
</svg>
