<svg width="60" height="60" viewBox="0 0 60 60" fill="none" xmlns="http://www.w3.org/2000/svg">
<path d="M32.2201 29.4001C32.5801 29.9401 33.2401 30.3001 33.9001 30.3001L45.8401 30.2401C46.3801 30.2401 46.8601 30.0001 47.2801 29.6401C47.6401 29.2801 47.8801 28.7401 47.8801 28.2001C47.8801 27.6601 47.6401 27.1801 47.2801 26.7601C46.9201 26.4001 46.3801 26.1601 45.8401 26.1601L34.7401 26.2201L28.9801 20.5201C28.3201 19.8601 27.3001 19.7401 26.5201 20.2201C26.4001 20.2801 26.2201 20.4601 26.1001 20.5201C25.3201 21.3001 25.3201 22.6201 26.1001 23.3401L32.2201 29.4001Z" fill="#C3E2FC"/>
<path d="M46.32 25.8L34.86 25.86L28.86 19.92C28.44 19.5 27.84 19.44 27.42 19.74L27.3 19.8C27.3 19.8 27.24 19.86 27.18 19.86C27.12 19.92 27.06 19.98 27 19.98C26.82 20.22 26.7 20.52 26.7 20.82C26.7 21.12 26.82 21.42 27.06 21.6L33.3 27.78C33.54 28.08 33.96 28.32 34.32 28.32L46.32 28.26C46.62 28.26 46.92 28.14 47.22 27.9C47.4 27.66 47.52 27.36 47.52 27.06C47.52 26.76 47.4 26.46 47.16 26.16C46.92 25.92 46.62 25.8 46.32 25.8Z" fill="#333E50"/>
<path d="M33.84 5.76004C46.32 5.76004 56.52 15.96 56.52 28.44C56.52 40.92 46.32 51.12 33.84 51.12C21.36 51.12 11.16 40.92 11.16 28.44C11.16 15.96 21.36 5.76004 33.84 5.76004ZM33.84 3.60004C20.16 3.60004 9 14.7 9 28.44C9 42.12 20.1 53.28 33.84 53.28C47.52 53.28 58.68 42.18 58.68 28.44C58.74 14.76 47.52 3.60004 33.84 3.60004Z" fill="#C3E2FC"/>
<path d="M35.04 4.56002C47.52 4.56002 57.7199 14.76 57.7199 27.24C57.7199 39.72 47.52 49.92 35.04 49.92C22.56 49.92 12.36 39.72 12.36 27.24C12.36 14.76 22.5 4.56002 35.04 4.56002ZM35.04 2.40002C21.36 2.40002 10.2 13.5 10.2 27.24C10.2 40.92 21.3 52.08 35.04 52.08C48.7199 52.08 59.88 40.98 59.88 27.24C59.88 13.62 48.7199 2.40002 35.04 2.40002Z" fill="#333E50"/>
<path d="M23.82 18.8401C24.8472 18.8401 25.68 18.0073 25.68 16.9801C25.68 15.9528 24.8472 15.1201 23.82 15.1201C22.7927 15.1201 21.96 15.9528 21.96 16.9801C21.96 18.0073 22.7927 18.8401 23.82 18.8401Z" fill="#95CE5A"/>
<path d="M23.8201 15.84C24.4201 15.84 24.96 16.38 24.96 16.98C24.96 17.58 24.4201 18.12 23.8201 18.12C23.22 18.12 22.68 17.58 22.68 16.98C22.62 16.38 23.16 15.84 23.8201 15.84ZM23.8201 14.46C22.38 14.46 21.3 15.6 21.3 16.98C21.3 18.42 22.44 19.5 23.8201 19.5C25.1401 19.5 26.3401 18.36 26.3401 16.98C26.4001 15.54 25.2001 14.46 23.8201 14.46Z" fill="#333E50"/>
<path d="M51.66 29.04C52.6873 29.04 53.52 28.2073 53.52 27.18C53.52 26.1528 52.6873 25.32 51.66 25.32C50.6328 25.32 49.8 26.1528 49.8 27.18C49.8 28.2073 50.6328 29.04 51.66 29.04Z" fill="#95CE5A"/>
<path d="M51.6601 26.04C52.2601 26.04 52.8001 26.58 52.8001 27.18C52.8001 27.78 52.2601 28.32 51.6601 28.32C51.0601 28.32 50.5201 27.78 50.5201 27.18C50.5201 26.58 51.0001 26.04 51.6601 26.04ZM51.6601 24.72C50.2201 24.72 49.1401 25.86 49.1401 27.24C49.1401 28.68 50.2801 29.76 51.6601 29.76C52.9801 29.76 54.1801 28.62 54.1801 27.24C54.2401 25.86 53.0401 24.72 51.6601 24.72Z" fill="#333E50"/>
<path d="M24.24 22.56H1.26001V58.74H24.24V22.56Z" fill="white"/>
<path d="M20.5201 26.52H4.32007V35.7H20.5201V26.52Z" fill="#C3E2FC"/>
<path d="M20.58 46.2H16.8V55.38H20.58V46.2Z" fill="#95CE5A"/>
<path d="M23.34 56.82C23.34 57.24 22.98 57.6 22.56 57.6H2.76C2.34 57.6 1.98 57.24 1.98 56.82V24.24C1.98 23.82 2.34 23.46 2.76 23.46H22.56H22.68C23.04 23.52 23.28 23.82 23.28 24.18C23.34 24.24 23.34 56.82 23.34 56.82ZM25.32 24.24C25.32 24.06 25.32 23.94 25.26 23.76C25.14 22.92 24.48 22.08 23.88 21.84C23.28 21.6 22.62 21.48 21.9 21.48C21.18 21.48 2.76 21.48 2.76 21.48C1.26 21.48 0 22.74 0 24.24V56.76C0 58.26 1.26 59.52 2.76 59.52H22.56C24.06 59.52 25.32 58.26 25.32 56.76V24.24Z" fill="#333E50"/>
<path d="M8.40003 38.94H4.80003C4.26003 38.94 3.78003 39.36 3.78003 39.96V43.44C3.84003 43.92 4.26003 44.4 4.80003 44.4H8.40003C8.94003 44.4 9.42003 43.98 9.42003 43.38V39.9C9.42003 39.36 8.94003 38.94 8.40003 38.94ZM7.44003 42.42H5.82003V40.92H7.44003V42.42Z" fill="#333E50"/>
<path d="M14.4601 38.94H10.8601C10.3201 38.94 9.84009 39.36 9.84009 39.96V43.44C9.84009 43.98 10.2601 44.46 10.8601 44.46H14.4601C15.0001 44.46 15.4801 44.04 15.4801 43.44V39.96C15.4201 39.36 15.0001 38.94 14.4601 38.94ZM13.4401 42.42H11.8201V40.92H13.4401V42.42Z" fill="#333E50"/>
<path d="M20.5199 38.94H16.9199C16.3799 38.94 15.8999 39.36 15.8999 39.96V43.44C15.8999 43.98 16.3199 44.46 16.9199 44.46H20.5199C21.0599 44.46 21.5399 44.04 21.5399 43.44V39.96C21.4799 39.36 21.0599 38.94 20.5199 38.94ZM19.4999 42.42H17.8799V40.92H19.4999V42.42Z" fill="#333E50"/>
<path d="M8.40003 44.88H4.80003C4.26003 44.88 3.78003 45.3 3.78003 45.9V49.38C3.78003 49.92 4.20003 50.4 4.80003 50.4H8.40003C8.94003 50.4 9.42003 49.98 9.42003 49.38V45.9C9.42003 45.3 8.94003 44.88 8.40003 44.88ZM7.44003 48.36H5.82003V46.86H7.44003V48.36Z" fill="#333E50"/>
<path d="M14.4601 44.88H10.8601C10.3201 44.88 9.84009 45.3 9.84009 45.9V49.38C9.84009 49.92 10.2601 50.4 10.8601 50.4H14.4601C15.0001 50.4 15.4801 49.98 15.4801 49.38V45.9C15.4201 45.3 15.0001 44.88 14.4601 44.88ZM13.4401 48.36H11.8201V46.86H13.4401V48.36Z" fill="#333E50"/>
<path d="M8.40003 50.94H4.80003C4.26003 50.94 3.78003 51.36 3.78003 51.96V55.44C3.84003 55.92 4.26003 56.4 4.80003 56.4H8.40003C8.94003 56.4 9.42003 55.98 9.42003 55.38V51.9C9.42003 51.36 8.94003 50.94 8.40003 50.94ZM7.44003 54.42H5.82003V52.92H7.44003V54.42Z" fill="#333E50"/>
<path d="M14.4601 50.94H10.8601C10.3201 50.94 9.84009 51.36 9.84009 51.96V55.44C9.84009 55.98 10.2601 56.46 10.8601 56.46H14.4601C15.0001 56.46 15.4801 56.04 15.4801 55.44V51.96C15.4201 51.36 15.0001 50.94 14.4601 50.94ZM13.4401 54.42H11.8201V52.92H13.4401V54.42Z" fill="#333E50"/>
<path d="M20.5199 45.12H16.9199C16.3799 45.12 15.8999 45.54 15.8999 46.14V55.38C15.8999 55.92 16.3199 56.4 16.9199 56.4H20.5199C21.0599 56.4 21.5399 55.98 21.5399 55.38V46.14C21.4799 45.6 21.0599 45.12 20.5199 45.12ZM19.4999 54.42H17.8799V47.1H19.4999V54.42Z" fill="#333E50"/>
<path d="M20.82 25.62H4.49998C3.95998 25.62 3.47998 26.04 3.47998 26.64V36.18C3.47998 36.72 3.89998 37.2 4.49998 37.2H20.82C21.36 37.2 21.84 36.78 21.84 36.18V26.64C21.78 26.1 21.36 25.62 20.82 25.62ZM19.8 35.16H5.45998V27.6H19.8V35.16Z" fill="#333E50"/>
<path d="M9.23996 34.5C9.71996 34.8 10.32 34.62 10.62 34.14L13.5 29.4C13.8 28.92 13.62 28.32 13.14 28.02C12.66 27.72 12.06 27.9 11.76 28.38L8.87996 33.12C8.63996 33.6 8.81996 34.2 9.23996 34.5Z" fill="#333E50"/>
<path d="M12.4799 34.5C12.9599 34.8 13.5599 34.62 13.8599 34.14L16.7399 29.4C17.0399 28.92 16.8599 28.32 16.3799 28.02C15.8999 27.72 15.2999 27.9 14.9999 28.38L12.1199 33.12C11.8799 33.6 12.0599 34.2 12.4799 34.5Z" fill="#333E50"/>
</svg>
