<svg width="60" height="60" viewBox="0 0 60 60" fill="none" xmlns="http://www.w3.org/2000/svg">
<path d="M9.83009 36.5441C11.0549 36.5441 12.0479 35.5479 12.0479 34.3189C12.0479 33.09 11.0549 32.0938 9.83009 32.0938C8.60524 32.0938 7.6123 33.09 7.6123 34.3189C7.6123 35.5479 8.60524 36.5441 9.83009 36.5441Z" fill="#95CE5A"/>
<path d="M49.9299 36.5441C51.1548 36.5441 52.1477 35.5479 52.1477 34.3189C52.1477 33.09 51.1548 32.0938 49.9299 32.0938C48.7051 32.0938 47.7122 33.09 47.7122 34.3189C47.7122 35.5479 48.7051 36.5441 49.9299 36.5441Z" fill="#95CE5A"/>
<path d="M13.4265 10.8041L47.1128 11.586V13.5706C47.1128 13.5706 31.8281 13.2097 28.2317 15.1342C24.6353 17.0587 16.4834 26.7412 16.4834 26.7412L7.37256 25.358L13.4265 10.8041Z" fill="#C3E2FC"/>
<path d="M15.8841 42.8588H6.53345V45.7455H15.8841V42.8588Z" fill="#C3E2FC"/>
<path d="M53.0469 42.8588H43.6963V45.7455H53.0469V42.8588Z" fill="#C3E2FC"/>
<path d="M51.8481 44.1217H8.09191C3.65634 44.1217 0 40.4532 0 36.0028V28.8462C0 26.8014 1.1988 24.9972 3.11688 24.2755L6.41359 23.0126L11.2088 12.7287C12.2877 10.4434 14.5654 9 17.0829 9H42.9171C45.4346 9 47.7123 10.5035 48.7912 12.7888L53.4665 22.9525L57.0629 24.4559C58.8611 25.2378 60 26.9818 60 28.9664V35.9427C59.9401 40.4532 56.2837 44.1217 51.8481 44.1217ZM17.023 11.5259C15.5245 11.5259 14.0859 12.428 13.4266 13.8112L8.45155 24.5161C8.33167 24.8168 8.09191 25.0573 7.79221 25.1776L4.01598 26.621C3.11688 26.9818 2.51748 27.8238 2.51748 28.8462V35.9427C2.51748 39.0699 5.03497 41.5958 8.15185 41.5958H51.8481C54.965 41.5958 57.4825 39.0699 57.4825 35.9427V28.9664C57.4825 28.0042 56.9431 27.1622 56.044 26.8014L52.028 25.0573C51.7283 24.9371 51.4885 24.6965 51.3686 24.4559L46.5135 13.8713C45.8541 12.4881 44.4755 11.586 42.9171 11.586C42.8571 11.5259 17.023 11.5259 17.023 11.5259Z" fill="#333E50"/>
<path d="M30.0301 29.2671C17.3827 29.2671 6.11402 26.7412 1.37875 22.8322C0.839293 22.4112 0.779353 21.6294 1.19893 21.0881C1.61851 20.5468 2.39773 20.4867 2.9372 20.9077C7.19294 24.3958 18.102 26.8014 29.9702 26.8014C41.7184 26.8014 52.5676 24.4559 56.8833 21.028C57.4227 20.607 58.2019 20.6671 58.6215 21.2084C59.0411 21.7496 58.9812 22.5315 58.4417 22.9524C53.7064 26.8014 42.4976 29.2671 30.0301 29.2671Z" fill="#333E50"/>
<path d="M9.83018 37.9874C7.79222 37.9874 6.05396 36.3035 6.05396 34.1986C6.05396 32.1539 7.73228 30.4098 9.83018 30.4098C11.9281 30.4098 13.6064 32.0937 13.6064 34.1986C13.6064 36.3035 11.9281 37.9874 9.83018 37.9874ZM9.83018 32.9958C9.17084 32.9958 8.57144 33.5371 8.57144 34.2588C8.57144 34.9203 9.1109 35.5217 9.83018 35.5217C10.5495 35.5217 11.0889 34.9805 11.0889 34.2588C11.0889 33.5371 10.5495 32.9958 9.83018 32.9958Z" fill="#333E50"/>
<path d="M49.8104 37.9874C47.7724 37.9874 46.0342 36.3035 46.0342 34.1986C46.0342 32.1539 47.7125 30.4098 49.8104 30.4098C51.8484 30.4098 53.5866 32.0937 53.5866 34.1986C53.5267 36.3035 51.8484 37.9874 49.8104 37.9874ZM49.8104 32.9958C49.1511 32.9958 48.5517 33.5371 48.5517 34.2588C48.5517 34.9203 49.0911 35.5217 49.8104 35.5217C50.4697 35.5217 51.0691 34.9805 51.0691 34.2588C51.0691 33.5371 50.4697 32.9958 49.8104 32.9958Z" fill="#333E50"/>
<path d="M11.2687 52C7.85209 52 5.03491 49.1735 5.03491 45.7455V41.5959H7.5524V45.7455C7.5524 47.7903 9.23072 49.5343 11.3286 49.5343C13.4265 49.5343 15.1048 47.8504 15.1048 45.7455V41.5959H17.6223V45.7455C17.5024 49.2336 14.6853 52 11.2687 52Z" fill="#333E50"/>
<path d="M48.7311 52C45.3145 52 42.4973 49.1735 42.4973 45.7455V41.5959H44.9549V45.7455C44.9549 47.7903 46.6332 49.5343 48.7311 49.5343C50.829 49.5343 52.5073 47.8504 52.5073 45.7455V41.5959H55.0248V45.7455C54.9648 49.2336 52.1477 52 48.7311 52Z" fill="#333E50"/>
<path d="M39.9799 36.6042H19.9599C19.2406 36.6042 18.7012 36.0629 18.7012 35.3412C18.7012 34.6196 19.2406 34.0783 19.9599 34.0783H39.92C40.5793 34.0783 41.1787 34.6196 41.1787 35.3412C41.1787 36.0629 40.6392 36.6042 39.9799 36.6042Z" fill="#333E50"/>
<path d="M14.9849 17.9007C14.6252 17.9007 14.3255 17.7804 14.0258 17.4797C13.5463 16.9385 13.6063 16.1567 14.1457 15.7357L16.843 13.3301C17.3825 12.849 18.1617 12.9091 18.5813 13.4504C19.0608 13.9916 19.0009 14.7734 18.4614 15.1944L15.7641 17.6C15.5843 17.8406 15.2846 17.9007 14.9849 17.9007Z" fill="#333E50"/>
<path d="M14.9852 22.7119C14.6256 22.7119 14.3259 22.5916 14.0861 22.2909C13.6066 21.8098 13.6066 20.9678 14.1461 20.5468L21.7584 13.3301C22.238 12.8489 23.0771 12.8489 23.4967 13.3902C23.9762 13.8713 23.9762 14.7133 23.4368 15.1343L15.8244 22.351C15.5846 22.5916 15.2849 22.7119 14.9852 22.7119Z" fill="#333E50"/>
</svg>
