<svg width="60" height="60" viewBox="0 0 60 60" fill="none" xmlns="http://www.w3.org/2000/svg">
<path d="M60 30.3514V23.847C60 20.993 57.677 18.4709 54.6239 18.4709L26.0177 18.4045H5.37611C2.52212 18.4045 0 20.7276 0 23.7806V30.5506V43.6258V50.1302C0 52.9842 2.32301 55.5063 5.37611 55.5063H34.115H54.6239C57.4779 55.5727 60 53.1833 60 50.1966V43.3603V30.3514ZM57.6106 50.0638C57.6106 51.7895 56.2832 53.0506 54.6239 53.0506H5.37611C3.65044 53.0506 2.38938 51.7231 2.38938 50.0638V23.7806C2.38938 22.055 3.71681 20.7939 5.37611 20.7939H54.7566C56.4823 20.7939 57.7434 22.1214 57.6106 23.7806V50.0638Z" fill="#333E50"/>
<path d="M10.8849 40.9045H51.1062C51.9026 40.9045 52.4336 41.5683 52.4336 42.232C52.4336 43.0284 51.7699 43.5594 51.1062 43.5594H10.8849C10.0885 43.5594 9.5575 42.8957 9.5575 42.232C9.5575 41.5683 10.0885 40.9045 10.8849 40.9045Z" fill="#C3E2FC"/>
<path d="M10.8849 46.4135H34.115C34.9115 46.4135 35.4424 47.0772 35.4424 47.7409C35.4424 48.5373 34.7787 49.0683 34.115 49.0683H10.8849C10.0885 49.0683 9.5575 48.4046 9.5575 47.7409C9.5575 47.0772 10.0885 46.4135 10.8849 46.4135Z" fill="#C3E2FC"/>
<path d="M12.0133 34.4001H16.062C17.1239 34.4001 17.9204 33.6036 17.9204 32.5417V30.5505C17.9204 29.4886 17.1239 28.6921 16.062 28.6921H12.0133C10.9514 28.6921 10.1549 29.4886 10.1549 30.5505V32.5417C10.2213 33.6036 11.0177 34.4001 12.0133 34.4001Z" fill="#95CE5A"/>
<path d="M15.9292 35.1302H11.8805C10.4203 35.1302 9.29199 33.9355 9.29199 32.5417V30.5505C9.29199 29.0904 10.4867 27.962 11.8805 27.962H15.9292C17.3893 27.962 18.5177 29.1567 18.5177 30.5505V32.5417C18.584 34.0019 17.3893 35.1302 15.9292 35.1302ZM12.0132 29.555C11.4823 29.555 10.9513 30.0859 10.9513 30.6169V32.6081C10.9513 33.139 11.4823 33.67 12.0132 33.67H16.0619C16.5929 33.67 17.1239 33.139 17.1239 32.6081V30.6169C17.1239 30.0859 16.5929 29.555 16.0619 29.555H12.0132Z" fill="#333E50"/>
<path d="M30.0664 47.6744C29.4027 47.6744 28.8717 47.1434 28.8717 46.4797C28.8717 45.816 29.4027 45.285 30.0664 45.285H34.3806C35.0443 45.285 35.5752 45.816 35.5752 46.4797C35.5752 47.1434 35.0443 47.6744 34.3806 47.6744H30.0664Z" fill="#333E50"/>
<path d="M10.4867 47.8072C9.82297 47.8072 9.29199 47.2763 9.29199 46.6125C9.29199 45.9488 9.82297 45.4178 10.4867 45.4178H24.2256C24.8893 45.4178 25.4203 45.9488 25.4203 46.6125C25.4203 47.2763 24.8893 47.8072 24.2256 47.8072H10.4867Z" fill="#333E50"/>
<path d="M44.2035 41.9665C43.5398 41.9665 43.0088 41.4356 43.0088 40.7718C43.0088 40.1081 43.5398 39.5771 44.2035 39.5771H51.3716C52.0353 39.5771 52.5663 40.1081 52.5663 40.7718C52.5663 41.4356 52.0353 41.9665 51.3716 41.9665H44.2035Z" fill="#333E50"/>
<path d="M32.9204 41.9665C32.2567 41.9665 31.7257 41.4356 31.7257 40.7718C31.7257 40.1081 32.2567 39.5771 32.9204 39.5771H40.0885C40.7523 39.5771 41.2832 40.1081 41.2832 40.7718C41.2832 41.4356 40.7523 41.9665 40.0885 41.9665H32.9204Z" fill="#333E50"/>
<path d="M21.7036 41.9665C21.0399 41.9665 20.5089 41.4356 20.5089 40.7718C20.5089 40.1081 21.0399 39.5771 21.7036 39.5771H28.8717C29.5355 39.5771 30.0664 40.1081 30.0664 40.7718C30.0664 41.4356 29.5355 41.9665 28.8717 41.9665H21.7036Z" fill="#333E50"/>
<path d="M10.4867 41.9665C9.82297 41.9665 9.29199 41.4356 9.29199 40.7718C9.29199 40.1081 9.82297 39.5771 10.4867 39.5771H17.6548C18.3185 39.5771 18.8495 40.1081 18.8495 40.7718C18.8495 41.4356 18.3185 41.9665 17.6548 41.9665H10.4867Z" fill="#333E50"/>
<path d="M38.5075 32.7486C45.884 32.7486 51.8637 26.7688 51.8637 19.3924C51.8637 12.016 45.884 6.03625 38.5075 6.03625C31.1311 6.03625 25.1514 12.016 25.1514 19.3924C25.1514 26.7688 31.1311 32.7486 38.5075 32.7486Z" fill="#95CE5A"/>
<path d="M38.5076 33.9C30.563 33.9 24 27.4522 24 19.3924C24 11.3327 30.563 5 38.5076 5C46.4522 5 53.0151 11.4478 53.0151 19.5076C53.0151 27.5673 46.4522 33.9 38.5076 33.9ZM38.5076 7.30279C31.8295 7.30279 26.3028 12.7143 26.3028 19.5076C26.3028 26.3008 31.7143 31.7124 38.5076 31.7124C45.3008 31.7124 50.7124 26.0705 50.7124 19.3924C50.7124 12.7143 45.1857 7.30279 38.5076 7.30279Z" fill="#333E50"/>
<path d="M44.4268 13.5732C44.1707 13.3171 43.7683 13.3171 43.5122 13.5732L32.5732 24.5122C32.3171 24.7683 32.3171 25.1707 32.5732 25.4268C32.6829 25.5366 32.8659 25.6098 33.0488 25.6098C33.2317 25.6098 33.3781 25.5366 33.5244 25.4268L44.4634 14.4878C44.6829 14.2317 44.6829 13.8293 44.4268 13.5732Z" fill="#333E50"/>
<path fill-rule="evenodd" clip-rule="evenodd" d="M43.2647 13.3257C43.6575 12.9329 44.2816 12.9329 44.6744 13.3257C45.0645 13.7159 45.0633 14.3258 44.7292 14.7156L44.7204 14.7258L33.7543 25.6919L33.7344 25.7069C33.5574 25.8397 33.3378 25.9598 33.0488 25.9598C32.7844 25.9598 32.5087 25.8573 32.3257 25.6744C31.9329 25.2816 31.9329 24.6575 32.3257 24.2647L43.2647 13.3257ZM44.1794 13.8207C44.06 13.7013 43.8791 13.7013 43.7597 13.8207L32.8207 24.7597C32.7013 24.8791 32.7013 25.06 32.8207 25.1794C32.8572 25.2159 32.9474 25.2598 33.0488 25.2598C33.1214 25.2598 33.1907 25.2364 33.2956 25.1607L44.2047 14.2517C44.3025 14.1289 44.2987 13.94 44.1794 13.8207Z" fill="#333E50"/>
<path d="M38.0244 15.5122C38.0244 13.5732 36.4512 12 34.5122 12C32.5732 12 31 13.5732 31 15.5122C31 17.4512 32.5732 19.0244 34.5122 19.0244C36.4512 19.0244 38.0244 17.4512 38.0244 15.5122ZM32.2805 15.5122C32.2805 14.3049 33.2683 13.3171 34.4756 13.3171C35.6829 13.3171 36.6707 14.3049 36.6707 15.5122C36.6707 16.7195 35.6829 17.7073 34.4756 17.7073C33.3049 17.7073 32.2805 16.7195 32.2805 15.5122Z" fill="#333E50"/>
<path fill-rule="evenodd" clip-rule="evenodd" d="M30.65 15.5122C30.65 13.3799 32.3799 11.65 34.5122 11.65C36.6445 11.65 38.3744 13.3799 38.3744 15.5122C38.3744 17.6445 36.6445 19.3744 34.5122 19.3744C32.3799 19.3744 30.65 17.6445 30.65 15.5122ZM34.5122 12.35C32.7665 12.35 31.35 13.7665 31.35 15.5122C31.35 17.2579 32.7665 18.6744 34.5122 18.6744C36.2579 18.6744 37.6744 17.2579 37.6744 15.5122C37.6744 13.7665 36.2579 12.35 34.5122 12.35ZM34.4756 13.6671C33.4616 13.6671 32.6305 14.4982 32.6305 15.5122C32.6305 16.5225 33.4944 17.3573 34.4756 17.3573C35.4897 17.3573 36.3208 16.5262 36.3208 15.5122C36.3208 14.4982 35.4897 13.6671 34.4756 13.6671ZM31.9305 15.5122C31.9305 14.1116 33.075 12.9671 34.4756 12.9671C35.8763 12.9671 37.0208 14.1116 37.0208 15.5122C37.0208 16.9128 35.8763 18.0573 34.4756 18.0573C33.1154 18.0573 31.9305 16.9166 31.9305 15.5122Z" fill="#333E50"/>
<path d="M42.4878 19.9756C40.5488 19.9756 38.9756 21.5488 38.9756 23.4878C38.9756 25.4268 40.5488 27 42.4878 27C44.4268 27 46 25.4268 46 23.4878C46 21.5488 44.4268 19.9756 42.4878 19.9756ZM42.4878 25.7195C41.2805 25.7195 40.2927 24.7317 40.2927 23.5244C40.2927 22.3171 41.2805 21.3292 42.4878 21.3292C43.6951 21.3292 44.6829 22.3171 44.6829 23.5244C44.7195 24.6951 43.6951 25.7195 42.4878 25.7195Z" fill="#333E50"/>
<path fill-rule="evenodd" clip-rule="evenodd" d="M38.6256 23.4878C38.6256 21.3555 40.3555 19.6256 42.4878 19.6256C44.6201 19.6256 46.35 21.3555 46.35 23.4878C46.35 25.6201 44.6201 27.35 42.4878 27.35C40.3555 27.35 38.6256 25.6201 38.6256 23.4878ZM42.4878 20.3256C40.7421 20.3256 39.3256 21.7421 39.3256 23.4878C39.3256 25.2335 40.7421 26.65 42.4878 26.65C44.2335 26.65 45.65 25.2335 45.65 23.4878C45.65 21.7421 44.2335 20.3256 42.4878 20.3256ZM42.4878 21.6793C41.4738 21.6793 40.6427 22.5104 40.6427 23.5244C40.6427 24.5384 41.4738 25.3695 42.4878 25.3695C43.5081 25.3695 44.3632 24.4982 44.3331 23.5353L44.3328 23.5244H44.3329C44.3329 22.5104 43.5018 21.6793 42.4878 21.6793ZM39.9427 23.5244C39.9427 22.1238 41.0872 20.9793 42.4878 20.9793C43.8866 20.9793 45.03 22.1208 45.0329 23.5189C45.0727 24.8952 43.8803 26.0695 42.4878 26.0695C41.0872 26.0695 39.9427 24.925 39.9427 23.5244Z" fill="#333E50"/>
</svg>
