<svg width="60" height="60" viewBox="0 0 60 60" fill="none" xmlns="http://www.w3.org/2000/svg">
<path d="M55.92 19.56C55.92 19.74 55.92 19.86 55.92 20.04C55.92 20.64 55.86 21.24 55.86 21.84C57.12 22.5 57.96 23.82 57.96 25.38V50.7C57.96 52.92 56.16 54.72 53.94 54.72H6.12C3.9 54.72 2.1 52.92 2.1 50.7V25.38C2.1 23.16 3.9 21.36 6.12 21.36H17.22C17.22 20.94 17.16 20.52 17.16 20.04C17.16 19.74 17.16 19.5 17.16 19.26H6.12C2.76 19.26 0 21.96 0 25.38V50.7C0 54.06 2.76 56.82 6.12 56.82H53.88C57.24 56.82 60 54.06 60 50.7V25.38C60 22.68 58.26 20.4 55.92 19.56Z" fill="#333E50"/>
<path d="M14.0399 33.9H9.17994C8.21994 33.9 7.43994 33.12 7.43994 32.16V29.28C7.43994 28.32 8.21994 27.54 9.17994 27.54H14.0399C14.9999 27.54 15.7799 28.32 15.7799 29.28V32.16C15.7799 33.12 14.9999 33.9 14.0399 33.9Z" fill="#95CE5A"/>
<path d="M14.34 29.1V33.06H8.82003V29.1H14.34ZM14.4 27H8.70003C7.56003 27 6.66003 27.9 6.66003 29.04V33.18C6.66003 34.32 7.56003 35.22 8.70003 35.22H14.4C15.54 35.22 16.44 34.32 16.44 33.18V29.04C16.44 27.9 15.54 27 14.4 27Z" fill="#333E50"/>
<path d="M34.56 49.92H6.72002C6.06002 49.92 5.52002 49.38 5.52002 48.72C5.52002 48.06 6.06002 47.52 6.72002 47.52H34.56C35.22 47.52 35.76 48.06 35.76 48.72C35.76 49.38 35.22 49.92 34.56 49.92Z" fill="#C3E2FC"/>
<path d="M53.4 45.18H6.72002C6.06002 45.18 5.52002 44.64 5.52002 43.98C5.52002 43.32 6.06002 42.78 6.72002 42.78H53.4C54.06 42.78 54.6 43.32 54.6 43.98C54.6 44.64 54.06 45.18 53.4 45.18Z" fill="#C3E2FC"/>
<path d="M24.66 48.36H6.72001C6.12001 48.36 5.64001 47.88 5.64001 47.28C5.64001 46.68 6.12001 46.2 6.72001 46.2H24.6C25.2 46.2 25.68 46.68 25.68 47.28C25.68 47.88 25.2 48.36 24.66 48.36Z" fill="#333E50"/>
<path d="M34.5 48.36H28.62C28.02 48.36 27.54 47.88 27.54 47.28C27.54 46.68 28.02 46.2 28.62 46.2H34.5C35.1 46.2 35.58 46.68 35.58 47.28C35.58 47.88 35.1 48.36 34.5 48.36Z" fill="#333E50"/>
<path d="M15.7799 43.68H6.77995C6.17995 43.68 5.69995 43.2 5.69995 42.6C5.69995 42 6.17995 41.52 6.77995 41.52H15.7799C16.3799 41.52 16.86 42 16.86 42.6C16.86 43.2 16.3799 43.68 15.7799 43.68Z" fill="#333E50"/>
<path d="M28.2601 43.68H19.2601C18.6601 43.68 18.1801 43.2 18.1801 42.6C18.1801 42 18.6601 41.52 19.2601 41.52H28.2601C28.8601 41.52 29.3401 42 29.3401 42.6C29.3401 43.2 28.8601 43.68 28.2601 43.68Z" fill="#333E50"/>
<path d="M40.74 43.68H31.74C31.14 43.68 30.66 43.2 30.66 42.6C30.66 42 31.14 41.52 31.74 41.52H40.74C41.34 41.52 41.82 42 41.82 42.6C41.82 43.2 41.34 43.68 40.74 43.68Z" fill="#333E50"/>
<path d="M53.28 43.68H44.28C43.68 43.68 43.2 43.2 43.2 42.6C43.2 42 43.68 41.52 44.28 41.52H53.28C53.88 41.52 54.3599 42 54.3599 42.6C54.3599 43.2 53.82 43.68 53.28 43.68Z" fill="#333E50"/>
<path d="M36.54 4.32001C40.92 4.32001 44.88 6.06001 47.76 8.88001L36.54 21.12V4.32001Z" fill="#C3E2FC"/>
<path d="M36.54 3.06C27.12 3.06 19.38 10.74 19.26 20.16V20.58C19.32 24.96 21.06 29.16 24.12 32.34L24.54 32.76C27.72 35.82 31.92 37.5 36.24 37.56H36.84C41.22 37.44 45.36 35.76 48.48 32.76L48.96 32.34C52.08 29.1 53.82 24.96 53.88 20.58V20.16C53.7 10.74 45.96 3.06 36.54 3.06ZM48.84 20.34C48.84 20.94 49.38 21.48 49.98 21.48H51.54C51.3 24.72 50.04 27.72 47.94 30.12L46.86 29.04C46.38 28.56 45.72 28.56 45.3 29.04C44.82 29.52 44.82 30.18 45.3 30.6L46.32 31.62C43.92 33.72 40.92 34.98 37.68 35.22V33.72C37.68 33.06 37.2 32.58 36.54 32.58C35.88 32.58 35.4 33.06 35.4 33.72V35.22C32.22 34.98 29.16 33.72 26.76 31.62L27.78 30.6C28.02 30.36 28.14 30.12 28.14 29.82C28.14 29.52 28.02 29.28 27.78 29.04C27.36 28.62 26.64 28.62 26.22 29.04L25.2 30.12C23.1 27.72 21.84 24.72 21.6 21.48H23.1C23.76 21.48 24.24 21 24.24 20.34C24.24 19.68 23.76 19.2 23.1 19.2H21.6C21.84 16.02 23.1 12.96 25.2 10.56L26.28 11.64C26.52 11.88 26.76 11.94 27.06 11.94C27.36 11.94 27.66 11.82 27.84 11.64C28.32 11.16 28.32 10.5 27.84 10.08L26.76 9C29.16 6.96 32.22 5.64 35.4 5.4V6.96C35.4 7.62 35.88 8.1 36.54 8.1C37.14 8.1 37.68 7.56 37.68 6.96V5.34C40.92 5.58 43.86 6.78 46.32 8.94L45.24 10.02C44.7 10.56 44.88 11.22 45.24 11.58C45.66 12 46.32 12.12 46.8 11.58L47.88 10.5C49.98 12.9 51.24 15.96 51.42 19.14H49.86C49.32 19.2 48.84 19.68 48.84 20.34Z" fill="#333E50"/>
<path d="M43.2 14.64C43.14 14.52 43.02 14.4 43.02 14.34L42.9 14.22C42.78 14.1 42.72 14.1 42.48 14.1H42.36L39.42 13.98C38.9999 13.98 38.5799 14.28 38.5199 14.76C38.5199 15.18 38.82 15.6 39.3 15.66L40.38 15.72L37.26 18.9V12.3L38.1 13.14C38.28 13.32 38.46 13.38 38.7 13.38C38.94 13.38 39.12 13.32 39.3 13.14C39.48 12.96 39.54 12.78 39.54 12.54C39.54 12.3 39.42 12.12 39.3 11.94L37.08 9.72C37.02 9.66 36.9 9.6 36.78 9.54C36.6 9.48 36.36 9.48 36.12 9.54C36.06 9.54 36 9.6 36 9.6C35.94 9.6 35.94 9.66 35.88 9.66L33.72 11.88C33.36 12.24 33.36 12.72 33.72 13.08C34.08 13.44 34.56 13.44 34.92 13.08L35.76 12.24V21C35.76 21.36 35.94 21.66 36.3 21.78C36.42 21.84 36.54 21.84 36.6 21.84C36.84 21.84 37.02 21.78 37.2 21.6L41.52 17.16L41.4 17.82C41.4 18.24 41.7 18.66 42.18 18.72H42.24C42.66 18.72 43.08 18.36 43.08 17.94L43.2 15C43.26 14.88 43.2 14.76 43.2 14.64Z" fill="#333E50"/>
</svg>
