<svg width="60" height="60" viewBox="0 0 60 60" fill="none" xmlns="http://www.w3.org/2000/svg">
<path d="M57.42 20.46V23.58C57.72 24.12 57.9 24.78 57.9 25.44V50.76C57.9 52.98 56.1 54.78 53.88 54.78H6.12C3.9 54.78 2.1 52.98 2.1 50.76V25.44C2.1 23.22 3.9 21.42 6.12 21.42H15.9V19.32H6.12C2.76 19.32 0 22.08 0 25.44V50.76C0 54.12 2.76 56.88 6.12 56.88H53.88C57.24 56.88 60 54.12 60 50.76V25.44C60 23.4 58.98 21.6 57.42 20.46Z" fill="#333E50"/>
<path d="M14.0399 33.96H9.17994C8.21994 33.96 7.43994 33.18 7.43994 32.22V29.34C7.43994 28.38 8.21994 27.6 9.17994 27.6H14.0399C14.9999 27.6 15.7799 28.38 15.7799 29.34V32.22C15.7799 33.18 14.9999 33.96 14.0399 33.96Z" fill="#95CE5A"/>
<path d="M14.3399 29.16V33.12H8.81991V29.16H14.3399ZM14.3999 27.06H8.69991C7.55991 27.06 6.65991 27.96 6.65991 29.1V33.24C6.65991 34.38 7.55991 35.28 8.69991 35.28H14.3999C15.5399 35.28 16.4399 34.38 16.4399 33.24V29.1C16.4399 27.96 15.5399 27.06 14.3999 27.06Z" fill="#333E50"/>
<path d="M34.56 50.0401H6.72002C6.06002 50.0401 5.52002 49.5001 5.52002 48.8401C5.52002 48.1801 6.06002 47.6401 6.72002 47.6401H34.56C35.22 47.6401 35.76 48.1801 35.76 48.8401C35.76 49.5001 35.22 50.0401 34.56 50.0401Z" fill="#C3E2FC"/>
<path d="M53.4 45.3001H6.72002C6.06002 45.3001 5.52002 44.7601 5.52002 44.1001C5.52002 43.4401 6.06002 42.9001 6.72002 42.9001H53.4C54.06 42.9001 54.6 43.4401 54.6 44.1001C54.6 44.7601 54.06 45.3001 53.4 45.3001Z" fill="#C3E2FC"/>
<path d="M24.6601 48.4801H6.72014C6.12014 48.4801 5.64014 48.0001 5.64014 47.4001C5.64014 46.8001 6.12014 46.3201 6.72014 46.3201H24.6601C25.2601 46.3201 25.7401 46.8001 25.7401 47.4001C25.7401 48.0001 25.2601 48.4801 24.6601 48.4801Z" fill="#333E50"/>
<path d="M34.5 48.4801H28.62C28.02 48.4801 27.54 48.0001 27.54 47.4001C27.54 46.8001 28.02 46.3201 28.62 46.3201H34.5C35.1 46.3201 35.58 46.8001 35.58 47.4001C35.58 48.0001 35.1 48.4801 34.5 48.4801Z" fill="#333E50"/>
<path d="M15.7799 43.7401H6.77995C6.17995 43.7401 5.69995 43.2601 5.69995 42.6601C5.69995 42.0601 6.17995 41.5801 6.77995 41.5801H15.7799C16.3799 41.5801 16.86 42.0601 16.86 42.6601C16.86 43.2601 16.3799 43.7401 15.7799 43.7401Z" fill="#333E50"/>
<path d="M28.2599 43.7401H19.2599C18.6599 43.7401 18.1799 43.2601 18.1799 42.6601C18.1799 42.0601 18.6599 41.5801 19.2599 41.5801H28.2599C28.8599 41.5801 29.3399 42.0601 29.3399 42.6601C29.3399 43.2601 28.8599 43.7401 28.2599 43.7401Z" fill="#333E50"/>
<path d="M40.7402 43.7401H31.7402C31.1402 43.7401 30.6602 43.2601 30.6602 42.6601C30.6602 42.0601 31.1402 41.5801 31.7402 41.5801H40.7402C41.3402 41.5801 41.8202 42.0601 41.8202 42.6601C41.8202 43.2601 41.3402 43.7401 40.7402 43.7401Z" fill="#333E50"/>
<path d="M53.28 43.7401H44.28C43.68 43.7401 43.2 43.2601 43.2 42.6601C43.2 42.0601 43.68 41.5801 44.28 41.5801H53.28C53.88 41.5801 54.3599 42.0601 54.3599 42.6601C54.3599 43.2601 53.88 43.7401 53.28 43.7401Z" fill="#333E50"/>
<path d="M36.6598 22.2C39.609 22.2 41.9998 19.8092 41.9998 16.86C41.9998 13.9108 39.609 11.52 36.6598 11.52C33.7106 11.52 31.3198 13.9108 31.3198 16.86C31.3198 19.8092 33.7106 22.2 36.6598 22.2Z" fill="#95CE5A"/>
<path d="M18.3599 8.88V14.1L21.8999 12.84L24.5399 8.52L22.1999 7.62L18.3599 8.88Z" fill="#C3E2FC"/>
<path d="M19.3199 25.98H24.5399L23.3399 22.32L18.9599 19.68L18.1199 22.02L19.3199 25.98Z" fill="#C3E2FC"/>
<path d="M55.1399 24.78V19.56L51.5999 20.76L48.8999 25.2L51.2999 26.04L55.1399 24.78Z" fill="#C3E2FC"/>
<path d="M54.1199 7.73999H48.8999L50.1599 11.34L54.5399 13.98L55.3199 11.64L54.1199 7.73999Z" fill="#C3E2FC"/>
<path d="M28.3799 16.86C28.3799 16.32 27.8399 15.9 27.3599 15.9H22.9199C22.3799 15.9 21.8999 16.38 21.8999 16.86C21.8999 17.4 22.3799 17.82 22.9199 17.82C24.4199 17.88 25.9199 17.88 27.4199 17.88C28.0199 17.88 28.3799 17.34 28.3799 16.86Z" fill="#333E50"/>
<path d="M53.0399 1.44H20.3399C18.5999 1.44 17.1599 2.88 17.1599 4.62V24C17.1599 25.74 18.5999 27.18 20.3399 27.18H53.0399C54.7799 27.18 56.2199 25.74 56.2199 24V4.62C56.1599 2.82 54.7799 1.44 53.0399 1.44ZM20.3399 8.64H23.3399C23.0399 10.86 21.3599 12.6 19.1399 12.9L19.0799 9.9C19.0799 9.18 19.6199 8.64 20.3399 8.64ZM53.0999 8.7C53.8199 8.7 54.3599 9.24 54.3599 9.96V12.9C52.1399 12.72 50.3399 10.98 50.0999 8.7H53.0999ZM54.2999 6.9C53.8199 6.72 53.4599 6.66 53.0399 6.66H20.3399C19.9199 6.66 19.5599 6.72 19.0799 6.9V4.5C19.0799 3.78 19.6199 3.24 20.3399 3.24H53.0399C53.7599 3.24 54.2999 3.78 54.2999 4.5V6.9ZM19.1399 14.82C22.4399 14.52 25.0799 11.94 25.2599 8.7H48.0599C48.3599 12 50.9399 14.64 54.1799 14.82V19.14C50.9399 19.38 48.2999 21.96 48.0599 25.26H25.2599C24.9599 21.96 22.3799 19.32 19.1399 19.14V14.82ZM19.0799 21.06C21.2999 21.3 23.0399 23.04 23.3399 25.32H20.3399C19.6199 25.32 19.0799 24.78 19.0799 24.06V21.06ZM54.2399 21.06V24.06C54.2399 24.36 54.1799 24.66 53.9399 24.9C53.6999 25.14 53.3999 25.32 53.0399 25.32H50.0399C50.2799 23.1 52.0199 21.3 54.2399 21.06Z" fill="#333E50"/>
<path d="M36.18 23.64C36.36 23.64 36.54 23.64 36.66 23.64C38.34 23.64 40.02 22.98 41.22 21.84C42.6 20.58 43.38 18.78 43.38 16.92C43.38 13.2 40.38 10.2 36.66 10.2C33.12 10.2 30.18 12.96 29.94 16.5C29.7 20.1 32.58 23.4 36.18 23.64ZM31.92 16.44C32.16 14.22 33.96 12.42 36.18 12.18C36.36 12.18 36.54 12.18 36.66 12.18C37.92 12.18 39.18 12.66 40.02 13.56C41.04 14.58 41.52 15.96 41.4 17.46C41.16 19.68 39.36 21.48 37.14 21.72C35.7 21.84 34.26 21.36 33.24 20.34C32.28 19.32 31.8 17.88 31.92 16.44Z" fill="#333E50"/>
<path d="M45.9599 17.82C47.4599 17.88 48.9599 17.88 50.4599 17.88C50.9999 17.88 51.4199 17.34 51.4199 16.86C51.4199 16.32 50.8799 15.9 50.3999 15.9H45.9599C45.4199 15.9 44.9399 16.38 44.9399 16.86C44.9399 17.4 45.3599 17.82 45.9599 17.82Z" fill="#333E50"/>
</svg>
