<svg width="60" height="60" viewBox="0 0 60 60" fill="none" xmlns="http://www.w3.org/2000/svg">
<g clip-path="url(#clip0)">
<path d="M9.24009 22.86H50.1001C52.2001 22.86 54.0001 24.66 54.0001 26.76V54.18C54.0001 56.28 52.2001 58.08 50.1001 58.08H9.24009C7.14009 58.08 5.34009 56.28 5.34009 54.18V26.88C5.34009 24.66 7.08009 22.86 9.24009 22.86Z" fill="#C3E2FC"/>
<path d="M9.24009 22.86H50.1001C52.2001 22.86 54.0001 24.66 54.0001 26.76V54.18C54.0001 56.28 52.2001 58.08 50.1001 58.08H9.24009C7.14009 58.08 5.34009 56.28 5.34009 54.18V26.88C5.34009 24.66 7.08009 22.86 9.24009 22.86Z" fill="white"/>
<path d="M54.1201 51.18H39.4801C35.8201 51.18 32.8801 48.24 32.8801 44.58V40.56H54.1201V51.18Z" fill="#C3E2FC"/>
<path d="M54 48.12H39.6C36.9 48.12 34.74 46.02 34.74 43.26V38.4C34.74 35.7 36.84 33.54 39.6 33.54H54.12C56.82 33.54 58.98 35.64 58.98 38.4V43.26C58.92 45.9 56.7 48.12 54 48.12Z" fill="white"/>
<path d="M46.4401 18.36H5.34009V23.1H46.4401V18.36Z" fill="#C3E2FC"/>
<path d="M16.9201 22.26L24.9601 11.28L32.8201 16.02L40.2601 22.98L16.3201 23.46L16.9201 22.26Z" fill="#95CE5A"/>
<path d="M25.6201 10.08C25.3801 10.08 25.14 10.08 24.9 10.2C23.82 10.44 23.1 11.16 22.56 11.88L15.72 21.9H10.38C9.90005 21.9 9.54005 22.14 9.30005 22.5C9.06005 22.86 9.06005 23.34 9.30005 23.7C9.54005 24.06 9.90005 24.3 10.38 24.3H50.5201C51.84 24.3 52.8601 25.38 52.8601 26.64V28.98C52.8601 29.46 53.1 29.82 53.46 30.06C53.82 30.3 54.3 30.3 54.66 30.06C55.0201 29.82 55.2601 29.46 55.2601 28.98V26.64C55.2601 24.06 53.16 21.9 50.5201 21.9H48.1801C48.1801 19.32 46.0801 17.16 43.4401 17.16H41.6401C41.16 17.16 40.8 17.4 40.5601 17.76C40.32 18.12 40.32 18.6 40.5601 18.96C40.8 19.32 41.16 19.56 41.6401 19.56H43.4401C44.7601 19.56 45.7801 20.64 45.7801 21.9H41.5201L27.7801 10.8C27.18 10.32 26.34 10.08 25.6201 10.08ZM25.86 12.48C25.98 12.48 26.1 12.6 26.34 12.72L37.8 21.9H18.54L24.6 13.2C24.84 12.84 25.2001 12.6 25.4401 12.6C25.6201 12.48 25.74 12.48 25.86 12.48ZM8.04005 17.22C5.46005 17.22 3.30005 19.32 3.30005 21.96V55.02C3.30005 57.6 5.40005 59.76 8.04005 59.76H50.5201C53.1 59.76 55.2601 57.66 55.2601 55.02V52.68C55.2601 52.2 55.0201 51.84 54.66 51.6C54.3 51.36 53.82 51.36 53.46 51.6C53.1 51.84 52.8601 52.2 52.8601 52.68V55.02C52.8601 56.34 51.78 57.36 50.5201 57.36H8.04005C6.72005 57.36 5.70005 56.28 5.70005 55.02V21.9C5.70005 20.58 6.78005 19.56 8.04005 19.56H13.92C14.4001 19.56 14.76 19.32 15 18.96C15.24 18.6 15.24 18.12 15 17.76C14.76 17.4 14.4001 17.16 13.92 17.16H8.04005V17.22ZM41.1001 32.52C38.16 32.52 35.46 34.08 33.9 36.66C32.34 39.24 32.4601 42.3 33.9 44.94C35.34 47.52 38.16 49.08 41.1001 49.08H55.2601C57.84 49.08 60 46.98 60 44.34V37.26C60 34.68 57.9001 32.52 55.2601 32.52H41.1001ZM41.1001 34.92H55.2601C56.5801 34.92 57.6001 36 57.6001 37.26V44.34C57.6001 45.66 56.5201 46.68 55.2601 46.68H41.1001C39 46.68 37.0801 45.48 36 43.74C34.92 41.94 34.92 39.6 36 37.86C37.0801 36.06 39 34.92 41.1001 34.92ZM41.1001 37.26C39.2401 37.26 37.5601 38.94 37.5601 40.8C37.5601 42.66 39.2401 44.34 41.1001 44.34C42.96 44.34 44.6401 42.66 44.6401 40.8C44.6401 38.94 43.0201 37.26 41.1001 37.26ZM41.1001 39.6C41.82 39.6 42.3 40.08 42.3 40.8C42.3 41.52 41.82 42 41.1001 42C40.3801 42 39.9001 41.52 39.9001 40.8C39.9001 40.08 40.3801 39.6 41.1001 39.6Z" fill="#333E50"/>
<path d="M17.3399 35.58L17.0999 46.2L14.1599 46.56L19.6799 53.88L25.1399 47.1L21.8399 46.44L21.9599 35.4L17.3399 35.58Z" fill="#95CE5A"/>
<path d="M26.7 46.02C26.52 45.6 26.1 45.36 25.68 45.36H23.76C23.4 45.36 23.1 45.06 23.1 44.7V35.28C23.1 34.62 22.56 34.14 21.96 34.14H17.52C16.86 34.14 16.38 34.68 16.38 35.28V44.64C16.38 45 16.08 45.3 15.72 45.3H13.74C13.32 45.3 12.9 45.54 12.72 45.96C12.54 46.38 12.54 46.8 12.84 47.16L18.84 54.96C19.08 55.26 19.38 55.44 19.74 55.44C20.1 55.44 20.46 55.26 20.64 54.96L26.64 47.16C26.88 46.86 26.94 46.38 26.7 46.02ZM22.2 47.4H22.5C22.74 47.4 22.98 47.52 23.1 47.76C23.22 48 23.22 48.24 23.04 48.48L20.22 52.14C19.98 52.5 19.38 52.5 19.14 52.14L16.32 48.48C16.2 48.3 16.2 48 16.32 47.76C16.44 47.52 16.68 47.4 16.92 47.4H17.28C17.94 47.4 18.42 46.86 18.42 46.26V36.9C18.42 36.54 18.72 36.24 19.08 36.24H20.34C20.7 36.24 21 36.54 21 36.9V46.26C21.06 46.86 21.54 47.4 22.2 47.4Z" fill="#333E50"/>
<path d="M22.2001 30.78H17.3401C16.8001 30.78 16.3201 31.26 16.3201 31.8C16.3201 32.34 16.8001 32.82 17.3401 32.82H22.2001C22.7401 32.82 23.2201 32.34 23.2201 31.8C23.2201 31.26 22.7401 30.78 22.2001 30.78Z" fill="#333E50"/>
<path d="M22.2001 27.72H17.3401C16.8001 27.72 16.3201 28.2 16.3201 28.74C16.3201 29.28 16.8001 29.76 17.3401 29.76H22.2001C22.7401 29.76 23.2201 29.28 23.2201 28.74C23.2201 28.2 22.7401 27.72 22.2001 27.72Z" fill="#333E50"/>
<path d="M43.0799 11.64C46.0954 11.64 48.5399 9.19548 48.5399 6.18C48.5399 3.16453 46.0954 0.720001 43.0799 0.720001C40.0644 0.720001 37.6199 3.16453 37.6199 6.18C37.6199 9.19548 40.0644 11.64 43.0799 11.64Z" fill="#C3E2FC"/>
<path d="M42.96 -0.299988C39.42 -0.299988 36.48 2.58001 36.48 6.18001C36.48 9.78001 39.36 12.66 42.96 12.66C46.5 12.66 49.44 9.78001 49.44 6.18001C49.44 2.58001 46.56 -0.299988 42.96 -0.299988ZM47.46 6.18001C47.46 8.64001 45.42 10.68 42.96 10.68C40.5 10.68 38.46 8.64001 38.46 6.18001C38.46 3.72001 40.5 1.68001 42.96 1.68001C45.42 1.68001 47.46 3.72001 47.46 6.18001Z" fill="#333E50"/>
</g>
<defs>
<clipPath id="clip0">
<rect width="60" height="60" fill="white"/>
</clipPath>
</defs>
</svg>
