<svg width="60" height="60" viewBox="0 0 60 60" fill="none" xmlns="http://www.w3.org/2000/svg">
<g clip-path="url(#clip0)">
<path d="M1.07996 38.7L10.26 33.3L23.46 43.56L36.66 33.12L50.1 37.92V50.1H1.25996C1.25996 50.1 1.25996 41.4 1.07996 38.7Z" fill="#C3E2FC"/>
<path d="M9.89999 21.84C11.0266 21.84 11.94 20.9267 11.94 19.8C11.94 18.6733 11.0266 17.76 9.89999 17.76C8.77332 17.76 7.85999 18.6733 7.85999 19.8C7.85999 20.9267 8.77332 21.84 9.89999 21.84Z" fill="#95CE5A"/>
<path d="M23.16 34.86C24.4192 34.86 25.44 33.8392 25.44 32.58C25.44 31.3208 24.4192 30.3 23.16 30.3C21.9008 30.3 20.88 31.3208 20.88 32.58C20.88 33.8392 21.9008 34.86 23.16 34.86Z" fill="#95CE5A"/>
<path d="M36.54 22.38C38.0311 22.38 39.24 21.1712 39.24 19.68C39.24 18.1888 38.0311 16.98 36.54 16.98C35.0488 16.98 33.84 18.1888 33.84 19.68C33.84 21.1712 35.0488 22.38 36.54 22.38Z" fill="#95CE5A"/>
<path d="M49.86 26.7C51.0198 26.7 51.96 25.7598 51.96 24.6C51.96 23.4402 51.0198 22.5 49.86 22.5C48.7002 22.5 47.76 23.4402 47.76 24.6C47.76 25.7598 48.7002 26.7 49.86 26.7Z" fill="#95CE5A"/>
<path d="M58.86 48.9H51.06V31.62C51.06 31.02 50.58 30.48 49.92 30.48C49.32 30.48 48.78 30.96 48.78 31.62V48.9H37.8V26.7C37.8 26.1 37.32 25.56 36.66 25.56C36.06 25.56 35.52 26.04 35.52 26.7V48.9H24.42V39.66C24.42 39.06 23.94 38.52 23.28 38.52C22.68 38.52 22.14 39 22.14 39.66V48.84H11.1V27C11.1 26.4 10.62 25.86 9.96 25.86C9.3 25.86 8.88 26.4 8.88 27V48.84H2.22V27.42L7.92 22.98C8.52 23.4 9.24 23.64 10.02 23.64C10.62 23.64 11.22 23.46 11.76 23.16L20.04 31.02C19.8 31.5 19.62 32.04 19.62 32.64C19.62 34.68 21.3 36.3 23.28 36.3C25.32 36.3 26.94 34.62 26.94 32.64C26.94 32.1 26.82 31.5 26.52 31.02L34.86 22.92C35.4 23.22 36 23.34 36.6 23.34C37.74 23.34 38.82 22.8 39.54 21.9L46.2 24.36C46.2 24.36 46.2 24.36 46.2 24.54C46.2 26.4 47.46 27.96 49.26 28.26C51.06 28.56 52.86 27.54 53.46 25.8C54.06 24.06 53.34 22.14 51.72 21.3C50.1 20.4 48.12 20.88 46.98 22.32L40.38 19.8C40.38 19.8 40.38 19.8 40.38 19.62C40.38 18.12 39.48 16.74 38.04 16.14C36.6 15.6 34.98 15.96 33.96 17.1C32.94 18.24 32.7 19.86 33.42 21.24L25.08 29.34C24.54 29.04 23.94 28.92 23.34 28.92C22.74 28.92 22.14 29.1 21.6 29.4L13.26 21.6C13.5 21.12 13.68 20.58 13.68 19.98C13.68 17.94 12 16.32 10.02 16.32C8.04 16.32 6.36 18 6.36 19.98C6.36 20.4 6.48 20.82 6.6 21.24L2.28 24.6V10.02C2.28 9.42001 1.8 8.88 1.14 8.88C0.48 8.88 0 9.36001 0 10.02V50.04C0 50.64 0.48 51.18 1.14 51.18H58.92C59.52 51.18 60.06 50.7 60.06 50.04C60 49.38 59.52 48.9 58.86 48.9ZM49.98 23.16C50.76 23.16 51.42 23.82 51.42 24.6C51.42 25.44 50.76 26.04 49.98 26.04C49.2 26.04 48.54 25.38 48.54 24.6C48.54 23.76 49.2 23.16 49.98 23.16ZM36.66 18.24C37.5 18.24 38.1 18.9 38.1 19.68C38.1 20.52 37.44 21.12 36.66 21.12C35.88 21.12 35.22 20.46 35.22 19.68C35.22 18.9 35.88 18.3 36.66 18.24ZM24.78 32.64C24.78 33.48 24.12 34.08 23.34 34.08C22.56 34.08 21.9 33.42 21.9 32.64C21.9 31.86 22.56 31.2 23.34 31.2C24.12 31.2 24.78 31.86 24.78 32.64ZM10.02 18.54C10.86 18.54 11.46 19.2 11.46 19.98C11.46 20.82 10.8 21.42 10.02 21.42C9.24 21.42 8.58 20.76 8.58 19.98C8.52 19.2 9.18 18.54 10.02 18.54Z" fill="#333E50"/>
</g>
<defs>
<clipPath id="clip0">
<rect width="60" height="60" fill="white"/>
</clipPath>
</defs>
</svg>
