<svg width="60" height="60" viewBox="0 0 60 60" fill="none" xmlns="http://www.w3.org/2000/svg">
<path d="M25.92 46.38C26.88 47.28 28.2 47.28 29.16 46.38C29.58 45.96 30.06 45.48 30.48 45.06L30.6 45C31.14 44.46 31.68 43.92 32.16 43.44C32.64 42.96 33.18 42.42 33.66 41.94L34.98 40.62C35.94 39.66 36.96 38.7 37.92 37.68L49.38 26.34C50.46 25.32 51.48 24.24 52.56 23.22L53.76 22.02C54.6 21.18 55.5 20.34 56.34 19.5L59.28 16.62C60.18 15.72 60.18 14.28 59.28 13.38C58.44 12.48 57.48 11.58 56.64 10.74C56.22 10.32 55.74 9.84 55.32 9.42L54.12 8.22C53.64 7.8 53.1 7.56 52.62 7.56C52.02 7.56 51.48 7.8 51 8.16V8.1L50.94 8.16C50.82 8.28 50.76 8.34 50.64 8.46L43.26 15.72C40.86 18.12 38.46 20.46 36.06 22.86L29.76 29.1C29.46 29.4 29.1 29.76 28.8 30.06L27.6 31.26L18.96 22.62C18.66 22.32 18.36 22.02 18.12 21.84C17.76 21.66 17.4 21.54 16.98 21.54C16.38 21.54 15.78 21.78 15.3 22.26L10.38 27.18C10.14 27.42 9.90004 27.66 9.78004 27.9C9.24004 28.8 9.42004 29.88 10.14 30.66C10.62 31.14 11.04 31.62 11.52 32.04C11.76 32.28 12 32.52 12.24 32.76L25.44 45.96C25.62 46.08 25.8 46.26 25.92 46.38Z" fill="#95CE5A"/>
<path d="M25.92 46.38C26.88 47.28 28.2 47.28 29.16 46.38C29.58 45.96 30.06 45.48 30.48 45.06L30.6 45C31.14 44.46 31.68 43.92 32.16 43.44C32.64 42.96 33.18 42.42 33.66 41.94L34.98 40.62C35.94 39.66 36.96 38.7 37.92 37.68L49.38 26.34C50.46 25.32 51.48 24.24 52.56 23.22L53.76 22.02C54.6 21.18 55.5 20.34 56.34 19.5L59.28 16.62C60.18 15.72 60.18 14.28 59.28 13.38C58.44 12.48 57.48 11.58 56.64 10.74C56.22 10.32 55.74 9.84 55.32 9.42L54.12 8.22C53.64 7.8 53.1 7.56 52.62 7.56C52.02 7.56 51.48 7.8 51 8.16V8.1L50.94 8.16C50.82 8.28 50.76 8.34 50.64 8.46L43.26 15.72C40.86 18.12 38.46 20.46 36.06 22.86L29.76 29.1C29.46 29.4 29.1 29.76 28.8 30.06L27.6 31.26L18.96 22.62C18.66 22.32 18.36 22.02 18.12 21.84C17.76 21.66 17.4 21.54 16.98 21.54C16.38 21.54 15.78 21.78 15.3 22.26L10.38 27.18C10.14 27.42 9.90004 27.66 9.78004 27.9C9.24004 28.8 9.42004 29.88 10.14 30.66C10.62 31.14 11.04 31.62 11.52 32.04C11.76 32.28 12 32.52 12.24 32.76L25.44 45.96C25.62 46.08 25.8 46.26 25.92 46.38ZM13.44 28.02C13.56 27.9 13.74 27.78 13.86 27.6L16.98 24.48L26.64 34.14C27.18 34.68 28.08 34.68 28.62 34.14L36.9 25.98C38.1 24.78 39.3 23.58 40.5 22.44C41.64 21.3 42.78 20.16 43.92 19.02L52.62 10.44L57.12 14.94L55.74 16.2C55.26 16.62 54.84 17.1 54.42 17.52L30.9 40.8C30.48 41.22 30 41.7 29.58 42.12L27.54 44.16L26.34 42.96L12.48 28.98L13.44 28.02Z" fill="#333E50"/>
<path d="M50.64 55.74C51.96 54.84 52.8 53.64 53.16 52.26C53.28 51.78 53.34 51.18 53.34 50.46V35.52C53.34 35.16 53.16 34.8 52.86 34.5C52.74 34.38 52.44 34.14 52.02 34.14C51.3 34.2 50.58 34.68 50.58 35.52V49.02C50.58 49.2 50.58 49.38 50.58 49.56C50.58 49.92 50.58 50.34 50.58 50.7H50.64C50.64 50.94 50.58 51.18 50.52 51.42H50.46C50.46 51.48 50.46 51.54 50.4 51.54H50.46L50.22 52.2H50.16C50.1 52.26 50.1 52.32 50.04 52.38L49.62 52.92H49.56L49.5 52.98V53.04L48.96 53.46C48.9 53.52 48.84 53.52 48.78 53.58V53.64L48.18 53.88V53.82C48.12 53.82 48.06 53.88 48 53.88V53.94H47.94C47.76 53.94 47.52 54 47.34 54V53.94C47.04 53.94 46.8 53.94 46.56 53.94H43.26H9.12C8.04 53.94 6.96 53.94 5.88 53.94C5.82 53.94 5.82 53.94 5.76 53.94V54C5.52 54 5.28 53.94 5.04 53.88C5.04 53.88 5.04 53.88 4.98 53.88V53.82C4.92 53.82 4.86 53.82 4.86 53.76V53.82L4.26 53.58V53.52C4.2 53.46 4.14 53.46 4.08 53.4L3.54 52.98V52.92L3.48 52.86H3.42L3 52.32C2.94 52.26 2.94 52.2 2.88 52.14H2.82L2.58 51.54H2.64C2.64 51.48 2.58 51.42 2.58 51.36H2.52V51.3C2.52 51.12 2.46 50.88 2.46 50.7H2.52C2.52 50.4 2.52 50.16 2.52 49.92V46.62V12.48C2.52 11.4 2.52 10.32 2.52 9.24C2.52 9.18 2.52 9.18 2.52 9.12H2.46C2.46 8.88 2.52 8.64 2.58 8.4C2.58 8.4 2.58 8.4 2.58 8.34H2.64C2.64 8.28 2.64 8.22 2.7 8.22H2.64L2.88 7.56H2.94C3 7.5 3 7.44 3.06 7.38L3.48 6.84H3.54L3.6 6.78V6.72L4.14 6.3C4.2 6.24 4.26 6.24 4.32 6.18V6.12L4.92 5.88V5.94C4.98 5.94 5.04 5.88 5.1 5.88V5.82H5.16C5.34 5.82 5.58 5.76 5.76 5.76V5.82C6 5.82 6.24 5.82 6.48 5.82H36.84C37.32 5.82 37.8 5.82 38.28 5.82C39.24 5.82 40.2 5.82 41.16 5.82H41.4C41.76 5.82 42.12 5.64 42.42 5.34C42.54 5.22 42.78 4.86 42.78 4.5C42.72 3.78 42.24 3.06 41.4 3.06H8.46C8.04 3.06 7.62 3.06 7.26 3.06C6.84 3.06 6.48 3.06 6.06 3.06C3.18 3.06 0.6 5.22 0.18 7.92C0.06 8.76 0 9.3 0 10.02V50.16C0 51.06 0.06 51.78 0.24 52.44C1.08 54.96 3.36 56.7 6 56.7C6.78 56.7 7.56 56.7 8.34 56.7H47.04C48.06 56.7 49.5 56.52 50.64 55.74Z" fill="#333E50"/>
</svg>
