<svg width="60" height="60" viewBox="0 0 60 60" fill="none" xmlns="http://www.w3.org/2000/svg">
<g clip-path="url(#clip0)">
<path d="M14.0999 54.48C20.9593 54.48 26.5199 48.9193 26.5199 42.06C26.5199 35.2006 20.9593 29.64 14.0999 29.64C7.24056 29.64 1.67993 35.2006 1.67993 42.06C1.67993 48.9193 7.24056 54.48 14.0999 54.48Z" fill="#95CE5A"/>
<path d="M13.44 33.36L9.59999 34.5C9.17999 34.62 8.87999 35.04 8.87999 35.52C8.87999 35.64 8.87999 35.7 8.93999 35.82L10.74 41.82L10.86 42.24L10.44 42.36L9.05999 42.78C8.51999 42.96 8.21999 43.5 8.39999 44.04C8.57999 44.58 9.11999 44.88 9.65999 44.7L11.04 44.28L11.46 44.16L11.58 44.58L11.82 45.42L11.94 45.84L11.52 45.96L10.2 46.38C9.65999 46.56 9.35999 47.1 9.53999 47.64C9.71999 48.18 10.26 48.48 10.8 48.3L12.18 47.88L12.6 47.76L12.72 48.18L13.32 50.22C13.5 50.76 14.04 51.06 14.58 50.88C15.12 50.7 15.42 50.16 15.24 49.62L14.64 47.58L14.52 47.16L14.94 47.04L18.96 45.84C19.5 45.66 19.8 45.12 19.62 44.58C19.44 44.04 18.9 43.74 18.36 43.92L14.28 45.12L13.86 45.24L13.8 44.88L13.56 44.04L13.44 43.62L13.86 43.5L16.32 42.78C18.9 42 20.4 39.24 19.62 36.66C18.78 34.08 16.02 32.58 13.44 33.36ZM15.66 40.8L13.2 41.58L12.78 41.7L12.66 41.28L11.22 36.54L11.1 36.12L11.52 36L13.98 35.28C15.48 34.8 17.1 35.7 17.58 37.2C18.06 38.76 17.16 40.38 15.66 40.8Z" fill="#333E50"/>
<path d="M14.1 27.96C13.5 27.96 12.84 28.02 12.24 28.08C4.50001 29.16 -0.899993 36.24 0.120007 43.92C1.08001 50.88 7.02001 56.1 14.04 56.1C14.64 56.1 15.3 56.04 15.9 55.98C23.64 54.96 29.04 47.88 28.02 40.2C27.06 33.24 21.12 27.96 14.1 27.96ZM15.66 54C15.12 54.06 14.58 54.12 14.04 54.12C8.04001 54.12 2.88001 49.62 2.10001 43.68C1.20001 37.08 5.88001 30.96 12.48 30.06C13.02 30 13.56 29.94 14.1 29.94C20.1 29.94 25.26 34.44 26.04 40.38C26.94 47.04 22.26 53.16 15.66 54Z" fill="#333E50"/>
<path d="M23.88 42.18C23.34 42.12 22.86 42.48 22.8 43.08C22.74 43.5 22.68 43.92 22.56 44.34C22.44 44.88 22.74 45.42 23.28 45.54C23.34 45.54 23.46 45.6 23.52 45.6C23.94 45.6 24.36 45.3 24.48 44.88C24.6 44.34 24.72 43.86 24.78 43.32C24.78 42.72 24.42 42.24 23.88 42.18Z" fill="#333E50"/>
<path d="M22.8001 46.5C22.3201 46.2 21.7201 46.32 21.4201 46.8C20.7601 47.82 19.9801 48.66 18.9601 49.32C18.4801 49.62 18.3601 50.28 18.7201 50.7C18.9001 51 19.2001 51.12 19.5601 51.12C19.7401 51.12 19.9201 51.06 20.1001 50.94C21.3001 50.1 22.3201 49.08 23.1001 47.88C23.4001 47.4 23.2801 46.8 22.8001 46.5Z" fill="#333E50"/>
<path d="M30.6599 24.66C36.0281 24.66 40.3799 20.3082 40.3799 14.94C40.3799 9.57176 36.0281 5.21997 30.6599 5.21997C25.2917 5.21997 20.9399 9.57176 20.9399 14.94C20.9399 20.3082 25.2917 24.66 30.6599 24.66Z" fill="#C3E2FC"/>
<path d="M36.06 15.78C36 15.54 35.88 15.36 35.64 15.24C35.46 15.12 35.22 15.06 34.98 15.12C34.5 15.24 34.2 15.72 34.38 16.2C34.74 17.52 33.96 18.84 32.64 19.2C31.44 19.56 30.12 18.84 29.7 17.7L32.04 17.04C32.28 16.98 32.46 16.86 32.58 16.62C32.7 16.44 32.7 16.2 32.64 15.96C32.58 15.72 32.46 15.54 32.22 15.42C32.04 15.3 31.8 15.3 31.56 15.36L29.22 16.02L28.98 15.18L31.32 14.52C31.8 14.4 32.1 13.92 31.92 13.44C31.8 12.96 31.32 12.66 30.84 12.84L28.5 13.5C28.26 12.24 29.04 11.04 30.3 10.74C31.62 10.38 32.94 11.16 33.3 12.48C33.36 12.72 33.48 12.9 33.72 13.02C33.9 13.14 34.14 13.14 34.38 13.08C34.86 12.96 35.16 12.48 34.98 12C34.38 9.78 32.04 8.46 29.82 9.06C28.74 9.36 27.84 10.02 27.3 11.04C26.76 11.94 26.58 13.02 26.82 14.04L25.8 14.16C25.32 14.28 25.02 14.76 25.2 15.24C25.26 15.48 25.38 15.66 25.62 15.78C25.8 15.9 26.04 15.9 26.28 15.84L27.36 15.54L27.6 16.38L26.52 16.68C26.04 16.8 25.74 17.28 25.92 17.76C26.04 18.24 26.52 18.54 27 18.36L28.08 18.06C28.38 19.02 29.04 19.86 30 20.4C30.66 20.76 31.38 20.94 32.1 20.94C32.46 20.94 32.82 20.88 33.18 20.82C34.26 20.52 35.16 19.86 35.76 18.84C36.24 17.94 36.36 16.86 36.06 15.78Z" fill="#333E50"/>
<path d="M40.5 9.83997C38.58 6.11997 34.86 3.83997 30.66 3.83997C28.92 3.83997 27.1801 4.25997 25.6201 5.03997C20.2201 7.79997 18.0601 14.46 20.8801 19.92C22.8001 23.64 26.5201 25.92 30.72 25.92C32.46 25.92 34.2 25.5 35.76 24.72C41.1 21.96 43.26 15.3 40.5 9.83997ZM30.66 23.94C27.24 23.94 24.1801 22.08 22.6201 19.02C20.3401 14.58 22.0801 9.11997 26.5201 6.83997C27.8401 6.17997 29.22 5.81997 30.66 5.81997C34.08 5.81997 37.14 7.67997 38.7 10.74C40.98 15.18 39.24 20.64 34.8 22.92C33.54 23.64 32.1 23.94 30.66 23.94Z" fill="#333E50"/>
<path d="M47.82 50.28C54.0498 50.28 59.1 45.2297 59.1 39C59.1 32.7702 54.0498 27.72 47.82 27.72C41.5903 27.72 36.54 32.7702 36.54 39C36.54 45.2297 41.5903 50.28 47.82 50.28Z" fill="#C3E2FC"/>
<path d="M50.9401 33.7199L51.1801 32.9999C51.3601 32.4599 51.1201 31.9199 50.5801 31.6799C50.0401 31.4999 49.5001 31.7399 49.2601 32.2799L49.0201 32.9999C48.3601 32.8799 47.6401 32.9399 46.9801 33.2399C46.1401 33.5999 45.4801 34.3199 45.1201 35.1599C44.7601 36.0599 44.8201 36.9599 45.1801 37.8599C45.5401 38.6999 46.2601 39.3599 47.1001 39.7199L47.7001 39.9599C48.4801 40.2599 48.8401 41.0999 48.5401 41.8799C48.4201 42.2399 48.1201 42.5399 47.7601 42.7199C47.4001 42.8999 46.9801 42.8999 46.6201 42.7799L46.0201 42.5399C45.6601 42.4199 45.3601 42.1199 45.1801 41.7599C45.0001 41.3999 45.0001 40.9799 45.1201 40.6199C45.3001 40.0799 45.0601 39.5399 44.5201 39.2999C43.9801 39.1199 43.4401 39.3599 43.2001 39.8999C42.8401 40.7999 42.9001 41.6999 43.2601 42.5999C43.5601 43.2599 44.0401 43.7999 44.5801 44.1599L44.4601 44.9999C44.2801 45.5399 44.5201 46.0799 45.0601 46.3199C45.1801 46.3799 45.3001 46.3799 45.4201 46.3799C45.8401 46.3799 46.2001 46.1399 46.3801 45.7199L46.7401 44.8199C46.9201 44.8799 47.1601 44.8799 47.3401 44.8799C47.8201 44.8799 48.3001 44.7599 48.7801 44.5799C49.6201 44.2199 50.2801 43.4999 50.6401 42.6599C51.3001 40.9199 50.4601 38.9999 48.7801 38.2199C48.7201 38.1599 48.6601 38.1599 48.6001 38.0999L48.0001 37.8599C47.2201 37.5599 46.8601 36.7199 47.1601 35.9399C47.2801 35.5799 47.5801 35.2799 47.9401 35.0999C48.3001 34.9199 48.7201 34.9199 49.0801 35.0399L49.6801 35.2799C50.0401 35.3999 50.3401 35.6999 50.5201 36.0599C50.7001 36.4199 50.7001 36.8399 50.5801 37.1999C50.4001 37.7399 50.6401 38.2799 51.1801 38.5199C51.7201 38.6999 52.2601 38.4599 52.5001 37.9199C52.9201 36.3599 52.3201 34.5599 50.9401 33.7199Z" fill="#333E50"/>
<path d="M52.1999 27.5999C50.8199 27.0599 49.3199 26.8199 47.8799 26.8199C42.8399 26.8199 38.2799 29.9399 36.4799 34.6199C34.0799 40.9199 37.1999 47.9999 43.4999 50.3999C44.8799 50.9399 46.3799 51.1799 47.8199 51.1799C52.8599 51.1799 57.4199 48.0599 59.2199 43.3799C61.6199 37.0799 58.4399 29.9999 52.1999 27.5999ZM57.2999 42.6599C55.8599 46.5599 52.0199 49.1999 47.8199 49.1999C46.5599 49.1999 45.3599 48.9599 44.1599 48.5399C38.9399 46.5599 36.2999 40.6199 38.2799 35.3999C39.8399 31.4399 43.6199 28.7999 47.8199 28.7999C49.0799 28.7999 50.2799 29.0399 51.4799 29.4599C56.6999 31.4999 59.3399 37.3799 57.2999 42.6599Z" fill="#333E50"/>
</g>
<defs>
<clipPath id="clip0">
<rect width="60" height="60" fill="white"/>
</clipPath>
</defs>
</svg>
