<svg width="60" height="60" viewBox="0 0 60 60" fill="none" xmlns="http://www.w3.org/2000/svg">
<path d="M3.00003 43.5859C3.00003 38.1923 4.55782 32.9135 7.48613 28.3841C10.4144 23.8546 14.5886 20.2673 19.5069 18.0534C24.4252 15.8395 29.8783 15.0933 35.2105 15.9043C40.5428 16.7154 44.9624 19.9239 49 23.5L39.5 33C37.3037 31.0547 35.9006 30.1383 33 29.6971C30.0994 29.2559 27.4236 28.4928 24.7482 29.6971C22.0728 30.9014 19.8022 32.8528 18.2093 35.3166C16.6164 37.7805 15.769 40.652 15.769 43.5859L3.00003 43.5859Z" fill="#95CE5A"/>
<path fill-rule="evenodd" clip-rule="evenodd" d="M58.4871 41.5706L57.9873 41.5866C57.7589 34.4499 54.8746 27.7755 49.8013 22.7022C44.5118 17.4123 37.4809 14.5 30 14.5C22.5191 14.5 15.4882 17.4123 10.1987 22.7022C5.1254 27.7755 2.24113 34.4499 2.01265 41.5866L1.99917 42.0078L1.58187 42.0659C0.970146 42.1511 0.5 42.6753 0.5 43.3092C0.5 44.004 1.06304 44.567 1.75781 44.567H58.2422C58.937 44.567 59.5 44.004 59.5 43.3092C59.5 42.6753 59.0299 42.1511 58.4181 42.0659L58.4871 41.5706ZM41.3743 41.0515C41.3743 41.0514 41.3743 41.0514 41.3743 41.0514C41.3493 40.8542 41.3192 40.6586 41.2843 40.4646C41.3192 40.6586 41.3493 40.8542 41.3743 41.0515ZM32.2578 17.6183C32.2578 17.6183 32.2578 17.6183 32.2578 17.6183C32.2565 17.6182 32.2552 17.618 32.2538 17.6179C32.2552 17.618 32.2565 17.6182 32.2578 17.6183ZM44.4815 42.0514H55.4875L55.4679 41.5326C55.2452 35.6203 52.9996 30.2173 49.4048 25.9978L49.0536 25.5856L41.2519 33.3873L41.5172 33.735C43.202 35.9425 44.2671 38.645 44.452 41.5828L44.4815 42.0514ZM26.6499 31.0012L30.8664 42.0514H41.9697L41.925 41.5103C41.4181 35.3748 36.2648 30.537 30 30.537C29.0371 30.537 28.1007 30.6522 27.2029 30.8681L26.6499 31.0012ZM39.1546 31.2909L39.5048 31.5773L47.2921 23.7895L46.8951 23.4372C42.814 19.8169 37.5657 17.4826 31.7926 17.0796L31.2578 17.0422V28.0695L31.6994 28.1215C34.5066 28.4515 37.0708 29.5864 39.1546 31.2909ZM28.3004 28.1219L28.7422 28.0702V17.0422L28.2074 17.0796C22.4343 17.4826 17.1861 19.8169 13.1045 23.4372L12.7074 23.7894L20.4952 31.5773L20.8454 31.2909C21.5284 30.7323 22.2626 30.2348 23.04 29.807L23.4212 29.5972L22.2503 26.5288C22.0027 25.8796 22.3284 25.1527 22.9773 24.905C23.6257 24.6575 24.3533 24.9828 24.6009 25.6319L25.7527 28.6506L26.19 28.5311C26.8746 28.344 27.5792 28.2064 28.3004 28.1219ZM28.1735 42.0514L24.3212 31.9555L23.8084 32.2667C20.6175 34.2034 18.3986 37.5911 18.075 41.5103L18.0303 42.0514H28.1735ZM18.7477 33.3873L10.9459 25.5856L10.5947 25.9979C7.00036 30.2173 4.75484 35.6203 4.53209 41.5326L4.51255 42.0514H15.518L15.5475 41.5829C15.7329 38.6449 16.7975 35.9424 18.4823 33.735L18.7477 33.3873Z" fill="#333E50"/>
</svg>
