<svg width="60" height="60" viewBox="0 0 60 60" fill="none" xmlns="http://www.w3.org/2000/svg">
<rect x="4" y="14" width="52" height="32" rx="4" fill="white"/>
<rect x="-0.341064" y="26.6225" width="52" height="32" rx="4" transform="rotate(-25.2556 -0.341064 26.6225)" fill="white"/>
<path d="M57.1197 41.9018V35.7416L57.2397 35.6219C59.5797 34.4258 60.6597 31.6148 59.5797 29.2823L57.1197 24.0192V18.158C57.1197 15.5863 55.0198 13.3136 52.2598 13.3136H52.1398L49.6798 7.75146C48.4798 5.41895 45.6598 4.3424 43.3199 5.41895L26.4 13.2538H7.74022C5.16024 13.2538 2.88026 15.3471 2.88026 18.0982V24.1986L2.76026 24.3183C0.420287 25.5144 -0.659702 28.3254 0.420288 30.6579L2.88026 35.9808V41.842C2.88026 44.4137 4.98024 46.6864 7.74022 46.6864H7.98021L10.5602 52.2485C11.7602 54.5811 14.5801 55.6576 16.9201 54.5811L33.72 46.6864H52.2598C54.8398 46.7462 57.1197 44.5931 57.1197 41.9018ZM57.2397 28.8038L57.8397 30.1196C58.3197 31.1962 58.0797 32.4521 57.2397 33.2894V28.8038ZM3.00026 29.8804L2.52027 30.1196L2.40027 29.7608C1.92027 28.6842 2.16027 27.4283 3.00026 26.591V29.8804ZM44.0999 7.27299C45.5398 6.67491 47.1598 7.27299 47.7598 8.58877L47.8798 8.94761L38.6399 13.194L31.26 13.2538L44.0999 7.27299ZM16.1401 52.6074C14.7001 53.2055 13.0802 52.6074 12.4802 51.2916L10.2002 46.7462L28.98 46.6266L16.1401 52.6074ZM54.9598 41.7822C54.9598 43.3372 53.7598 44.4735 52.2598 44.4735H7.74022C6.18023 44.4735 5.04024 43.2774 5.04024 41.7822V18.0982C5.04024 16.5432 6.24023 15.4069 7.74022 15.4069H52.3798C53.9398 15.4069 55.0798 16.603 54.9598 18.0982V41.7822Z" fill="#333E50"/>
<path d="M12.7203 33.5287H49.0799C49.7999 33.5287 50.2799 34.1268 50.2799 34.7248C50.2799 35.4425 49.6799 35.921 49.0799 35.921H12.7203C12.0003 35.921 11.5203 35.3229 11.5203 34.7248C11.5203 34.1268 12.0003 33.5287 12.7203 33.5287Z" fill="#C3E2FC"/>
<path d="M37.26 20.9092H49.4399C50.1599 20.9092 50.6399 21.5073 50.6399 22.1053C50.6399 22.823 50.0399 23.3015 49.4399 23.3015H37.26C36.54 23.3015 36.06 22.7034 36.06 22.1053C35.94 21.5073 36.54 20.9092 37.26 20.9092Z" fill="#C3E2FC"/>
<path d="M12.7203 38.4927H33.72C34.44 38.4927 34.92 39.0908 34.92 39.6889C34.92 40.4066 34.32 40.8851 33.72 40.8851H12.7203C12.0003 40.8851 11.5203 40.287 11.5203 39.6889C11.5203 39.0908 12.0003 38.4927 12.7203 38.4927Z" fill="#C3E2FC"/>
<path d="M13.7403 27.6675H17.4003C18.3602 27.6675 19.0802 26.9498 19.0802 25.9928V24.1986C19.0802 23.2417 18.3602 22.524 17.4003 22.524H13.7403C12.7803 22.524 12.0603 23.2417 12.0603 24.1986V25.9928C12.1203 26.9498 12.8403 27.6675 13.7403 27.6675Z" fill="#95CE5A"/>
<path d="M17.2802 28.3253H13.6203C12.3003 28.3253 11.2803 27.2488 11.2803 25.9928V24.1986C11.2803 22.8828 12.3603 21.8661 13.6203 21.8661H17.2802C18.6002 21.8661 19.6202 22.9426 19.6202 24.1986V25.9928C19.6802 27.3086 18.6002 28.3253 17.2802 28.3253ZM13.7402 23.3015C13.2603 23.3015 12.7803 23.7799 12.7803 24.2584V26.0526C12.7803 26.5311 13.2603 27.0096 13.7402 27.0096H17.4002C17.8802 27.0096 18.3602 26.5311 18.3602 26.0526V24.2584C18.3602 23.7799 17.8802 23.3015 17.4002 23.3015H13.7402Z" fill="#333E50"/>
<path d="M37.0199 22.1054C36.4199 22.1054 35.9399 21.6269 35.9399 21.0288C35.9399 20.4307 36.4199 19.9523 37.0199 19.9523H49.4398C50.0398 19.9523 50.5198 20.4307 50.5198 21.0288C50.5198 21.6269 50.0398 22.1054 49.4398 22.1054H37.0199Z" fill="#333E50"/>
<path d="M30.0602 39.6292C29.4602 39.6292 28.9802 39.1507 28.9802 38.5526C28.9802 37.9545 29.4602 37.4761 30.0602 37.4761H33.9602C34.5602 37.4761 35.0402 37.9545 35.0402 38.5526C35.0402 39.1507 34.5602 39.6292 33.9602 39.6292H30.0602Z" fill="#333E50"/>
<path d="M12.3603 39.7487C11.7603 39.7487 11.2803 39.2702 11.2803 38.6721C11.2803 38.074 11.7603 37.5956 12.3603 37.5956H24.7801C25.3801 37.5956 25.8601 38.074 25.8601 38.6721C25.8601 39.2702 25.3801 39.7487 24.7801 39.7487H12.3603Z" fill="#333E50"/>
<path d="M42.84 34.4856C42.24 34.4856 41.76 34.0071 41.76 33.4091C41.76 32.811 42.24 32.3325 42.84 32.3325H49.3199C49.9199 32.3325 50.3999 32.811 50.3999 33.4091C50.3999 34.0071 49.9199 34.4856 49.3199 34.4856H42.84Z" fill="#333E50"/>
<path d="M32.64 34.4856C32.0401 34.4856 31.5601 34.0071 31.5601 33.4091C31.5601 32.811 32.0401 32.3325 32.64 32.3325H39.12C39.72 32.3325 40.2 32.811 40.2 33.4091C40.2 34.0071 39.72 34.4856 39.12 34.4856H32.64Z" fill="#333E50"/>
<path d="M22.5002 34.4856C21.9002 34.4856 21.4202 34.0071 21.4202 33.4091C21.4202 32.811 21.9002 32.3325 22.5002 32.3325H28.9801C29.5801 32.3325 30.0601 32.811 30.0601 33.4091C30.0601 34.0071 29.5801 34.4856 28.9801 34.4856H22.5002Z" fill="#333E50"/>
<path d="M12.3603 34.4856C11.7603 34.4856 11.2803 34.0071 11.2803 33.4091C11.2803 32.811 11.7603 32.3325 12.3603 32.3325H18.8402C19.4402 32.3325 19.9202 32.811 19.9202 33.4091C19.9202 34.0071 19.4402 34.4856 18.8402 34.4856H12.3603Z" fill="#333E50"/>
</svg>
