<svg width="60" height="60" viewBox="0 0 60 60" fill="none" xmlns="http://www.w3.org/2000/svg">
<path d="M30.7365 39.1096C25.1614 39.1096 20.6055 34.5473 20.6055 28.9645C20.6055 25.1226 22.7636 21.7609 25.8808 20.0801C21.6246 21.5208 18.5673 25.5428 18.5673 30.2852C18.5673 36.2282 23.423 41.0906 29.3577 41.0906C34.0336 41.0906 37.9302 38.1491 39.4888 34.007C37.7503 37.0686 34.5132 39.1096 30.7365 39.1096Z" fill="#C3E2FC"/>
<path d="M20.6654 28.9644C20.6654 24.8824 23.0633 21.4007 26.4803 19.7799C26.0606 19.7198 25.5811 19.6598 25.1614 19.6598C19.6463 19.6598 15.1503 24.2221 15.1503 29.8649C15.1503 31.3056 15.45 32.6863 15.9895 33.9469C16.7089 35.6278 18.9269 36.2281 20.3657 37.2486C21.9842 38.4492 23.0033 40.01 25.1614 40.01C26.78 40.01 28.2787 39.5898 29.6575 38.9294C24.562 38.4492 20.6654 34.1871 20.6654 28.9644Z" fill="#C3E2FC"/>
<path d="M45.3634 28.6043C43.6249 28.6043 42.0663 28.1241 40.6875 27.2236C40.8074 27.7639 40.8673 28.3642 40.8673 28.9645C40.8673 29.2046 40.8673 29.4447 40.8074 29.6849C41.8265 30.045 42.9055 30.2852 43.9846 30.2852C47.4615 30.2852 50.5188 28.3042 52.0175 25.4227C50.4589 27.3437 48.061 28.6043 45.3634 28.6043Z" fill="#C3E2FC"/>
<path d="M36.7311 20.8004C36.6712 20.5002 36.6712 20.2001 36.6712 19.8999C36.6712 17.0785 37.99 14.6173 40.0282 13.0565C37.3905 14.3171 35.5322 16.8384 35.0526 19.8399C35.6521 20.08 36.1916 20.4402 36.7311 20.8004Z" fill="#C3E2FC"/>
<path d="M20.7253 29.985C19.4664 30.7654 17.9677 31.1856 16.3491 31.1856C11.5534 31.1856 7.6568 27.2836 7.6568 22.4812C7.6568 19.6598 8.97564 17.1986 11.0138 15.6378C8.01648 17.1386 5.91833 20.2001 5.91833 23.8019C5.91833 26.8034 8.55601 27.7639 10.7741 29.4447C12.2727 30.5853 12.9921 32.9265 15.0303 32.9265C17.2483 32.9265 19.2865 32.1461 20.8452 30.7654C20.7852 30.5253 20.7253 30.2251 20.7253 29.985Z" fill="#C3E2FC"/>
<path d="M24.7944 40.1794L4.34863 55.3L6.02543 57.5674L26.4712 42.4467L24.7944 40.1794Z" fill="#C3E2FC"/>
<path d="M49.8595 37.3087H45.1836V41.9911H49.8595V37.3087Z" fill="#95CE5A"/>
<path d="M54.955 25.1226C54.8951 24.6423 54.7752 24.1621 54.5354 23.6818C54.7152 22.9015 54.8351 22.061 54.8351 21.1606C54.8351 15.2176 50.0394 10.4152 44.2245 10.4152C43.4452 10.4152 42.7258 10.4752 42.0065 10.6553L32.7746 1.35068C30.9762 -0.450225 27.9788 -0.450225 26.1804 1.35068L13.2918 13.1166C8.1963 13.957 4.29974 18.4592 4.29974 23.6818C4.29974 23.7419 4.29974 23.8019 4.29974 23.8619C4.11989 24.4022 4 25.0025 4 25.6028V25.6628V58.4392C4 58.6793 4.11989 58.9795 4.23979 59.2196C4.47958 59.7599 5.0191 60 5.55862 60H53.3964C53.9359 60 54.4155 59.7599 54.7152 59.3397C54.8351 59.0996 54.955 58.7994 54.955 58.4392V25.1826C55.015 25.1226 55.015 25.1226 54.955 25.1226ZM19.0467 30.5853C19.0467 26.8634 20.965 23.6218 23.9024 21.7609C24.382 21.4607 24.8016 21.2206 25.3412 20.9805C26.66 20.4402 28.0388 20.08 29.5974 20.08C31.0361 20.08 32.355 20.3802 33.6139 20.8604C33.9136 20.9805 34.2133 21.1006 34.4531 21.2806C34.7529 21.4007 34.9927 21.5808 35.2924 21.7609C37.7502 23.3817 39.4887 25.963 39.9083 29.0845C39.9683 29.5648 40.0282 30.1051 40.0282 30.5853C40.0282 32.1461 39.6685 33.6468 39.0691 34.9675L31.9953 40.5503L31.216 40.01C30.6765 39.6498 29.8971 39.3497 29.2977 39.3497C28.6383 39.3497 27.8589 39.5898 27.3794 40.01L26.72 40.5503L20.3056 35.4477C20.3056 35.3877 20.2457 35.3877 20.2457 35.3277C19.9459 34.7274 19.7061 34.007 19.4664 33.3467C19.3465 32.8664 19.2266 32.3262 19.1666 31.7859C19.1067 31.4257 19.0467 31.0055 19.0467 30.5853ZM44.2845 12.0961C49.2001 12.0961 53.3365 16.1181 53.3365 21.1606C53.3365 21.4007 53.3365 21.6408 53.2765 21.8809C53.2166 22.6613 53.0367 23.3817 52.7969 24.042L45.1837 30.1051C44.8839 30.1651 44.5842 30.1651 44.2845 30.1651C43.4452 30.1651 42.6659 30.045 41.9465 29.8649C41.8866 29.0245 41.7667 28.1841 41.5269 27.3437H41.5868H41.7067C42.8457 26.5633 43.3852 26.4432 44.4044 26.9835C45.1837 27.3437 45.963 27.6438 46.7423 27.6438C47.6415 27.6438 48.4208 27.4037 48.9603 26.8634C49.6197 26.3232 49.4999 25.8429 49.2001 25.5428C48.9603 25.3027 48.4208 25.3027 48.0611 25.5428C47.7014 25.903 46.5025 25.903 45.4834 25.4227C44.7041 25.0625 43.9248 24.8824 43.2654 25.0625C43.5051 24.2821 43.625 23.5018 43.625 22.6013H45.0638C45.4234 22.6013 45.8431 22.2411 45.8431 21.8209C45.8431 21.4607 45.4834 21.0405 45.0638 21.0405H43.2654C43.1455 20.6803 42.9057 20.1401 42.6059 19.7199C42.2463 18.9395 42.2463 17.919 42.8457 17.2586C43.3852 16.5983 44.4043 16.3582 45.1837 16.5983C45.963 16.8384 46.6224 17.7389 46.6224 18.5193C46.6224 18.8794 46.9821 19.2997 47.4017 19.2997C47.8213 19.2997 48.181 18.9395 48.181 18.5193C48.181 16.9585 47.1619 15.5178 45.7232 15.0375C44.2845 14.4973 42.6059 14.9175 41.5868 16.1781C40.5677 17.3187 40.4478 19.1796 41.2271 20.4402V20.5603C41.347 20.6803 41.347 20.8004 41.4669 20.9205H40.6876C40.3279 20.9205 39.9083 21.2806 39.9083 21.7009C39.9083 22.061 40.268 22.4812 40.6876 22.4812H41.8266C41.9465 23.6218 41.6468 24.7624 40.9274 25.6028C39.7884 23.0215 37.8102 20.8604 35.3523 19.5398C35.8919 16.2981 38.2298 13.6568 41.2271 12.5763C41.9465 12.2761 42.7258 12.1561 43.5651 12.036C43.8049 12.096 44.0447 12.0961 44.2845 12.0961ZM27.7391 2.73137C28.0987 2.1911 28.878 1.95098 29.5375 1.95098C30.1969 1.95098 30.8563 2.1911 31.3359 2.73137L39.9083 11.3157C36.7911 12.6963 34.5131 15.5178 33.7937 18.8794C32.4749 18.3992 31.0361 18.0991 29.5375 18.0991C27.799 18.0991 26.1804 18.4592 24.6818 19.1196C23.1831 15.8179 20.1258 13.4767 16.3491 12.9965L27.7391 2.73137ZM15.0303 14.6773C18.687 14.6773 21.8043 16.8384 23.243 19.9C20.4255 21.5808 18.3274 24.2821 17.548 27.5238C17.0685 28.004 16.4091 28.3042 15.7496 28.3042C14.3109 28.3042 13.1719 27.1636 13.1719 25.7229H15.7496C16.1093 25.7229 16.4091 25.4827 16.4091 25.0625C16.4091 24.7024 16.1693 24.4022 15.7496 24.4022H13.1719V23.0815H15.7496C16.1093 23.0815 16.4091 22.8414 16.4091 22.4212C16.4091 22.061 16.1693 21.7609 15.7496 21.7609H13.1719C13.1719 20.3202 14.3109 19.1796 15.7496 19.1796C17.1884 19.1796 18.3274 20.3202 18.3274 21.7609C18.3274 22.1211 18.5671 22.4212 18.9868 22.4212C19.3465 22.4212 19.6462 22.1811 19.6462 21.7609C19.6462 19.5398 17.8478 17.7389 15.6297 17.7389C13.4117 17.7389 11.6133 19.5398 11.6133 21.7609H10.2944C9.93476 21.7609 9.63503 22.001 9.63503 22.4212C9.63503 22.7814 9.87482 23.0815 10.2944 23.0815H11.5533V24.4022H10.2345C9.87482 24.4022 9.57508 24.6423 9.57508 25.0625C9.57508 25.4227 9.81487 25.7229 10.2345 25.7229H11.5533C11.5533 27.944 13.3517 29.7449 15.5698 29.7449C16.1693 29.7449 16.7088 29.6248 17.1884 29.3847C17.1284 29.8049 17.1284 30.2251 17.1284 30.6453C17.1284 31.3057 17.1884 31.966 17.3083 32.5663C17.1284 32.6263 16.8886 32.6263 16.7088 32.6863L6.09815 24.2821C6.0382 24.1021 6.0382 23.922 6.0382 23.7419C5.97825 18.6994 10.1146 14.6773 15.0303 14.6773ZM5.97825 26.8634L8.31619 28.6643L24.9815 41.8709L5.97825 56.5183V26.8634ZM42.7258 51.2957L50.9985 57.6588H7.83661L27.3794 42.5313L28.6982 41.5108C29.0579 41.2706 29.5974 41.2706 30.017 41.5108L32.1152 43.0715L39.7285 49.0145C40.268 49.3747 40.8675 49.2546 41.1672 48.8944C41.5269 48.3542 41.407 47.7539 41.0473 47.4537L33.7937 41.7509L50.3391 28.6643L52.7969 26.7434L52.9168 56.6383L44.0447 49.7949C43.5051 49.4347 42.9057 49.5548 42.6059 49.915C42.1863 50.3952 42.3661 51.0555 42.7258 51.2957Z" fill="#333E50"/>
<path d="M29.6574 31.3657C30.7964 31.3657 31.7556 32.1461 31.7556 33.0465C31.7556 33.947 30.8563 34.7274 29.6574 34.7274C28.4585 34.7274 27.5593 33.947 27.5593 33.0465C27.5593 32.6863 27.1996 32.2661 26.7799 32.2661C26.3603 32.2661 26.0006 32.6263 26.0006 33.0465C26.0006 34.7274 27.3195 35.8679 28.8181 36.1681V37.1886C28.8181 37.5488 29.1778 37.969 29.5975 37.969C30.0171 37.969 30.3768 37.6088 30.3768 37.1886V36.2881C31.9354 35.928 33.1943 34.7274 33.1943 33.1666C33.1943 30.5853 31.0961 29.8049 29.4176 29.8049C28.2786 29.8049 27.3195 29.0245 27.3195 28.1241C27.3195 27.2236 28.0988 26.4432 29.4176 26.4432C29.4176 26.4432 29.4176 26.4432 29.5375 26.4432C30.6765 26.4432 31.6357 27.2236 31.6357 28.1241C31.6357 28.4842 31.9953 28.9045 32.415 28.9045C32.7747 28.9045 33.1943 28.5443 33.1943 28.1241C33.1943 26.4432 31.8754 25.1226 30.3768 24.7624V23.982C30.2569 23.4417 29.8372 23.0815 29.4776 23.0815C29.1179 23.0815 28.6982 23.4417 28.6982 23.8619V24.6423C27.0197 25.0025 25.8807 26.3232 25.8807 28.004C25.9407 29.925 27.6192 31.3657 29.6574 31.3657Z" fill="#333E50"/>
<path d="M50.9386 42.2311V37.3687C50.9386 36.8284 50.519 36.3482 49.9195 36.3482H45.0638C44.5243 36.3482 44.0447 36.7684 44.0447 37.3687V42.2311C44.0447 42.7714 44.4643 43.2517 45.0638 43.2517H49.9195C50.459 43.2517 50.9386 42.7714 50.9386 42.2311ZM49.5598 41.871H45.4235V37.7889H49.5598V41.871Z" fill="#333E50"/>
</svg>
