<svg width="60" height="60" viewBox="0 0 60 60" fill="none" xmlns="http://www.w3.org/2000/svg">
<rect x="4" y="15" width="52" height="31" rx="4" fill="white"/>
<rect y="27.1862" width="52" height="30.99" rx="4" transform="rotate(-25.2556 0 27.1862)" fill="white"/>
<path d="M55.6219 21.8466H4.56055V26.7027H55.6219V21.8466Z" fill="#C3E2FC"/>
<path d="M12.3007 40.8512C11.7007 40.8512 11.2207 40.3716 11.2207 39.7721C11.2207 39.1726 11.7007 38.693 12.3007 38.693H24.6611C25.2611 38.693 25.7411 39.1726 25.7411 39.7721C25.7411 40.3716 25.2611 40.8512 24.6611 40.8512H12.3007Z" fill="#C3E2FC"/>
<path d="M12.3007 39.7721C11.7007 39.7721 11.2207 39.2925 11.2207 38.693C11.2207 38.0934 11.7007 37.6138 12.3007 37.6138H24.6611C25.2611 37.6138 25.7411 38.0934 25.7411 38.693C25.7411 39.2925 25.2611 39.7721 24.6611 39.7721H12.3007Z" fill="#333E50"/>
<path d="M47.8216 33.5371H43.8015C42.3615 33.5371 41.2214 34.7361 41.2214 36.115V38.0934C41.2214 39.5322 42.4215 40.6713 43.8015 40.6713H47.8216C49.2617 40.6713 50.4017 39.4723 50.4017 38.0934V36.115C50.4017 34.7361 49.2016 33.5371 47.8216 33.5371Z" fill="#C3E2FC"/>
<path d="M59.5819 29.2806L57.1218 24.0049V18.1296C57.1218 15.5517 55.0218 13.2736 52.2617 13.2736H52.1417L49.5616 7.75805C48.3616 5.41995 45.5415 4.34083 43.2015 5.41995L26.341 13.2736H7.7405C5.16043 13.2736 2.88037 15.3719 2.88037 18.1296V24.2447L2.76037 24.3646C0.420303 25.5636 -0.659726 28.3813 0.420303 30.7194L2.88037 35.9951V41.8704C2.88037 44.4483 4.98043 46.7264 7.7405 46.7264H7.98051L10.5606 52.2419C11.7606 54.58 14.5807 55.6592 16.9207 54.5801L33.6612 46.6665H52.1417C54.7218 46.6665 57.0018 44.5682 57.0018 41.8104V35.7553L57.1218 35.6354C59.5819 34.4964 60.6619 31.6786 59.5819 29.2806ZM4.98043 22.0864H54.9618V25.6236H4.98043V22.0864ZM44.0415 7.27844C45.4815 6.67893 47.1016 7.27844 47.7016 8.59737L47.8216 8.95708L38.6413 13.2136H31.2011L44.0415 7.27844ZM7.7405 15.3719H52.3217C53.8817 15.3719 55.0218 16.5709 55.0218 18.1896V20.168H4.98043V18.1896C4.98043 16.5709 6.18046 15.3719 7.7405 15.3719ZM3.00037 29.8801L2.52036 30.1199L2.40036 29.7602C1.92034 28.6811 2.16035 27.4221 3.00037 26.5828V29.8801ZM16.0807 52.6017C14.6407 53.2012 13.0206 52.6017 12.4206 51.2827L10.2006 46.7264H28.9211L16.0807 52.6017ZM52.2617 44.6281H7.7405C6.18046 44.6281 5.04043 43.4291 5.04043 41.9303V27.6619H55.0218V41.8104C55.0218 43.3092 53.8217 44.6281 52.2617 44.6281ZM57.1218 33.2973V28.801L57.7218 30.1199C58.2019 31.199 57.9618 32.458 57.1218 33.2973Z" fill="#333E50"/>
<path d="M43.8014 39.0527H47.8215C48.7816 39.0527 49.5616 38.2134 49.5616 37.3141V35.3357C49.5616 34.3765 48.7216 33.5971 47.8215 33.5971H43.8014C42.8414 33.5971 42.0614 34.4364 42.0614 35.3357V37.3141C42.0014 38.2733 42.8414 39.0527 43.8014 39.0527Z" fill="#95CE5A"/>
<path d="M47.8216 39.772H43.8015C42.3615 39.772 41.2214 38.573 41.2214 37.1941V35.2157C41.2214 33.7769 42.4215 32.6378 43.8015 32.6378H47.8216C49.2617 32.6378 50.4017 33.8368 50.4017 35.2157V37.1941C50.4017 38.573 49.2016 39.772 47.8216 39.772ZM43.8015 34.2565C43.2015 34.2565 42.7215 34.7361 42.7215 35.3356V37.314C42.7215 37.9135 43.2015 38.3931 43.8015 38.3931H47.8216C48.4216 38.3931 48.9016 37.9135 48.9016 37.314V35.3356C48.9016 34.7361 48.4216 34.2565 47.8216 34.2565H43.8015Z" fill="#333E50"/>
<path d="M12.3007 35.3956C11.7007 35.3956 11.2207 34.9159 11.2207 34.3164C11.2207 33.7169 11.7007 33.2373 12.3007 33.2373H18.7809C19.3809 33.2373 19.8609 33.7169 19.8609 34.3164C19.8609 34.9159 19.3809 35.3956 18.7809 35.3956H12.3007Z" fill="#C3E2FC"/>
<path d="M12.3007 34.4963C11.7007 34.4963 11.2207 34.0167 11.2207 33.4172C11.2207 32.8177 11.7007 32.3381 12.3007 32.3381H18.7809C19.3809 32.3381 19.8609 32.8177 19.8609 33.4172C19.8609 34.0167 19.3809 34.4963 18.7809 34.4963H12.3007Z" fill="#333E50"/>
</svg>
