<svg width="60" height="60" viewBox="0 0 60 60" fill="none" xmlns="http://www.w3.org/2000/svg">
<path d="M56.3 1.98004H4.09998V54.18H56.3V1.98004Z" fill="white"/>
<path d="M44.4199 51.48H12.9199C9.61986 51.48 6.85986 48.78 6.85986 45.42V13.92C6.85986 10.62 9.55986 7.85999 12.9199 7.85999H44.4199C47.7199 7.85999 50.4799 10.56 50.4799 13.92V45.42C50.4799 48.84 47.7199 51.48 44.4199 51.48Z" fill="#C3E2FC"/>
<path d="M6.43986 15.18H11.4799C12.0799 15.18 12.5599 15.66 12.5599 16.26C12.5599 16.86 12.0799 17.34 11.4799 17.34H6.43986C5.83986 17.34 5.35986 16.86 5.35986 16.26C5.35986 15.66 5.83986 15.18 6.43986 15.18Z" fill="#C3E2FC"/>
<path d="M6.98002 40.68H12.02C12.62 40.68 13.1 41.16 13.1 41.76C13.1 42.36 12.62 42.84 12.02 42.84H6.98002C6.38002 42.84 5.90002 42.36 5.90002 41.76C5.96002 41.16 6.44002 40.68 6.98002 40.68Z" fill="#C3E2FC"/>
<path d="M52.58 0H7.7C4.58 0 2 2.58 2 5.76V50.58C2 53.34 3.92 55.62 6.62 56.16V57.3C6.62 58.74 7.82 60 9.32 60H13.7C15.14 60 16.4 58.8 16.4 57.3V56.22H44.84V57.3C44.84 58.74 46.04 60 47.54 60H51.92C53.36 60 54.62 58.8 54.62 57.3V55.92C56.9 55.08 58.46 52.92 58.46 50.46V5.76C58.28 2.52 55.7 0 52.58 0ZM14 57.3C14 57.54 13.82 57.66 13.64 57.66H9.26C9.02 57.66 8.9 57.48 8.9 57.3V56.22H14.06V57.3H14ZM51.8 57.72H47.42C47.18 57.72 47.06 57.54 47.06 57.36V56.28H52.22V57.36C52.16 57.54 52.04 57.72 51.8 57.72ZM56 50.58C56 52.5 54.44 54 52.58 54H7.7C5.78 54 4.28 52.44 4.28 50.58V5.76C4.28 3.84 5.84 2.34 7.7 2.34H52.52C54.44 2.34 55.94 3.9 55.94 5.76V50.58H56Z" fill="#333E50"/>
<path d="M47.18 47.76H13.34C11.72 47.76 10.4 46.44 10.4 44.82V10.32C10.4 8.70004 11.72 7.38004 13.34 7.38004H47.3C48.92 7.38004 50.24 8.70004 50.24 10.32V44.88C50.12 46.44 48.8 47.76 47.18 47.76Z" fill="white"/>
<mask id="mask0" mask-type="alpha" maskUnits="userSpaceOnUse" x="10" y="7" width="41" height="41">
<path d="M47.18 47.76H13.34C11.72 47.76 10.4 46.44 10.4 44.82V10.32C10.4 8.70004 11.72 7.38004 13.34 7.38004H47.3C48.92 7.38004 50.24 8.70004 50.24 10.32V44.88C50.12 46.44 48.8 47.76 47.18 47.76Z" fill="white"/>
</mask>
<g mask="url(#mask0)">
<path d="M37.4683 4.58335L5.55786 51.5239L9.97404 54.526L41.8845 7.5855L37.4683 4.58335Z" fill="#47C0EA"/>
<path d="M34.8665 0.891637L2.95605 47.8322L4.74238 49.0465L36.6528 2.10599L34.8665 0.891637Z" fill="#47C0EA"/>
<path d="M27.8561 -5.65136L-4.05432 41.2892L0.361858 44.2913L32.2723 -2.64922L27.8561 -5.65136Z" fill="#47C0EA"/>
<path d="M51.7335 8.46827L19.823 55.4088L20.7658 56.0497L52.6762 9.10917L51.7335 8.46827Z" fill="#47C0EA"/>
<path d="M48.6774 5.20203L16.767 52.1425L17.7097 52.7835L49.6202 5.84294L48.6774 5.20203Z" fill="#47C0EA"/>
<path d="M54.2475 10.1668L22.337 57.1073L26.7532 60.1095L58.6637 13.169L54.2475 10.1668Z" fill="#47C0EA"/>
<path d="M62.9825 12.7222L31.072 59.6628L35.4882 62.6649L67.3987 15.7244L62.9825 12.7222Z" fill="#47C0EA"/>
</g>
<path d="M19.1601 6.71997H14.5401C11.4201 6.71997 8.78008 9.29997 8.78008 12.48V14.4H7.22008C6.62008 14.4 6.08008 14.94 6.08008 15.54C6.08008 16.14 6.62008 16.68 7.22008 16.68H8.78008V39.54H7.22008C6.62008 39.54 6.08008 40.08 6.08008 40.68C6.08008 41.28 6.62008 41.82 7.22008 41.82H8.78008V43.74C8.78008 46.86 11.3601 49.5 14.5401 49.5H45.8001C48.9201 49.5 51.5601 46.92 51.5601 43.74V12.48C51.5601 9.35997 48.9801 6.71997 45.8001 6.71997H26.7201C26.7201 6.71997 25.5201 6.89997 25.5201 7.85997C25.5201 8.81997 26.8401 8.99997 26.8401 8.99997H45.7401C47.6601 8.99997 49.1601 10.56 49.1601 12.42V43.68C49.1601 45.6 47.6001 47.1 45.7401 47.1H14.5401C12.6201 47.1 11.1201 45.54 11.1201 43.68V41.76H12.6801C13.2801 41.76 13.8201 41.22 13.8201 40.62C13.8201 40.02 13.2801 39.48 12.6801 39.48H11.1201V16.68H12.6801C13.2801 16.68 13.8201 16.14 13.8201 15.54C13.8201 14.94 13.2801 14.4 12.6801 14.4H11.1201V12.48C11.1201 10.56 12.6801 9.05997 14.5401 9.05997H19.1601C19.1601 9.05997 20.4801 9.05997 20.4801 7.91997C20.4801 6.77997 19.1601 6.71997 19.1601 6.71997Z" fill="#333E50"/>
<path d="M41.2398 20.1L41.0598 20.04L40.8798 19.98C35.8998 17.04 29.4798 18.66 26.5398 23.64C23.5998 28.62 25.2198 35.04 30.1998 37.98C33.2598 39.84 37.0998 39.9 40.2198 38.28H40.3398H40.3998C45.5598 35.58 47.4198 29.22 44.7798 24.18C44.0598 22.44 42.7998 21.06 41.2398 20.1ZM35.7198 20.76C36.7998 20.76 37.9398 21 38.9598 21.42L35.5398 27.18C35.2398 27.24 34.9398 27.36 34.6998 27.54L28.1598 26.22C29.1798 22.92 32.2398 20.76 35.7198 20.76ZM27.5598 28.86C27.5598 28.68 27.5598 28.56 27.5598 28.38L34.0998 29.7C34.3398 30.18 34.7598 30.54 35.2998 30.6L38.3598 36.48C34.1598 37.92 29.4798 35.7 28.0398 31.5C27.7398 30.72 27.5598 29.82 27.5598 28.86ZM40.4598 35.46L37.3998 29.58C37.5798 29.22 37.5798 28.68 37.3998 28.26L40.8198 22.5C44.2398 25.32 44.7798 30.48 41.9598 33.9C41.5398 34.62 40.9998 35.1 40.4598 35.46Z" fill="#333E50"/>
<path d="M35.7199 29.76C36.217 29.76 36.6199 29.357 36.6199 28.86C36.6199 28.3629 36.217 27.96 35.7199 27.96C35.2229 27.96 34.8199 28.3629 34.8199 28.86C34.8199 29.357 35.2229 29.76 35.7199 29.76Z" fill="#95CE5A"/>
</svg>
