<svg width="60" height="60" viewBox="0 0 60 60" fill="none" xmlns="http://www.w3.org/2000/svg">
<g clip-path="url(#clip0)">
<path d="M50.3399 2.04001H1.91992V7.92001H50.3399V2.04001Z" fill="#C3E2FC"/>
<path d="M28.74 52.5H4.98C2.22 52.5 0 50.28 0 47.52V4.98C0 2.22 2.22 0 4.98 0H47.46C50.22 0 52.44 2.22 52.44 4.98V15C52.44 15.72 51.9 16.26 51.18 16.26C50.46 16.26 49.92 15.72 49.92 15V4.98C49.92 3.6 48.78 2.46 47.4 2.46H4.98C3.6 2.52 2.52 3.6 2.52 4.98V47.46C2.52 48.84 3.66 49.98 5.04 49.98H28.8C29.52 49.98 30.06 50.52 30.06 51.24C30 51.96 29.46 52.5 28.74 52.5Z" fill="#333E50"/>
<path d="M30.78 38.82L43.62 38.94L43.5 43.62L41.1 44.52L40.8 56.7L38.22 58.74L33.48 55.92L33.78 43.8L31.02 43.92L30.78 38.82Z" fill="#95CE5A"/>
<path d="M18.4799 15.36H6.8999V26.94H18.4799V15.36Z" fill="#95CE5A"/>
<path d="M18.4799 32.76H6.8999V44.34H18.4799V32.76Z" fill="#95CE5A"/>
<path d="M48.12 20.82L43.98 24.6L44.58 32.22L48.72 35.1L49.2 57.84L51.48 58.92L53.88 56.04L54 34.32L57.48 31.5L58.8 26.7L54.3 20.7L52.98 28.62L49.8 27.6L48.12 20.82Z" fill="#C3E2FC"/>
<path d="M51.24 7.5H1.26001V10.02H51.24V7.5Z" fill="#333E50"/>
<path d="M51.2401 60C49.1401 60 47.5201 58.32 47.5201 56.28V35.4C43.1401 33.36 41.2801 28.14 43.3801 23.76C44.4001 21.66 46.2001 20.04 48.3601 19.26C49.0201 19.02 49.7401 19.38 49.9801 20.04C50.0401 20.16 50.0401 20.34 50.0401 20.46V26.28H52.5601V20.46C52.5601 19.74 53.1001 19.2 53.8201 19.2C53.9401 19.2 54.1201 19.2 54.2401 19.26C58.8001 20.88 61.2001 25.86 59.5801 30.42C58.8001 32.64 57.1801 34.44 55.0801 35.4V56.28C55.0201 58.32 53.3401 60 51.2401 60ZM47.5201 22.5C44.7601 24.54 44.2201 28.5 46.2601 31.2C46.9801 32.16 48.0001 32.94 49.2001 33.36C49.6801 33.54 50.0401 34.02 50.0401 34.56V56.22C50.0401 56.94 50.5801 57.48 51.3001 57.48C52.0201 57.48 52.5601 56.94 52.5601 56.22V34.56C52.5601 34.02 52.9201 33.54 53.4001 33.36C56.6401 32.22 58.3801 28.68 57.2401 25.38C56.8201 24.24 56.1001 23.22 55.0801 22.44V27.42C55.0801 28.14 54.5401 28.68 53.8201 28.68H48.8401C48.1201 28.68 47.5801 28.14 47.5801 27.42V22.5H47.5201Z" fill="#333E50"/>
<path d="M37.5 60C34.74 60 32.52 57.78 32.52 55.02V43.74C32.52 43.02 33.06 42.48 33.78 42.48H41.28C42 42.48 42.54 43.02 42.54 43.74V54.96C42.48 57.78 40.26 60 37.5 60ZM34.98 45V55.02C34.98 56.4 36.12 57.54 37.5 57.54C38.88 57.54 40.02 56.4 40.02 55.02V45H34.98Z" fill="#333E50"/>
<path d="M43.74 45H31.26C30.54 45 30 44.46 30 43.74V38.76C30 38.04 30.54 37.5 31.26 37.5H43.74C44.46 37.5 45 38.04 45 38.76V43.74C45 44.46 44.46 45 43.74 45ZM32.52 42.48H42.54V39.96H32.52V42.48Z" fill="#333E50"/>
<path d="M37.5 22.5C35.4 22.5 33.78 20.82 33.78 18.78V13.8C33.78 13.08 34.32 12.54 35.04 12.54H40.02C40.74 12.54 41.28 13.08 41.28 13.8V18.78C41.22 20.82 39.54 22.5 37.5 22.5ZM36.24 15V18.72C36.24 19.44 36.78 19.98 37.5 19.98C38.22 19.98 38.76 19.44 38.76 18.72V15H36.24Z" fill="#333E50"/>
<path d="M38.76 21.24H36.24V38.76H38.76V21.24Z" fill="#333E50"/>
<path d="M18.72 28.74H6.23998C5.51998 28.74 4.97998 28.2 4.97998 27.48V15C4.97998 14.28 5.51998 13.74 6.23998 13.74H18.72C19.44 13.74 19.98 14.28 19.98 15V27.48C19.98 28.2 19.44 28.74 18.72 28.74ZM7.49998 26.28H17.52V16.26H7.49998V26.28Z" fill="#333E50"/>
<path d="M18.72 46.26H6.23998C5.51998 46.26 4.97998 45.72 4.97998 45V32.52C4.97998 31.8 5.51998 31.26 6.23998 31.26H18.72C19.44 31.26 19.98 31.8 19.98 32.52V45C19.98 45.66 19.44 46.26 18.72 46.26ZM7.49998 43.74H17.52V33.72H7.49998V43.74Z" fill="#333E50"/>
<path d="M31.26 15H23.76V17.52H31.26V15Z" fill="#333E50"/>
<path d="M31.26 19.98H23.76V22.5H31.26V19.98Z" fill="#333E50"/>
<path d="M33.78 25.02H23.76V27.54H33.78V25.02Z" fill="#333E50"/>
<path d="M33.78 32.52H23.76V35.04H33.78V32.52Z" fill="#333E50"/>
<path d="M27.48 37.5H23.76V40.02H27.48V37.5Z" fill="#333E50"/>
<path d="M27.48 42.48H23.76V45H27.48V42.48Z" fill="#333E50"/>
</g>
<defs>
<clipPath id="clip0">
<rect width="60" height="60" fill="white"/>
</clipPath>
</defs>
</svg>
