<svg width="60" height="60" viewBox="0 0 60 60" fill="none" xmlns="http://www.w3.org/2000/svg">
<g clip-path="url(#clip0)">
<path d="M46.3553 6.47298L41.3114 1.42911C40.5273 0.644894 39.238 0.707238 38.5331 1.56341L29.9936 11.9357L21.4539 1.56341C20.749 0.707238 19.4597 0.644894 18.6756 1.42911L13.6317 6.47298C12.8479 7.25685 12.9097 8.54556 13.7652 9.25068L25.3812 18.8257H34.606L46.2219 9.25068C47.0772 8.54556 47.1392 7.25685 46.3553 6.47298Z" fill="#95CE5A"/>
<path d="M31.8786 13.1006H28.1218C26.047 13.1006 24.365 14.7826 24.365 16.8574V20.6142H35.6353V16.8574C35.6354 14.7826 33.9534 13.1006 31.8786 13.1006Z" fill="#95CE5A"/>
<path d="M49.7231 59.1211H10.2771C9.23962 59.1211 8.39868 58.2802 8.39868 57.2427V28.1277H51.6015V57.2427C51.6015 58.28 50.7606 59.1211 49.7231 59.1211Z" fill="#55A3ED"/>
<path d="M14.0338 34.702H51.6015V28.1277H8.39868V57.2427C8.39868 58.2802 9.23962 59.1211 10.2771 59.1211H11.2162V37.5197C11.2162 35.9635 12.4777 34.702 14.0338 34.702Z" fill="#388EC3"/>
<path d="M51.6015 31.8845H8.39866C7.3612 31.8845 6.52026 31.0436 6.52026 30.0061V20.6142C6.52026 19.5768 7.3612 18.7358 8.39866 18.7358H51.6015C52.6389 18.7358 53.4799 19.5768 53.4799 20.6142V30.0061C53.4799 31.0436 52.6389 31.8845 51.6015 31.8845Z" fill="#55A3ED"/>
<path d="M12.1553 29.067C10.5992 29.067 9.3378 27.8054 9.3378 26.2494V18.7358H8.39866C7.3612 18.7358 6.52026 19.5768 6.52026 20.6142V30.0061C6.52026 31.0436 7.3612 31.8845 8.39866 31.8845H51.6015C52.6389 31.8845 53.4799 31.0436 53.4799 30.0061V29.067H12.1553Z" fill="#55A3ED"/>
<path d="M26 19H34V59H26V19Z" fill="#95CE5A"/>
<path d="M51.6061 17.8484H36.9724L46.7654 9.92075C47.372 9.42973 47.7434 8.70118 47.7843 7.92188C47.8251 7.14258 47.5322 6.37911 46.9803 5.82727L41.9606 0.807662C41.4088 0.255826 40.6441 -0.0370254 39.8661 0.00375586C39.0868 0.0447715 38.3583 0.416021 37.8673 1.02258L29.3699 10.7639C29.0645 11.1411 29.1228 11.6946 29.5 12C29.8772 12.3053 30.4307 12.2471 30.7361 11.8699L39.2335 2.1286C39.4141 1.90547 39.6716 1.77434 39.9582 1.75922C40.2455 1.74387 40.5146 1.8477 40.7176 2.05067L45.7372 7.07028C45.9402 7.27325 46.0438 7.54301 46.0287 7.82977C46.0135 8.11653 45.8824 8.37387 45.6593 8.55446L36.4392 16.0184C36.2807 15.1457 35.8784 14.3569 35.3038 13.727L40.4848 8.54602C40.828 8.20278 40.828 7.64625 40.4848 7.30313C40.1415 6.95989 39.585 6.95989 39.2419 7.30313L33.8787 12.6663C33.2728 12.3755 32.5944 12.2122 31.8786 12.2122H31.1907L22.133 1.02258C21.6419 0.416021 20.9134 0.0446543 20.1341 0.00375586C19.3556 -0.0369082 18.5913 0.255826 18.0396 0.807662L13.02 5.82727C12.4682 6.37911 12.1752 7.14258 12.2161 7.92188C12.257 8.70106 12.6283 9.42973 13.2349 9.92075L23.0279 17.8484H8.39413C6.87351 17.8484 5.63647 19.0854 5.63647 20.606V30C5.63647 31.2134 6.42444 32.2453 7.51522 32.6133V57.2423C7.51522 58.763 8.75237 60 10.2729 60H49.7273C51.248 60 52.485 58.7629 52.485 57.2423V32.6133C53.5758 32.2453 54.3637 31.2134 54.3637 30V20.6061C54.3637 19.0855 53.1267 17.8484 51.6061 17.8484ZM34.7576 16.8485V17.8484H25.2428V16.8485C25.2428 15.2612 26.5342 13.9699 28.1214 13.9699H31.8789C33.4662 13.9699 34.7576 15.2612 34.7576 16.8485ZM32.8787 58.2422H27.1214V19.6062H32.8787V58.2422ZM13.9714 7.82977C13.9564 7.54301 14.0599 7.27325 14.2629 7.07028L19.2825 2.05067C19.4855 1.8477 19.7546 1.74376 20.0419 1.75922C20.3285 1.77434 20.586 1.90547 20.7667 2.1286L28.9295 12.2121H28.1214C27.4056 12.2121 26.7272 12.3754 26.1213 12.6662L20.7581 7.30301C20.4149 6.95977 19.8584 6.95977 19.5152 7.30301C19.172 7.64626 19.172 8.20278 19.5152 8.5459L24.6962 13.7269C24.1216 14.3568 23.7193 15.1454 23.5608 16.0181L14.3407 8.55434C14.1177 8.37387 13.9864 8.11653 13.9714 7.82977ZM9.27304 57.2423V32.7577H25.6211C26.1065 32.7577 26.5 32.3641 26.5 31.8788C26.5 31.3934 26.1065 30.9998 25.6211 30.9998C25.1357 30.9998 8.39413 30.9998 8.39413 30.9998C7.84276 30.9998 7.39429 30.5513 7.39429 30V20.6061C7.39429 20.0548 7.84288 19.6063 8.39413 19.6063H25.3637V58.2422H10.2729C9.72151 58.2422 9.27304 57.7936 9.27304 57.2423ZM49.7273 58.2422H34.6365V32.7577H50.7272V57.2423C50.7272 57.7936 50.2786 58.2422 49.7273 58.2422ZM52.6059 30C52.6059 30.5514 52.1573 30.9998 51.6061 30.9998H34.6365V19.6062H51.6061C52.1575 19.6062 52.6059 20.0547 52.6059 20.606V30Z" fill="#333E50"/>
</g>
<defs>
<clipPath id="clip0">
<rect width="60" height="60" fill="white"/>
</clipPath>
</defs>
</svg>
