<svg width="60" height="60" viewBox="0 0 60 60" fill="none" xmlns="http://www.w3.org/2000/svg">
<g clip-path="url(#clip0)">
<path d="M60 30C60 13.44 46.56 0 30 0C13.44 0 0 13.44 0 30C0 46.56 13.44 60 30 60C36.72 60 43.08 57.84 48.36 53.7L49.68 52.68V59.16C49.68 59.64 50.1 60.06 50.58 60.06C51.06 60.06 51.48 59.64 51.48 59.16V50.64C51.42 50.34 51.3 49.86 50.82 49.74L42.54 47.52C42.06 47.4 41.58 47.7 41.46 48.12C41.34 48.6 41.64 49.08 42.06 49.2L48.84 51L47.58 52.02C42.54 56.1 36.48 58.2 30 58.2C14.4 58.2 1.74 45.54 1.74 30C1.74 14.4 14.4 1.74 30 1.74C45.6 1.74 58.26 14.4 58.26 30C58.26 30.48 58.68 30.9 59.16 30.9C59.64 30.9 60 30.48 60 30Z" fill="#333E50"/>
<path d="M34.98 31.2H25.2V43.32H34.98V31.2Z" fill="#95CE5A"/>
<path d="M30 24.9C31.7894 24.9 33.24 23.4494 33.24 21.66C33.24 19.8706 31.7894 18.42 30 18.42C28.2106 18.42 26.76 19.8706 26.76 21.66C26.76 23.4494 28.2106 24.9 30 24.9Z" fill="#C3E2FC"/>
<path d="M46.6801 23.64C47.0401 23.64 47.2201 23.46 47.2801 23.34C47.5201 23.04 47.5201 22.56 47.1001 22.26L43.5001 19.38L30.4201 9.12001C30.1201 8.88001 29.7601 8.88001 29.5201 9.06001L16.4401 19.38L12.8401 22.2C12.5401 22.44 12.4801 22.98 12.6601 23.28C12.9001 23.58 13.4401 23.64 13.7401 23.46L16.0801 21.6V43.08C16.0801 43.56 16.3801 43.86 16.8601 43.86H43.0801C43.5601 43.86 43.8601 43.56 43.8601 43.08V21.6L46.2001 23.4C46.3201 23.52 46.5001 23.64 46.6801 23.64ZM33.9601 42.3H25.9801V31.92H33.9601V42.3ZM42.3001 42.3H35.5201V31.2C35.5201 30.72 35.2201 30.42 34.7401 30.42H25.2001C24.7201 30.42 24.4201 30.72 24.4201 31.2V42.36H17.6401V20.4L30.0001 10.62L42.3001 20.4V42.3Z" fill="#333E50"/>
<path d="M29.9999 17.28C27.5999 17.28 25.6799 19.2 25.6799 21.6C25.6799 24 27.5999 25.92 29.9999 25.92C32.3999 25.92 34.3199 24 34.3199 21.6C34.3199 19.26 32.3999 17.28 29.9999 17.28ZM29.9999 24.48C28.4399 24.48 27.1799 23.22 27.1799 21.66C27.1799 20.1 28.4399 18.84 29.9999 18.84C31.5599 18.84 32.8199 20.1 32.8199 21.66C32.8199 23.22 31.4999 24.48 29.9999 24.48Z" fill="#333E50"/>
</g>
<defs>
<clipPath id="clip0">
<rect width="60" height="60" fill="white"/>
</clipPath>
</defs>
</svg>
