<svg width="60" height="60" viewBox="0 0 60 60" fill="none" xmlns="http://www.w3.org/2000/svg">
<rect x="13" y="14" width="16" height="43" fill="white"/>
<rect x="29" y="3" width="18" height="54" fill="white"/>
<path d="M6.00008 52.32C7.88889 52.32 9.42008 50.7888 9.42008 48.9C9.42008 47.0112 7.88889 45.48 6.00008 45.48C4.11126 45.48 2.58008 47.0112 2.58008 48.9C2.58008 50.7888 4.11126 52.32 6.00008 52.32Z" fill="#95CE5A"/>
<path d="M6.3 45C7.29411 45 8.1 44.1941 8.1 43.2C8.1 42.2059 7.29411 41.4 6.3 41.4C5.30589 41.4 4.5 42.2059 4.5 43.2C4.5 44.1941 5.30589 45 6.3 45Z" fill="#95CE5A"/>
<path d="M53.8199 45.18C55.5762 45.18 56.9999 43.7563 56.9999 42C56.9999 40.2437 55.5762 38.82 53.8199 38.82C52.0636 38.82 50.6399 40.2437 50.6399 42C50.6399 43.7563 52.0636 45.18 53.8199 45.18Z" fill="#95CE5A"/>
<path d="M54.1199 52.26C55.8762 52.26 57.2999 50.8362 57.2999 49.08C57.2999 47.3237 55.8762 45.9 54.1199 45.9C52.3637 45.9 50.9399 47.3237 50.9399 49.08C50.9399 50.8362 52.3637 52.26 54.1199 52.26Z" fill="#95CE5A"/>
<path d="M28.4999 19.08H11.8799V22.98H28.4999V19.08Z" fill="#C3E2FC"/>
<path d="M48 6.77997H27.72V10.8H48V6.77997Z" fill="#C3E2FC"/>
<path d="M23.7 45.42H17.28V57.24H23.7V45.42Z" fill="#C3E2FC"/>
<path d="M39.72 31.38H42.96C43.38 31.38 43.68 31.08 43.68 30.66V25.62C43.68 25.2 43.38 24.9 42.96 24.9H39.72C39.3 24.9 39 25.2 39 25.62V30.6C39 31.08 39.3 31.38 39.72 31.38ZM40.44 26.28H42.18V29.88H40.44V26.28Z" fill="#333E50"/>
<path d="M32.76 31.38H36C36.42 31.38 36.72 31.08 36.72 30.66V25.62C36.72 25.2 36.42 24.9 36 24.9H32.76C32.34 24.9 32.04 25.2 32.04 25.62V30.6C32.04 31.08 32.34 31.38 32.76 31.38ZM33.48 26.28H35.22V29.88H33.48V26.28Z" fill="#333E50"/>
<path d="M39.72 41.4H42.96C43.38 41.4 43.68 41.1 43.68 40.68V35.64C43.68 35.22 43.38 34.92 42.96 34.92H39.72C39.3 34.92 39 35.22 39 35.64V40.68C39 41.04 39.3 41.4 39.72 41.4ZM40.44 36.3H42.18V39.9H40.44V36.3Z" fill="#333E50"/>
<path d="M32.76 41.4H36C36.42 41.4 36.72 41.1 36.72 40.68V35.64C36.72 35.22 36.42 34.92 36 34.92H32.76C32.34 34.92 32.04 35.22 32.04 35.64V40.68C32.04 41.04 32.34 41.4 32.76 41.4ZM33.48 36.3H35.22V39.9H33.48V36.3Z" fill="#333E50"/>
<path d="M19.1399 41.4H22.3799C22.7999 41.4 23.0999 41.1 23.0999 40.68V35.64C23.0999 35.22 22.7999 34.92 22.3799 34.92H19.1399C18.7199 34.92 18.4199 35.22 18.4199 35.64V40.68C18.4199 41.04 18.7199 41.4 19.1399 41.4ZM19.9199 36.3H21.6599V39.9H19.9199V36.3Z" fill="#333E50"/>
<path d="M39.72 50.88H42.96C43.38 50.88 43.68 50.58 43.68 50.16V45.12C43.68 44.7 43.38 44.4 42.96 44.4H39.72C39.3 44.4 39 44.7 39 45.12V50.16C39 50.58 39.3 50.88 39.72 50.88ZM40.44 45.84H42.18V49.44H40.44V45.84Z" fill="#333E50"/>
<path d="M32.76 50.88H36C36.42 50.88 36.72 50.58 36.72 50.16V45.12C36.72 44.7 36.42 44.4 36 44.4H32.76C32.34 44.4 32.04 44.7 32.04 45.12V50.16C32.04 50.58 32.34 50.88 32.76 50.88ZM33.48 45.84H35.22V49.44H33.48V45.84Z" fill="#333E50"/>
<path d="M39.72 21.42H42.96C43.38 21.42 43.68 21.12 43.68 20.7V15.66C43.68 15.24 43.38 14.94 42.96 14.94H39.72C39.3 14.94 39 15.24 39 15.66V20.7C39 21.18 39.3 21.42 39.72 21.42ZM40.44 16.38H42.18V19.98H40.44V16.38Z" fill="#333E50"/>
<path d="M32.76 21.42H36C36.42 21.42 36.72 21.12 36.72 20.7V15.66C36.72 15.24 36.42 14.94 36 14.94H32.76C32.34 14.94 32.04 15.24 32.04 15.66V20.7C32.04 21.18 32.34 21.42 32.76 21.42ZM33.48 16.38H35.22V19.98H33.48V16.38Z" fill="#333E50"/>
<path d="M59.04 56.7H54.66V53.52C56.76 53.16 58.5 51.3 58.5 49.02C58.5 47.28 57.48 45.72 55.92 45C56.16 44.88 56.46 44.64 56.64 44.46C57.36 43.74 57.72 42.78 57.72 41.76C57.72 40.74 57.36 39.78 56.64 39.06C55.2 37.62 52.74 37.62 51.3 39.06C49.86 40.5 49.86 42.96 51.3 44.4C51.54 44.64 51.72 44.76 52.02 44.94C50.46 45.66 49.44 47.22 49.44 48.96C49.44 51.24 51.06 53.1 53.28 53.46V56.7H47.82V11.7H47.88C48.3 11.7 48.6 11.4 48.6 10.98V6.59999C48.6 6.17999 48.3 5.87999 47.88 5.87999H47.82V2.57999C47.82 2.15999 47.52 1.85999 47.1 1.85999H28.5C28.08 1.85999 27.78 2.15999 27.78 2.57999V5.81999H27.72C27.3 5.81999 27 6.11999 27 6.53999V10.92C27 11.34 27.3 11.64 27.72 11.64H27.78V13.68H12.66C12.24 13.68 11.94 13.98 11.94 14.4V18H11.64C11.22 18 10.92 18.3 10.92 18.72V23.1C10.92 23.52 11.22 23.82 11.64 23.82H11.94V56.64H6.96V53.46C9.06 53.1 10.8 51.24 10.8 48.96C10.8 47.22 9.78 45.66 8.4 44.94C8.82 44.4 9.06 43.86 9.06 43.2C9.06 41.64 7.8 40.5 6.36 40.5C4.92 40.5 3.66 41.76 3.66 43.2C3.66 43.86 3.96 44.52 4.32 44.94C2.88 45.66 1.92 47.22 1.92 48.96C1.92 51.24 3.54 53.1 5.76 53.46V56.64H0.72C0.3 56.7 0 57 0 57.42C0 57.84 0.3 58.14 0.72 58.14H59.28C59.7 58.14 60 57.84 60 57.42C60 57 59.46 56.7 59.04 56.7ZM52.26 40.2C53.16 39.3 54.66 39.3 55.56 40.2C55.98 40.62 56.22 41.22 56.22 41.82C56.22 42.42 55.98 43.02 55.56 43.44C54.66 44.34 53.16 44.34 52.26 43.44C51.36 42.54 51.36 41.04 52.26 40.2ZM50.88 49.08C50.88 47.4 52.26 46.02 53.94 46.02C55.62 46.02 57 47.4 57 49.08C57 50.76 55.62 52.14 53.94 52.14C52.2 52.14 50.88 50.76 50.88 49.08ZM4.92 43.32C4.92 42.6 5.52 42.06 6.18 42.06C6.9 42.06 7.44 42.66 7.44 43.32C7.44 44.04 6.84 44.58 6.18 44.58C5.52 44.58 4.92 43.98 4.92 43.32ZM3.06 49.08C3.06 47.4 4.44 46.02 6.12 46.02C7.8 46.02 9.18 47.4 9.18 49.08C9.18 50.76 7.8 52.14 6.12 52.14C4.5 52.14 3.06 50.76 3.06 49.08ZM28.44 10.2V7.25999H47.1V10.2H28.44ZM29.22 3.23999H46.26V5.75999H29.22V3.23999ZM46.26 11.7V56.7H29.22V18.24V14.52V11.7H46.26ZM12.36 22.38V19.44H27.78V22.38H12.36ZM13.38 15.18H27.78V18H13.38V15.18ZM13.38 23.88H27.78V56.7H24.54V45.3C24.54 44.88 24.24 44.58 23.82 44.58H17.4C16.98 44.58 16.68 44.88 16.68 45.3V56.7H13.38V23.88ZM23.04 56.7H18.12V46.02H23.04V56.7Z" fill="#333E50"/>
</svg>
