<svg width="60" height="60" viewBox="0 0 60 60" fill="none" xmlns="http://www.w3.org/2000/svg">
<g clip-path="url(#clip0)">
<path d="M25.8 36.42L33.48 36.3L34.92 54.72L33 58.68L29.28 59.52L25.38 57.3L24.72 54.12L25.8 36.42Z" fill="#95CE5A"/>
<path d="M6 15.3L6.3 26.88L8.1 27.9L9.78 27.18L10.38 21.42L12.18 20.22L14.4 21.78L14.7 38.1L16.2 39.72L18.18 38.1L18.6 23.82L20.7 21.9L22.32 23.22L23.22 28.92L24.3 30.3L26.1 30.18L27.18 27.72L26.88 19.92L28.08 18.42L30.12 18.72L31.38 20.7L31.62 25.38L33.3 26.52L35.4 25.2L35.22 20.52L36.9 19.2L39.6 20.58L40.5 23.52H43.02L43.56 19.32V15.3H6Z" fill="#C3E2FC"/>
<path d="M1.8 9.54C1.68 9.48 1.5 9.12 1.5 8.58V7.2C1.5 6.6 1.74 6.3 1.74 6.24H2.7V9.54H1.8ZM6.78 16.08H42.96H44.7H52.32C53.94 16.08 55.26 14.76 55.26 13.14V8.76H58.56V20.76L29.76 30.66C29.46 30.78 29.28 31.02 29.28 31.38V35.64H25.98C25.56 35.64 25.26 35.94 25.26 36.36L24.3 54.42C24.3 57.54 26.82 60.12 30 60.12C33.18 60.12 35.7 57.6 35.7 54.42L34.74 36.42C34.74 36 34.38 35.7 34.02 35.7H30.9V31.98L59.64 22.14C59.94 22.02 60.12 21.78 60.12 21.42V8.04C60.12 7.62 59.76 7.32 59.34 7.32H55.2V2.94C55.2 1.32 53.88 0 52.26 0H5.64C4.02 0 2.7 1.32 2.7 2.94V4.8H1.74C0.78 4.8 0 5.82 0 7.26V8.64C0 10.02 0.78 11.1 1.74 11.1H2.7V13.2C2.7 14.7 3.84 15.9 5.22 16.08H6.78ZM5.28 15.3V25.8C5.28 27.36 6.54 28.62 8.1 28.62C9.66 28.62 10.92 27.36 10.92 25.8V22.32C10.92 21.6 11.52 21 12.24 21C12.96 21 13.56 21.6 13.56 22.32V37.44C13.56 39 14.82 40.26 16.38 40.26C17.94 40.26 19.2 39 19.2 37.44V24.78C19.2 24.06 19.8 23.46 20.52 23.46C21.24 23.46 21.84 24.06 21.84 24.78V28.38C21.84 29.94 23.1 31.2 24.66 31.2C26.22 31.2 27.48 29.94 27.48 28.38V20.4C27.48 19.68 28.08 19.08 28.8 19.08C29.52 19.08 30.12 19.68 30.12 20.4V24.3C30.12 25.86 31.38 27.12 32.94 27.12C34.5 27.12 35.76 25.86 35.76 24.3V21.3C35.76 20.58 36.36 19.98 37.08 19.98C37.8 19.98 38.4 20.58 38.4 21.3V21.6C38.4 23.16 39.66 24.42 41.22 24.42C42.78 24.42 44.04 23.16 44.04 21.6V15.36H42.54V21.6C42.54 22.32 41.94 22.92 41.22 22.92C40.5 22.92 39.9 22.32 39.9 21.6V21.36C39.9 19.8 38.64 18.54 37.08 18.54C35.52 18.54 34.26 19.8 34.26 21.36V24.36C34.26 25.08 33.66 25.68 32.94 25.68C32.22 25.68 31.62 25.08 31.62 24.36V20.4C31.62 18.84 30.36 17.58 28.8 17.58C27.24 17.58 25.98 18.84 25.98 20.4V28.38C25.98 29.1 25.38 29.7 24.66 29.7C23.94 29.7 23.34 29.1 23.34 28.38V24.78C23.34 23.22 22.08 21.96 20.52 21.96C18.96 21.96 17.7 23.22 17.7 24.78V37.5C17.7 38.22 17.1 38.82 16.38 38.82C15.66 38.82 15.06 38.22 15.06 37.5V22.32C15.06 20.76 13.8 19.5 12.24 19.5C10.68 19.5 9.42 20.76 9.42 22.32V25.8C9.42 26.52 8.82 27.12 8.1 27.12C7.38 27.12 6.78 26.52 6.78 25.8V15.3H5.28ZM53.7 13.2C53.7 13.98 53.04 14.64 52.26 14.64H5.64C4.86 14.58 4.2 13.98 4.2 13.2V2.94C4.2 2.16 4.86 1.5 5.64 1.5H52.26C53.04 1.5 53.7 2.16 53.7 2.94V13.2ZM34.08 54.3C34.08 56.58 32.22 58.5 29.88 58.5C27.54 58.5 25.68 56.64 25.68 54.36L26.58 37.08H33.12L34.08 54.3Z" fill="#333E50"/>
</g>
<defs>
<clipPath id="clip0">
<rect width="60" height="60" fill="white"/>
</clipPath>
</defs>
</svg>
