<svg width="60" height="60" viewBox="0 0 60 60" fill="none" xmlns="http://www.w3.org/2000/svg">
<g clip-path="url(#clip0)">
<path d="M30 39.12C32.883 39.12 35.22 36.7829 35.22 33.9C35.22 31.0171 32.883 28.68 30 28.68C27.1171 28.68 24.78 31.0171 24.78 33.9C24.78 36.7829 27.1171 39.12 30 39.12Z" fill="#95CE5A"/>
<path d="M12.1199 26.1V31.2L15.5999 30L18.1799 25.74L15.8999 24.9L12.1199 26.1Z" fill="#C3E2FC"/>
<path d="M13.0801 42.78H18.1801L16.9801 39.24L12.7201 36.66L11.8801 38.94L13.0801 42.78Z" fill="#C3E2FC"/>
<path d="M48.0599 41.64V36.54L44.5799 37.74L41.9399 42.06L44.2799 42.84L48.0599 41.64Z" fill="#C3E2FC"/>
<path d="M47.0399 25.02H41.9399L43.1999 28.5L47.4599 31.08L48.2399 28.8L47.0399 25.02Z" fill="#C3E2FC"/>
<path d="M45.96 43.8827C47.64 43.8827 48.96 42.5027 48.96 40.8827V27.0827V21.9227V16.7627C48.96 15.0827 47.58 13.7627 45.96 13.7627H31.74C31.26 13.7627 30.84 14.1827 30.84 14.6027C30.84 15.0827 31.26 15.4427 31.74 15.4427H45.96C46.68 15.4427 47.28 15.9827 47.28 16.7627V19.2227C46.86 19.0427 46.44 18.9227 45.96 18.9227H14.04C13.56 18.9227 13.14 19.0427 12.72 19.2227V16.7627C12.72 16.0427 13.26 15.4427 14.04 15.4427H28.26C28.74 15.4427 29.16 15.0227 29.16 14.6027C29.16 14.1227 28.74 13.7627 28.26 13.7627H14.04C12.36 13.7627 11.04 15.1427 11.04 16.7627V21.9227V21.9827V27.0827V27.1427V40.8827C11.04 42.5627 12.42 43.8827 14.04 43.8827H45.96ZM45.96 42.2027H42.96C43.14 39.9227 44.94 38.1227 47.22 37.8827V40.8827C47.28 41.6027 46.68 42.2027 45.96 42.2027ZM41.22 42.2027H18.78C18.54 38.9627 15.96 36.3827 12.78 36.2027V31.8227C16.02 31.5827 18.6 29.0027 18.78 25.8227H41.22C41.46 29.0627 44.04 31.6427 47.22 31.8227V36.2027C44.04 36.3827 41.46 38.9627 41.22 42.2027ZM17.04 42.2027H14.04C13.32 42.2027 12.72 41.6627 12.72 40.8827V37.8827C15 38.0627 16.8 39.8627 17.04 42.2027ZM30 40.4627C33.54 40.4627 36.48 37.5827 36.48 33.9827C36.48 30.4427 33.6 27.5027 30 27.5027C26.4 27.5027 23.52 30.3827 23.52 33.9827C23.52 37.5227 26.46 40.4627 30 40.4627ZM30 38.7227C27.36 38.7227 25.26 36.6227 25.26 33.9827C25.26 31.3427 27.36 29.2427 30 29.2427C32.64 29.2427 34.74 31.3427 34.74 33.9827C34.74 36.6227 32.64 38.7227 30 38.7227ZM43.44 34.8227C43.92 34.8227 44.28 34.3427 44.28 33.9227C44.28 33.4427 43.8 33.0827 43.38 33.0827H39.06C38.58 33.0827 38.16 33.5027 38.16 33.9227C38.16 34.4027 38.58 34.7627 39.06 34.7627C40.5 34.8227 42 34.8227 43.44 34.8227ZM21 34.8227C21.48 34.8227 21.84 34.3427 21.84 33.9227C21.84 33.4427 21.36 33.0827 20.94 33.0827H16.62C16.14 33.0827 15.72 33.5027 15.72 33.9227C15.72 34.4027 16.14 34.7627 16.62 34.7627C18.06 34.8227 19.56 34.8227 21 34.8227ZM47.28 30.0827C45 29.9027 43.2 28.1027 43.02 25.8227H46.02C46.74 25.8227 47.34 26.3627 47.34 27.1427V27.2027V30.0827H47.28ZM12.78 30.0827L12.72 27.0827C12.72 26.3627 13.26 25.7627 14.04 25.7627H17.04C16.8 28.0427 15.06 29.8427 12.78 30.0827ZM47.28 24.3227C46.86 24.1427 46.44 24.0227 45.96 24.0227H14.04C13.56 24.0227 13.14 24.1427 12.72 24.3227V21.8627C12.72 21.1427 13.26 20.5427 14.04 20.5427H45.96C46.68 20.5427 47.28 21.0827 47.28 21.8627V21.9227V24.3227Z" fill="#333E50"/>
<path d="M60 30C60 13.44 46.56 0 30 0C13.44 0 0 13.44 0 30C0 46.56 13.44 60 30 60C36.72 60 43.08 57.84 48.36 53.7L49.68 52.68V59.16C49.68 59.64 50.1 60.06 50.58 60.06C51.06 60.06 51.48 59.64 51.48 59.16V50.64C51.42 50.34 51.3 49.86 50.82 49.74L42.54 47.52C42.06 47.4 41.58 47.7 41.46 48.12C41.34 48.6 41.64 49.08 42.06 49.2L48.84 51L47.58 52.02C42.54 56.1 36.48 58.2 30 58.2C14.4 58.2 1.74 45.54 1.74 30C1.74 14.4 14.4 1.74 30 1.74C45.6 1.74 58.26 14.4 58.26 30C58.26 30.48 58.68 30.9 59.16 30.9C59.64 30.9 60 30.48 60 30Z" fill="#333E50"/>
</g>
<defs>
<clipPath id="clip0">
<rect width="60" height="60" fill="white"/>
</clipPath>
</defs>
</svg>
