<svg width="60" height="60" viewBox="0 0 60 60" fill="none" xmlns="http://www.w3.org/2000/svg">
<g clip-path="url(#clip0)">
<path d="M54.7201 60.0001H5.28009C4.50009 60.0001 3.84009 59.3401 3.84009 58.5601C3.84009 57.7801 4.50009 57.1201 5.28009 57.1201H54.6601C55.4401 57.1201 56.1001 57.7801 56.1001 58.5601C56.1601 59.3401 55.5001 60.0001 54.7201 60.0001Z" fill="#333E50"/>
<path d="M54.7201 54.6001H5.28009C4.50009 54.6001 3.84009 53.9401 3.84009 53.1601C3.84009 52.3801 4.50009 51.7201 5.28009 51.7201H54.6601C55.4401 51.7201 56.1001 52.3801 56.1001 53.1601C56.1601 53.9401 55.5001 54.6001 54.7201 54.6001Z" fill="#333E50"/>
<path d="M54.7201 49.2001H5.28009C4.50009 49.2001 3.84009 48.5401 3.84009 47.7601C3.84009 46.9801 4.50009 46.3201 5.28009 46.3201H54.6601C55.4401 46.3201 56.1001 46.9801 56.1001 47.7601C56.1601 48.5401 55.5001 49.2001 54.7201 49.2001Z" fill="#333E50"/>
<path d="M27 12.5L21 18V33.5C21.3333 34 22.2 35.2 23 36C23.8 36.8 27 37.6667 28.5 38H44C44.5 38 46.5 37 47 36C47.4 35.2 46.1667 33.3333 45.5 32.5C46 32 47.1 30.8 47.5 30C47.9 29.2 46.3333 27.6667 45.5 27C46.1667 26.5 47.6 25.3 48 24.5C48.4 23.7 47.5 22.1667 47 21.5C47 21.3333 47.3 20.7 48.5 19.5C50 18 48 17.5 48 16.5C48 15.5 39 16.5 37 16.5C35 16.5 34.5 15.5 34.5 14.5C34.5 13.5 36.5 8 37 6.5C37.5 5 35.5 3 33.5 3C31.9 3 28.5 9.33333 27 12.5Z" fill="white"/>
<path d="M11.2082 36.1476H20.5068L20.5068 17.151H11.2082L11.2082 36.1476Z" fill="#95CE5A"/>
<path d="M20.2786 17.2652L27.9229 12.4733C27.9229 12.4733 23.188 19.2048 23.188 25.7081C23.188 32.2115 27.4665 37.5739 27.4665 37.5739L20.2786 34.2081L20.2786 17.2652Z" fill="#C3E2FC"/>
<path d="M49.3154 24.2249C49.3154 23.3692 49.0302 22.5135 48.5168 21.886C49.4295 21.2014 50 20.0605 50 18.8055C50 16.6377 48.2886 14.9263 46.1208 14.9263C44.5806 14.9263 42.4128 14.9263 40.5302 14.9833C39.6745 15.0404 37.9631 15.0404 35.5672 14.9263C36.594 11.8458 37.849 7.96659 38.0772 6.59747C38.4766 4.60083 37.3356 2.83239 35.2249 2.20487C33.1142 1.57736 31.0034 2.43306 30.2618 4.20151C29.0639 7.11089 25.4129 13.8994 21.4196 16.4095C21.3625 16.4666 21.2485 16.5236 21.1914 16.6377C20.6209 16.1813 19.9364 15.8961 19.1948 15.8961H13.2619C11.4935 15.8961 10.1243 17.3223 10.1243 19.0337V34.4933C10.1243 36.2618 11.5505 37.6309 13.2619 37.6309H19.0807C20.0505 37.6309 20.9062 37.1745 21.5337 36.4899C23.2451 37.802 26.2686 39 29.8055 39H44.0671C46.2349 39 47.9463 37.2886 47.9463 35.1208C47.9463 34.2651 47.6611 33.4094 47.1477 32.7819C48.0604 32.0403 48.6309 30.9564 48.6309 29.7014C48.6309 28.8457 48.3456 27.99 47.8322 27.3625C48.745 26.6209 49.3154 25.4799 49.3154 24.2249ZM19.9364 34.4933C19.9364 34.9497 19.5371 35.349 19.0807 35.349H13.2049C12.7485 35.349 12.3492 34.9497 12.3492 34.4933V19.0907C12.3492 18.6343 12.7485 18.235 13.2049 18.235H19.0807C19.5371 18.235 19.9364 18.6343 19.9364 19.0907L19.9364 34.4933ZM46.1208 20.4028H46.0067C45.4363 20.4028 44.9799 20.8021 44.9799 21.3726V21.5437C44.9228 22.1142 45.2651 22.5705 45.7785 22.7417C46.4631 22.9699 46.9765 23.4833 47.0336 24.1108C47.0906 25.0236 46.4061 25.8222 45.4933 25.8222H45.3792C44.8087 25.8222 44.3524 26.2215 44.3524 26.792V26.9631C44.2953 27.5336 44.6376 27.99 45.151 28.1611C45.7785 28.3323 46.349 28.9027 46.349 29.5302C46.4061 30.443 45.7215 31.2416 44.8087 31.2416H44.6947C44.1242 31.2416 43.6678 31.641 43.6678 32.2114V32.3826C43.6108 32.953 43.953 33.4094 44.4665 33.5806C45.094 33.7517 45.6644 34.3222 45.6644 34.9497C45.7215 35.8624 45.0369 36.6611 44.1242 36.6611H29.8055C25.6981 36.6611 22.7887 34.8356 22.2182 34.094L22.2753 18.9766C22.2753 18.7484 22.3894 18.5202 22.6176 18.4061C27.4665 15.4397 31.4598 7.62431 32.4296 5.11425C32.7148 4.37265 33.7417 4.25855 34.5974 4.48674C35.0538 4.60083 36.0806 5.05721 35.8524 6.25519C35.6813 7.16793 34.8256 10.1344 33.3994 14.2417C33.3424 14.4699 33.2853 14.8122 33.2853 15.0404C33.3424 16.4095 34.4262 17.3793 35.6242 17.3793C38.0202 17.3793 39.6745 17.3793 40.6443 17.3793C42.4698 17.3222 44.6376 17.3223 46.1208 17.3223C46.8624 17.3223 47.547 17.8357 47.7181 18.5773C47.8322 19.5471 47.0906 20.4028 46.1208 20.4028Z" fill="#333E50"/>
<path d="M16.1713 29.7584C15.2577 29.7584 14.517 30.4991 14.517 31.4128C14.517 32.3265 15.2577 33.0671 16.1713 33.0671C17.085 33.0671 17.8257 32.3265 17.8257 31.4128C17.8257 30.4991 17.085 29.7584 16.1713 29.7584Z" fill="#333E50"/>
</g>
<defs>
<clipPath id="clip0">
<rect width="60" height="60" fill="white"/>
</clipPath>
</defs>
</svg>
