<svg width="60" height="60" viewBox="0 0 60 60" fill="none" xmlns="http://www.w3.org/2000/svg">
<path d="M50.7 8.45996H3.84002C2.28002 8.45996 1.02002 9.71996 1.02002 11.28V17.04H53.58V11.22C53.52 9.71996 52.26 8.45996 50.7 8.45996Z" fill="#C3E2FC"/>
<path d="M13.3201 22.02H6.12012V28.02H13.3201V22.02Z" fill="#95CE5A"/>
<path d="M25.2601 22.02H18.0601V28.02H25.2601V22.02Z" fill="#95CE5A"/>
<path d="M37.2 22.02H30V28.02H37.2V22.02Z" fill="#95CE5A"/>
<path d="M49.2 22.02H42V28.02H49.2V22.02Z" fill="#95CE5A"/>
<path d="M51.78 7.43999C51.66 4.67999 50.64 1.73999 48.48 1.73999C46.38 1.73999 45.36 4.55999 45.24 7.37999H41.22C41.1 4.61999 40.08 1.73999 37.92 1.73999C35.82 1.73999 34.8 4.55999 34.68 7.37999H30.66C30.54 4.61999 29.52 1.73999 27.42 1.73999C25.32 1.73999 24.3 4.55999 24.12 7.37999H20.16C20.04 4.61999 19.02 1.73999 16.92 1.73999C14.82 1.73999 13.8 4.55999 13.68 7.37999H9.66C9.54 4.61999 8.52 1.73999 6.42 1.73999C4.32 1.73999 3.6 4.61999 3.48 7.43999C1.5 7.73999 0 9.41999 0 11.46V49.98C0 52.2 1.86 54 4.08 54H51.06C53.28 54 55.14 52.14 55.14 49.92V11.46C55.2 9.41999 53.7 7.73999 51.78 7.43999ZM53.04 18.06V49.98C53.04 51.06 52.14 51.96 51.06 51.96H4.14C3.06 51.96 2.16 51.06 2.16 49.98V18.06H53.04ZM6.66 12C6.06 12 5.58 12.48 5.58 13.08C5.58 13.68 6.06 14.16 6.66 14.16C8.58 14.16 9.54 11.82 9.84 9.47999H18.12C17.82 11.22 17.22 12 17.16 12.06C16.56 12.06 16.08 12.54 16.08 13.14C16.08 13.74 16.56 14.22 17.16 14.22C19.08 14.22 20.04 11.88 20.34 9.53999H28.62C28.32 11.28 27.72 12.06 27.66 12.12C27.06 12.12 26.58 12.6 26.58 13.2C26.58 13.8 27.06 14.28 27.66 14.28C29.58 14.28 30.54 11.94 30.84 9.59999H39.12C38.88 11.22 38.28 12.12 38.16 12.18C37.56 12.18 37.08 12.66 37.08 13.26C37.08 13.86 37.56 14.34 38.16 14.34C40.08 14.34 41.04 12 41.34 9.65999H49.62C49.38 11.28 48.78 12.18 48.66 12.24C48.06 12.24 47.58 12.72 47.58 13.32C47.58 13.92 48.06 14.4 48.66 14.4C50.58 14.4 51.54 12.12 51.84 9.83999C52.62 10.14 53.22 10.8 53.22 11.7V16.2H2.16V11.7C2.16 10.62 3.06 9.71999 4.14 9.71999H7.74C7.44 11.22 6.78 11.94 6.66 12ZM47.4 7.37999C47.52 5.15999 48.3 4.01999 48.48 3.89999C48.78 4.07999 49.44 5.21999 49.56 7.37999H47.4ZM37.02 7.37999C37.14 5.15999 37.92 4.01999 38.1 3.89999C38.4 4.07999 39.06 5.21999 39.18 7.37999H37.02ZM26.52 7.37999C26.64 5.21999 27.36 4.01999 27.6 3.89999C27.9 4.07999 28.56 5.09999 28.68 7.37999H26.52ZM16.08 7.37999C16.2 5.21999 16.92 4.01999 17.16 3.89999C17.46 4.07999 18.12 5.09999 18.24 7.37999H16.08ZM5.64 7.37999C5.76 5.21999 6.48 4.01999 6.72 3.89999C7.02 4.07999 7.68 5.09999 7.8 7.37999H5.64Z" fill="#333E50"/>
<path d="M12.36 20.52H6.90004C5.88004 20.52 5.04004 21.36 5.04004 22.38V27.54C5.04004 28.56 5.88004 29.4 6.90004 29.4H12.36C13.38 29.4 14.22 28.56 14.22 27.54V22.38C14.22 21.36 13.44 20.52 12.36 20.52ZM12.12 22.62V27.18H7.26004V22.62H12.12Z" fill="#333E50"/>
<path d="M24.36 20.52H18.9C17.88 20.52 17.04 21.36 17.04 22.38V27.54C17.04 28.56 17.88 29.4 18.9 29.4H24.36C25.38 29.4 26.22 28.56 26.22 27.54V22.38C26.22 21.36 25.38 20.52 24.36 20.52ZM24 22.62V27.18H19.14V22.62H24Z" fill="#333E50"/>
<path d="M36.3 20.52H30.84C29.82 20.52 28.98 21.36 28.98 22.38V27.54C28.98 28.56 29.82 29.4 30.84 29.4H36.3C37.32 29.4 38.16 28.56 38.16 27.54V22.38C38.16 21.36 37.32 20.52 36.3 20.52ZM35.94 22.62V27.18H31.08V22.62H35.94Z" fill="#333E50"/>
<path d="M48.2399 20.52H42.7799C41.7599 20.52 40.9199 21.36 40.9199 22.38V27.54C40.9199 28.56 41.7599 29.4 42.7799 29.4H48.2399C49.2599 29.4 50.0999 28.56 50.0999 27.54V22.38C50.0999 21.36 49.1999 20.52 48.2399 20.52ZM47.9399 22.62V27.18H43.0799V22.62H47.9399Z" fill="#333E50"/>
<path d="M12.36 30.54H6.90004C5.88004 30.54 5.04004 31.38 5.04004 32.4V37.56C5.04004 38.58 5.88004 39.42 6.90004 39.42H12.36C13.38 39.42 14.22 38.58 14.22 37.56V32.4C14.22 31.38 13.44 30.54 12.36 30.54ZM12.12 32.76V37.32H7.26004V32.76H12.12Z" fill="#333E50"/>
<path d="M12.36 40.6799H6.90004C5.88004 40.6799 5.04004 41.5199 5.04004 42.5399V47.6999C5.04004 48.7199 5.88004 49.5599 6.90004 49.5599H12.36C13.38 49.5599 14.22 48.7199 14.22 47.6999V42.5399C14.22 41.4599 13.44 40.6799 12.36 40.6799ZM12.12 42.7799V47.3399H7.26004V42.7799H12.12Z" fill="#333E50"/>
<path d="M55.86 56.82H20.64C19.02 56.82 17.7 55.5 17.7 53.88V35.16C17.7 33.54 19.02 32.22 20.64 32.22H55.86C57.48 32.22 58.8 33.54 58.8 35.16V53.94C58.8 55.5 57.48 56.82 55.86 56.82Z" fill="white"/>
<path d="M55.8001 31.08L35.2801 31.02H20.5201C18.2401 31.02 16.3201 32.88 16.3201 35.22V54.06C16.3201 56.34 18.1801 58.26 20.5201 58.26H55.8001C55.8601 58.26 55.8601 58.26 55.9201 58.26C56.9401 58.26 57.9601 57.84 58.7401 57.06C59.5801 56.28 60.0001 55.2 60.0001 54.12V35.28C60.0001 32.94 58.1401 31.08 55.8001 31.08ZM18.6601 35.28C18.6601 34.2 19.4401 33.42 20.5201 33.42H55.9201C56.4601 33.42 56.9401 33.6 57.2401 33.96C57.5401 34.32 57.6601 34.74 57.6601 35.28V54.06C57.6601 55.14 56.8801 55.92 55.8001 55.92H20.5201C19.4401 55.92 18.6601 55.14 18.6601 54.06V35.28Z" fill="#333E50"/>
<path d="M24.48 47.52H53.34C53.94 47.52 54.3 48 54.3 48.48C54.3 49.08 53.82 49.44 53.34 49.44H24.48C23.88 49.44 23.52 48.96 23.52 48.48C23.52 47.94 23.88 47.52 24.48 47.52Z" fill="#C3E2FC"/>
<path d="M24.48 51.48H41.16C41.76 51.48 42.12 51.96 42.12 52.44C42.12 53.04 41.64 53.4 41.16 53.4H24.48C23.88 53.4 23.52 52.92 23.52 52.44C23.52 51.9 23.88 51.48 24.48 51.48Z" fill="#C3E2FC"/>
<path d="M43.2195 40.7999H53.9807C54.3678 40.7999 54.6001 41.2499 54.6001 41.6999C54.6001 42.2624 54.2904 42.5999 53.9807 42.5999H43.2195C42.8324 42.5999 42.6001 42.1499 42.6001 41.6999C42.6001 41.1937 42.8324 40.7999 43.2195 40.7999Z" fill="#C3E2FC"/>
<path d="M25.2602 42.84H28.2002C28.9802 42.84 29.5202 42.24 29.5202 41.52V40.08C29.5202 39.3 28.9202 38.76 28.2002 38.76H25.2602C24.4802 38.76 23.9402 39.36 23.9402 40.08V41.52C24.0002 42.3 24.5402 42.84 25.2602 42.84Z" fill="#95CE5A"/>
<path d="M25.14 43.68H28.08C28.68 43.68 29.28 43.44 29.7 43.02C30.06 42.6 30.3 42.06 30.24 41.52V40.08C30.24 38.88 29.28 37.92 28.08 37.92H25.14C23.94 37.92 22.98 38.88 22.98 40.08V41.52C22.98 42.72 23.94 43.68 25.14 43.68ZM24.78 41.58V40.14C24.78 39.9 25.08 39.66 25.26 39.66H28.2C28.44 39.66 28.68 39.96 28.68 40.14V41.58C28.68 41.82 28.38 42.06 28.2 42.06H25.26C25.02 42.06 24.78 41.76 24.78 41.58Z" fill="#333E50"/>
<path d="M41.3401 50.4H38.2201C37.5601 50.4 37.0801 50.88 37.0801 51.54C37.0801 52.2 37.5601 52.68 38.2201 52.68H41.3401C42.0001 52.68 42.4801 52.2 42.4801 51.54C42.4201 50.88 41.9401 50.4 41.3401 50.4Z" fill="#333E50"/>
<path d="M34.02 50.4601H24.18C23.52 50.4601 23.04 50.9401 23.04 51.6001C23.04 52.2601 23.52 52.7401 24.18 52.7401H34.02C34.68 52.7401 35.16 52.2601 35.16 51.6001C35.16 50.9401 34.68 50.4601 34.02 50.4601Z" fill="#333E50"/>
<path d="M53.5799 39.6H43.7399C43.0799 39.6 42.5999 40.08 42.5999 40.74C42.5999 41.4 43.0799 41.88 43.7399 41.88H53.5799C54.2399 41.88 54.7199 41.4 54.7199 40.74C54.7199 40.08 54.2399 39.6 53.5799 39.6Z" fill="#333E50"/>
<path d="M53.52 46.3201H48.36C47.7 46.3201 47.22 46.8001 47.22 47.4601C47.22 48.1201 47.7 48.6001 48.36 48.6001H53.52C54.18 48.6001 54.66 48.1201 54.66 47.4601C54.66 46.8001 54.12 46.3201 53.52 46.3201Z" fill="#333E50"/>
<path d="M45.4201 46.3201H40.2601C39.6001 46.3201 39.1201 46.8001 39.1201 47.4601C39.1201 48.1201 39.6001 48.6001 40.2601 48.6001H45.4201C46.0801 48.6001 46.5601 48.1201 46.5601 47.4601C46.5601 46.8001 46.0801 46.3201 45.4201 46.3201Z" fill="#333E50"/>
<path d="M32.2201 48.54H37.3801C38.0401 48.54 38.5201 48.06 38.5201 47.4C38.5201 46.74 38.0401 46.26 37.3801 46.26H32.2201C31.5601 46.26 31.0801 46.74 31.0801 47.4C31.0801 48.06 31.6201 48.54 32.2201 48.54Z" fill="#333E50"/>
<path d="M29.34 46.3201H24.18C23.52 46.3201 23.04 46.8001 23.04 47.4601C23.04 48.1201 23.52 48.6001 24.18 48.6001H29.34C30 48.6001 30.48 48.1201 30.48 47.4601C30.48 46.8001 29.94 46.3201 29.34 46.3201Z" fill="#333E50"/>
</svg>
