<svg width="60" height="60" viewBox="0 0 60 60" fill="none" xmlns="http://www.w3.org/2000/svg">
<path d="M39.1199 56.22L49.0199 58.74V34.5L39.1199 32.04V56.22Z" fill="#C3E2FC"/>
<path d="M24.7201 40.56C28.9285 40.56 32.3401 37.1484 32.3401 32.94C32.3401 28.7316 28.9285 25.32 24.7201 25.32C20.5117 25.32 17.1001 28.7316 17.1001 32.94C17.1001 37.1484 20.5117 40.56 24.7201 40.56Z" fill="#95CE5A"/>
<path d="M0 20.88V44.94C0 45.42 0.36 45.78 0.84 45.78H34.92C35.4 45.78 35.76 45.42 35.76 44.94C35.76 44.46 35.4 44.1 34.92 44.1H1.74V21.78H50.16V23.94C50.16 24.42 50.52 24.78 51 24.78C51.48 24.78 51.84 24.42 51.84 23.94V20.94C51.84 20.46 51.48 20.1 51 20.1H0.84C0.36 20.04 0 20.46 0 20.88Z" fill="#333E50"/>
<path d="M2.69992 17.76C3.17992 17.82 3.59992 17.58 3.71992 17.1L5.57992 8.88L44.8199 17.7H44.9999C45.4199 17.7 45.7799 17.4 45.8399 17.04C45.8999 16.56 45.6599 16.14 45.1799 16.02L5.09992 7.02C4.85992 6.96 4.61992 7.02 4.43992 7.14C4.25992 7.26 4.13992 7.44 4.07992 7.68L2.09992 16.68C1.91992 17.16 2.21992 17.64 2.69992 17.76Z" fill="#333E50"/>
<path d="M16.2 1.08C15.78 0.900001 15.3 1.08 15.12 1.5L13.14 5.52C12.96 5.94 13.14 6.48 13.62 6.66C14.04 6.84 14.52 6.66 14.7 6.3L16.32 3L39.6 12.66C39.72 12.72 39.84 12.72 39.96 12.72C40.44 12.72 40.8 12.3 40.8 11.82C40.8 11.46 40.62 11.16 40.26 11.04L16.2 1.08Z" fill="#333E50"/>
<path d="M44.8199 24.9C44.8199 24.42 44.4599 24.06 43.9799 24.06H34.9799C34.4999 24.06 34.1399 24.42 34.1399 24.9C34.1399 25.38 34.4999 25.74 34.9799 25.74H43.9799C44.4599 25.8 44.8199 25.38 44.8199 24.9Z" fill="#333E50"/>
<path d="M24.9001 41.76C29.7601 41.76 33.7201 37.8 33.7201 32.94C33.7201 28.08 29.7601 24.12 24.9001 24.12C20.0401 24.12 16.0801 28.08 16.0801 32.94C16.0801 37.8 20.0401 41.76 24.9001 41.76ZM24.9001 25.74C28.8601 25.74 32.1001 28.98 32.1001 32.94C32.1001 36.9 28.8601 40.14 24.9001 40.14C20.9401 40.14 17.7001 36.9 17.7001 32.94C17.7001 28.98 20.9401 25.74 24.9001 25.74Z" fill="#333E50"/>
<path d="M48.9599 58.98C54.2999 58.98 59.9999 57.72 59.9999 54.96V30.96C59.9999 28.2 54.2999 26.94 48.9599 26.94C43.6199 26.94 37.9199 28.2 37.9199 30.96V55.02C37.9199 57.72 43.6799 58.98 48.9599 58.98ZM48.9599 57C43.0799 57 40.0799 55.56 39.9599 55.02V53.4C42.1199 54.48 45.5999 54.96 48.9599 54.96C52.3199 54.96 55.8599 54.48 57.9599 53.4V54.96C57.8399 55.5 54.8399 57 48.9599 57ZM58.0199 34.92C57.8399 35.46 54.8399 36.9 49.0199 36.9C43.1999 36.9 40.1399 35.46 40.0199 34.92V33.36C42.1799 34.44 45.6599 34.92 49.0199 34.92C52.3799 34.92 55.9199 34.44 58.0199 33.36V34.92ZM48.9599 38.94C52.3199 38.94 55.8599 38.46 57.9599 37.38V38.94C57.7799 39.48 54.7799 40.92 48.9599 40.92C43.1399 40.92 40.0799 39.48 39.9599 38.94V37.38C42.0599 38.46 45.5999 38.94 48.9599 38.94ZM48.9599 42.96C52.3199 42.96 55.8599 42.48 57.9599 41.4V42.96C57.7799 43.5 54.7799 44.94 48.9599 44.94C43.1399 44.94 40.0799 43.5 39.9599 42.96V41.4C42.0599 42.48 45.5999 42.96 48.9599 42.96ZM48.9599 46.98C52.3199 46.98 55.8599 46.5 57.9599 45.42V46.98C57.7799 47.52 54.7799 48.96 48.9599 48.96C43.1399 48.96 40.0799 47.52 39.9599 46.98V45.42C42.0599 46.44 45.5999 46.98 48.9599 46.98ZM48.9599 51C52.3199 51 55.8599 50.52 57.9599 49.44V51C57.7799 51.54 54.7799 52.98 48.9599 52.98C43.1399 52.98 40.0799 51.54 39.9599 51V49.44C42.0599 50.46 45.5999 51 48.9599 51ZM48.9599 28.92C54.7799 28.92 57.7799 30.36 57.9599 30.9C57.7199 31.5 54.7799 32.88 48.9599 32.88C43.1399 32.88 40.0799 31.44 39.9599 30.9C40.1399 30.42 43.1399 28.92 48.9599 28.92Z" fill="#333E50"/>
<path d="M9.72002 25.8H16.92C17.4 25.8 17.76 25.44 17.76 24.96C17.76 24.48 17.4 24.12 16.92 24.12H9.36002C9.12002 24.12 8.94002 24.18 8.76002 24.36L4.26002 28.74C4.08002 28.92 4.02002 29.16 4.02002 29.46V36.6C4.02002 36.84 4.08002 37.02 4.26002 37.2L8.34002 41.64C8.52002 41.82 8.76002 41.94 9.00002 41.94H16.98C17.46 41.94 17.82 41.58 17.82 41.1C17.82 40.62 17.46 40.26 16.98 40.26H9.30002L5.70002 36.36V29.64L9.72002 25.8Z" fill="#333E50"/>
<path d="M3.65997 56.34C3.23997 55.92 3.23997 55.26 3.65997 54.84L54.9 3.66C55.32 3.24 55.98 3.24 56.4 3.66C56.82 4.08 56.82 4.74 56.4 5.16L5.09997 56.34C4.73997 56.76 4.07997 56.76 3.65997 56.34Z" fill="#333E50"/>
<path d="M55.6199 3.35999C55.8599 3.35999 56.1599 3.47999 56.3399 3.65999C56.7599 4.07999 56.7599 4.73999 56.3399 5.15999L5.09993 56.34C4.91993 56.52 4.61993 56.64 4.37993 56.64C4.13993 56.64 3.83993 56.52 3.65993 56.34C3.23993 55.92 3.23993 55.26 3.65993 54.84L54.8999 3.65999C55.0799 3.41999 55.3199 3.35999 55.6199 3.35999ZM55.6199 0.959991C54.7199 0.959991 53.8199 1.31999 53.1599 1.97999L1.91993 53.16C0.599932 54.48 0.599932 56.7 1.91993 58.02C2.57993 58.68 3.41993 59.04 4.37993 59.04C5.27993 59.04 6.17993 58.68 6.83993 58.02L58.0799 6.77999C59.3999 5.45999 59.3999 3.23999 58.0799 1.91999C57.4199 1.31999 56.5199 0.959991 55.6199 0.959991Z" fill="white"/>
</svg>
