<svg width="60" height="60" viewBox="0 0 60 60" fill="none" xmlns="http://www.w3.org/2000/svg">
<path d="M20.1999 58.5H1.3999V45.2C1.3999 40 5.5999 35.8 10.7999 35.8C15.9999 35.8 20.1999 40 20.1999 45.2V58.5Z" fill="white"/>
<path d="M39.4001 58.5H20.6001V35.6C20.6001 30.4 24.8001 26.2 30.0001 26.2C35.2001 26.2 39.4001 30.4 39.4001 35.6V58.5Z" fill="#C3E2FC"/>
<path d="M58.5 58.5H39.7V25.9C39.7 20.7 43.8999 16.5 49.0999 16.5C54.2999 16.5 58.5 20.7 58.5 25.9V58.5Z" fill="#95CE5A"/>
<path d="M32.9 20.7C34.115 20.7 35.0999 19.715 35.0999 18.5C35.0999 17.285 34.115 16.3 32.9 16.3C31.6849 16.3 30.7 17.285 30.7 18.5C30.7 19.715 31.6849 20.7 32.9 20.7Z" fill="#C3E2FC"/>
<path d="M19.4 12.1C20.615 12.1 21.6 11.115 21.6 9.90001C21.6 8.68499 20.615 7.70001 19.4 7.70001C18.1849 7.70001 17.2 8.68499 17.2 9.90001C17.2 11.115 18.1849 12.1 19.4 12.1Z" fill="#C3E2FC"/>
<path d="M56.2 18C53.8 16 50.6 15.1 47.4 15.6C42.3 16.4 38.5 21.1 38.5 26.5V29.3C36.2 26.3 32.5 24.7 28.7 25.2C23.6 25.8 19.2 30.8 19.2 36.2V39C16.9 36 13.2 34.4 9.4 34.9C4.3 35.3 0 40.4 0 45.7V57.3C0 58.8 1.2 60 2.7 60H57.3C58.8 60 60 58.8 60 57.3V26.1C60 23 58.6 20 56.2 18ZM57.7 27.6C57.1 31.1 54.3 34 50.7 34.6C47.9 35.1 45.2 34.2 43.2 32.2C41.2 30.2 40.4 27.5 40.8 24.7C41.4 21.2 44.2 18.3 47.8 17.7C50.6 17.2 53.3 18.1 55.3 20.1C57.2 22.1 58.1 24.8 57.7 27.6ZM49.3 36.9C52.6 36.9 55.8 35.3 57.8 32.7V57.8H40.8V32.7C42.8 35.3 45.9 36.9 49.3 36.9ZM38.4 37.2C37.8 40.7 35 43.6 31.4 44.2C28.6 44.7 25.9 43.8 23.9 41.8C21.9 39.8 21.1 37.1 21.5 34.3C22.1 30.8 24.9 27.9 28.5 27.3C31.3 26.8 34 27.7 36 29.7C38 31.7 38.9 34.4 38.4 37.2ZM30 46.5C33.3 46.5 36.5 44.9 38.5 42.3V57.8H21.5V42.3C23.5 45 26.7 46.5 30 46.5ZM19.1 46.9C18.5 50.4 15.7 53.3 12.1 53.9C9.3 54.4 6.6 53.5 4.6 51.5C2.6 49.5 1.8 46.8 2.2 44C2.8 40.5 5.6 37.6 9.2 37C12 36.5 14.7 37.4 16.7 39.4C18.7 41.4 19.6 44.1 19.1 46.9ZM10.7 56.1C14 56.1 17.2 54.5 19.2 51.9V57.7H2.2V51.9C4.3 54.6 7.4 56.1 10.7 56.1Z" fill="#333E50"/>
<path d="M51.8999 0.7C51.6999 0.3 51.1999 0 50.6999 0H44.3999C43.7999 0 43.2999 0.5 43.2999 1.1C43.2999 1.7 43.7999 2.2 44.3999 2.2H46.6999L3.39991 25.7C3.09991 25.8 2.89991 26.1 2.89991 26.4C2.79991 26.7 2.79991 27 2.99991 27.2C3.09991 27.5 3.39991 27.7 3.69991 27.7C3.79991 27.7 3.89991 27.7 3.99991 27.7C4.19991 27.7 4.39991 27.7 4.49991 27.6L48.2999 3.9L46.8999 6.4C46.7999 6.7 46.6999 7 46.7999 7.2C46.7999 7.6 46.9999 7.8 47.2999 8C47.5999 8.1 47.8999 8.2 48.0999 8.1C48.3999 8 48.5999 7.8 48.7999 7.6L51.8999 2C52.1999 1.6 52.1999 1.1 51.8999 0.7Z" fill="#333E50"/>
<path d="M22.5001 7.29999C21.7001 6.29999 20.6001 5.79999 19.4001 5.79999C18.2001 5.79999 17.0001 6.49999 16.2001 7.59999C15.3001 8.79999 15.4001 9.79999 15.5001 10.5L5.30006 16C5.00006 16.1 4.80006 16.4 4.80006 16.7C4.70006 17 4.70006 17.3 4.90006 17.5C5.10006 17.9 5.50006 18.1 5.90006 18.1C6.10006 18.1 6.30006 18.1 6.40006 18L16.6001 12.5C17.6001 13.6 19.1001 14 20.5001 13.6C21.9001 13.2 23.1001 12.1 23.4001 10.7C23.6001 9.49999 23.3001 8.19999 22.5001 7.29999ZM21.2001 9.79999C21.2001 10.8 20.4001 11.6 19.4001 11.6C18.4001 11.6 17.6001 10.8 17.6001 9.79999C17.6001 8.79999 18.4001 7.99999 19.4001 7.99999C20.4001 7.99999 21.2001 8.79999 21.2001 9.79999Z" fill="#333E50"/>
<path d="M3.19991 18.4C3.09991 18.1 2.79991 17.9 2.59991 17.8C2.29991 17.7 1.99991 17.7 1.79991 17.9L1.49991 18C1.19991 18.1 0.999914 18.4 0.899914 18.6C0.799914 18.9 0.799914 19.2 0.999914 19.4C1.19991 19.8 1.59991 20 1.99991 20C2.19991 20 2.29991 20 2.49991 19.9L2.69991 19.8C3.19991 19.6 3.39991 18.9 3.19991 18.4Z" fill="#333E50"/>
<path d="M36 16C35.2 15 34.1 14.5 32.9 14.5C31.7 14.5 30.5 15.2 29.7 16.3C28.8 17.5 28.9 18.5 29 19.2L18.8 24.7C18.3 25 18.1 25.7 18.3 26.2C18.4 26.5 18.7 26.7 19 26.7C19.1 26.7 19.2 26.7 19.3 26.7C19.5 26.7 19.7 26.7 19.8 26.6L30 21.2C31 22.3 32.5 22.7 33.9 22.3C35.3 21.9 36.5 20.8 36.8 19.4C37.1 18.2 36.8 16.9 36 16ZM34.7 18.4C34.7 19.4 33.9 20.2 32.9 20.2C31.9 20.2 31.1 19.4 31.1 18.4C31.1 17.4 31.9 16.6 32.9 16.6C33.9 16.6 34.7 17.5 34.7 18.4Z" fill="#333E50"/>
<path d="M16.6999 27C16.5999 26.7 16.2999 26.5 16.0999 26.4C15.7999 26.3 15.4999 26.3 15.2999 26.5L14.9999 26.6C14.6999 26.7 14.4999 27 14.3999 27.2C14.2999 27.5 14.2999 27.8 14.4999 28C14.5999 28.3 14.8999 28.5 15.0999 28.6C15.1999 28.6 15.2999 28.7 15.4999 28.7C15.6999 28.7 15.7999 28.7 15.9999 28.6L16.1999 28.5C16.4999 28.4 16.6999 28.1 16.7999 27.9C16.7999 27.6 16.7999 27.3 16.6999 27Z" fill="#333E50"/>
<path d="M34.8999 32.1C34.6999 31.7 34.3999 31.4 34.0999 31.1C33.7999 30.8 33.3999 30.7 32.9999 30.5C32.5999 30.4 32.0999 30.3 31.5999 30.3H27.9999C27.8999 30.3 27.6999 30.4 27.5999 30.5C27.4999 30.6 27.3999 30.7 27.3999 30.9V35.2H26.3999C26.0999 35.2 25.8999 35.4 25.8999 35.7V36.4C25.8999 36.7 26.0999 36.9 26.3999 36.9H27.3999V37.3H26.3999C26.0999 37.3 25.8999 37.5 25.8999 37.8V38.5C25.8999 38.8 26.0999 39 26.3999 39H27.3999V40C27.3999 40.1 27.4999 40.3 27.5999 40.4C27.6999 40.5 27.7999 40.6 27.9999 40.6H28.5999C28.6999 40.6 28.8999 40.5 28.9999 40.4C29.0999 40.3 29.1999 40.2 29.1999 40V38.7H32.0999C32.3999 38.7 32.5999 38.5 32.5999 38.2V37.5C32.5999 37.2 32.3999 37 32.0999 37H29.1999V36.6H31.6999C32.1999 36.6 32.5999 36.5 33.0999 36.4C33.4999 36.3 33.8999 36.1 34.1999 35.8C34.4999 35.5 34.7999 35.2 34.9999 34.8C35.1999 34.4 35.2999 33.9 35.2999 33.4C35.1999 32.9 35.0999 32.5 34.8999 32.1ZM33.5999 33.5C33.5999 34.1 33.3999 34.5 33.0999 34.7C32.7999 35 32.2999 35.1 31.5999 35.1H29.1999V31.9H31.5999C32.1999 31.9 32.6999 32 33.0999 32.3C33.3999 32.5 33.5999 32.9 33.5999 33.5Z" fill="#333E50"/>
<path d="M54.5 22.9C54.3 22.5 54 22.2 53.7 21.9C53.4 21.6 53 21.4 52.6 21.3C52.2 21.2 51.7 21.1 51.2 21.1H47.6C47.5 21.1 47.3 21.2 47.2 21.3C47.1 21.4 47 21.5 47 21.7V26H46C45.7 26 45.5 26.2 45.5 26.5V27C45.5 27.3 45.7 27.5 46 27.5H47V27.9H46C45.7 27.9 45.5 28.1 45.5 28.4V29C45.5 29.3 45.7 29.5 46 29.5H47V30.8C47 30.9 47.1 31.1 47.2 31.2C47.3 31.3 47.4 31.4 47.6 31.4H48.2C48.3 31.4 48.5 31.3 48.6 31.2C48.7 31.1 48.8 31 48.8 30.8V29.5H51.7C52 29.5 52.2 29.3 52.2 29V28.3C52.2 28 52 27.8 51.7 27.8H48.8V27.4H51.3C51.8 27.4 52.2 27.3 52.7 27.2C53.1 27.1 53.5 26.9 53.8 26.6C54.1 26.3 54.4 26 54.6 25.6C54.8 25.2 54.9 24.7 54.9 24.2C54.8 23.7 54.7 23.3 54.5 22.9ZM53.1 24.3C53.1 24.9 52.9 25.3 52.6 25.5C52.3 25.8 51.8 25.9 51.1 25.9H48.7V22.7H51.1C51.7 22.7 52.2 22.8 52.6 23.1C52.9 23.3 53.1 23.7 53.1 24.3Z" fill="#333E50"/>
<path d="M15.7 42.1C15.5 41.7 15.2 41.4 14.9 41.1C14.6 40.8 14.2 40.7 13.8 40.5C13.4 40.4 12.9 40.3 12.4 40.3H8.79995C8.69995 40.3 8.49995 40.4 8.39995 40.5C8.29995 40.6 8.19995 40.7 8.19995 40.9V45.2H7.19995C6.89995 45.2 6.69995 45.4 6.69995 45.7V46.4C6.69995 46.7 6.89995 46.9 7.19995 46.9H8.19995V47.3H7.19995C6.89995 47.3 6.69995 47.5 6.69995 47.8V48.5C6.69995 48.8 6.89995 49 7.19995 49H8.19995V50.3C8.19995 50.4 8.29995 50.6 8.39995 50.7C8.49995 50.8 8.59995 50.9 8.79995 50.9H9.39995C9.49995 50.9 9.69995 50.8 9.79995 50.7C9.89995 50.6 9.99995 50.5 9.99995 50.3V49H12.9C13.2 49 13.4 48.8 13.4 48.5V47.8C13.4 47.5 13.2 47.3 12.9 47.3H9.99995V46.9H12.5C13 46.9 13.4 46.8 13.9 46.7C14.3 46.6 14.7 46.4 15 46.1C15.3 45.8 15.6 45.5 15.8 45.1C16 44.7 16.1 44.2 16.1 43.7C16 43 15.9 42.5 15.7 42.1ZM14.3 43.5C14.3 44.1 14.1 44.5 13.8 44.7C13.5 45 13 45.1 12.3 45.1H9.99995V41.9H12.4C13 41.9 13.5 42 13.9 42.3C14.2 42.6 14.3 43 14.3 43.5Z" fill="#333E50"/>
</svg>
