<svg width="60" height="60" viewBox="0 0 60 60" fill="none" xmlns="http://www.w3.org/2000/svg">
<path d="M38.4003 42.24H22.3203V53.04H38.4003V42.24Z" fill="#95CE5A"/>
<path d="M33.1803 54.84C33.1803 56.58 31.7403 58.02 30.0003 58.02C28.2603 58.02 26.8203 56.58 26.8203 54.84C26.8203 53.1 33.1803 53.1 33.1803 54.84Z" fill="#C3E2FC"/>
<path d="M43.8002 21.24C43.8602 21.78 43.9202 22.26 43.9202 22.8C43.9202 29.7 38.3402 35.28 31.4402 35.28C24.5402 35.28 18.9002 29.7 18.9002 22.8C18.9002 15.9 24.4802 10.32 31.3802 10.32C31.8602 10.32 32.3402 10.38 32.7602 10.38L29.9402 9L26.7602 9.54C18.6002 13.98 13.9202 17.46 14.1002 26.76L16.4402 31.68L21.3002 42.42H38.9402L44.8202 26.94L43.8002 21.24Z" fill="#C3E2FC"/>
<path d="M35.22 54.48H38.28C38.88 54.48 39.36 54 39.36 53.4V42.48C39.78 40.98 40.62 38.28 41.04 37.44C41.58 36.36 42.24 35.28 42.78 34.38C44.46 31.56 46.2 28.68 46.2 24.6C46.2 15.6 38.94 8.28003 30 8.28003C21.06 8.28003 13.8 15.6 13.8 24.6C13.8 28.68 15.54 31.56 17.22 34.38C17.76 35.28 18.42 36.36 18.96 37.44C19.38 38.28 20.28 41.1 20.64 42.48V42.54V53.34C20.64 53.94 21.12 54.42 21.72 54.42H24.78V54.72C24.78 57.6 27.12 59.94 30 59.94C32.88 59.94 35.22 57.6 35.22 54.72V54.48ZM22.5 41.1C22.2 40.02 21.36 37.44 20.88 36.48C20.34 35.34 19.08 33.3 19.08 33.3C17.4 30.48 15.96 28.08 15.96 24.6C15.96 16.8 22.26 10.44 30.06 10.44C37.86 10.44 44.1 16.8 44.1 24.6C44.1 28.08 42.66 30.48 40.98 33.3C40.98 33.3 39.72 35.4 39.18 36.48C38.7 37.44 37.98 39.78 37.56 41.1L37.5 41.34H31.08V31.02L31.32 30.96C34.38 30.36 36.6 27.6 36.6 24.48C36.6 23.88 36.12 23.4 35.52 23.4C34.92 23.4 34.44 23.88 34.44 24.48C34.44 26.94 32.46 28.92 30 28.92C27.54 28.92 25.56 26.94 25.56 24.48C25.56 23.88 25.08 23.4 24.48 23.4C23.88 23.4 23.4 23.88 23.4 24.48C23.4 27.6 25.62 30.3 28.68 30.96L28.92 31.02V41.34H22.56L22.5 41.1ZM33.06 54.78C33.06 56.46 31.68 57.84 30 57.84C28.32 57.84 26.94 56.46 26.94 54.78V54.48H33.06V54.78ZM22.8 52.32V43.5H37.2V46.86H30C29.4 46.86 28.92 47.34 28.92 47.94C28.92 48.54 29.4 49.02 30 49.02H37.2V52.38H22.8V52.32Z" fill="#333E50"/>
<path d="M10.7401 23.4H5.22014C4.62014 23.4 4.14014 23.88 4.14014 24.48C4.14014 25.08 4.62014 25.56 5.22014 25.56H10.7401C11.3401 25.56 11.8201 25.08 11.8201 24.48C11.8201 23.88 11.2801 23.4 10.7401 23.4Z" fill="#333E50"/>
<path d="M54.7802 23.4H49.2602C48.6602 23.4 48.1802 23.88 48.1802 24.48C48.1802 25.08 48.6602 25.56 49.2602 25.56H54.7802C55.3802 25.56 55.8602 25.08 55.8602 24.48C55.8602 23.88 55.3802 23.4 54.7802 23.4Z" fill="#333E50"/>
<path d="M31.0802 1.08C31.0802 0.48 30.6002 0 30.0002 0C29.4002 0 28.9202 0.48 28.9202 1.08V5.22C28.9202 5.82 29.4002 6.3 30.0002 6.3C30.6002 6.3 31.0802 5.82 31.0802 5.22V1.08Z" fill="#333E50"/>
<path d="M15.6002 9.96001L11.4602 5.82C11.0402 5.4 10.3802 5.4 9.96016 5.82C9.78016 6 9.66016 6.30001 9.66016 6.60001C9.66016 6.9 9.78016 7.14001 9.96016 7.38001L14.1002 11.52C14.5202 11.94 15.2402 11.94 15.6002 11.52C16.0202 11.04 16.0202 10.38 15.6002 9.96001Z" fill="#333E50"/>
<path d="M50.3402 6.60002C50.3402 6.30002 50.2202 6.06002 50.0402 5.82002C49.8602 5.64002 49.5602 5.52002 49.2602 5.52002C48.9602 5.52002 48.7202 5.64002 48.4802 5.82002L44.4002 9.96002C43.9802 10.38 43.9802 11.04 44.4002 11.46C44.8202 11.88 45.5402 11.88 45.9002 11.46L50.0402 7.32002C50.2202 7.14002 50.3402 6.90002 50.3402 6.60002Z" fill="#333E50"/>
<path d="M9.96002 41.76C10.38 42.18 11.1 42.18 11.46 41.76L15.6 37.62C16.02 37.2 16.02 36.54 15.6 36.12C15.18 35.7 14.52 35.7 14.1 36.12L9.96002 40.26C9.54002 40.68 9.54002 41.34 9.96002 41.76Z" fill="#333E50"/>
<path d="M50.0401 40.26L45.9001 36.12C45.7201 35.94 45.4201 35.82 45.1201 35.82C44.8201 35.82 44.5801 35.94 44.3401 36.12C43.9201 36.54 43.9201 37.2 44.3401 37.62L48.4801 41.76C48.9001 42.18 49.6201 42.18 49.9801 41.76C50.4601 41.34 50.4601 40.68 50.0401 40.26Z" fill="#333E50"/>
</svg>
