<svg width="60" height="60" viewBox="0 0 60 60" fill="none" xmlns="http://www.w3.org/2000/svg">
<g clip-path="url(#clip0)">
<path d="M50.5 45.2H36.2001L34 48.1L25.7001 47.9L23.1 45.3H9.20005C7.60005 45.3 6.30005 44 6.30005 42.4V17.4C6.30005 15.8 7.60005 14.5 9.20005 14.5H50.5C52.1 14.5 53.4001 15.8 53.4001 17.4V42.4C53.3001 43.9 52.1 45.2 50.5 45.2Z" fill="#C3E2FC"/>
<path d="M57.1 44.2H54.2V17.9C54.2 15.3 52.2 13.2 49.7 13.2H10.3C7.8 13.2 5.8 15.3 5.8 17.9V44.2H2.9C1.3 44.2 0 45.6 0 47.2V47.4C0 50.7 2.6 53.4 5.8 53.4H54.3C57.5 53.4 60.1 50.7 60.1 47.4V47.2C60 45.5 58.7 44.2 57.1 44.2ZM2.1 47.2C2.1 46.8 2.4 46.4 2.8 46.4H23.1C23.8 48.1 25.5 49.2 27.3 49.2H32.7C34.5 49.2 36.1 48.1 36.9 46.4H57.2C57.6 46.4 57.9 46.8 57.9 47.2V47.4C57.9 49.5 56.3 51.2 54.3 51.2H5.8C3.8 51.2 2.2 49.5 2.2 47.4V47.2H2.1ZM52.1 44.2H35.2L35 45C34.7 46.1 33.7 46.9 32.7 46.9H27.3C26.2 46.9 25.2 46.1 25 45L24.8 44.1H7.9V17.9C7.9 16.5 9 15.4 10.3 15.4H49.7C51 15.4 52.1 16.5 52.1 17.9V44.2Z" fill="#333E50"/>
<path d="M18.7001 23.3H17.7001C17.2001 23.3 16.8 23.7 16.8 24.3V24.9C16.8 25.4 17.2001 25.9 17.7001 25.9H18.7001C19.2001 25.9 19.6 25.5 19.6 24.9V24.3C19.6 23.7 19.2001 23.3 18.7001 23.3Z" fill="#333E50"/>
<path d="M42.3999 23.3H21.2999C20.7999 23.3 20.3999 23.7 20.3999 24.3V24.9C20.3999 25.4 20.7999 25.9 21.2999 25.9H42.3999C42.8999 25.9 43.2999 25.5 43.2999 24.9V24.3C43.2999 23.7 42.8999 23.3 42.3999 23.3Z" fill="#333E50"/>
<path d="M18.7001 27.6H17.7001C17.2001 27.6 16.8 28 16.8 28.6V29.2C16.8 29.7 17.2001 30.2 17.7001 30.2H18.7001C19.2001 30.2 19.6 29.8 19.6 29.2V28.6C19.6 28 19.2001 27.6 18.7001 27.6Z" fill="#333E50"/>
<path d="M33.1999 27.6H21.2999C20.7999 27.6 20.3999 28 20.3999 28.6V29.2C20.3999 29.7 20.7999 30.2 21.2999 30.2H33.1999C33.6999 30.2 34.0999 29.8 34.0999 29.2V28.6C34.0999 28 33.6999 27.6 33.1999 27.6Z" fill="#333E50"/>
<path d="M18.7001 31.9H17.7001C17.2001 31.9 16.8 32.3 16.8 32.9V33.5C16.8 34 17.2001 34.5 17.7001 34.5H18.7001C19.2001 34.5 19.6 34.1 19.6 33.5V32.9C19.6 32.3 19.2001 31.9 18.7001 31.9Z" fill="#333E50"/>
<path d="M36.9999 31.9H21.2999C20.7999 31.9 20.3999 32.3 20.3999 32.9V33.5C20.3999 34 20.7999 34.5 21.2999 34.5H36.9999C37.4999 34.5 37.8999 34.1 37.8999 33.5V32.9C37.8999 32.3 37.4999 31.9 36.9999 31.9Z" fill="#333E50"/>
<path d="M46.2001 30.8C52.6066 30.8 57.8001 25.6065 57.8001 19.2C57.8001 12.7935 52.6066 7.60004 46.2001 7.60004C39.7936 7.60004 34.6001 12.7935 34.6001 19.2C34.6001 25.6065 39.7936 30.8 46.2001 30.8Z" fill="white"/>
<path d="M46.2001 31.8C39.3001 31.8 33.6001 26.2 33.6001 19.2C33.6001 12.2 39.3001 6.70001 46.2001 6.70001C53.1001 6.70001 58.8001 12.3 58.8001 19.3C58.8001 26.3 53.1001 31.8 46.2001 31.8ZM46.2001 8.70001C40.4001 8.70001 35.6001 13.4 35.6001 19.3C35.6001 25.2 40.3001 29.9 46.2001 29.9C52.1001 29.9 56.8001 25 56.8001 19.2C56.8001 13.4 52.0001 8.70001 46.2001 8.70001Z" fill="#333E50"/>
<path d="M43.7999 24.4C44.0999 24.6 44.3999 24.6 44.6999 24.4C44.7999 24.3 45.0999 24 45.0999 24C45.2999 23.8 45.3999 23.7 45.4999 23.6C45.5999 23.5 45.7999 23.3 45.8999 23.2L46.2999 22.8C46.5999 22.5 46.7999 22.3 47.0999 22L50.1999 18.9C50.4999 18.6 50.7999 18.3 51.0999 18.1L51.3999 17.8C51.5999 17.6 51.8999 17.3 52.0999 17.1L52.8999 16.3C53.0999 16.1 53.0999 15.7 52.8999 15.4C52.6999 15.2 52.3999 14.9 52.1999 14.7C52.0999 14.6 51.9999 14.5 51.7999 14.3L51.4999 14C51.3999 13.9 51.1999 13.8 51.0999 13.8C50.8999 13.8 50.7999 13.9 50.6999 14C50.6999 14 50.5999 14 50.5999 14.1L48.5999 16.1C47.9999 16.7 47.2999 17.4 46.5999 18L44.8999 19.7C44.7999 19.8 44.6999 19.9 44.5999 20L44.2999 20.3L41.8999 18C41.7999 17.9 41.6999 17.8 41.6999 17.8C41.5999 17.7 41.4999 17.7 41.3999 17.7C41.1999 17.7 41.0999 17.8 40.8999 17.9L39.4999 19.3C39.3999 19.4 39.3999 19.4 39.2999 19.5C39.0999 19.7 39.1999 20 39.3999 20.3C39.4999 20.4 39.5999 20.6 39.7999 20.7C39.8999 20.8 39.8999 20.8 39.9999 20.9C39.9999 20.8 43.7999 24.4 43.7999 24.4Z" fill="#95CE5A"/>
<path d="M44.2 25.6C43.8 25.6 43.4 25.5 43.1 25.2L39.1 21.3C39.1 21.3 38.9 21.2 38.8 21L38.6 20.8C38.2 20.2 38.1 19.5 38.4 19C38.5 18.8 38.7 18.6 38.7 18.5L40.1 17.1C40.4 16.8 40.8 16.6 41.3 16.6C41.5 16.6 41.9 16.6 42.2 16.9L42.5 17.2L44.2 18.8L45.8 17.2C46.1 16.9 46.5 16.6 46.8 16.2C47.1 15.9 47.5 15.6 47.8 15.2L49.8 13.2C49.9 13.1 50 13 50 13C50.7 12.6 51.4 12.6 52 13.1L53 14.1C53.2 14.3 53.4 14.5 53.5 14.6C53.8 14.9 53.9 15.3 53.9 15.7C53.9 16.1 53.7 16.5 53.4 16.9L52.6 17.7C52.5 17.8 52.4 17.9 52.2 18.1C52.1 18.2 52 18.3 51.9 18.4L51.6 18.7C51.4 18.9 51.3 19 51.2 19.1C51 19.3 50.9 19.4 50.7 19.5L47.6 22.6C47.4 22.8 47.2 23 47.1 23.2L45.7 24.6C45.7 24.6 45.4 24.9 45.3 25C45 25.5 44.6 25.6 44.2 25.6ZM40.4 19.7C40.4 19.8 40.5 19.8 40.4 19.7L44.2 23.4C44.3 23.3 44.4 23.2 44.4 23.2L45.8 21.8C46 21.6 46.1 21.5 46.3 21.3L49.5 18.2C49.7 18.1 49.8 17.9 49.9 17.8C50.1 17.6 50.2 17.5 50.4 17.3L50.7 17C50.8 16.9 50.9 16.8 51.1 16.6C51.2 16.5 51.3 16.4 51.4 16.3L51.9 15.8C51.8 15.7 51.8 15.7 51.7 15.6L51.1 15L49.3 16.8C49 17.1 48.7 17.4 48.3 17.8C48 18.1 47.6 18.4 47.3 18.8L44.3 21.8L41.4 19L40.4 19.7Z" fill="#333E50"/>
</g>
<defs>
<clipPath id="clip0">
<rect width="60" height="60" fill="white"/>
</clipPath>
</defs>
</svg>
