<svg width="60" height="60" viewBox="0 0 60 60" fill="none" xmlns="http://www.w3.org/2000/svg">
<path d="M52.6999 36C52.0999 36.3 51.3999 36.6 51.0999 37.2C50.7999 37.8 50.9999 38.5 51.1999 39.1C51.1999 39.3 51.2999 39.5 51.2999 39.6C51.1999 39.6 50.8999 39.6 50.6999 39.6C49.9999 39.6 49.2999 39.6 48.7999 40C48.2999 40.4 48.0999 41.2 47.9999 41.8C47.9999 41.9 47.8999 42.2 47.8999 42.3C47.6999 42.2 47.4999 42.1 47.3999 42.1C46.8999 41.8 46.3999 41.6 45.8999 41.6C45.7999 41.6 45.6999 41.6 45.4999 41.6C44.7999 41.8 44.3999 42.3 43.9999 42.9C43.8999 43 43.7999 43.2 43.6999 43.4C43.5999 43.3 43.3999 43.1 43.2999 43C42.8999 42.5 42.4999 41.9 41.7999 41.8C41.6999 41.8 41.5999 41.8 41.4999 41.8C40.8999 41.8 40.3999 42 39.8999 42.3C39.7999 42.4 39.4999 42.5 39.3999 42.6C39.3999 42.4 39.2999 42.2 39.2999 42.1C39.1999 41.5 38.9999 40.7 38.3999 40.3C37.9999 40 37.4999 39.9 36.8999 39.9H36.3999C36.1999 39.9 35.9999 39.9 35.8999 39.9C35.8999 39.7 35.9999 39.5 35.9999 39.4C36.1999 38.8 36.2999 38.1 35.9999 37.5C35.6999 36.9 34.9999 36.6 34.3999 36.3C34.2999 36.2 34.0999 36.2 33.8999 36.1C33.9999 36 34.0999 35.8 34.1999 35.7C34.5999 35.2 35.0999 34.7 35.0999 34C35.0999 33.3 34.5999 32.8 34.1999 32.3C34.0999 32.2 33.9999 32 33.8999 31.9C33.9999 31.8 34.1999 31.7 34.3999 31.7C34.9999 31.4 35.6999 31.1 35.9999 30.5C36.2999 29.9 36.0999 29.2 35.8999 28.6C35.8999 28.4 35.7999 28.2 35.7999 28.1C35.8999 28.1 36.1999 28.1 36.3999 28.1C37.0999 28.1 37.7999 28.1 38.2999 27.7C38.7999 27.3 38.9999 26.5 39.0999 25.9C39.0999 25.8 39.1999 25.5 39.1999 25.4C39.3999 25.5 39.5999 25.6 39.6999 25.6C40.1999 25.9 40.6999 26.1 41.1999 26.1C41.2999 26.1 41.3999 26.1 41.5999 26.1C42.2999 25.9 42.6999 25.4 43.0999 24.8C43.1999 24.7 43.2999 24.5 43.3999 24.3C43.4999 24.4 43.6999 24.6 43.7999 24.7C44.1999 25.2 44.5999 25.8 45.2999 25.9C45.3999 25.9 45.4999 25.9 45.5999 25.9C46.1999 25.9 46.6999 25.7 47.1999 25.4C47.2999 25.3 47.5999 25.2 47.6999 25.1C47.6999 25.3 47.7999 25.5 47.7999 25.6C47.8999 26.2 48.0999 27 48.6999 27.4C49.0999 27.7 49.5999 27.8 50.1999 27.8H50.6999C50.8999 27.8 51.0999 27.8 51.1999 27.8C51.1999 28 51.0999 28.2 51.0999 28.3C50.8999 28.9 50.7999 29.6 51.0999 30.2C51.3999 30.8 52.0999 31.1 52.6999 31.4C52.7999 31.5 52.9999 31.5 53.1999 31.6C53.0999 31.7 52.9999 31.9 52.8999 32C52.4999 32.5 51.9999 33.1 51.9999 33.8C51.9999 34.5 52.4999 35.1 52.8999 35.5C52.9999 35.6 53.0999 35.8 53.1999 35.9C52.9999 35.9 52.8999 35.9 52.6999 36Z" fill="#95CE5A"/>
<path d="M43.5 37.4C45.5435 37.4 47.2001 35.7435 47.2001 33.7C47.2001 31.6565 45.5435 30 43.5 30C41.4566 30 39.8 31.6565 39.8 33.7C39.8 35.7435 41.4566 37.4 43.5 37.4Z" fill="white"/>
<path d="M37.1 15.9H12.6C12 15.9 11.5 16.4 11.5 17C11.5 17.6 12 18.1 12.6 18.1H37.1C37.7 18.1 38.2 17.6 38.2 17C38.2 16.3 37.7 15.9 37.1 15.9Z" fill="#333E50"/>
<path d="M38.2 21.4C38.1 20.9 37.6 20.6 37.1 20.6H12.6C12 20.6 11.5 21.1 11.5 21.7C11.5 22.3 12 22.8 12.6 22.8H36.3V22.7C36.6 22.3 37 22 37.4 21.8C37.6 21.7 37.7 21.7 37.9 21.6H38L38.2 21.4Z" fill="#333E50"/>
<path d="M54.4 34C54.3 33.9 54.1999 33.7 54.0999 33.6C54.1999 33.5 54.3 33.3 54.4 33.2C54.9 32.6 55.5 31.9 55.2999 31C55.0999 30.1 54.2 29.7 53.5 29.4C53.2999 29.3 53.0999 29.2 53 29.2C53 29 53.0999 28.9 53.0999 28.7C53.2999 28 53.5 27 52.9 26.3C52.4 25.8 51.7999 25.6 51.0999 25.7H50.5999C50.3999 25.7 50.2 25.7 50 25.7C49.9 25.5 49.9 25.3 49.9 25.1C49.8 24.4 49.6 23.5 48.7 23.1C48.5 23 48.2 22.9 48 22.9C47.4 23 46.7999 23.1 46.2999 23.5C46.0999 23.6 46 23.7 45.7999 23.8C45.7 23.7 45.5 23.5 45.4 23.3C45.3 23.2 45.1999 23.1 45.0999 23V11.3L29 0H8.99995C6.29995 0 4.69995 1.7 4.69995 4.3V55.6C4.69995 58.3 6.29995 60 8.99995 60H40.7C43.4 60 45 58.3 45 55.7V46.7L47.2 51.5C47.4 51.9 47.7999 52.1 48.2 52.1H48.2999C48.7 52.1 49.0999 51.8 49.2999 51.3L50 49.1L52.2999 50C52.5999 50.1 52.8999 50.1 53.0999 50C53.3999 49.9 53.6 49.7 53.7 49.4C53.7999 49.1 53.7999 48.8 53.7 48.5L50.5 41.7H51.2C51.6 41.7 52.5999 41.7 53.0999 41C53.5999 40.3 53.5 39.5 53.2 38.6C53.2 38.4 53.0999 38.3 53.0999 38.1C53.2999 38 53.3999 37.9 53.5999 37.8C54.2999 37.5 55.2 37.1 55.4 36.2C55.5 35.3 54.8 34.6 54.4 34ZM52.7 36L52.5999 35.9C52 36.2 51.3 36.5 50.9 37.2C50.6 37.9 50.7999 38.6 51 39.2C51 39.3 51.0999 39.4 51.0999 39.5H50.5C49.9 39.5 49.1999 39.5 48.5999 39.9C48 40.4 47.7999 41.2 47.7 41.8C47.7 41.9 47.6999 42 47.5999 42.1C47.5 42 47.3999 42 47.2999 41.9C46.7999 41.6 46.2999 41.4 45.7 41.4C45.6 41.4 45.3999 41.4 45.2999 41.4C44.5999 41.6 44.1 42.2 43.7 42.7L43.5 43C43.4 42.9 43.2999 42.8 43.2999 42.7C42.8999 42.2 42.4 41.6 41.7 41.4C41.6 41.4 41.5 41.4 41.2999 41.4C40.7 41.4 40.2 41.6 39.7 41.9C39.6 42 39.5 42 39.2999 42.1C39.2999 42 39.2999 41.9 39.2 41.9V41.8C39.1 41.1 38.8999 40.4 38.2999 39.9C37.7999 39.6 37.2999 39.4 36.7999 39.5H36C36 39.4 35.9999 39.3 36.0999 39.3V39.2C36.2999 38.6 36.4999 37.8 36.0999 37.2C35.6999 36.6 35.1 36.2 34.4 36C34.3 36 34.1999 35.9 34.0999 35.9C34.1999 35.8 34.2999 35.7 34.2999 35.6C34.6999 35.1 35.2 34.5 35.2 33.8C35.2 33 34.7 32.5 34.2 32L34.0999 31.9C33.9999 31.8 34 31.8 33.9 31.7C34 31.7 33.9999 31.6 34.0999 31.6L34.2 31.5C34.8 31.2 35.5 30.9 35.9 30.2C36.2 29.5 36 28.8 35.7999 28.2C35.7999 28.1 35.7 28 35.7 27.9H36.2999C37 27.9 37.6 27.9 38.2 27.5C38.7999 27 39 26.2 39.0999 25.6C39.0999 25.5 39.1 25.4 39.2 25.3C39.2999 25.4 39.4 25.4 39.5 25.5C40 25.8 40.5 26 41.0999 26C41.1999 26 41.4 26 41.5 26C42.2 25.8 42.6999 25.2 43.0999 24.7L43.2999 24.4C43.3999 24.5 43.5 24.6 43.5 24.7C43.9 25.2 44.3999 25.8 45.0999 26C45.1999 26 45.2999 26 45.5 26C46.0999 26 46.5999 25.8 47.0999 25.4C47.1999 25.3 47.3 25.3 47.4 25.2C47.4 25.3 47.5 25.4 47.5 25.6C47.5999 26.3 47.8 27 48.4 27.5C48.9 27.8 49.4 27.9 49.9 27.9H51C51 28 51 28.1 50.9 28.2V28.3C50.7 28.9 50.5 29.7 50.9 30.3C51.2 31 51.8999 31.3 52.5999 31.5C52.6999 31.5 52.8 31.6 52.9 31.6C52.8 31.7 52.7 31.8 52.7 31.9C52.2999 32.4 51.7999 33 51.7999 33.7C51.7999 34.5 52.2999 35.1 52.7999 35.5L52.9 35.6C53 35.7 53 35.7 53.0999 35.8C53 35.8 53 35.8 52.9 35.9L52.7999 36H52.7ZM46.5 44C47 44.3 47.5999 44.5 48.0999 44.5C48.3999 44.5 48.5999 44.4 48.7999 44.3C48.8999 44.3 49 44.2 49.0999 44.1L50.4 47L49.5999 46.7C49 46.5 48.4 46.8 48.2 47.3L48 47.9L46.0999 43.8C46.2999 43.9 46.4 43.9 46.5 44ZM31.9 13.4H42.9V22C42.2 22.2 41.8 22.8 41.4 23.3C41.3 23.5 41.2 23.6 41 23.8C40.7999 23.7 40.5999 23.6 40.5 23.6C40 23.3 39.5 23.1 38.9 23.1C38.7 23.1 38.4 23.2 38.2 23.3C37.4 23.7 37.1999 24.6 37.0999 25.3V25.4C37.0999 25.6 37 25.8 37 25.9C36.9 25.9 36.7999 25.9 36.7 25.9H36C35.6 25.9 34.5999 25.9 34.0999 26.6C33.4999 27.4 33.7999 28.4 34 29C34.1 29.2 34.1 29.3 34.2 29.5C34 29.6 33.9 29.7 33.7 29.7C33 30 32.1 30.4 31.9 31.3C31.7 32.2 32.4 33 32.7999 33.5C32.9 33.6 32.9999 33.8 33.0999 33.9C32.9999 34 32.9 34.2 32.7999 34.3C32.2999 34.9 31.7 35.6 31.9 36.5C32.1 37.4 33 37.8 33.7 38.1C33.9 38.2 34 38.2 34.2 38.3C34.2 38.5 34.0999 38.6 34.0999 38.8C33.8999 39.5 33.6999 40.5 34.2999 41.2C34.7999 41.7 35.3999 41.9 36.0999 41.8H36.7999L33.5999 48.5C33.4999 48.8 33.4999 49.1 33.5999 49.3C33.6999 49.6 33.9 49.8 34.2 49.9C34.5 50 34.7999 50 35.0999 49.9L37.4 49L38.0999 51.2C38.1999 51.6 38.5999 51.9 39.0999 51.9H39.2C39.6 51.9 40 51.7 40.2 51.3L43 45.1C43.0999 45.2 43.2 45.2 43.2999 45.3V55.6C43.2999 57.1 42.5999 57.8 41.0999 57.8H8.99995C7.49995 57.8 6.79995 57.1 6.79995 55.6V4.3C6.79995 2.8 7.49995 2.1 8.99995 2.1H27V8.5C27 11.2 29.2 13.3 31.9 13.4ZM39 48L38.7999 47.4C38.7 47.1 38.5 46.9 38.2999 46.8C38.0999 46.7 38 46.7 37.7999 46.7C37.7 46.7 37.5999 46.7 37.5 46.7L36.5999 47L38 44.1C38.0999 44.2 38.2999 44.3 38.5 44.4C38.7 44.5 39 44.6 39.2 44.6C39.7999 44.5 40.3999 44.4 40.7999 44L39 48ZM29.1 8.5H29.2V2.8L41.2 11.2H31.9C30.4 11.2 29.2999 10 29.2999 8.6L29.1 8.5Z" fill="#333E50"/>
<path d="M43.5 28C40.3 28 37.8 30.6 37.8 33.7C37.8 36.9 40.4 39.4 43.5 39.4C46.7 39.4 49.2001 36.8 49.2001 33.7C49.3001 30.6 46.7 28 43.5 28ZM47.1 33.7C47.1 35.7 45.5 37.3 43.5 37.3C41.5 37.3 39.9001 35.7 39.9001 33.7C39.9001 31.7 41.5 30.1 43.5 30.1C45.5 30.1 47.1 31.8 47.1 33.7Z" fill="#333E50"/>
<path d="M12.6 25.2C12 25.2 11.5 25.7 11.5 26.3C11.5 26.9 12 27.4 12.6 27.4H32.1V27.3C32.2 26.7 32.4 26.1 32.8 25.6L33.1 25.3H12.6V25.2Z" fill="#333E50"/>
<path d="M30.6 29.9H12.6C12 29.9 11.5 30.4 11.5 31C11.5 31.6 12 32.1 12.6 32.1H30.1V31.9C30 31.3 30.2 30.7 30.5 30.1L30.6 29.9Z" fill="#333E50"/>
<path d="M30.6 34.5H12.6C12 34.5 11.5 35 11.5 35.6C11.5 36.2 12 36.7 12.6 36.7H30.2V36.5C30.1 35.9 30.2 35.3 30.5 34.7L30.6 34.5Z" fill="#333E50"/>
</svg>
