<svg width="60" height="60" viewBox="0 0 60 60" fill="none" xmlns="http://www.w3.org/2000/svg">
<g clip-path="url(#clip0)">
<path d="M55.5001 8.52002H3.7201C1.9801 8.52002 0.600098 9.90002 0.600098 11.64V18H58.6201V11.58C58.6201 9.90002 57.2401 8.52002 55.5001 8.52002Z" fill="#C3E2FC"/>
<path d="M42.42 51.96C47.49 51.96 51.6 47.85 51.6 42.78C51.6 37.7101 47.49 33.6 42.42 33.6C37.35 33.6 33.24 37.7101 33.24 42.78C33.24 47.85 37.35 51.96 42.42 51.96Z" fill="#95CE5A"/>
<path d="M14.28 23.52H6.30005V30.12H14.28V23.52Z" fill="#95CE5A"/>
<path d="M27.48 23.52H19.5V30.12H27.48V23.52Z" fill="#95CE5A"/>
<path d="M40.68 23.52H32.7V30.12H40.68V23.52Z" fill="#95CE5A"/>
<path d="M53.8799 23.52H45.8999V30.12H53.8799V23.52Z" fill="#95CE5A"/>
<path d="M56.7 7.38001C56.58 4.32001 55.44 1.14001 53.1 1.14001C50.82 1.14001 49.68 4.26001 49.56 7.32001H45.12C45 4.26001 43.86 1.14001 41.52 1.14001C39.24 1.14001 38.1 4.26001 37.98 7.32001H33.54C33.42 4.26001 32.28 1.14001 30 1.14001C27.72 1.14001 26.58 4.26001 26.4 7.32001H21.96C21.84 4.26001 20.7 1.14001 18.42 1.14001C16.14 1.14001 15 4.26001 14.88 7.32001H10.44C10.32 4.26001 9.18002 1.14001 6.90002 1.14001C4.62002 1.14001 3.48002 4.32001 3.36002 7.38001C1.20002 7.74001 -0.47998 9.60001 -0.47998 11.82V54.36C-0.47998 56.82 1.56002 58.86 4.02002 58.86H55.92C58.38 58.86 60.42 56.82 60.42 54.36V11.82C60.48 9.60001 58.8 7.74001 56.7 7.38001ZM58.08 19.14V54.42C58.08 55.62 57.12 56.58 55.92 56.58H4.08002C2.88002 56.58 1.92002 55.62 1.92002 54.42V19.14H58.08ZM6.90002 12.48C6.24002 12.48 5.70002 13.02 5.70002 13.68C5.70002 14.34 6.24002 14.88 6.90002 14.88C9.00002 14.88 10.08 12.3 10.38 9.72001H19.56C19.26 11.64 18.6 12.48 18.48 12.54C17.82 12.54 17.28 13.08 17.28 13.74C17.28 14.4 17.82 14.94 18.48 14.94C20.58 14.94 21.66 12.36 21.96 9.78001H31.14C30.84 11.7 30.18 12.54 30.06 12.6C29.4 12.6 28.86 13.14 28.86 13.8C28.86 14.46 29.4 15 30.06 15C32.16 15 33.24 12.42 33.54 9.84001H42.72C42.48 11.64 41.82 12.6 41.64 12.66C40.98 12.66 40.44 13.2 40.44 13.86C40.44 14.52 40.98 15.06 41.64 15.06C43.74 15.06 44.82 12.48 45.12 9.90001H54.3C54.06 11.7 53.4 12.66 53.22 12.72C52.56 12.72 52.02 13.26 52.02 13.92C52.02 14.58 52.56 15.12 53.22 15.12C55.32 15.12 56.4 12.6 56.7 10.08C57.54 10.38 58.2 11.16 58.2 12.12V17.04H1.92002V12.12C1.92002 10.92 2.88002 9.96001 4.08002 9.96001H8.04002C7.74002 11.58 7.02002 12.42 6.90002 12.48ZM51.9 7.32001C52.02 4.86001 52.86 3.66001 53.1 3.48001C53.4 3.66001 54.18 4.92001 54.3 7.32001H51.9ZM40.38 7.32001C40.5 4.86001 41.34 3.66001 41.58 3.48001C41.88 3.66001 42.66 4.92001 42.78 7.32001H40.38ZM28.8 7.32001C28.92 4.92001 29.7 3.66001 30 3.48001C30.3 3.66001 31.08 4.80001 31.2 7.32001H28.8ZM17.28 7.32001C17.4 4.92001 18.18 3.66001 18.48 3.48001C18.78 3.66001 19.56 4.80001 19.68 7.32001H17.28ZM5.70002 7.32001C5.82002 4.92001 6.60002 3.66001 6.90002 3.48001C7.20002 3.66001 7.98002 4.80001 8.10002 7.32001H5.70002Z" fill="#333E50"/>
<path d="M13.1999 21.84H7.19991C6.05991 21.84 5.15991 22.74 5.15991 23.88V29.52C5.15991 30.66 6.05991 31.56 7.19991 31.56H13.1999C14.3399 31.56 15.2399 30.66 15.2399 29.52V23.88C15.2399 22.74 14.3399 21.84 13.1999 21.84ZM12.8999 24.18V29.16H7.55991V24.18H12.8999Z" fill="#333E50"/>
<path d="M26.4001 21.84H20.4001C19.2601 21.84 18.3601 22.74 18.3601 23.88V29.52C18.3601 30.66 19.2601 31.56 20.4001 31.56H26.4001C27.5401 31.56 28.4401 30.66 28.4401 29.52V23.88C28.4401 22.74 27.5401 21.84 26.4001 21.84ZM26.0401 24.18V29.16H20.7001V24.18H26.0401Z" fill="#333E50"/>
<path d="M39.6001 21.84H33.6001C32.4601 21.84 31.5601 22.74 31.5601 23.88V29.52C31.5601 30.66 32.4601 31.56 33.6001 31.56H39.6001C40.7401 31.56 41.6401 30.66 41.6401 29.52V23.88C41.6401 22.74 40.7401 21.84 39.6001 21.84ZM39.2401 24.18V29.16H33.9001V24.18H39.2401Z" fill="#333E50"/>
<path d="M52.8 21.84H46.8C45.66 21.84 44.76 22.74 44.76 23.88V29.52C44.76 30.66 45.66 31.56 46.8 31.56H52.8C53.94 31.56 54.84 30.66 54.84 29.52V23.88C54.84 22.74 53.88 21.84 52.8 21.84ZM52.44 24.18V29.16H47.1V24.18H52.44Z" fill="#333E50"/>
<path d="M13.1999 32.94H7.19991C6.05991 32.94 5.15991 33.84 5.15991 34.98V40.62C5.15991 41.76 6.05991 42.66 7.19991 42.66H13.1999C14.3399 42.66 15.2399 41.76 15.2399 40.62V34.98C15.2399 33.84 14.3399 32.94 13.1999 32.94ZM12.8999 35.34V40.32H7.55991V35.34H12.8999Z" fill="#333E50"/>
<path d="M26.4001 32.94H20.4001C19.2601 32.94 18.3601 33.84 18.3601 34.98V40.62C18.3601 41.76 19.2601 42.66 20.4001 42.66H26.4001C27.5401 42.66 28.4401 41.76 28.4401 40.62V34.98C28.4401 33.84 27.5401 32.94 26.4001 32.94ZM26.0401 35.34V40.32H20.7001V35.34H26.0401Z" fill="#333E50"/>
<path d="M13.1999 44.1H7.19991C6.05991 44.1 5.15991 45 5.15991 46.14V51.78C5.15991 52.92 6.05991 53.82 7.19991 53.82H13.1999C14.3399 53.82 15.2399 52.92 15.2399 51.78V46.14C15.2399 45 14.3399 44.1 13.1999 44.1ZM12.8999 46.44V51.42H7.55991V46.44H12.8999Z" fill="#333E50"/>
<path d="M26.4001 44.1H20.4001C19.2601 44.1 18.3601 45 18.3601 46.14V51.78C18.3601 52.92 19.2601 53.82 20.4001 53.82H26.4001C27.5401 53.82 28.4401 52.92 28.4401 51.78V46.14C28.4401 45 27.5401 44.1 26.4001 44.1ZM26.0401 46.44V51.42H20.7001V46.44H26.0401Z" fill="#333E50"/>
<path d="M42.6 32.64C36.78 32.64 32.04 37.38 32.04 43.2C32.04 49.02 36.78 53.7 42.6 53.7C48.42 53.7 53.16 48.96 53.16 43.14C53.16 37.32 48.42 32.64 42.6 32.64ZM50.76 43.14C50.76 47.64 47.1 51.3 42.6 51.3C38.1 51.3 34.44 47.64 34.44 43.14C34.44 38.64 38.1 34.98 42.6 34.98C47.1 34.98 50.76 38.64 50.76 43.14Z" fill="#333E50"/>
<path d="M47.52 38.94C47.28 38.7 46.98 38.58 46.68 38.58C46.38 38.58 46.08 38.7 45.84 38.94L40.2 44.58L39.54 43.38C39.24 42.84 38.46 42.6 37.92 42.96C37.38 43.26 37.14 44.04 37.5 44.58L38.94 47.1C39.12 47.4 39.42 47.64 39.84 47.7C39.9 47.7 39.96 47.7 40.02 47.7C40.32 47.7 40.62 47.58 40.86 47.34L47.58 40.62C48 40.14 48 39.42 47.52 38.94Z" fill="#333E50"/>
</g>
<defs>
<clipPath id="clip0">
<rect width="60" height="60" fill="white"/>
</clipPath>
</defs>
</svg>
