<svg width="60" height="60" viewBox="0 0 60 60" fill="none" xmlns="http://www.w3.org/2000/svg">
<path d="M23.4407 12.1731C24.1032 12.1731 24.6452 11.6932 24.6452 10.9734C24.6452 10.2535 24.1634 9.77356 23.4407 9.77356H19.2248C18.5623 9.77356 18.0203 10.2535 18.0203 10.9734C18.0203 11.6932 18.5021 12.1731 19.2248 12.1731H23.4407Z" fill="#333E50"/>
<path d="M15.009 9.83356C13.4431 9.83356 11.9977 10.1335 10.492 10.6134C9.88973 10.7934 9.58859 11.5133 9.8295 12.1732C10.0102 12.6531 10.4318 12.953 10.9136 12.953C11.034 12.953 11.2147 12.953 11.3352 12.833C12.5397 12.3531 13.8045 12.1732 15.0692 12.1732C15.7317 12.1732 16.2738 11.5733 16.2738 10.9734C16.2136 10.3135 15.6715 9.83356 15.009 9.83356Z" fill="#333E50"/>
<path d="M24.3442 57.5255H20.1284C19.4659 57.5255 18.9238 58.0054 18.9238 58.7252C18.9238 59.4451 19.4056 59.925 20.1284 59.925H24.3442C25.0067 59.925 25.5488 59.4451 25.5488 58.7252C25.5488 58.0054 25.0067 57.5255 24.3442 57.5255Z" fill="#333E50"/>
<path d="M31.8726 12.1731C32.5351 12.1731 33.0771 11.6932 33.0771 10.9734C33.0771 10.2535 32.5953 9.77356 31.8726 9.77356H27.6567C26.9942 9.77356 26.4521 10.2535 26.4521 10.9734C26.4521 11.6932 26.934 12.1731 27.6567 12.1731H31.8726Z" fill="#333E50"/>
<path d="M7.29997 12.6531C6.99884 12.6531 6.6977 12.7731 6.51702 12.953C5.31248 13.9129 4.34885 15.1726 3.5659 16.5524C3.26477 17.1523 3.44545 17.8122 4.04772 18.1121C4.2284 18.2321 4.46931 18.2921 4.64999 18.2921C5.07157 18.2921 5.43294 18.1121 5.73407 17.6922C6.33634 16.6124 7.11929 15.6526 8.08292 14.7527C8.2636 14.5727 8.50451 14.2728 8.50451 13.9728C8.50451 13.6729 8.38405 13.373 8.20337 13.073C8.02269 12.7731 7.66133 12.6531 7.29997 12.6531Z" fill="#333E50"/>
<path d="M4.40908 25.8509C4.58976 25.5509 4.58976 25.251 4.58976 24.951C4.4693 24.2911 4.40908 23.5113 4.40908 22.7914C4.40908 22.1915 4.40908 21.7116 4.52953 21.1117C4.64998 20.4518 4.10794 19.8519 3.5659 19.7319C2.9034 19.6119 2.30113 20.1518 2.18068 20.6918C2.06023 21.3516 2 22.0715 2 22.6714C2 23.5713 2.12045 24.4111 2.30113 25.311C2.42159 25.9109 2.9034 26.2708 3.50567 26.2708C3.62613 26.2708 3.68635 26.2708 3.68635 26.2708C3.92726 26.3308 4.2284 26.0908 4.40908 25.8509Z" fill="#333E50"/>
<path d="M5.97496 28.4304C5.79428 28.0105 5.37269 27.8305 5.01133 27.8305C4.83065 27.8305 4.58974 27.9505 4.40906 28.0105C4.10793 28.1904 3.92725 28.4304 3.92725 28.7903C3.92725 29.1503 3.92725 29.3902 4.10793 29.6902C4.64997 30.53 5.19201 31.3099 5.79428 31.8498L5.67383 31.9698L5.79428 31.8498C6.39655 31.4299 6.99882 31.0699 7.54086 30.65L7.66131 30.53L7.54086 30.4101C6.99882 29.9301 6.39655 29.2103 5.97496 28.4304Z" fill="#333E50"/>
<path d="M49.4588 56.7455C49.3384 56.7455 49.1577 56.7455 49.0372 56.8655C47.8327 57.3454 46.5679 57.5254 45.3032 57.5254C44.6407 57.5254 44.0986 58.0053 44.0986 58.7252C44.0986 59.4451 44.5804 59.925 45.3032 59.925C46.8691 59.925 48.435 59.6251 49.8202 59.1451C50.4225 58.9652 50.7236 58.2453 50.4827 57.5854C50.4827 57.1055 49.9406 56.7455 49.4588 56.7455Z" fill="#333E50"/>
<path d="M45.0623 35.9891H46.6282C47.4111 36.1091 48.0736 36.289 48.8566 36.469C48.977 36.469 49.1577 36.589 49.2782 36.589C49.76 36.589 50.2418 36.289 50.3622 35.8091C50.5429 35.2092 50.2418 34.5493 49.6998 34.3694C48.7963 34.0694 47.8327 33.8894 46.8691 33.7095H45.1225C44.46 33.7095 43.918 34.1894 43.918 34.9093C43.918 35.3892 44.46 35.9891 45.0623 35.9891Z" fill="#333E50"/>
<path d="M54.5779 41.2081C54.7586 41.6281 55.1802 41.808 55.5415 41.808C55.7222 41.808 55.9631 41.6881 56.1438 41.6281C56.4449 41.4481 56.6256 41.2082 56.7461 40.9682C56.8665 40.6682 56.7461 40.3683 56.6256 40.0683C55.8427 38.6886 54.879 37.5488 53.6745 36.529C53.4938 36.349 53.1927 36.229 52.8915 36.229C52.47 36.229 52.2291 36.409 51.9881 36.6489C51.7472 36.8889 51.687 37.2488 51.687 37.5488C51.687 37.8487 51.8677 38.1487 52.1086 38.3286C53.1325 39.1085 53.9154 40.0683 54.5779 41.2081Z" fill="#333E50"/>
<path d="M56.3247 51.5865C56.2042 51.4665 55.9031 51.4665 55.7224 51.4665C55.3008 51.4665 54.9395 51.6465 54.6383 52.0664C54.0361 53.1462 53.1929 54.106 52.2895 55.0059C51.8077 55.4258 51.6872 56.2057 52.169 56.6856C52.3497 56.9855 52.7713 57.1055 53.0724 57.1055C53.3736 57.1055 53.6747 56.9855 53.8554 56.8056C55.0599 55.8457 56.0235 54.586 56.8065 53.2662C56.9872 52.9662 56.9872 52.6663 56.927 52.3663C56.8065 51.9464 56.6258 51.7664 56.3247 51.5865Z" fill="#333E50"/>
<path d="M58.1916 44.2677C58.0712 43.6678 57.5894 43.3079 56.9871 43.3079C56.8666 43.3079 56.8064 43.3079 56.8064 43.3079C56.5053 43.4278 56.2041 43.4878 56.0235 43.7878C55.8428 44.0877 55.8428 44.3877 55.8428 44.6876C55.9632 45.3475 56.0235 46.1274 56.0235 46.8473C56.0235 47.3272 56.0235 47.9271 55.903 48.527C55.7825 48.8269 55.903 49.1269 56.0837 49.4268C56.2644 49.7268 56.5655 49.8467 56.8666 49.9067C56.9871 49.9067 56.9871 49.9067 57.0473 49.9067C57.6496 49.9067 58.1314 49.4868 58.2518 48.9469C58.3723 48.287 58.4325 47.5671 58.4325 46.9072C58.4928 46.0074 58.3723 45.1076 58.1916 44.2677Z" fill="#333E50"/>
<path d="M32.7158 57.5255H28.4999C27.8375 57.5255 27.2954 58.0054 27.2954 58.7252C27.2954 59.4451 27.7772 59.925 28.4999 59.925H32.7158C33.3783 59.925 33.9204 59.4451 33.9204 58.7252C33.9204 58.0054 33.4386 57.5255 32.7158 57.5255Z" fill="#333E50"/>
<path d="M41.1475 57.5255H36.9316C36.2691 57.5255 35.7271 58.0054 35.7271 58.7252C35.7271 59.4451 36.2089 59.925 36.9316 59.925H41.1475C41.81 59.925 42.352 59.4451 42.352 58.7252C42.352 58.0054 41.8702 57.5255 41.1475 57.5255Z" fill="#333E50"/>
<path d="M28.259 35.9891H32.4749C33.1374 35.9891 33.6794 35.5092 33.6794 34.7893C33.6794 34.0695 33.1976 33.5895 32.4749 33.5895H28.259C27.5965 33.5895 27.0544 34.0695 27.0544 34.7893C27.0544 35.5092 27.5363 35.9891 28.259 35.9891Z" fill="#333E50"/>
<path d="M36.6306 35.9891H40.8464C41.5089 35.9891 42.051 35.5092 42.051 34.7893C42.051 34.4894 41.9305 34.1894 41.7498 33.8895C41.5692 33.7095 41.268 33.4695 40.8464 33.4695H36.6306C35.9681 33.4695 35.426 33.9495 35.426 34.6693C35.4863 35.3892 35.9681 35.9891 36.6306 35.9891Z" fill="#333E50"/>
<path d="M47.2907 1.85492L41.5089 3.23468L38.1362 6.23417L36.751 10.3135V12.953L38.4976 16.6124L47.2907 28.3704L57.3486 13.9129V7.49395L51.1452 1.85492H47.2907Z" fill="#47C0EA"/>
<path d="M58.7939 9.23369C57.5893 3.11473 51.3257 -0.904577 44.8814 0.175238C39.2201 1.13507 35.1849 5.81427 35.0645 11.7533C35.0645 13.7329 35.8474 15.8326 37.2326 17.8122C40.1837 21.8315 43.1349 25.7309 46.1462 29.7502C46.628 30.4101 47.411 30.4101 47.8928 29.7502C50.8439 25.7309 53.795 21.8315 56.6859 17.8722C58.6734 15.2927 59.3961 12.3532 58.7939 9.23369ZM54.6984 16.3725C52.7109 19.012 50.7837 21.6516 48.7962 24.2911L47.0496 26.6307L44.8212 23.6312C42.9542 21.1716 41.2076 18.7721 39.3406 16.3125C38.2565 14.8727 37.6542 13.193 37.6542 11.8132C37.6542 7.25403 40.786 3.53466 45.303 2.7548C45.9053 2.63482 46.5076 2.63482 47.0496 2.63482C51.5666 2.63482 55.4814 5.6343 56.2643 9.77359C56.7461 12.1732 56.2643 14.3328 54.6984 16.3725Z" fill="#333E50"/>
<circle cx="15" cy="42" r="9" fill="white"/>
<path d="M17.8999 48.1671C13.2022 48.1671 9.40791 44.3877 9.40791 39.7085C9.40791 36.4691 11.2147 33.7095 13.8647 32.2698L8.50451 33.5296L5.1318 36.529L3.74658 40.6083V43.2479L5.43293 46.8473L14.2261 58.6653L22.4169 46.9073C21.0317 47.7471 19.526 48.1671 17.8999 48.1671Z" fill="#C3E2FC"/>
<path d="M25.4886 39.7685C24.2841 33.8295 18.3216 29.9302 12.058 31.01C6.6978 31.9699 2.6626 36.4691 2.6626 42.2281C2.6626 44.0878 3.32509 46.2474 4.83077 48.1071C7.66143 51.8864 10.4921 55.7258 13.3228 59.5051C13.8046 60.165 14.5875 60.165 15.0693 59.5051C17.9 55.7258 20.7307 51.8864 23.5613 48.1071C25.3681 45.6475 26.0909 42.768 25.4886 39.7685ZM21.4534 46.6073C19.4659 49.2469 17.6591 51.7665 15.6716 54.406L14.1057 56.5656L12.2989 53.9861C10.4319 51.5265 8.56483 49.0069 6.6978 46.5474C5.73417 45.1676 5.1319 43.6079 5.01145 42.1681C5.01145 37.7889 8.02279 34.1895 12.3591 33.4096C12.9614 33.2896 13.4432 33.2296 14.0455 33.2296C18.442 33.2296 22.1761 36.1691 22.9591 40.1285C23.4409 42.588 22.9591 44.6277 21.4534 46.6073Z" fill="#333E50"/>
<path d="M47.1701 13.9728C48.6004 13.9728 49.7598 12.8179 49.7598 11.3933C49.7598 9.96863 48.6004 8.81372 47.1701 8.81372C45.7398 8.81372 44.5803 9.96863 44.5803 11.3933C44.5803 12.8179 45.7398 13.9728 47.1701 13.9728Z" fill="white"/>
<path d="M47.1702 15.5927C44.8214 15.5927 42.9543 13.673 42.9543 11.3934C42.9543 9.05377 44.8816 7.19409 47.1702 7.19409C49.5191 7.19409 51.3861 9.11376 51.3861 11.3934C51.3861 13.733 49.5191 15.5927 47.1702 15.5927ZM47.1702 9.11376C45.9055 9.11376 44.8816 10.1336 44.8816 11.3934C44.8816 12.6532 45.9055 13.673 47.1702 13.673C48.435 13.673 49.4589 12.6532 49.4589 11.3934C49.4589 10.1336 48.435 9.11376 47.1702 9.11376Z" fill="#333E50"/>
</svg>
