<svg width="60" height="60" viewBox="0 0 60 60" fill="none" xmlns="http://www.w3.org/2000/svg">
<path d="M23.4404 12.1731C24.1029 12.1731 24.645 11.6932 24.645 10.9734C24.645 10.2535 24.1632 9.77356 23.4404 9.77356H19.2246C18.5621 9.77356 18.02 10.2535 18.02 10.9734C18.02 11.6932 18.5018 12.1731 19.2246 12.1731H23.4404Z" fill="#333E50"/>
<path d="M15.0083 9.83356C13.4424 9.83356 11.9969 10.1335 10.4913 10.6134C9.889 10.7934 9.58786 11.5133 9.82877 12.1732C10.0095 12.6531 10.431 12.953 10.9129 12.953C11.0333 12.953 11.214 12.953 11.3344 12.833C12.539 12.3531 13.8037 12.1732 15.0685 12.1732C15.731 12.1732 16.273 11.5733 16.273 10.9734C16.2128 10.3135 15.6708 9.83356 15.0083 9.83356Z" fill="#333E50"/>
<path d="M24.3438 57.5255H20.1279C19.4654 57.5255 18.9233 58.0054 18.9233 58.7252C18.9233 59.4451 19.4052 59.925 20.1279 59.925H24.3438C25.0063 59.925 25.5483 59.4451 25.5483 58.7252C25.5483 58.0054 25.0063 57.5255 24.3438 57.5255Z" fill="#333E50"/>
<path d="M31.8723 12.1731C32.5348 12.1731 33.0769 11.6932 33.0769 10.9734C33.0769 10.2535 32.595 9.77356 31.8723 9.77356H27.6564C26.9939 9.77356 26.4519 10.2535 26.4519 10.9734C26.4519 11.6932 26.9337 12.1731 27.6564 12.1731H31.8723Z" fill="#333E50"/>
<path d="M7.29924 12.6531C6.9981 12.6531 6.69697 12.7731 6.51629 12.953C5.31175 13.9129 4.34812 15.1726 3.56517 16.5524C3.26404 17.1523 3.44472 17.8122 4.04698 18.1121C4.22767 18.2321 4.46857 18.2921 4.64925 18.2921C5.07084 18.2921 5.4322 18.1121 5.73334 17.6922C6.33561 16.6124 7.11856 15.6526 8.08219 14.7527C8.26287 14.5727 8.50377 14.2728 8.50377 13.9728C8.50377 13.6729 8.38332 13.373 8.20264 13.073C8.02196 12.7731 7.6606 12.6531 7.29924 12.6531Z" fill="#333E50"/>
<path d="M4.40907 25.8509C4.58976 25.5509 4.58976 25.251 4.58976 24.951C4.4693 24.2911 4.40907 23.5113 4.40907 22.7914C4.40907 22.1915 4.40908 21.7116 4.52953 21.1117C4.64998 20.4518 4.10794 19.8519 3.5659 19.7319C2.9034 19.6119 2.30113 20.1518 2.18068 20.6918C2.06023 21.3516 2 22.0715 2 22.6714C2 23.5713 2.12045 24.4111 2.30113 25.311C2.42159 25.9109 2.9034 26.2708 3.50567 26.2708C3.62613 26.2708 3.68635 26.2708 3.68635 26.2708C3.92726 26.3308 4.22839 26.0908 4.40907 25.8509Z" fill="#333E50"/>
<path d="M5.97496 28.4304C5.79428 28.0105 5.37269 27.8305 5.01133 27.8305C4.83065 27.8305 4.58974 27.9505 4.40906 28.0105C4.10793 28.1904 3.92725 28.4304 3.92725 28.7903C3.92725 29.1503 3.92725 29.3902 4.10793 29.6902C4.64997 30.53 5.19201 31.3099 5.79428 31.8498L5.67383 31.9698L5.79428 31.8498C6.39655 31.4299 6.99882 31.0699 7.54086 30.65L7.66131 30.53L7.54086 30.4101C6.99882 29.9301 6.39655 29.2103 5.97496 28.4304Z" fill="#333E50"/>
<path d="M49.4588 56.7455C49.3384 56.7455 49.1577 56.7455 49.0372 56.8655C47.8327 57.3454 46.5679 57.5254 45.3032 57.5254C44.6407 57.5254 44.0986 58.0053 44.0986 58.7252C44.0986 59.4451 44.5804 59.925 45.3032 59.925C46.8691 59.925 48.435 59.6251 49.8202 59.1451C50.4225 58.9652 50.7236 58.2453 50.4827 57.5854C50.4827 57.1055 49.9406 56.7455 49.4588 56.7455Z" fill="#333E50"/>
<path d="M45.062 35.9891H46.6279C47.4109 36.1091 48.0734 36.289 48.8563 36.469C48.9768 36.469 49.1575 36.589 49.2779 36.589C49.7597 36.589 50.2415 36.289 50.362 35.8091C50.5427 35.2092 50.2415 34.5493 49.6995 34.3694C48.7961 34.0694 47.8325 33.8894 46.8688 33.7095H45.1223C44.4598 33.7095 43.9177 34.1894 43.9177 34.9093C43.9177 35.3892 44.4598 35.9891 45.062 35.9891Z" fill="#333E50"/>
<path d="M54.5779 41.2081C54.7586 41.6281 55.1802 41.808 55.5415 41.808C55.7222 41.808 55.9631 41.6881 56.1438 41.6281C56.4449 41.4481 56.6256 41.2082 56.7461 40.9682C56.8665 40.6682 56.7461 40.3683 56.6256 40.0683C55.8427 38.6886 54.879 37.5488 53.6745 36.529C53.4938 36.349 53.1927 36.229 52.8915 36.229C52.47 36.229 52.2291 36.409 51.9881 36.6489C51.7472 36.8889 51.687 37.2488 51.687 37.5488C51.687 37.8487 51.8677 38.1487 52.1086 38.3286C53.1325 39.1085 53.9154 40.0683 54.5779 41.2081Z" fill="#333E50"/>
<path d="M56.3249 51.5865C56.2045 51.4665 55.9033 51.4665 55.7227 51.4665C55.3011 51.4665 54.9397 51.6465 54.6386 52.0664C54.0363 53.1462 53.1931 54.106 52.2897 55.0059C51.8079 55.4258 51.6875 56.2057 52.1693 56.6856C52.35 56.9855 52.7715 57.1055 53.0727 57.1055C53.3738 57.1055 53.6749 56.9855 53.8556 56.8056C55.0602 55.8457 56.0238 54.586 56.8067 53.2662C56.9874 52.9662 56.9874 52.6663 56.9272 52.3663C56.8067 51.9464 56.6261 51.7664 56.3249 51.5865Z" fill="#333E50"/>
<path d="M58.1914 44.2677C58.0709 43.6678 57.5891 43.3079 56.9868 43.3079C56.8664 43.3079 56.8062 43.3079 56.8062 43.3079C56.505 43.4278 56.2039 43.4878 56.0232 43.7878C55.8425 44.0877 55.8425 44.3877 55.8425 44.6876C55.963 45.3475 56.0232 46.1274 56.0232 46.8473C56.0232 47.3272 56.0232 47.9271 55.9028 48.527C55.7823 48.8269 55.9028 49.1269 56.0834 49.4268C56.2641 49.7268 56.5653 49.8467 56.8664 49.9067C56.9868 49.9067 56.9868 49.9067 57.0471 49.9067C57.6493 49.9067 58.1312 49.4868 58.2516 48.9469C58.3721 48.287 58.4323 47.5671 58.4323 46.9072C58.4925 46.0074 58.3721 45.1076 58.1914 44.2677Z" fill="#333E50"/>
<path d="M32.7156 57.5255H28.4997C27.8372 57.5255 27.2952 58.0054 27.2952 58.7252C27.2952 59.4451 27.777 59.925 28.4997 59.925H32.7156C33.3781 59.925 33.9201 59.4451 33.9201 58.7252C33.9201 58.0054 33.4383 57.5255 32.7156 57.5255Z" fill="#333E50"/>
<path d="M41.1472 57.5255H36.9313C36.2688 57.5255 35.7268 58.0054 35.7268 58.7252C35.7268 59.4451 36.2086 59.925 36.9313 59.925H41.1472C41.8097 59.925 42.3518 59.4451 42.3518 58.7252C42.3518 58.0054 41.8699 57.5255 41.1472 57.5255Z" fill="#333E50"/>
<path d="M28.259 35.9891H32.4749C33.1374 35.9891 33.6794 35.5092 33.6794 34.7893C33.6794 34.0695 33.1976 33.5895 32.4749 33.5895H28.259C27.5965 33.5895 27.0544 34.0695 27.0544 34.7893C27.0544 35.5092 27.5363 35.9891 28.259 35.9891Z" fill="#333E50"/>
<path d="M36.6308 35.9891H40.8467C41.5092 35.9891 42.0512 35.5092 42.0512 34.7893C42.0512 34.4894 41.9308 34.1894 41.7501 33.8895C41.5694 33.7095 41.2683 33.4695 40.8467 33.4695H36.6308C35.9683 33.4695 35.4263 33.9495 35.4263 34.6693C35.4865 35.3892 35.9683 35.9891 36.6308 35.9891Z" fill="#333E50"/>
<path d="M47.2907 1.85492L41.5089 3.23468L38.1362 6.23417L36.751 10.3135V12.953L38.4976 16.6124L47.2907 28.3704L57.3486 13.9129V7.49395L51.1452 1.85492H47.2907Z" fill="#95CE5A"/>
<path d="M58.7938 9.23369C57.5893 3.11473 51.3257 -0.904577 44.8814 0.175238C39.2201 1.13507 35.1849 5.81427 35.0645 11.7533C35.0645 13.7329 35.8474 15.8326 37.2326 17.8122C40.1837 21.8315 43.1349 25.7309 46.1462 29.7502C46.628 30.4101 47.411 30.4101 47.8928 29.7502C50.8439 25.7309 53.795 21.8315 56.6859 17.8722C58.6734 15.2927 59.3961 12.3532 58.7938 9.23369ZM54.6984 16.3725C52.7109 19.012 50.7837 21.6516 48.7962 24.2911L47.0496 26.6307L44.8212 23.6312C42.9542 21.1716 41.2076 18.7721 39.3406 16.3125C38.2565 14.8727 37.6542 13.193 37.6542 11.8132C37.6542 7.25403 40.786 3.53466 45.303 2.7548C45.9053 2.63482 46.5076 2.63482 47.0496 2.63482C51.5666 2.63482 55.4814 5.6343 56.2643 9.77359C56.7461 12.1732 56.2643 14.3328 54.6984 16.3725Z" fill="#333E50"/>
<circle cx="15" cy="41" r="9" fill="white"/>
<path d="M17.8999 48.1671C13.2022 48.1671 9.40791 44.3877 9.40791 39.7085C9.40791 36.4691 11.2147 33.7095 13.8647 32.2698L8.50451 33.5296L5.1318 36.529L3.74658 40.6083V43.2479L5.43293 46.8473L14.2261 58.6653L22.4169 46.9073C21.0317 47.7471 19.526 48.1671 17.8999 48.1671Z" fill="#C3E2FC"/>
<path d="M25.4883 39.7685C24.2838 33.8295 18.3213 29.9302 12.0577 31.01C6.69755 31.9699 2.66235 36.4691 2.66235 42.2281C2.66235 44.0878 3.32485 46.2474 4.83052 48.1071C7.66118 51.8864 10.4918 55.7258 13.3225 59.5051C13.8043 60.165 14.5873 60.165 15.0691 59.5051C17.8998 55.7258 20.7304 51.8864 23.5611 48.1071C25.3679 45.6475 26.0906 42.768 25.4883 39.7685ZM21.4531 46.6073C19.4657 49.2469 17.6588 51.7665 15.6714 54.406L14.1055 56.5656L12.2987 53.9861C10.4316 51.5265 8.56459 49.0069 6.69755 46.5474C5.73392 45.1676 5.13165 43.6079 5.0112 42.1681C5.0112 37.7889 8.02255 34.1895 12.3589 33.4096C12.9611 33.2896 13.443 33.2296 14.0452 33.2296C18.4418 33.2296 22.1759 36.1691 22.9588 40.1285C23.4406 42.588 22.9588 44.6277 21.4531 46.6073Z" fill="#333E50"/>
<path d="M47.1701 13.9728C48.6004 13.9728 49.7598 12.8179 49.7598 11.3933C49.7598 9.96863 48.6004 8.81372 47.1701 8.81372C45.7398 8.81372 44.5803 9.96863 44.5803 11.3933C44.5803 12.8179 45.7398 13.9728 47.1701 13.9728Z" fill="white"/>
<path d="M47.1707 15.5927C44.8219 15.5927 42.9548 13.673 42.9548 11.3934C42.9548 9.05377 44.8821 7.19409 47.1707 7.19409C49.5196 7.19409 51.3866 9.11376 51.3866 11.3934C51.3866 13.733 49.5196 15.5927 47.1707 15.5927ZM47.1707 9.11376C45.906 9.11376 44.8821 10.1336 44.8821 11.3934C44.8821 12.6532 45.906 13.673 47.1707 13.673C48.4355 13.673 49.4593 12.6532 49.4593 11.3934C49.4593 10.1336 48.4355 9.11376 47.1707 9.11376Z" fill="#333E50"/>
</svg>
