<svg width="60" height="60" viewBox="0 0 60 60" fill="none" xmlns="http://www.w3.org/2000/svg">
<path d="M3.63806 21.42H15.6858C16.4015 21.42 16.9979 20.82 16.9979 20.1C16.9979 19.38 16.4015 18.78 15.6858 18.78H3.63806C2.92235 18.78 2.32593 19.38 2.32593 20.1C2.32593 20.82 2.92235 21.42 3.63806 21.42Z" fill="#333E50"/>
<path d="M1.31213 27.6H13.3599C14.0756 27.6 14.672 27 14.672 26.28C14.672 25.56 14.0756 24.96 13.3599 24.96H1.31213C0.596422 24.96 0 25.56 0 26.28C0 27 0.596422 27.6 1.31213 27.6Z" fill="#333E50"/>
<path d="M14.672 32.4C14.672 31.68 14.0756 31.08 13.3599 31.08H1.31213C0.596422 31.08 0 31.68 0 32.4C0 33.12 0.596422 33.72 1.31213 33.72H13.3599C14.0756 33.72 14.672 33.12 14.672 32.4Z" fill="#333E50"/>
<path d="M15.6858 37.26H3.63806C2.92235 37.26 2.32593 37.86 2.32593 38.58C2.32593 39.3 2.92235 39.9 3.63806 39.9H15.6858C16.4015 39.9 16.9979 39.3 16.9979 38.58C16.9979 37.86 16.4015 37.26 15.6858 37.26Z" fill="#333E50"/>
<path d="M37.157 31.44C37.4552 31.86 37.992 32.16 38.5288 32.16L48.3101 32.1C48.7276 32.1 49.1451 31.92 49.503 31.62C49.8012 31.32 49.9801 30.9 49.9801 30.42C49.9801 30 49.8012 29.58 49.503 29.22C49.2047 28.92 48.7873 28.74 48.3101 28.74L39.2445 28.8L34.5328 24.12C33.996 23.58 33.161 23.46 32.5049 23.88C32.3856 23.94 32.2664 24.06 32.1471 24.12C31.491 24.78 31.491 25.86 32.1471 26.46L37.157 31.44Z" fill="#C3E2FC"/>
<path d="M39.1253 10.2C27.9722 10.2 18.8469 19.32 18.8469 30.6C18.8469 41.82 27.9125 51 39.1253 51C50.2784 51 59.4036 41.88 59.4036 30.6C59.344 19.38 50.2784 10.2 39.1253 10.2ZM56.0637 30.6C56.0637 40.02 48.4891 47.64 39.1253 47.64C29.7614 47.64 22.1869 40.02 22.1869 30.6C22.1869 21.18 29.7614 13.56 39.1253 13.56C48.4295 13.56 56.0637 21.18 56.0637 30.6Z" fill="#C3E2FC"/>
<path d="M37.7535 30.24C38.0517 30.66 38.5885 30.96 39.1252 30.96L48.9065 30.9C49.324 30.9 49.7415 30.72 50.0994 30.42C50.3976 30.12 50.5765 29.7 50.5765 29.22C50.5765 28.8 50.3976 28.38 50.0994 28.02C49.8012 27.72 49.3837 27.54 48.9065 27.54L39.8409 27.6L35.1292 22.92C34.5924 22.38 33.7574 22.26 33.1014 22.68C32.9821 22.74 32.8628 22.86 32.7435 22.92C32.0874 23.58 32.0874 24.66 32.7435 25.26L37.7535 30.24Z" fill="#333E50"/>
<path d="M39.7217 9C28.5686 9 19.4434 18.12 19.4434 29.4C19.4434 40.62 28.509 49.8 39.7217 49.8C50.8748 49.8 60.0001 40.68 60.0001 29.4C60.0001 18.18 50.8748 9 39.7217 9ZM56.6601 29.4C56.6601 38.82 49.0855 46.44 39.7217 46.44C30.3579 46.44 22.7833 38.82 22.7833 29.4C22.7833 19.98 30.3579 12.36 39.7217 12.36C49.0259 12.36 56.6601 19.98 56.6601 29.4Z" fill="#333E50"/>
<path d="M30.1792 21.84C30.871 21.84 31.4317 21.2759 31.4317 20.58C31.4317 19.8841 30.871 19.32 30.1792 19.32C29.4875 19.32 28.9268 19.8841 28.9268 20.58C28.9268 21.2759 29.4875 21.84 30.1792 21.84Z" fill="#95CE5A"/>
<path d="M30.1793 19.7999C30.5968 19.7999 30.9546 20.1599 30.9546 20.5799C30.9546 20.9999 30.5968 21.3599 30.1793 21.3599C29.7618 21.3599 29.4039 20.9999 29.4039 20.5799C29.4039 20.1599 29.7618 19.7999 30.1793 19.7999ZM30.1793 18.8999C29.225 18.8999 28.5093 19.6799 28.5093 20.5799C28.5093 21.5399 29.2846 22.2599 30.1793 22.2599C31.0739 22.2599 31.8492 21.4799 31.8492 20.5799C31.9089 19.6199 31.1335 18.8999 30.1793 18.8999Z" fill="#333E50"/>
<path d="M53.2608 30.5999C53.9525 30.5999 54.5133 30.0358 54.5133 29.3399C54.5133 28.644 53.9525 28.0799 53.2608 28.0799C52.5691 28.0799 52.0083 28.644 52.0083 29.3399C52.0083 30.0358 52.5691 30.5999 53.2608 30.5999Z" fill="#95CE5A"/>
<path d="M53.2608 28.5599C53.6783 28.5599 54.0362 28.9199 54.0362 29.3399C54.0362 29.7599 53.6783 30.1199 53.2608 30.1199C52.8433 30.1199 52.4855 29.7599 52.4855 29.3399C52.4855 28.9199 52.8433 28.5599 53.2608 28.5599ZM53.2608 27.6599C52.3065 27.6599 51.5908 28.4399 51.5908 29.3399C51.5908 30.2999 52.3662 31.0199 53.2608 31.0199C54.1554 31.0199 54.9308 30.2399 54.9308 29.3399C54.9904 28.4399 54.2151 27.6599 53.2608 27.6599Z" fill="#333E50"/>
</svg>
