<svg width="60" height="60" viewBox="0 0 60 60" fill="none" xmlns="http://www.w3.org/2000/svg">
<path d="M21.4201 32.0607C29.4393 32.0607 35.9402 25.5889 35.9402 17.6055C35.9402 9.62214 29.4393 3.15033 21.4201 3.15033C13.401 3.15033 6.90015 9.62214 6.90015 17.6055C6.90015 25.5889 13.401 32.0607 21.4201 32.0607Z" fill="#95CE5A"/>
<path d="M19.5601 17.6056C19.8001 17.964 20.2201 18.1432 20.6401 18.1432L28.3801 18.0834C28.6801 18.0834 29.0401 17.964 29.3401 17.725C29.5801 17.4861 29.7001 17.1874 29.7001 16.7693C29.7001 16.4706 29.5801 16.1123 29.3401 15.8136C29.1001 15.5747 28.8001 15.4552 28.3801 15.4552L21.2401 15.5149L17.5201 11.8713C17.1001 11.4531 16.4401 11.3337 15.9001 11.6921C15.7801 11.7518 15.7201 11.8115 15.6001 11.8713C15.0601 12.4089 15.0601 13.2451 15.6001 13.723L19.5601 17.6056Z" fill="#333E50"/>
<path d="M21.1201 1C12.3001 1 5.1001 8.10813 5.1001 16.9485C5.1001 25.7291 12.2401 32.897 21.1201 32.897C29.9401 32.897 37.1401 25.7889 37.1401 16.9485C37.1401 8.16787 29.9401 1 21.1201 1ZM34.5001 16.9485C34.5001 24.2956 28.5001 30.2688 21.1201 30.2688C13.7401 30.2688 7.7401 24.2956 7.7401 16.9485C7.7401 9.60144 13.7401 3.62822 21.1201 3.62822C28.5001 3.62822 34.5001 9.54171 34.5001 16.9485Z" fill="#333E50"/>
<path d="M47.6251 58.0742L58.1851 58.0742L58.1851 36.0928L47.6251 36.0928L47.6251 58.0742Z" fill="#C3E2FC"/>
<path d="M16.4399 45.4408C16.5599 46.6354 16.7999 49.2039 20.0399 49.2637C22.7399 49.3831 31.3799 48.7858 31.4399 49.2637C31.4999 49.6818 32.5199 49.7415 32.5199 49.7415H34.9799L33.4199 48.069L30.7199 46.277L24.1199 46.1576L16.4399 45.4408Z" fill="#C3E2FC"/>
<path d="M54.7799 48.6067C55.3799 48.6067 55.8599 49.0845 55.8599 49.6818V54.2215C55.8599 54.8188 55.3799 55.2967 54.7799 55.2967C54.1799 55.2967 53.6999 54.8188 53.6999 54.2215V49.6818C53.6399 49.0845 54.1199 48.6067 54.7799 48.6067Z" fill="#333E50"/>
<path d="M48.6 34.3306C48.3 34.3306 47.94 34.3904 47.64 34.5098C46.98 34.8682 46.5 35.4655 46.44 36.1823H40.02L30.66 39.8857H20.82C19.98 39.8857 19.14 40.0649 18.42 40.5428C17.28 41.3193 16.68 42.5139 16.68 43.8281C16.68 44.0072 16.68 44.2462 16.74 44.4851H16.32C1.2 36.9588 4.8 38.8105 1.74 40.3038C0.72 40.7817 0 41.7972 0 42.8723C0 44.1267 0.48 45.2019 1.5 45.7992C4.26 47.6509 4.26 47.6509 21.9 58.7014L22.2 58.8806H26.4L43.2 53.4449H46.44V56.8497C46.44 57.1483 46.5 57.447 46.62 57.7457C46.98 58.5819 47.76 59 48.6 59H60V34.3306H48.6ZM48.84 56.551V36.8394H57.54V56.551H48.84ZM22.92 56.551C5.58 45.62 5.58 45.62 2.82 43.8281C2.52 43.6489 2.4 43.4099 2.4 42.9918C2.4 41.7374 3.24 41.4388 3.96 41.4388C4.68 41.4985 9.48 43.8281 15.48 46.8744L15.72 46.9939H18.12C18.84 47.5912 19.74 47.8898 20.64 47.8898H30.84C31.26 47.8898 31.62 48.069 31.92 48.3677C32.22 48.6664 32.4 49.0248 32.4 49.4429V49.7415H34.86V49.5623C34.86 48.7261 34.68 47.8898 34.2 47.1731C33.42 46.0381 32.22 45.4408 30.9 45.4408H20.7C20.28 45.4408 19.92 45.2616 19.62 44.963C19.32 44.6643 19.14 44.3059 19.14 43.8878C19.14 43.4697 19.32 43.1113 19.62 42.8126C19.92 42.5139 20.28 42.3347 20.7 42.3347H31.08L40.44 38.6313H46.38V50.9959H42.84L26.1 56.551H22.92Z" fill="#333E50"/>
</svg>
