<svg width="60" height="60" viewBox="0 0 60 60" fill="none" xmlns="http://www.w3.org/2000/svg">
<g clip-path="url(#clip0)">
<path d="M29.9999 46.5C34.606 46.5 38.3399 42.7661 38.3399 38.16C38.3399 33.554 34.606 29.82 29.9999 29.82C25.3939 29.82 21.6599 33.554 21.6599 38.16C21.6599 42.7661 25.3939 46.5 29.9999 46.5Z" fill="#95CE5A"/>
<path d="M1.37988 25.62V33.78L6.95988 31.86L11.0999 25.08L7.43988 23.7L1.37988 25.62Z" fill="#C3E2FC"/>
<path d="M2.15996 52.38H11.1L9.11996 46.68L2.33996 42.54L0.959961 46.2L2.15996 52.38Z" fill="#C3E2FC"/>
<path d="M58.3201 49.74L58.9201 42.36L53.3401 44.28L49.1401 51.18L50.2201 53.16L55.5601 52.62C57.0001 52.44 58.2001 51.24 58.3201 49.74Z" fill="#C3E2FC"/>
<path d="M57.3001 23.88H49.1401L51.1201 29.46L57.9601 33.6L59.2201 29.94L57.3001 23.88Z" fill="#C3E2FC"/>
<path d="M52.4999 38.16C52.4999 37.62 51.8999 37.2 51.4199 37.2H44.5199C43.9199 37.2 43.4399 37.74 43.4399 38.16C43.4399 38.7 43.9199 39.1199 44.5199 39.1199C46.8599 39.2399 49.1999 39.24 51.5399 39.24C52.0799 39.24 52.4999 38.64 52.4999 38.16Z" fill="#333E50"/>
<path d="M55.56 6.23999H32.76C32.16 6.23999 31.68 6.77999 31.68 7.19999C31.68 7.73999 32.16 8.15999 32.76 8.15999H55.56C57 8.15999 58.02 9.23999 58.02 10.62V14.58V15.12L57.54 14.88C56.82 14.58 56.22 14.4 55.56 14.4H4.44C3.78 14.4 3.18 14.52 2.46 14.88L1.98 15.12V14.58V10.62C1.98 9.17999 3.06 8.15999 4.44 8.15999H27.24C27.84 8.15999 28.32 7.61999 28.32 7.19999C28.32 6.65999 27.84 6.23999 27.24 6.23999H4.44C1.98 6.23999 0 8.21999 0 10.68V18.96V19.08V27.24V27.36V49.38C0 51.84 1.98 53.82 4.44 53.82H55.56C58.02 53.82 60 51.84 60 49.38V27.24V18.96V10.68C60 8.21999 58.02 6.23999 55.56 6.23999ZM1.98 22.8V18.84C1.98 17.4 3.06 16.38 4.44 16.38H55.56C57 16.38 58.02 17.46 58.02 18.84V18.96V22.8V23.34L57.54 23.1C56.82 22.8 56.22 22.62 55.56 22.62H4.44C3.78 22.62 3.18 22.74 2.46 23.1L1.98 23.34V22.8ZM9.66 24.72L9.6 25.14C9.18 28.98 6.24 31.98 2.46 32.4H2.04V31.98L1.92 27.18C1.92 25.74 3 24.72 4.38 24.72H9.18H9.66ZM9.24 51.78H4.44C3 51.78 1.98 50.7 1.98 49.32V44.52V44.1L2.4 44.16C6.18 44.46 9.24 47.52 9.66 51.42L9.72 51.84H9.24V51.78ZM57.96 44.52V49.32C58.02 49.92 57.78 50.52 57.36 51C56.88 51.48 56.28 51.78 55.56 51.78H50.76H50.34L50.4 51.36C50.7 47.58 53.7 44.52 57.54 44.1L57.96 44.04V44.52ZM57.96 34.8V41.82V42.18H57.6C52.68 42.48 48.72 46.44 48.36 51.48V51.84H48H12.06H11.7V51.48C11.34 46.5 7.32 42.48 2.46 42.18H2.1V41.82V34.8V34.44H2.46C7.44 34.08 11.46 30.06 11.76 25.2V24.84H12.12H48.06H48.42V25.2C48.78 30.18 52.8 34.2 57.66 34.5H58.02V34.8H57.96ZM58.14 27.42V32.04V32.4H57.78H57.66C53.82 32.1 50.82 29.1 50.52 25.26L50.46 24.84H50.88H55.68C57.12 24.84 58.14 25.92 58.14 27.3V27.42Z" fill="#333E50"/>
<path d="M8.58 39.1199C10.92 39.2399 13.26 39.24 15.6 39.24C16.14 39.24 16.56 38.64 16.56 38.16C16.56 37.62 15.96 37.2 15.48 37.2H8.58C7.98 37.2 7.5 37.74 7.5 38.16C7.5 38.7 7.98 39.1199 8.58 39.1199Z" fill="#333E50"/>
<path d="M30 28.26C24.48 28.26 19.98 32.76 19.98 38.28C19.98 43.68 24.54 48.3 30 48.3C35.52 48.3 40.02 43.8 40.02 38.28C40.02 32.76 35.52 28.26 30 28.26ZM30 46.2C25.56 46.2 22.02 42.72 22.02 38.22C22.02 33.72 25.56 30.3 30 30.3C34.44 30.3 37.98 33.78 37.98 38.28C37.98 42.78 34.44 46.2 30 46.2Z" fill="#333E50"/>
</g>
<defs>
<clipPath id="clip0">
<rect width="60" height="60" fill="white"/>
</clipPath>
</defs>
</svg>
