<svg width="60" height="60" viewBox="0 0 60 60" fill="none" xmlns="http://www.w3.org/2000/svg">
<path d="M6.72119 4.50004V54.18L8.04344 57.78L11.0486 59.4H46.6291L50.055 58.08L52.1585 55.08V14.4L38.1547 0.480042H10.9284C10.9284 0.480042 6.9616 4.26004 6.72119 4.50004Z" fill="white"/>
<path d="M52.0986 16.68H41.5206C38.6958 16.68 36.4119 14.4 36.4119 11.58V0.840027L38.4553 1.02003L38.6357 9.84003L40.619 13.74L51.8582 14.4L52.0986 16.68Z" fill="#C3E2FC"/>
<path d="M52.0984 52.44H7.44238V55.08H52.0984V52.44Z" fill="#C3E2FC"/>
<path d="M16.7583 47.64V29.28L29.4399 20.04L42.0013 29.52V48.12L34.0678 48.42L34.188 36L24.6918 35.82L24.5716 48.42L16.7583 47.64Z" fill="#95CE5A"/>
<path d="M52.8798 14.28C52.8798 14.22 52.8798 14.1 52.8197 14.04C52.8197 13.98 52.8197 13.98 52.7596 13.98C52.6995 13.86 52.6394 13.8 52.5793 13.68L39.1765 0.3C39.1164 0.24 38.9962 0.18 38.876 0.12C38.876 0.12 38.8159 0.12 38.8159 0.06C38.7558 0.06 38.6355 0 38.5754 0H38.5153H11.5895C8.46419 0 6 2.52 6 5.64V52.56V54.36C6 57.48 8.5243 60 11.6496 60H47.3504C50.4757 60 53 57.48 53 54.36L52.8798 14.28C52.8798 14.34 52.8798 14.34 52.8798 14.28ZM39.477 3.24L49.6944 13.44H43.2634C41.2199 13.44 39.477 11.76 39.477 9.66V3.24ZM51.0166 51.66H44.2852C43.7442 51.66 43.3235 52.08 43.3235 52.62C43.3235 53.1 43.7442 53.58 44.2852 53.58H51.0166V54.42C51.0166 56.46 49.3338 58.2 47.2302 58.2H11.5895C9.54604 58.2 7.80307 56.52 7.80307 54.42V53.58H39.6573C40.1982 53.58 40.6189 53.16 40.6189 52.62C40.6189 52.14 40.1982 51.66 39.6573 51.66H7.80307V5.64C7.80307 3.6 9.48593 1.86 11.5895 1.86H37.6138V9.66C37.6138 12.78 40.1381 15.3 43.2634 15.3H51.0767L51.0166 51.66Z" fill="#333E50"/>
<path d="M29.9809 19.02C29.6203 18.78 29.1996 18.78 28.839 19.02L16.2776 28.56C16.0372 28.74 15.917 28.98 15.917 29.28V48.12C15.917 48.66 16.3377 49.08 16.8786 49.08H24.6318H34.2482H42.0014C42.5423 49.08 42.963 48.66 42.963 48.12V29.34C42.963 29.04 42.8428 28.8 42.6024 28.62L29.9809 19.02ZM25.5935 47.22L25.6536 36.66H33.3467L33.4068 47.22H25.5935ZM41.0398 47.22H35.1497V36.72C35.1497 35.64 34.3083 34.8 33.2265 34.8H25.5935C24.5116 34.8 23.6702 35.64 23.6702 36.72V47.22H17.7802V29.82L29.44 21L41.0398 29.82V47.22Z" fill="#333E50"/>
<path d="M17.1189 8.33998H26.9155C27.4565 8.33998 27.8772 7.91998 27.8772 7.37998C27.8772 6.89998 27.4565 6.41998 26.9155 6.41998H17.1189C16.5779 6.41998 16.1572 6.83998 16.1572 7.37998C16.1572 7.91998 16.5779 8.33998 17.1189 8.33998Z" fill="#333E50"/>
<path d="M17.1189 13.98H26.9155C27.4565 13.98 27.8772 13.56 27.8772 13.02C27.8772 12.48 27.4565 12.06 26.9155 12.06H17.1189C16.5779 12.06 16.1572 12.48 16.1572 13.02C16.1572 13.56 16.5779 13.98 17.1189 13.98Z" fill="#333E50"/>
</svg>
