<svg width="60" height="60" viewBox="0 0 60 60" fill="none" xmlns="http://www.w3.org/2000/svg">
<path d="M11 4H57V52C57 54.7614 54.7614 57 52 57H11V4Z" fill="white"/>
<path d="M3 26H12V52.5C12 54.9853 9.98528 57 7.5 57C5.01472 57 3 54.9853 3 52.5V26Z" fill="white"/>
<path d="M49.7479 37H35.7479V49.9756H49.7479V37Z" fill="#95CE5A"/>
<path d="M11.7316 26.3008H7.2926V56.3496H11.7316V26.3008Z" fill="#C3E2FC"/>
<path d="M56.8049 2H11.3333C10.6504 2 10.1382 2.56911 10.1382 3.19512V24.0813V24.5366H9.68293H3.19512C2.5122 24.5366 2 25.1057 2 25.7317V52.7642C2 55.6667 4.39024 58 7.29268 58H51.2846C55.0407 58 58.0569 54.9837 58.0569 51.2276V3.19512C58 2.56911 57.4309 2 56.8049 2ZM10.0813 27.439V49.065V52.7642C10.0813 54.3008 8.82927 55.6098 7.23577 55.6098C5.64228 55.6098 4.39024 54.3577 4.39024 52.7642V27.439V26.9837H4.84553H9.62602H10.0813V27.439ZM55.5529 4.90244V51.2846C55.5529 53.6748 53.6179 55.6098 51.2277 55.6098H12.4715H11.7886L12.0732 54.9837C12.4146 54.3008 12.5285 53.561 12.5285 52.8211V49.1789V25.8455V4.90244V4.44715H12.9837H55.0976H55.5529V4.90244Z" fill="#333E50"/>
<path d="M50.1464 28.7479H17.9919C17.3089 28.7479 16.7968 29.317 16.7968 29.943C16.7968 30.5691 17.3659 31.1382 17.9919 31.1382H50.1464C50.8293 31.1382 51.3415 30.5691 51.3415 29.943C51.3415 29.317 50.7724 28.7479 50.1464 28.7479Z" fill="#333E50"/>
<path d="M17.9919 24.5366H50.1464C50.8293 24.5366 51.3415 23.9675 51.3415 23.3415C51.3415 22.7155 50.7724 22.1464 50.1464 22.1464H17.9919C17.3089 22.1464 16.7968 22.7155 16.7968 23.3415C16.7968 23.9675 17.3089 24.5366 17.9919 24.5366Z" fill="#333E50"/>
<path d="M17.9919 37.8537H28.8618C29.5447 37.8537 30.0569 37.2846 30.0569 36.6586C30.0569 36.0326 29.4878 35.4635 28.8618 35.4635H17.9919C17.3089 35.4635 16.7968 36.0326 16.7968 36.6586C16.7968 37.2846 17.3089 37.8537 17.9919 37.8537Z" fill="#333E50"/>
<path d="M28.8618 42.0651H17.9919C17.3089 42.0651 16.7968 42.6342 16.7968 43.2602C16.7968 43.8862 17.3659 44.4553 17.9919 44.4553H28.8618C29.5447 44.4553 30.0569 43.8862 30.0569 43.2602C30.0569 42.6342 29.4878 42.0651 28.8618 42.0651Z" fill="#333E50"/>
<path d="M17.9919 51.1708H28.8618C29.5447 51.1708 30.0569 50.6017 30.0569 49.9756C30.0569 49.3496 29.4878 48.7805 28.8618 48.7805H17.9919C17.3089 48.7805 16.7968 49.3496 16.7968 49.9756C16.7968 50.6017 17.3089 51.1708 17.9919 51.1708Z" fill="#333E50"/>
<path d="M21.122 10.4228C21.0082 10.2521 20.8375 10.1952 20.6667 10.1952C20.496 10.1952 20.3253 10.2521 20.2115 10.4228C20.0976 10.5936 20.0407 10.7643 20.0407 10.9919V12.87H18.4472V10.9919C18.4472 10.7643 18.3903 10.5936 18.2765 10.4228C18.1627 10.2521 17.9919 10.1952 17.8212 10.1952C17.6505 10.1952 17.4797 10.2521 17.3659 10.4228C17.2521 10.5936 17.1952 10.7643 17.1952 10.9919V16.3415C17.1952 16.5692 17.2521 16.7399 17.3659 16.9106C17.4797 17.0814 17.6505 17.1383 17.8212 17.1383C17.9919 17.1383 18.1627 17.0814 18.2765 16.9106C18.3903 16.7399 18.4472 16.5692 18.4472 16.3415V14.4635H20.0407V16.3415C20.0407 16.5692 20.0976 16.7399 20.2115 16.9106C20.3253 17.0814 20.496 17.1383 20.6667 17.1383C20.8375 17.1383 21.0082 17.0814 21.122 16.9106C21.2358 16.7399 21.2928 16.5692 21.2928 16.3415V10.9919C21.2928 10.7074 21.2358 10.5367 21.122 10.4228Z" fill="#333E50"/>
<path d="M26.5285 11.1626C25.9594 10.4796 25.2764 10.1382 24.4797 10.1382C23.6829 10.1382 23 10.4796 22.4309 11.1626C21.8618 11.8455 21.6342 12.6422 21.6342 13.6097C21.6342 14.5772 21.9187 15.374 22.4309 16.0569C23 16.7398 23.6829 17.0813 24.4797 17.0813C25.2764 17.0813 25.9594 16.7398 26.5285 16.0569C27.0976 15.374 27.3252 14.5772 27.3252 13.6097C27.3252 12.6422 27.0407 11.8455 26.5285 11.1626ZM26.0163 13.6097C26.0163 14.1219 25.8455 14.5772 25.561 14.9756C25.2764 15.317 24.935 15.5447 24.4797 15.5447C24.0813 15.5447 23.6829 15.374 23.3984 14.9756C23.1138 14.6341 22.9431 14.1788 22.9431 13.6097C22.9431 13.0406 23.1138 12.6422 23.3984 12.2439C23.6829 11.9024 24.0244 11.6748 24.4797 11.6748C24.8781 11.6748 25.2764 11.8455 25.561 12.2439C25.8455 12.6422 26.0163 13.0975 26.0163 13.6097Z" fill="#333E50"/>
<path d="M30.9105 13.2115C31.0812 12.87 31.195 12.5285 31.195 12.1302C31.195 11.618 31.0243 11.1058 30.7397 10.7643C30.3983 10.3659 30.0568 10.1952 29.6015 10.1952H28.4064C28.2357 10.1952 28.065 10.2521 27.9511 10.4228C27.8373 10.5936 27.7804 10.7643 27.7804 10.935V16.2846C27.7804 16.5123 27.8373 16.683 27.9511 16.7968C28.065 16.9675 28.2357 17.0245 28.4064 17.0245H29.6015C30.1137 17.0245 30.569 16.7968 30.9674 16.3415C31.3089 15.8862 31.4796 15.3741 31.4796 14.748C31.4227 14.1789 31.2519 13.6667 30.9105 13.2115ZM30.1137 14.8049C30.1137 15.0326 30.0568 15.2033 29.943 15.3171C29.8292 15.431 29.7154 15.4879 29.5446 15.4879H28.9755V14.0651H29.5446C29.7154 14.0651 29.8292 14.122 29.943 14.2358C30.0568 14.4066 30.1137 14.5773 30.1137 14.8049ZM29.7723 12.4147C29.7154 12.4716 29.6584 12.5285 29.5446 12.5285H28.9755V11.7318H29.5446C29.6015 11.7318 29.7154 11.7887 29.7723 11.8456C29.8292 11.9025 29.8861 12.0163 29.8861 12.1302C29.8861 12.244 29.8292 12.3578 29.7723 12.4147Z" fill="#333E50"/>
<path d="M36.3739 11.1626C35.8048 10.4796 35.1219 10.1382 34.3251 10.1382C33.5284 10.1382 32.8455 10.4796 32.2764 11.1626C31.7073 11.8455 31.4796 12.6422 31.4796 13.6097C31.4796 14.5772 31.7642 15.374 32.2764 16.0569C32.8455 16.7398 33.5284 17.0813 34.3251 17.0813C35.1219 17.0813 35.8048 16.7398 36.3739 16.0569C36.943 15.374 37.1707 14.5772 37.1707 13.6097C37.1707 12.6422 36.8861 11.8455 36.3739 11.1626ZM35.8617 13.6097C35.8617 14.1219 35.691 14.5772 35.4064 14.9756C35.1219 15.317 34.7804 15.5447 34.3251 15.5447C33.8699 15.5447 33.5284 15.374 33.2438 14.9756C32.9593 14.6341 32.7886 14.1788 32.7886 13.6097C32.7886 13.0406 32.9593 12.6422 33.2438 12.2439C33.5284 11.9024 33.8699 11.6748 34.3251 11.6748C34.7235 11.6748 35.1219 11.8455 35.4064 12.2439C35.691 12.6422 35.8617 13.0975 35.8617 13.6097Z" fill="#333E50"/>
<path d="M41.1545 14.9756C41.0976 15.0894 41.0407 15.1463 40.9838 15.1463C40.6992 15.4309 40.4147 15.5447 40.0732 15.5447C39.6748 15.5447 39.2764 15.374 38.9919 14.9756C38.7073 14.6341 38.5366 14.1788 38.5366 13.6097C38.5366 13.0406 38.7073 12.6422 38.9919 12.2439C39.2764 11.9024 39.6179 11.6748 40.0732 11.6748C40.4147 11.6748 40.6992 11.7886 40.9838 12.0731C41.0407 12.1301 41.0976 12.187 41.1545 12.2439C41.496 12.5853 41.8374 12.5284 42.122 12.2439C42.2358 12.0731 42.2927 11.9024 42.2927 11.6748C42.2927 11.4471 42.122 11.1626 41.8374 10.878C41.3252 10.3658 40.6992 10.1382 40.0732 10.1382C39.2764 10.1382 38.5935 10.4796 38.0244 11.1626C37.4553 11.8455 37.2277 12.6422 37.2277 13.6097C37.2277 14.5772 37.5122 15.374 38.0244 16.0569C38.5935 16.7398 39.2764 17.0813 40.0732 17.0813C40.7561 17.0813 41.3252 16.8536 41.8374 16.3414C42.122 16.0569 42.2927 15.7723 42.2927 15.5447C42.2927 15.317 42.2358 15.1463 42.122 14.9756C41.8374 14.6341 41.496 14.6341 41.1545 14.9756Z" fill="#333E50"/>
<path d="M46.3902 10.4228C46.2764 10.2521 46.1057 10.1952 45.9349 10.1952H43.0325C42.8618 10.1952 42.691 10.2521 42.5772 10.4228C42.4634 10.5936 42.4065 10.7643 42.4065 10.9919C42.4065 11.2196 42.4634 11.3903 42.5772 11.561C42.691 11.7318 42.8618 11.7887 43.0325 11.7887H43.8293V16.3415C43.8293 16.5692 43.8862 16.7399 44 16.9106C44.1138 17.0814 44.2845 17.1383 44.4553 17.1383C44.626 17.1383 44.7967 17.0814 44.9106 16.9106C45.0244 16.7399 45.0813 16.5692 45.0813 16.3415V11.7887H45.878C46.0488 11.7887 46.2195 11.7318 46.3333 11.561C46.4471 11.3903 46.5041 11.2196 46.5041 10.9919C46.561 10.7074 46.5041 10.5367 46.3902 10.4228Z" fill="#333E50"/>
<path d="M51.2845 10.4227C51.1707 10.252 51 10.1951 50.7723 10.1951C50.5447 10.1951 50.3739 10.3089 50.2032 10.5935L48.0406 13.9512V10.9349C48.0406 10.7073 47.9837 10.5366 47.8699 10.3658C47.7561 10.1951 47.5853 10.1382 47.4146 10.1382C47.2439 10.1382 47.0731 10.1951 46.9593 10.3658C46.8455 10.5366 46.7886 10.7073 46.7886 10.9349V16.1707C46.7886 16.2276 46.7886 16.2276 46.7886 16.2276C46.7886 16.4553 46.8455 16.626 46.9593 16.7967C47.2439 17.1382 47.6991 17.1382 48.0406 16.626L50.2032 13.2683V16.2845C50.2032 16.5122 50.2601 16.6829 50.3739 16.8536C50.4878 17.0244 50.6585 17.0813 50.8292 17.0813C51 17.0813 51.1707 17.0244 51.2845 16.8536C51.3983 16.6829 51.4552 16.5122 51.4552 16.2845V10.9918C51.4552 10.7642 51.3983 10.5366 51.2845 10.4227Z" fill="#333E50"/>
<path d="M35.5203 51.1708H50.1463C50.8293 51.1708 51.3415 50.6017 51.3415 49.9757V36.6586C51.3415 35.9757 50.7724 35.4635 50.1463 35.4635H35.5203C34.8374 35.4635 34.3252 36.0326 34.3252 36.6586V49.9757C34.3252 50.6586 34.8374 51.1708 35.5203 51.1708ZM36.7154 48.2684V38.309V37.8537H37.1707H48.439H48.8943V38.309V48.2684V48.7237H48.439H37.1707H36.7154V48.2684Z" fill="#333E50"/>
</svg>
