<svg width="60" height="60" viewBox="0 0 60 60" fill="none" xmlns="http://www.w3.org/2000/svg">
<path d="M17.4999 5.79999H16.7999C15.6999 5.79999 14.8999 6.69999 14.8999 7.69999V50.6C14.8999 51.7 15.7999 52.5 16.7999 52.5H44.7999C45.8999 52.5 46.6999 51.6 46.6999 50.6V46.4C46.6999 46 46.5999 45.6 46.2999 45.3L19.0999 6.59999C18.6999 6.09999 18.0999 5.79999 17.4999 5.79999Z" fill="#C3E2FC"/>
<path d="M13.9 9.40002H13.2C12.1 9.40002 11.3 10.3 11.3 11.3V54.2C11.3 55.3 12.2 56.1 13.2 56.1H41.2001C42.3001 56.1 43.1 55.2 43.1 54.2V50C43.1 49.6 43 49.2 42.7001 48.9L15.5 10.3C15.1 9.70002 14.5 9.40002 13.9 9.40002Z" fill="#C3E2FC"/>
<path d="M51.2 48.9H18.5V2.60004H40.6L51.2 15.1V48.9Z" fill="white"/>
<path d="M37.5 2.1V13.8C37.5 15.8 39.1 17.4 41.1 17.4H51.6L51.5 14.8L41.1 2L37.5 2.1Z" fill="#C3E2FC"/>
<path d="M40.3999 3.20001V14.1H50.9999L40.3999 3.20001Z" fill="white"/>
<path d="M13.8 8.40001C13.8 6.40001 15.4 4.80001 17.4 4.80001C17.4 2.80001 19 1.20001 21 1.20001H41L52 13.9V46.7C52 48.7 50.4 50.3 48.4 50.3C48.4 52.3 46.8 53.9 44.8 53.9C44.8 55.9 43.2 57.5 41.2 57.5H13.8C11.8 57.5 10.2 55.9 10.2 53.8V12.1C10.1 10 11.8 8.40001 13.8 8.40001ZM13.8 10.2C12.8 10.2 12 11 12 12V53.9C12 54.9 12.8 55.7 13.8 55.7H41.1C42.1 55.7 42.9 54.9 42.9 53.9H17.4C15.4 53.9 13.8 52.3 13.8 50.2V10.2ZM17.4 6.60001C16.4 6.60001 15.6 7.40001 15.6 8.40001V50.3C15.6 51.3 16.4 52.1 17.4 52.1H44.7C45.7 52.1 46.5 51.3 46.5 50.3H21.1C19.1 50.3 17.5 48.7 17.5 46.6V6.60001H17.4ZM39.2 3.00001H21.1C20.1 3.00001 19.3 3.80001 19.3 4.80001V46.7C19.3 47.7 20.1 48.5 21.1 48.5H48.4C49.4 48.5 50.2 47.7 50.2 46.7V15.7H42.9C40.9 15.7 39.3 14.1 39.3 12.1L39.2 3.00001ZM41.1 3.90001V12C41.1 13 41.9 13.8 42.9 13.8H49.6L41.1 3.90001Z" fill="#333E50"/>
<path d="M45.8001 24.6H24.6001C24.0001 24.6 23.6001 25.1 23.6001 25.6C23.6001 26.1 24.1001 26.6 24.6001 26.6H45.8001C46.4001 26.6 46.8001 26.1 46.8001 25.6C46.8001 25.1 46.4001 24.6 45.8001 24.6Z" fill="#333E50"/>
<path d="M45.8001 29H24.6001C24.0001 29 23.6001 29.5 23.6001 30C23.6001 30.5 24.1001 31 24.6001 31H45.8001C46.4001 31 46.8001 30.5 46.8001 30C46.8001 29.5 46.4001 29 45.8001 29Z" fill="#333E50"/>
<path d="M45.8001 33.3H24.6001C24.0001 33.3 23.6001 33.8 23.6001 34.3C23.6001 34.9 24.1001 35.3 24.6001 35.3H45.8001C46.4001 35.3 46.8001 34.8 46.8001 34.3C46.8001 33.8 46.4001 33.3 45.8001 33.3Z" fill="#333E50"/>
<path d="M45.8001 37.7H24.6001C24.0001 37.7 23.6001 38.2 23.6001 38.7C23.6001 39.3 24.1001 39.7 24.6001 39.7H45.8001C46.4001 39.7 46.8001 39.2 46.8001 38.7C46.8001 38.1 46.4001 37.7 45.8001 37.7Z" fill="#333E50"/>
<path d="M8.99987 56.2L49.1999 2.49998C49.5999 1.99998 50.2999 1.89998 50.7999 2.29998C50.9999 2.39998 51.0999 2.69998 51.1999 2.99998C51.1999 3.29998 51.1999 3.59998 50.9999 3.79998L10.7999 57.5C10.5999 57.7 10.3999 57.9 10.0999 57.9C9.79987 58 9.49987 57.9 9.19987 57.7C8.79987 57.4 8.69987 56.7 8.99987 56.2Z" fill="#333E50"/>
<path d="M50.0999 2C50.2999 2 50.5999 2.1 50.7999 2.2C50.9999 2.4 51.0999 2.7 51.1999 3C51.1999 3.3 51.1999 3.6 50.9999 3.8L10.7999 57.5C10.5999 57.7 10.3999 57.9 10.0999 57.9C9.9999 57.9 9.8999 57.9 9.8999 57.9C9.6999 57.9 9.3999 57.8 9.1999 57.7C8.6999 57.3 8.5999 56.6 8.9999 56.1L49.1999 2.5C49.3999 2.2 49.6999 2 50.0999 2ZM50.0999 0C49.0999 0 48.1999 0.5 47.5999 1.3L7.3999 55C6.3999 56.4 6.5999 58.4 7.9999 59.4C8.5999 59.8 9.1999 60 9.8999 60C10.0999 60 10.2999 60 10.4999 59.9C11.2999 59.7 11.8999 59.3 12.3999 58.7L52.5999 5C53.0999 4.3 53.2999 3.5 53.1999 2.7C53.0999 1.9 52.5999 1.1 51.9999 0.6C51.3999 0.2 50.6999 0 50.0999 0Z" fill="white"/>
</svg>
