<svg width="60" height="60" viewBox="0 0 60 60" fill="none" xmlns="http://www.w3.org/2000/svg">
<g clip-path="url(#clip0)">
<path d="M10.9801 34.92L15.1801 35.82L20.7001 35.22L21.7801 33.06L20.8801 28.74L17.8801 27.72L20.1001 23.82L19.6201 20.22L16.0801 18.36L12.3001 20.94L13.6801 26.34L12.4201 29.16L10.6201 32.22L10.9801 34.92Z" fill="#95CE5A"/>
<path d="M19.74 27.06C20.82 25.2 21.36 23.64 21.36 22.5C21.36 19.74 19.14 17.52 16.38 17.52C13.62 17.52 11.4 19.74 11.4 22.5C11.4 23.82 11.88 25.38 12.9 27.12C11.04 27.84 9.78003 29.7 9.78003 31.68V33.42C9.78003 36.84 13.08 36.84 14.7 36.84H18.12C19.74 36.84 23.04 36.84 23.04 33.42V31.68C22.98 29.58 21.72 27.78 19.74 27.06ZM14.64 28.98C15.06 28.98 15.42 28.74 15.6 28.38C15.78 28.02 15.78 27.6 15.54 27.24C14.28 25.32 13.56 23.64 13.56 22.44C13.56 20.94 14.82 19.68 16.32 19.68C17.04 19.68 17.76 19.98 18.3 20.52C18.84 21.06 19.14 21.72 19.14 22.5C19.14 23.46 18.36 25.2 17.04 27.3C16.86 27.6 16.86 28.02 17.04 28.44C17.22 28.8 17.64 29.04 18.06 29.04C19.56 29.04 20.76 30.24 20.76 31.74V33.48C20.76 34.2 20.76 34.68 18.06 34.68H14.64C11.94 34.68 11.94 34.2 11.94 33.48V31.74C11.94 30.18 13.14 28.98 14.64 28.98Z" fill="#333E50"/>
<path d="M43.6801 20.76H27.3601V23.22H43.6801V20.76Z" fill="#333E50"/>
<path d="M43.6801 25.86H27.3601V28.32H43.6801V25.86Z" fill="#333E50"/>
<path d="M35.8201 31.08H27.3601V33.54H35.8201V31.08Z" fill="#333E50"/>
<path d="M49.1401 8.27997H5.16012C2.40012 8.27997 0.120117 10.56 0.120117 13.32V42.12C0.120117 44.88 2.40012 47.16 5.16012 47.16H9.18012L18.3001 58.44C18.4201 58.62 19.5601 59.94 21.3601 59.94C21.6601 59.94 21.9001 59.88 22.2001 59.82C24.3601 59.34 25.0801 57.6 25.0801 56.28V47.16H49.0801C51.8401 47.16 54.1201 44.88 54.1201 42.12V13.32C54.1801 10.5 51.9001 8.27997 49.1401 8.27997ZM49.1401 44.46H22.4401V56.28C22.4401 56.76 22.1401 57.06 21.6001 57.18C20.9401 57.3 20.4001 56.7 20.4001 56.7L10.4401 44.46H5.16012C3.84012 44.46 2.76012 43.38 2.76012 42.06V13.26C2.76012 11.94 3.84012 10.86 5.16012 10.86H49.1401C50.4601 10.86 51.5401 11.94 51.5401 13.26V42.06C51.4801 43.44 50.4601 44.46 49.1401 44.46Z" fill="#333E50"/>
<path d="M55.0201 1.73999H11.1001C8.34006 1.73999 6.06006 4.01999 6.06006 6.77999V7.25999H8.76006V6.77999C8.76006 5.45999 9.84006 4.37999 11.1601 4.37999H55.1401C56.4601 4.37999 57.5401 5.45999 57.5401 6.77999V35.58C57.5401 36.66 56.8201 37.56 55.8001 37.86L55.5601 37.92V40.62L55.9201 40.56C58.3801 40.2 60.2401 38.04 60.2401 35.58V6.77999C60.1201 4.01999 57.8401 1.73999 55.0201 1.73999Z" fill="#333E50"/>
</g>
<defs>
<clipPath id="clip0">
<rect width="60" height="60" fill="white"/>
</clipPath>
</defs>
</svg>
