<svg width="60" height="60" viewBox="0 0 60 60" fill="none" xmlns="http://www.w3.org/2000/svg">
<path d="M23.52 45.18C24.24 45.84 25.2 45.84 25.92 45.18C26.22 44.88 26.58 44.52 26.88 44.22L27 44.16C27.42 43.74 27.78 43.38 28.14 43.02C28.5 42.66 28.86 42.3 29.22 41.94L30.18 40.98C30.9 40.26 31.62 39.6 32.34 38.82L40.74 30.48C41.52 29.76 42.3 28.92 43.08 28.2L43.98 27.3C44.58 26.7 45.3 26.04 45.9 25.44L48.06 23.34C48.72 22.68 48.72 21.6 48.06 20.94C47.46 20.28 46.74 19.62 46.14 19.02C45.84 18.72 45.48 18.36 45.18 18.06L44.28 17.16C43.92 16.86 43.56 16.68 43.2 16.68C42.78 16.68 42.36 16.86 42 17.1V17.04L41.94 17.1C41.82 17.22 41.82 17.22 41.76 17.28L36.36 22.56C34.62 24.3 32.82 26.04 31.08 27.78L26.46 32.34C26.28 32.52 25.98 32.82 25.74 33.06L24.84 33.96L18.42 27.78C18.24 27.6 18 27.36 17.82 27.18C17.58 27 17.28 27 16.98 27C16.56 27 16.08 27.18 15.72 27.54L12.06 31.2C11.88 31.38 11.7 31.56 11.64 31.74C11.22 32.4 11.4 33.18 11.88 33.78C12.24 34.14 12.54 34.5 12.9 34.8C13.08 34.98 13.26 35.16 13.44 35.34L23.16 45C23.34 45 23.46 45.12 23.52 45.18Z" fill="#95CE5A"/>
<path d="M23.52 45.18C24.24 45.84 25.2 45.84 25.92 45.18C26.22 44.88 26.58 44.52 26.88 44.22L27 44.16C27.42 43.74 27.78 43.38 28.14 43.02C28.5 42.66 28.86 42.3 29.22 41.94L30.18 40.98C30.9 40.26 31.62 39.6 32.34 38.82L40.74 30.48C41.52 29.76 42.3 28.92 43.08 28.2L43.98 27.3C44.58 26.7 45.3 26.04 45.9 25.44L48.06 23.34C48.72 22.68 48.72 21.6 48.06 20.94C47.46 20.28 46.74 19.62 46.14 19.02C45.84 18.72 45.48 18.36 45.18 18.06L44.28 17.16C43.92 16.86 43.56 16.68 43.2 16.68C42.78 16.68 42.36 16.86 42 17.1V17.04L41.94 17.1C41.82 17.22 41.82 17.22 41.76 17.28L36.36 22.56C34.62 24.3 32.82 26.04 31.08 27.78L26.46 32.34C26.28 32.52 25.98 32.82 25.74 33.06L24.84 33.96L18.42 27.78C18.24 27.6 18 27.36 17.82 27.18C17.58 27 17.28 27 16.98 27C16.56 27 16.08 27.18 15.72 27.54L12.06 31.2C11.88 31.38 11.7 31.56 11.64 31.74C11.22 32.4 11.4 33.18 11.88 33.78C12.24 34.14 12.54 34.5 12.9 34.8C13.08 34.98 13.26 35.16 13.44 35.34L23.16 45C23.34 45 23.46 45.12 23.52 45.18ZM14.34 31.74C14.46 31.62 14.52 31.56 14.64 31.44L16.92 29.16L24 36.24C24.42 36.66 25.02 36.66 25.44 36.24L31.5 30.24C32.4 29.34 33.24 28.5 34.14 27.66C34.98 26.82 35.82 25.98 36.6 25.2L42.96 18.9L46.26 22.2L45.24 23.16C45 23.4 44.7 23.76 44.4 24.06L27.18 41.1C26.88 41.4 26.52 41.76 26.22 42.06L24.72 43.56L23.82 42.66L13.62 32.46L14.34 31.74Z" fill="#333E50"/>
<path d="M30 0C13.44 0 0 13.44 0 30C0 46.56 13.44 60 30 60C46.56 60 60 46.56 60 30C60 13.44 46.56 0 30 0ZM30 57.9C14.64 57.9 2.1 45.36 2.1 30C2.1 14.64 14.64 2.1 30 2.1C45.36 2.1 57.9 14.64 57.9 30C57.9 45.36 45.36 57.9 30 57.9Z" fill="#333E50"/>
</svg>
