<svg width="60" height="60" viewBox="0 0 60 60" fill="none" xmlns="http://www.w3.org/2000/svg">
<path d="M30.18 7.32001C19.68 7.92001 18.66 15.6 18.78 19.2C19.86 26.4 29.76 35.1 29.76 35.1C29.76 35.1 40.14 26.82 40.98 18.9C41.1 19.02 40.08 7.92001 30.18 7.32001ZM29.94 21.84C28.44 21.84 27.24 20.64 27.24 19.14C27.24 17.64 28.44 16.44 29.94 16.44C31.44 16.44 32.64 17.64 32.64 19.14C32.64 20.64 31.44 21.84 29.94 21.84Z" fill="#95CE5A"/>
<path d="M18.1799 58.8L29.9999 46.8L43.0199 58.5L18.1799 58.8Z" fill="#95CE5A"/>
<path d="M30.3 46.68L59.1001 18.18L58.9201 43.38L42.6001 58.98L30.3 46.68Z" fill="#C3E2FC"/>
<path d="M15.1799 32.22L1.31995 46.38L1.19995 56.52L4.01995 59.1L18.7199 58.98L30.1799 46.32L15.1799 32.22Z" fill="#C3E2FC"/>
<path d="M53.94 0H6C2.7 0 0 2.7 0 6V54C0 57.3 2.7 60 6 60H54C57.3 60 60 57.3 60 54V6C59.94 2.7 57.18 0 53.94 0ZM2.1 19.92L14.1 31.92L2.1 44.04V19.92ZM6 57.84C3.84 57.84 2.1 56.1 2.1 53.94V46.92L15.6 33.36L28.74 46.5L17.46 57.84H6ZM20.34 57.84L30.24 48.06L40.02 57.84H20.34ZM57.84 53.94C57.84 56.1 56.1 57.84 53.94 57.84H45.12L57.84 45.12V53.94ZM57.84 42.18L42.54 57.54L31.62 46.62L57.84 20.4V42.18ZM57.9 17.46L30.18 45.06L2.1 17.04V6C2.1 3.84 3.84 2.1 6 2.1H54C56.16 2.1 57.9 3.84 57.9 6V17.46Z" fill="#333E50"/>
<path d="M29.94 15.24C28.98 15.24 27.96 15.66 27.12 16.38C26.4 17.1 25.98 18.12 25.98 19.14C25.98 20.16 26.4 21.12 27.12 21.96C27.9 22.68 28.92 23.1 29.88 23.1C30.84 23.1 31.86 22.68 32.7 21.96C33.42 21.24 33.84 20.22 33.84 19.2C33.84 18.18 33.48 17.22 32.7 16.38C32.04 15.66 31.02 15.24 29.94 15.24ZM31.32 20.4L31.2 20.52C30.84 20.88 30.36 21.06 29.88 21.06C29.4 21.06 28.92 20.88 28.56 20.52C28.2 20.16 28.08 19.74 28.08 19.2C28.08 18.72 28.32 18.24 28.68 17.88C29.04 17.52 29.52 17.28 29.94 17.28C30.36 17.28 30.84 17.52 31.2 17.88C31.56 18.24 31.68 18.66 31.68 19.2C31.74 19.56 31.56 19.98 31.32 20.4Z" fill="#333E50"/>
<path d="M41.2801 22.44V22.38L41.3401 22.26C42.8401 17.88 41.7001 13.08 38.4601 9.77999C36.1801 7.49999 33.1201 6.23999 29.9401 6.23999C26.7601 6.23999 23.7601 7.43999 21.3601 9.77999C18.0601 13.08 16.9801 17.82 18.4801 22.26C21.0601 29.4 26.9401 34.26 29.3401 36L29.8801 36.42L30.5401 36C32.3401 34.68 38.5201 29.94 41.2801 22.44ZM30.3601 33.66L30.0001 33.96L29.6401 33.66C27.1201 31.68 22.5601 27.54 20.5201 21.66C19.2601 17.94 20.2201 13.98 22.9801 11.28C24.9001 9.35999 27.4201 8.27999 30.0001 8.27999C32.6401 8.27999 35.2201 9.35999 37.0201 11.28C39.7201 13.98 40.6801 17.94 39.4201 21.54V21.6L39.3601 21.72C37.8601 26.04 34.8001 30.06 30.3601 33.66Z" fill="#333E50"/>
</svg>
