<svg width="60" height="60" viewBox="0 0 60 60" fill="none" xmlns="http://www.w3.org/2000/svg">
<path d="M58.4999 34.9H1.3999V9.60004C1.3999 7.10004 3.3999 5.10004 5.8999 5.10004H53.9999C56.4999 5.10004 58.4999 7.10004 58.4999 9.60004V34.9Z" fill="#C3E2FC"/>
<path d="M53.5 2.90002H6.5C2.9 2.90002 0 5.80002 0 9.40002V39.2C0 42.8 2.9 45.7 6.5 45.7H21.5L19.7 54.5H14C13.3 54.5 12.7 55.1 12.7 55.8C12.7 56.5 13.3 57.1 14 57.1H46C46.7 57.1 47.3 56.5 47.3 55.8C47.3 55.1 46.7 54.5 46 54.5H40.2L38.4 45.7H53.4C57 45.7 59.9 42.8 59.9 39.2V9.40002C60 5.80002 57.1 2.90002 53.5 2.90002ZM37.5 54.4H22.5L24.3 45.6H35.8L37.5 54.4ZM2.7 36.5H57.3V39.2C57.3 41.3 55.6 43 53.5 43H6.5C4.4 43 2.7 41.3 2.7 39.2V36.5ZM10.7 30.6C10.7 29.9 10.1 29.3 9.4 29.3H2.7V9.40002C2.7 7.30002 4.4 5.60002 6.5 5.60002H53.5C55.6 5.60002 57.3 7.30002 57.3 9.40002V33.8H2.7V31.9H9.4C10.1 31.9 10.7 31.3 10.7 30.6Z" fill="#333E50"/>
<path d="M30 41.5C30.9941 41.5 31.7999 40.6941 31.7999 39.7C31.7999 38.7059 30.9941 37.9 30 37.9C29.0058 37.9 28.2 38.7059 28.2 39.7C28.2 40.6941 29.0058 41.5 30 41.5Z" fill="#333E50"/>
<path d="M27.5 17.6L30 27.1L32.5 25.3L36.3 27.8L38.4 26.1L35.1 22.7L38.4 19.7L27.5 17.6Z" fill="#95CE5A"/>
<path d="M39.4 25L37.1 22.7001L37 22.6L37.1 22.5L39 20.6C39.3 20.3 39.4 19.9 39.3 19.5C39.2 19.1 38.9 18.8001 38.5 18.7001L28 16.3C27.9 16.3 27.8 16.3 27.7 16.3C27.4 16.3 27.1 16.4 26.9 16.6C26.6 16.9 26.5 17.3001 26.6 17.7001L29 28.2001C29.1 28.6 29.4 28.9 29.8 29C29.9 29 30 29 30.1 29C30.4 29 30.7 28.9001 30.9 28.7001L32.8 26.8L32.9 26.7001L33 26.8L35.3 29.1C35.5 29.3 35.8 29.4 36.1 29.4C36.4 29.4 36.7 29.3 36.9 29.1L39.3 26.7001C39.5 26.5001 39.6 26.2 39.6 25.9C39.6 25.6 39.6 25.2 39.4 25ZM36.8 26L36.3 26.5L36.2 26.6L36 26.5L33.7 24.2001C33.5 24.0001 33.2 23.9 32.9 23.9C32.6 23.9 32.3 24.0001 32.1 24.2001L31 25.3L30.7 25.6L30.6 25.2001L29.2 19.1L29.1 18.8L29.4 18.9L35.5 20.3L35.9 20.4L35.6 20.7001L34.5 21.8C34.3 22 34.2 22.3 34.2 22.6C34.2 22.9001 34.3 23.2 34.5 23.4L36.8 25.7001L36.9 25.8L36.8 26Z" fill="#333E50"/>
<path d="M25.4 13.2L24.3 12.1C23.8 11.6 22.9 11.6 22.4 12.1C22.1 12.4 22 12.7 22 13.1C22 13.5 22.1 13.8 22.4 14.1L23.5 15.2C23.8 15.5 24.1 15.6 24.5 15.6C24.9 15.6 25.2 15.5 25.5 15.2C25.9 14.6 25.9 13.7 25.4 13.2Z" fill="#333E50"/>
<path d="M23.0001 16.2H21.4001C20.7001 16.2 20.1001 16.8 20.1001 17.5C20.1001 18.2 20.7001 18.8 21.4001 18.8H23.0001C23.7001 18.8 24.3001 18.2 24.3001 17.5C24.4001 16.9 23.8001 16.2 23.0001 16.2Z" fill="#333E50"/>
<path d="M25.4 20.1C24.9 19.6 24 19.6 23.5 20.1L22.4 21.2C22.1 21.5 22 21.8 22 22.2C22 22.6 22.1 22.9 22.4 23.2C22.7 23.5 23 23.6 23.4 23.6C23.8 23.6 24.1 23.5 24.4 23.2L25.5 22.1C25.9 21.5 25.9 20.6 25.4 20.1Z" fill="#333E50"/>
<path d="M33.4 12.1C32.9 11.6 32 11.6 31.5 12.1L30.4 13.2C30.1 13.5 30 13.8 30 14.2C30 14.6 30.1 14.9 30.4 15.2C30.7 15.5 31 15.6 31.4 15.6C31.8 15.6 32.1 15.5 32.4 15.2L33.5 14.1C33.8 13.8 33.9 13.5 33.9 13.1C33.9 12.7 33.7 12.3 33.4 12.1Z" fill="#333E50"/>
<path d="M27.9001 9.80005C27.2001 9.80005 26.6001 10.4 26.6001 11.1V12.7C26.6001 13.4 27.2001 14 27.9001 14C28.6001 14 29.2001 13.4 29.2001 12.7V11.1C29.3001 10.4 28.7001 9.80005 27.9001 9.80005Z" fill="#333E50"/>
<path d="M14.0999 30.3C14.0999 30.2 14.0999 30.1 13.9999 30C13.9999 29.9 13.8999 29.8 13.8999 29.8C13.8999 29.7 13.7999 29.7 13.6999 29.6C13.5999 29.5 13.5999 29.5 13.4999 29.4C13.3999 29.4 13.2999 29.3 13.2999 29.3C13.1999 29.3 13.0999 29.2 12.9999 29.2C12.7999 29.2 12.5999 29.2 12.4999 29.2C12.3999 29.2 12.2999 29.2 12.1999 29.3C12.0999 29.3 11.9999 29.4 11.9999 29.4C11.8999 29.4 11.8999 29.5 11.7999 29.6C11.6999 29.7 11.6999 29.7 11.5999 29.8C11.5999 29.9 11.4999 30 11.4999 30C11.4999 30.1 11.3999 30.2 11.3999 30.3C11.3999 30.4 11.3999 30.5 11.3999 30.6C11.3999 30.7 11.3999 30.8 11.3999 30.9C11.3999 31 11.3999 31.1 11.4999 31.2C11.4999 31.3 11.5999 31.4 11.5999 31.4C11.5999 31.5 11.6999 31.5 11.7999 31.6C11.8999 31.7 11.8999 31.7 11.9999 31.8C12.0999 31.8 12.1999 31.9 12.1999 31.9C12.2999 31.9 12.3999 32 12.4999 32C12.5999 32 12.6999 32 12.7999 32C12.8999 32 12.9999 32 13.0999 32C13.1999 32 13.2999 32 13.2999 31.9C13.3999 31.9 13.4999 31.8 13.4999 31.8C13.5999 31.7 13.5999 31.7 13.6999 31.6C13.7999 31.5 13.7999 31.5 13.8999 31.4C13.8999 31.3 13.9999 31.2 13.9999 31.2C13.9999 31.1 14.0999 31 14.0999 30.9C14.0999 30.8 14.0999 30.7 14.0999 30.6C14.1999 30.5 14.0999 30.4 14.0999 30.3Z" fill="#333E50"/>
</svg>
