<svg width="60" height="60" viewBox="0 0 60 60" fill="none" xmlns="http://www.w3.org/2000/svg">
<path d="M18.48 48.6L25.26 44.34L30.96 49.08L32.82 48.6L52.5 15.12L45.48 16.32L8.52002 27.18V29.76L17.22 37.68L18.48 48.6Z" fill="#95CE5A"/>
<path d="M13.0802 1.08001C13.0802 1.08001 8.58018 0.840007 7.62018 2.58001C6.66018 4.32001 7.50018 6.24001 5.82018 6.60001C4.14018 6.96001 1.26018 8.46001 1.44018 10.14C1.62018 11.82 1.02018 14.94 3.54018 15.72C6.06018 16.5 16.4402 16.38 16.4402 16.38C16.4402 16.38 22.6802 16.38 22.9202 15.06C23.1602 13.74 25.2602 10.56 24.0602 9.30001C22.8602 8.04001 19.2602 6.78001 19.1402 6.18001C19.0202 5.58001 18.4802 2.16001 17.0402 1.80001C15.6002 1.44001 13.0802 1.08001 13.0802 1.08001Z" fill="#C3E2FC"/>
<path d="M50.6402 46.86C50.6402 46.86 47.5202 46.68 46.8602 48C46.2002 49.32 46.7402 50.76 45.6002 51C44.4602 51.24 42.4202 52.38 42.5402 53.64C42.6602 54.9 42.2402 57.24 44.0402 57.84C45.7802 58.44 53.0402 58.32 53.0402 58.32C53.0402 58.32 57.3602 58.32 57.5402 57.36C57.7202 56.4 59.1602 54 58.3202 53.04C57.5402 52.08 55.0202 51.18 54.9002 50.7C54.7802 50.28 54.4202 47.64 53.4002 47.4C52.3802 47.16 50.6402 46.86 50.6402 46.86Z" fill="#C3E2FC"/>
<path d="M51.3001 13.8C51.1201 13.8 50.8801 13.86 50.7001 13.86L9.60008 25.86C8.40008 26.28 7.50008 27.3 7.26008 28.56C7.02008 29.82 7.50008 31.08 8.52008 31.86C9.54008 32.64 11.0401 33.9 12.6601 35.16C14.1001 36.3 15.6001 37.5 16.8601 38.52V47.4V47.46C16.9201 48.6 17.9401 49.56 19.0801 49.56C19.6201 49.56 20.1001 49.38 20.5201 49.02L25.4401 45.66C25.5001 45.72 25.6201 45.84 25.6801 45.9C27.3601 47.34 28.8601 48.54 29.7601 49.32C30.3601 49.8 31.1401 50.1 31.9201 50.1C33.0601 50.1 34.1401 49.56 34.8001 48.6L34.8601 48.54L52.9801 16.8C53.3401 16.2 53.4001 15.48 53.0401 14.82C52.6201 14.16 51.9601 13.8 51.3001 13.8ZM19.2601 47.4C19.2001 47.4 19.2001 47.46 19.1401 47.46C19.0801 47.52 19.0801 47.52 19.0201 47.52C19.0201 47.52 18.8401 47.52 18.8401 47.34V40.2L19.4401 40.68C20.8201 41.82 22.3201 43.08 23.7601 44.28L19.2601 47.4ZM33.0601 47.46C32.5801 48.12 31.6201 48.24 31.0201 47.7C30.1201 46.98 28.6801 45.72 27.0001 44.34C26.8201 44.22 26.6401 44.04 26.4601 43.92C26.4001 43.8 26.2801 43.68 26.1601 43.56L20.7601 39.18C20.3401 38.82 19.9201 38.52 19.5601 38.16L25.8001 33.96C26.2801 33.66 26.4001 33 26.1001 32.52C25.8001 32.04 25.1401 31.92 24.6601 32.22L17.8801 36.78C16.6801 35.82 15.2401 34.68 13.9201 33.6C12.3001 32.28 10.8001 31.08 9.78008 30.24C9.36008 29.94 9.18008 29.4 9.24008 28.92C9.36008 28.38 9.66008 28.02 10.1401 27.84L47.1001 17.04L42.0601 20.46C41.5801 20.76 41.4601 21.42 41.7601 21.9C41.9401 22.2 42.3001 22.32 42.6001 22.32C42.7801 22.32 43.0201 22.26 43.2001 22.14L50.1001 17.52L33.0601 47.46Z" fill="#333E50"/>
<path d="M37.5001 34.68C37.0201 34.38 36.3601 34.56 36.1201 35.04L35.4001 36.36C35.1001 36.84 35.2801 37.5 35.7601 37.74C35.9401 37.86 36.1201 37.86 36.2401 37.86C36.6001 37.86 36.9601 37.68 37.1401 37.32L37.8601 36C38.1601 35.58 38.0401 34.98 37.5001 34.68Z" fill="#333E50"/>
<path d="M35.1001 39C34.6201 38.7 33.9601 38.88 33.7201 39.36L31.1401 43.92C30.8401 44.4 31.0201 45.06 31.5001 45.3C31.6801 45.42 31.8601 45.42 31.9801 45.42C32.3401 45.42 32.7001 45.24 32.8801 44.88L35.4601 40.32C35.7601 39.9 35.5801 39.24 35.1001 39Z" fill="#333E50"/>
<path d="M39.6601 22.14L27.1801 30.54C26.7001 30.84 26.5801 31.5 26.8801 31.98C27.0601 32.28 27.4201 32.4 27.7201 32.4C27.9001 32.4 28.1401 32.34 28.3201 32.22L40.8001 23.82C41.2801 23.52 41.4001 22.86 41.1001 22.38C40.7401 21.9 40.0801 21.78 39.6601 22.14Z" fill="#333E50"/>
<path d="M5.64013 5.22C2.28013 5.76 -0.0598678 8.94 0.480132 12.3C0.960132 15.3 3.54013 17.52 6.60013 17.52H19.0201C22.4401 17.52 25.2001 14.76 25.2001 11.34C25.2001 8.28 22.9801 5.7 19.9801 5.22C19.5001 2.22 16.9201 0 13.8601 0H11.8201C8.76013 0 6.12013 2.22 5.64013 5.22ZM18.0001 6.18C18.0001 6.78 18.4801 7.2 19.0201 7.2C21.3001 7.2 23.1601 9.06 23.1601 11.34C23.1601 13.62 21.3001 15.48 19.0201 15.48H6.60013C4.32013 15.48 2.46013 13.62 2.46013 11.34C2.46013 9.06 4.32013 7.2 6.60013 7.2C7.20013 7.2 7.62013 6.72 7.62013 6.18C7.62013 3.9 9.48013 2.04 11.7601 2.04H13.8001C16.1401 2.04 18.0001 3.9 18.0001 6.18Z" fill="#333E50"/>
<path d="M55.3801 49.74C54.8401 46.92 52.1401 45.06 49.3801 45.6C47.2801 46.02 45.6001 47.64 45.2401 49.74C42.4201 50.28 40.5601 52.98 41.1001 55.74C41.5801 58.2 43.6801 59.94 46.2001 59.94H54.4801C57.3601 59.94 59.6401 57.6 59.6401 54.78C59.5801 52.32 57.7801 50.22 55.3801 49.74ZM54.4201 57.96H46.1401C44.4001 57.96 43.0201 56.58 43.0201 54.84C43.0201 53.1 44.4001 51.72 46.1401 51.72C46.7401 51.72 47.1601 51.24 47.1601 50.7C47.1601 48.96 48.5401 47.58 50.2801 47.58C52.0201 47.58 53.4001 48.96 53.4001 50.7C53.4001 51.3 53.8801 51.72 54.4201 51.72C56.1601 51.72 57.5401 53.1 57.5401 54.84C57.5401 56.58 56.1001 57.96 54.4201 57.96Z" fill="#333E50"/>
<path d="M14.4001 50.46C15.0001 50.46 15.4201 50.94 15.4201 51.48C15.4201 52.08 14.9401 52.5 14.4001 52.5C13.8001 52.5 13.3801 52.02 13.3801 51.48C13.3801 50.94 13.8601 50.46 14.4001 50.46Z" fill="#333E50"/>
<path d="M10.3202 54.6C10.9202 54.6 11.3402 55.08 11.3402 55.62C11.3402 56.22 10.8602 56.64 10.3202 56.64C9.72024 56.64 9.30024 56.16 9.30024 55.62C9.24024 55.08 9.72024 54.6 10.3202 54.6Z" fill="#333E50"/>
<path d="M6.1801 57.72C6.7801 57.72 7.2001 58.2 7.2001 58.74C7.2001 59.34 6.7201 59.76 6.1801 59.76C5.5801 59.76 5.1601 59.28 5.1601 58.74C5.1001 58.2 5.5801 57.72 6.1801 57.72Z" fill="#333E50"/>
</svg>
