<svg width="60" height="60" viewBox="0 0 60 60" fill="none" xmlns="http://www.w3.org/2000/svg">
<g clip-path="url(#clip0)">
<path d="M29.3401 29.46L39.2401 57.96L43.2601 46.74L52.5001 56.4L56.3401 53.22L47.2801 42.96L58.0801 39.9L29.3401 29.46Z" fill="#95CE5A"/>
<path d="M52.56 34.5L50.04 33.6C50.64 31.44 51 29.22 51 26.88C51 13.5 40.2 2.7 26.82 2.7C13.44 2.7 2.7 13.5 2.7 26.82C2.7 40.14 13.5 51 26.82 51C29.16 51 31.44 50.64 33.54 50.04L34.5 52.56C32.04 53.28 29.46 53.7 26.82 53.7C12 53.7 0 41.7 0 26.82C0 11.94 12 0 26.82 0C41.64 0 53.64 12 53.64 26.82C53.7 29.52 53.28 32.1 52.56 34.5ZM39.96 29.82L37.44 28.86C37.56 28.2 37.62 27.54 37.62 26.88C37.62 20.94 32.82 16.14 26.88 16.14C20.94 16.14 16.14 20.94 16.14 26.88C16.14 32.82 20.94 37.62 26.88 37.62C27.54 37.62 28.2 37.56 28.86 37.44L29.82 39.96C28.86 40.2 27.9 40.26 26.88 40.26C19.44 40.26 13.44 34.26 13.44 26.82C13.44 19.38 19.44 13.38 26.88 13.38C34.32 13.38 40.32 19.38 40.32 26.82C40.26 27.84 40.14 28.86 39.96 29.82Z" fill="#333E50"/>
<path d="M57.72 52.02C58.26 52.56 58.26 53.4 57.72 53.94L53.9401 57.72C53.4 58.26 52.56 58.26 52.02 57.72L43.74 49.44L40.9801 59.04C40.62 60.3 38.88 60.36 38.46 59.16L27 28.74C26.58 27.66 27.66 26.58 28.74 27L59.1 38.4C60.3 38.88 60.2401 40.56 58.98 40.92L49.3801 43.68L57.72 52.02ZM45.96 44.04C45.24 43.32 45.54 42.06 46.56 41.82L54.42 39.54L30.6 30.6L39.54 54.42L41.82 46.56C42.12 45.6 43.32 45.24 44.04 45.96L52.9801 54.9L54.9 52.98L45.96 44.04Z" fill="#333E50"/>
</g>
<defs>
<clipPath id="clip0">
<rect width="60" height="60" fill="white"/>
</clipPath>
</defs>
</svg>
