<svg width="60" height="60" fill="none" xmlns="http://www.w3.org/2000/svg"><g clip-path="url(#clip0)"><path d="M10.32 30.3a2.34 2.34 0 100-4.68 2.34 2.34 0 000 4.68zM19.8 30.66a2.7 2.7 0 100-5.4 2.7 2.7 0 000 5.4z" fill="#C3E2FC"/><path d="M7.98 37.5s-5.52 2.4-5.46 7.14c.06 4.74 0 10.86 0 10.86l25.2-.18V44.76s-.48-5.1-2.58-5.88c-2.04-.78-5.34.18-5.34.18l.18 3.3s-.12 4.62-4.92 4.38c-4.8-.24-4.92-3.78-4.92-3.78l.48-3.72-2.64-1.74zM35.16 34.38s-3.24 2.1-3.3 5.16c-.06 3.06 0 15.6 0 15.6h25.56V40.56s-1.26-5.58-3.3-6.24c-2.04-.66-3.48 4.38-3.48 4.38l-3.12-.6-2.76 2.52-2.64-2.22-2.88.6-4.08-4.62z" fill="#95CE5A"/><path d="M59.88 20.52a3.856 3.856 0 00-3.12-2.88l-.24-2.28c-.72-6.18-6.06-10.74-12.24-10.5-5.82.24-10.56 4.68-11.22 10.44l-.24 2.28c-.78.12-1.56.48-2.1 1.08-.72.72-1.14 1.68-1.08 2.7 0 1.56.96 2.94 2.4 3.54l-.18.9v.06a8.44 8.44 0 001.86 4.68c-.48.18-.84.6-.9 1.14 0 .36.12.72.36.96.36.42.78.78 1.2 1.08-2.22 1.86-3.42 4.5-3.42 7.38v14.04c0 .36.12.66.36.9s.54.36.9.36h25.02c.72 0 1.32-.6 1.32-1.32V41.04c0-2.88-1.26-5.52-3.42-7.38.42-.3.84-.66 1.2-1.08a1.305 1.305 0 00-.54-2.1 8.269 8.269 0 001.86-4.68v-.06l-.06-.78c.78-.3 1.38-.84 1.8-1.56.54-.9.72-1.92.48-2.88zm-1.92.96c0 .48-.24.9-.6 1.26l-.3-2.88c.18.12.3.24.42.36.3.36.48.78.48 1.26zm-17.22 15.3c-.3.24-.42.66-.42 1.02v.18c-1.14-.66-1.98-1.74-2.46-2.94 2.58.36 5.16-.66 6.9-2.64 1.68 1.98 4.32 2.94 6.9 2.64-.48 1.2-1.32 2.28-2.46 2.94v-.18c0-.36-.06-.66-.3-.96-.24-.24-.54-.42-.9-.42-.36-.06-.78.12-1.02.42-.84.84-1.56 1.8-2.22 2.76-.66-.96-1.38-1.92-2.22-2.76-.24-.24-.54-.36-.9-.42s-.66.12-.9.36zm-3.48 3.78c-.54 0-1.02.48-1.02 1.02V54.3h-3.18V41.04c0-2.22 1.02-4.38 2.76-5.82.66 2.28 2.28 4.08 4.5 5.04l.12.06h.06c.54.18 1.14-.06 1.44-.54l.18-.36c.6.72 1.08 1.5 1.56 2.34 0 .06.06.12.12.12v12.48h-5.46V41.58c-.06-.54-.54-1.02-1.08-1.02zm15.06 0c-.54 0-1.02.48-1.02 1.02V54.3h-5.46V41.82c.06-.06.06-.12.12-.12.48-.78.96-1.56 1.56-2.28l.18.36c.3.48.96.72 1.5.54l.12-.06a8.157 8.157 0 004.5-5.04c1.74 1.44 2.76 3.6 2.76 5.82V54.3H53.4V41.58c-.06-.6-.54-1.02-1.08-1.02zm-8.22-10.5c-.18.12-.3.24-.36.36-1.68 2.58-5.1 3.36-7.74 1.8 1.32-.48 2.4-1.5 2.88-2.82.6-.96 1.62-1.5 2.76-1.56h.06c.84 0 1.62.3 2.22.84.48.42 1.26.42 1.74 0 .66-.54 1.44-.9 2.28-.84 1.14 0 2.16.6 2.76 1.5.54 1.38 1.56 2.34 2.94 2.82-.9.54-1.92.84-2.94.84-1.5 0-2.94-.6-4.02-1.68-.3-.3-.54-.6-.72-.9-.18-.3-.48-.48-.84-.54h-.3c-.3-.06-.54.06-.72.18zm8.46-1.5l-.06-.12c-.72-1.26-1.92-2.1-3.3-2.46-.42-.12-.9-.18-1.32-.18-.96 0-1.92.24-2.76.78-.12.06-.24.12-.36.24-1.02-.72-2.22-1.08-3.48-.96-1.44.12-2.76.78-3.66 1.86-.18.24-.42.48-.54.78l-.06.12c-.18.54-.54 1.02-1.02 1.32-.12-.18-.3-.3-.42-.42-.96-1.02-1.56-2.34-1.68-3.66l1.2-10.26c.54-4.8 4.44-8.4 9.24-8.64 5.1-.24 9.54 3.6 10.14 8.64l1.2 10.26a6.21 6.21 0 01-1.62 3.66c-.18.12-.3.3-.42.42-.54-.36-.9-.84-1.08-1.38zm-20.34-5.82a1.81 1.81 0 01-.54-1.8c.12-.48.42-.84.84-1.08l-.3 2.88z" fill="#333E50"/><path d="M27.54 22.08l-.12-1.68a12.41 12.41 0 00-5.64-9.24c.48-3.42-1.8-6.66-5.22-7.38-.48-.12-1.02-.12-1.5-.12-3.66.06-6.6 3.12-6.48 6.78 0 .24 0 .48.06.72A12.41 12.41 0 003 20.4l-.18 1.68c-.84.24-1.5.72-2.04 1.38-.66.84-.9 1.86-.78 2.88.18 1.32 1.02 2.52 2.28 3.06.18 2.94 1.56 5.64 3.84 7.5l.48.3c-3.18 1.5-5.22 4.74-5.22 8.22v9.6c0 .72.6 1.32 1.32 1.32h25.02c.72 0 1.26-.6 1.32-1.32v-9.6c0-3.54-2.04-6.72-5.22-8.22l.48-.36c2.28-1.86 3.66-4.56 3.84-7.5 1.8-.78 2.7-2.76 2.16-4.68-.42-1.26-1.44-2.22-2.76-2.58zm.78 4.08c-.06.24-.18.54-.3.72l-.24-2.4c.42.42.66 1.08.54 1.68zm-8.76-9.78c-.18-.36-.48-.66-.9-.78-.18-.06-.36-.12-.54-.12-.24 0-.42.06-.66.12-.18.12-.36.24-.48.36-2.94 3.3-7.56 4.68-11.82 3.6.9-4.8 4.92-8.16 9.84-8.28 5.28-.12 9.78 3.9 10.32 9.12-2.46-.18-4.68-1.74-5.76-4.02zm-8.1 22.08l-4.08-3.24c-2.16-1.74-3.3-4.38-3.06-7.14l.12-1.56 1.86 1.86c.12 1.02.6 1.92 1.32 2.58.84.72 1.86 1.14 2.94 1.08 1.8-.06 3.36-1.32 3.78-3.06h1.56c.24.84.72 1.62 1.38 2.16.84.66 1.92 1.02 3 .9 1.98-.18 3.48-1.68 3.66-3.66l1.86-1.86.12 1.56c.24 2.76-.9 5.4-3.06 7.14l-4.08 3.24c-2.04 1.74-5.1 1.8-7.32 0zm8.52-8.4c-.6 0-1.08-.18-1.5-.6-.42-.36-.6-.9-.66-1.44v-.12c0-1.14.9-2.04 1.98-2.04 1.14 0 2.04.9 2.1 1.98v.06c.12 1.2-.78 2.1-1.92 2.16zm3.6-4.08a4.149 4.149 0 00-4.56-2.04c-1.44.36-2.64 1.5-3 3H14.4c-.54-1.98-2.4-3.3-4.44-3.06-1.32.12-2.52.96-3.12 2.1l-2.1-2.1.18-2.22c4.68 1.08 9.66-.36 13.08-3.78 1.5 2.7 4.38 4.5 7.5 4.68l.12 1.32-2.04 2.1zM8.4 27.96c0-1.14.9-2.04 1.98-2.04h.06c1.08 0 2.04.9 2.04 1.98v.06c0 1.14-.9 2.1-2.04 2.1-.54 0-1.08-.18-1.44-.6-.42-.36-.6-.9-.66-1.44v-.06h.06zm10.44 15.18c-.42.96-1.14 1.74-2.1 2.1-.96.42-2.04.42-3 0s-1.74-1.14-2.1-2.1c-.3-.72-.36-1.5-.24-2.28a7.942 7.942 0 007.68 0c.12.78.06 1.5-.24 2.28zM8.22 45.3c-.24-.18-.54-.3-.72-.3-.54 0-1.02.48-1.02 1.02v8.22h-3v-8.82c0-3.06 2.04-5.88 4.98-6.78l1.14.96a5.96 5.96 0 000 4.08c.54 1.5 1.68 2.7 3.12 3.36 1.44.66 3.06.72 4.56.18 1.5-.54 2.7-1.68 3.36-3.12.66-1.44.72-3.06.18-4.5l1.14-.9c2.94.9 4.98 3.66 4.98 6.78v8.82h-3.06v-8.28c0-.3-.12-.54-.36-.72-.18-.18-.48-.3-.72-.24-.54.06-.9.48-.96 1.02v8.22H8.52v-8.28c0-.24-.12-.48-.3-.72zm2.4-35.16c0-.9.3-1.8.84-2.52.72-1.02 1.8-1.62 3-1.86.18-.06.36-.06.6-.06h.12c1.14 0 2.28.42 3.12 1.26.9.84 1.38 1.98 1.44 3.18-2.88-1.14-6.18-1.14-9.12 0zM2.64 24.48l-.24 2.46c-.06-.12-.18-.24-.24-.36a1.83 1.83 0 010-1.38c.12-.3.24-.54.48-.72zM40.02 19.62c-.54 0-1.08.18-1.5.6-.42.42-.6.9-.6 1.5 0 .54.18 1.08.6 1.5.36.42.9.6 1.44.6 1.14 0 2.04-.9 2.04-2.04v-.06c0-.54-.18-1.08-.6-1.44-.3-.42-.84-.66-1.38-.66zM49.56 19.62c-.54 0-1.08.24-1.44.6-.42.42-.6.9-.6 1.44 0 .54.24 1.08.6 1.44.42.42.9.6 1.44.6.54 0 1.08-.24 1.44-.6.42-.42.6-.9.6-1.44.06-1.14-.9-2.04-2.04-2.04z" fill="#333E50"/><path d="M17.04 33.42c-1.02.96-2.64.96-3.6 0-.42-.42-1.08-.42-1.44 0-.18.18-.3.48-.3.72 0 .3.12.54.3.72.84.84 2.04 1.32 3.24 1.32 1.26 0 2.4-.48 3.24-1.32.18-.18.3-.48.3-.72 0-.3-.12-.54-.3-.72-.42-.36-1.08-.36-1.44 0z" fill="#333E50"/></g><defs><clipPath id="clip0"><path fill="#fff" d="M0 0h60v60H0z"/></clipPath></defs></svg>