<svg width="60" height="60" viewBox="0 0 60 60" fill="none" xmlns="http://www.w3.org/2000/svg">
<g clip-path="url(#clip0)">
<path d="M14.58 42.96C14.64 42.54 14.76 42.12 14.82 41.7C7.5 40.92 1.74 34.74 1.74 27.24C1.74 19.2 8.28 12.72 16.26 12.72C18.78 12.72 21.18 13.38 23.28 14.52C23.34 13.92 23.4 13.32 23.52 12.66C21.36 11.58 18.84 10.92 16.26 10.92C7.32 10.92 0 18.24 0 27.24C0 35.64 6.36 42.54 14.52 43.44L14.58 42.96Z" fill="#333E50"/>
<path d="M14.46 33C14.22 33 14.04 32.94 13.86 32.76L8.82 28.2C8.46 27.9 8.46 27.3 8.76 26.94C9.06 26.58 9.66 26.58 10.02 26.88L14.4 30.84L22.5 21.6C22.8 21.24 23.4 21.18 23.76 21.54C24.12 21.84 24.18 22.44 23.82 22.8L15.12 32.76C14.94 32.94 14.76 33 14.46 33Z" fill="#333E50"/>
<path d="M30.2401 34.56L37.5601 43.92L45.5401 34.2L54.4801 37.5L57.9601 42.18L59.2801 52.98L57.9001 55.26L18.4801 55.5L16.0801 53.28L18.0001 41.22L20.5801 37.5L30.2401 34.56Z" fill="#95CE5A"/>
<path d="M45.2401 14.46C45.2401 14.46 45.4801 17.04 44.0401 17.64C40.2601 19.2 34.2001 18.06 32.4601 18.84C31.3801 19.32 30.7201 23.76 31.9801 27.6C32.7601 30.12 36.1801 32.58 34.6801 32.64C33.9001 32.64 27.9001 24.66 27.6601 23.28C27.4801 21.9 29.9401 17.64 29.9401 17.64L32.9401 16.5L41.3401 15.72L45.2401 14.46Z" fill="#C3E2FC"/>
<path d="M60 52.44L58.8 43.26C58.2 39.3 55.92 36.72 52.08 35.58C48.48 34.5 44.4 33.18 44.1 33C43.98 32.88 43.8 31.98 43.8 30.9C45.3 29.34 46.32 27.42 46.62 25.5C47.34 25.26 48.06 24.48 48.48 23.46C48.84 22.56 48.9 21.6 48.66 20.88C50.58 16.26 49.98 10.8 47.4 9.00001C46.2 6.60001 43.98 4.86001 41.22 4.08001C37.86 3.12001 34.02 3.66001 31.08 5.58001C22.56 11.04 26.04 19.86 26.58 21.18C26.46 21.84 26.52 22.62 26.82 23.4C27.24 24.42 27.9 25.2 28.68 25.44C29.04 27.48 30.12 29.46 31.68 31.08C31.68 32.04 31.56 32.88 31.44 32.94C31.08 33.12 27 34.44 23.4 35.58C19.56 36.66 17.28 39.3 16.68 43.26L15.48 52.5C15.42 53.52 15.72 54.48 16.44 55.26C17.1 55.98 18.06 56.4 19.08 56.4H56.4C57.42 56.4 58.38 55.98 59.04 55.26C59.76 54.48 60.06 53.52 60 52.44ZM58.38 52.62C58.44 53.22 58.26 53.7 57.9 54.12C57.54 54.54 57 54.72 56.46 54.72H19.02C18.42 54.72 17.94 54.48 17.58 54.12C17.22 53.7 17.04 53.16 17.1 52.68L18.3 43.5C18.84 40.14 20.64 38.1 23.88 37.14C24.78 36.84 27.78 35.94 29.94 35.22L37.62 44.94C37.62 45 37.74 45 37.8 45C37.86 45 37.98 44.94 37.98 44.88L45.54 35.22C47.82 36 51 36.96 51.6 37.14C54.84 38.04 56.64 40.14 57.18 43.5L58.38 52.62ZM46.8 19.74C47.04 18.48 47.4 15.48 46.44 13.92C46.08 13.38 45.66 13.08 45.06 12.96L44.52 12.84C44.4 12.84 44.22 12.9 44.22 13.02L44.1 13.5C43.74 14.94 42.6 15.12 37.98 15.24H36.96C33.6 15.36 28.44 15.48 28.44 19.44V19.74C28.2 19.68 27.9 19.68 27.66 19.74C26.82 17.52 25.26 11.1 31.86 6.90001C34.5 5.28001 37.8 4.80001 40.74 5.64001C43.14 6.36001 45 7.86001 46.02 9.90001L46.08 10.08C46.08 10.14 46.14 10.14 46.2 10.2L46.32 10.26C48 11.22 48.84 15.66 47.34 19.74C47.16 19.74 46.98 19.74 46.8 19.74ZM28.2 21.36C28.32 21.42 28.44 21.54 28.68 21.78L29.7 23.1C29.76 23.16 29.88 23.22 30 23.22C30.12 23.16 30.18 23.1 30.18 22.98V19.5C30.18 17.52 32.7 17.04 37.08 16.92H38.1C41.82 16.8 44.16 16.74 45.3 15.12C45.78 16.26 45.54 18.6 45.24 19.92V19.98V22.98C45.24 23.1 45.3 23.22 45.42 23.22C45.54 23.28 45.66 23.22 45.72 23.1L46.74 21.78C46.92 21.54 47.1 21.42 47.22 21.36C47.28 21.54 47.4 22.08 47.1 22.8C46.8 23.52 46.38 23.88 46.2 23.88L45.6 23.76C45.54 23.76 45.42 23.76 45.36 23.82C45.3 23.88 45.24 23.94 45.24 24L45.18 24.6C44.82 28.44 41.28 32.1 37.8 32.1H37.56C34.14 32.1 30.54 28.44 30.18 24.54L30.06 23.94C30.06 23.88 30 23.82 29.94 23.76C29.88 23.7 29.82 23.7 29.82 23.7H29.76L29.16 23.82C29.04 23.76 28.62 23.52 28.32 22.74C28.02 22.08 28.08 21.54 28.2 21.36ZM38.34 41.82L37.8 42.54L37.14 41.76L37.32 40.38H38.16L38.34 41.82ZM33.18 32.34C34.56 33.3 36.06 33.78 37.5 33.78H37.74C39.24 33.78 40.8 33.24 42.24 32.22C42.3 32.7 42.36 33.06 42.54 33.42L38.34 38.7H37.14L32.94 33.42C33.06 33.12 33.18 32.76 33.18 32.34ZM39.72 40.02V39.6L43.68 34.62C43.74 34.62 43.86 34.68 43.92 34.74L39.72 40.02ZM31.56 34.68C31.62 34.68 31.74 34.62 31.8 34.62L35.76 39.6L35.7 39.96L31.56 34.68Z" fill="#333E50"/>
</g>
<defs>
<clipPath id="clip0">
<rect width="60" height="60" fill="white"/>
</clipPath>
</defs>
</svg>
