<svg width="60" height="60" viewBox="0 0 60 60" fill="none" xmlns="http://www.w3.org/2000/svg">
<path d="M12.5 51V40.5C14 40 17.4 39 19 39C20.6 39 22.6667 41 23.5 42L32.5 47.5L35.5 50.5C38.5 49.6667 44.8 48.6 46 51C47.5 54 38.5 56 35.5 57C32.5 58 29 58 27.5 58C26.3 58 17 53.3333 12.5 51Z" fill="white"/>
<path d="M12.0599 38.94H1.43994V53.46H12.0599V38.94Z" fill="#95CE5A"/>
<path d="M6.90007 44.52C7.49654 44.52 7.98007 44.0365 7.98007 43.44C7.98007 42.8436 7.49654 42.36 6.90007 42.36C6.3036 42.36 5.82007 42.8436 5.82007 43.44C5.82007 44.0365 6.3036 44.52 6.90007 44.52Z" fill="white"/>
<path d="M47.4 51.3C47.28 50.1 46.56 49.14 45.48 48.66C42.54 47.4 37.62 48.48 35.76 48.96C35.16 47.04 32.16 45.66 30.84 45.18C27.96 44.16 22.92 40.08 22.92 40.08C21 38.1 17.94 37.56 13.74 38.58C13.74 38.28 13.62 38.04 13.44 37.86C13.2 37.62 12.96 37.56 12.66 37.56H1.2C0.84 37.56 0.6 37.68 0.42 37.86C0.18 38.04 0 38.34 0 38.7V53.22C0 53.82 0.42 54.3 1.02 54.36H12.6C13.26 54.36 13.74 53.88 13.74 53.22V52.74C17.46 54.12 21.84 56.34 23.34 57.12C23.58 57.24 23.76 57.3 23.82 57.36C25.2 58.14 26.64 58.68 28.2 58.92C29.04 59.1 29.88 59.16 30.66 59.16C32.7 59.16 34.44 58.74 35.76 58.32C36.6 58.08 37.5 57.84 38.4 57.54C41.22 56.76 44.1 55.98 45.96 54.6C46.98 53.94 47.52 52.68 47.4 51.3ZM27.9 49.26C26.22 47.88 24.06 47.04 23.58 46.92C23.04 46.74 22.38 47.1 22.14 47.64C21.96 48.18 22.26 48.84 22.86 49.08C22.86 49.08 24.96 49.74 26.4 51C29.1 53.22 32.34 53.46 34.98 51.66C36.78 51.06 42.18 49.74 44.64 50.82C45 51 45.12 51.36 45.18 51.66C45.18 52.02 45.06 52.5 44.64 52.8C43.14 53.88 40.5 54.6 37.98 55.32C36.96 55.62 35.94 55.86 35.04 56.16C32.4 57 28.5 57.54 24.9 55.38C24.84 55.38 24.66 55.26 24.36 55.08C22.74 54.24 17.82 51.66 13.8 50.34V41.04C17.4 40.02 19.98 40.32 21.42 41.82L21.54 41.94C23.58 43.62 27.48 46.5 30.12 47.4C31.44 47.94 33.42 49.02 33.6 49.68C33.6 49.74 33.6 49.74 33.6 49.8C31.86 51 29.76 50.82 27.9 49.26ZM11.46 39.9V52.08H2.28V39.9H11.46Z" fill="#333E50"/>
<path d="M7.38002 41.1C6.06002 40.86 4.80002 41.76 4.56002 43.08C4.32002 44.4 5.22002 45.66 6.54002 45.9C7.86002 46.14 9.12002 45.24 9.36002 43.92C9.54002 42.6 8.64002 41.34 7.38002 41.1ZM6.84002 44.22C6.42002 44.16 6.18002 43.74 6.24002 43.32C6.30002 42.9 6.72002 42.6 7.14002 42.72C7.56002 42.78 7.86002 43.2 7.74002 43.62C7.56002 43.98 7.26002 44.28 6.84002 44.22Z" fill="#333E50"/>
<circle cx="39.5" cy="22.5" r="19.5" fill="white"/>
<path fill-rule="evenodd" clip-rule="evenodd" d="M34.2 12.23C31.4819 12.23 29.27 14.4419 29.27 17.16C29.27 19.8781 31.4819 22.09 34.2 22.09C36.9181 22.09 39.13 19.8781 39.13 17.16C39.13 14.4419 36.9181 12.23 34.2 12.23ZM31.39 17.16C31.39 15.6781 32.5981 14.47 34.08 14.47C35.5619 14.47 36.77 15.6781 36.77 17.16C36.77 18.6419 35.5619 19.85 34.08 19.85C32.6548 19.85 31.39 18.6387 31.39 17.16ZM47.6368 14.3432C47.1919 13.8983 46.4852 13.8705 46.0758 14.3507L31.3833 29.0432C30.938 29.4885 30.9105 30.196 31.3919 30.6052C31.4874 30.6969 31.6252 30.7695 31.7573 30.8191C31.8973 30.8716 32.0626 30.91 32.22 30.91C32.4864 30.91 32.708 30.7928 32.8923 30.6953C32.9268 30.6771 32.9599 30.6595 32.9919 30.6436L33.0281 30.6254L47.7143 15.9392L47.7281 15.9187C48.0248 15.4736 48.0283 14.8113 47.6521 14.3599L47.6448 14.3512L47.6368 14.3432ZM44.82 22.85C42.1019 22.85 39.89 25.0619 39.89 27.78C39.89 30.4981 42.1019 32.71 44.82 32.71C47.5381 32.71 49.75 30.4981 49.75 27.78C49.75 25.064 47.6002 22.85 44.82 22.85ZM42.13 27.9C42.13 26.4181 43.3381 25.21 44.82 25.21C46.3019 25.21 47.51 26.4181 47.51 27.9H47.5098L47.5102 27.9096C47.5644 29.3187 46.3075 30.59 44.82 30.59C43.3381 30.59 42.13 29.3819 42.13 27.9Z" fill="#333E50"/>
<path d="M39.48 42.96C28.2 42.96 18.96 33.78 18.96 22.44C18.96 11.1 28.2 1.98001 39.48 1.98001C50.76 1.98001 60 11.16 60 22.5C60 33.84 50.82 42.96 39.48 42.96ZM39.48 4.38001C29.52 4.38001 21.36 12.48 21.36 22.5C21.36 32.46 29.46 40.62 39.48 40.62C49.5 40.62 57.6 32.46 57.6 22.5C57.6 12.48 49.5 4.38001 39.48 4.38001Z" fill="#333E50"/>
</svg>
