<svg width="60" height="60" viewBox="0 0 60 60" fill="none" xmlns="http://www.w3.org/2000/svg">
<g clip-path="url(#clip0)">
<path d="M8.76005 30.12H56.7601L58.6801 33.72L56.4001 35.76L13.2 35.64L7.80005 30.48L8.76005 30.12Z" fill="#C3E2FC"/>
<path d="M17.0399 32.4C18.3654 32.4 19.4399 31.3255 19.4399 30C19.4399 28.6745 18.3654 27.6 17.0399 27.6C15.7144 27.6 14.6399 28.6745 14.6399 30C14.6399 31.3255 15.7144 32.4 17.0399 32.4Z" fill="white"/>
<path d="M26.88 32.4C28.2055 32.4 29.28 31.3255 29.28 30C29.28 28.6745 28.2055 27.6 26.88 27.6C25.5545 27.6 24.48 28.6745 24.48 30C24.48 31.3255 25.5545 32.4 26.88 32.4Z" fill="white"/>
<path d="M1.80005 19.2H6.00005L12.96 23.88L5.16005 24L1.80005 19.2Z" fill="#95CE5A"/>
<path d="M36.9601 32.4C38.2855 32.4 39.3601 31.3255 39.3601 30C39.3601 28.6745 38.2855 27.6 36.9601 27.6C35.6346 27.6 34.5601 28.6745 34.5601 30C34.5601 31.3255 35.6346 32.4 36.9601 32.4Z" fill="white"/>
<path d="M1.92005 56.28L1.80005 58.92L24.72 58.8L23.64 54.48L18.36 54L14.04 49.92L7.56005 51.72L6.60005 54L3.12005 53.76L1.92005 56.28Z" fill="#C3E2FC"/>
<path d="M35.7599 7.80001L35.6399 10.44L58.5599 10.32L57.4799 5.88001L52.0799 5.52001L47.8799 1.32001L41.2799 3.12001L40.4399 5.52001L36.9599 5.28001L35.7599 7.80001Z" fill="#C3E2FC"/>
<path d="M0.48 18.12C0 18.36 -0.12 18.96 0.12 19.44L8.28 33.24C9.6 35.52 12 36.96 14.64 36.96H32.76L22.2 49.32C22.08 49.56 21.96 49.68 21.96 49.92C21.96 50.52 22.44 50.88 22.92 50.88H30C30.24 50.88 30.48 50.76 30.72 50.64L45.48 36.96H56.16C57.24 36.96 58.32 36.48 59.04 35.52C59.76 34.68 59.88 33.48 59.64 32.4C58.08 26.76 52.92 22.92 47.16 22.92H43.56L28.68 9.24C28.44 9.12 28.2 9 27.96 9H21C20.76 9 20.52 9.12 20.4 9.24C20.04 9.6 19.92 10.2 20.28 10.68L30.84 23.04H14.28L6.48 18.24C6.36 18 6.24 18 6 18H0.96C0.84 18 0.6 18 0.48 18.12ZM40.44 23.04H33.48L23.16 11.04H27.6L40.44 23.04ZM47.04 24.96C50.04 24.96 53.04 26.28 55.08 28.44C55.08 28.56 54.96 28.68 54.96 28.8C54.84 28.92 54.84 29.04 54.72 29.04L54.6 29.16C54.6 29.28 54.48 29.28 54.36 29.28L54.24 29.4C54.12 29.4 54.12 29.52 54 29.52C54 29.52 53.88 29.52 53.88 29.64C53.76 29.64 53.76 29.76 53.64 29.76H53.52C53.4 29.76 53.4 29.76 53.28 29.88H53.16C53.04 29.88 52.92 29.88 52.8 29.88H49.2C47.76 29.88 46.68 28.8 46.68 27.36V24.84H47.04V24.96ZM35.52 36.96H42.48L29.64 48.96H25.2L35.52 36.96ZM5.76 24.96H44.76V27.48C44.76 30 46.8 31.92 49.32 32.04H52.8C53.04 32.04 53.28 32.04 53.52 31.92H53.64C53.88 31.92 54 31.8 54.24 31.8C54.24 31.8 54.24 31.8 54.36 31.8C54.6 31.68 54.72 31.68 54.96 31.56C54.96 31.56 55.08 31.56 55.08 31.44C55.2 31.32 55.44 31.2 55.56 31.2C55.56 31.2 55.68 31.2 55.68 31.08C55.8 30.96 56.04 30.84 56.16 30.6L56.28 30.48C56.28 30.36 56.4 30.36 56.4 30.24C57 31.08 57.36 32.04 57.6 33.12C57.72 33.6 57.6 34.08 57.36 34.44C57 34.8 56.52 35.04 56.04 35.04H14.64C12.72 35.04 10.92 33.96 9.96 32.4L5.76 24.96ZM2.76 20.04H5.76L10.56 23.04H4.56L2.76 20.04Z" fill="#333E50"/>
<path d="M33 30C33 31.68 34.32 33 36 33H38.04C39.72 33 41.04 31.68 41.04 30C41.04 28.32 39.72 27 38.04 27H36C34.32 27 33 28.32 33 30ZM35.04 30C35.04 29.4 35.52 29.04 36 29.04H38.04C38.64 29.04 39 29.52 39 30C39 30.6 38.52 30.96 38.04 30.96H36C35.4 30.96 35.04 30.6 35.04 30Z" fill="#333E50"/>
<path d="M23.04 30C23.04 31.68 24.36 33 26.04 33H28.08C29.76 33 31.08 31.68 31.08 30C31.08 28.32 29.76 27 28.08 27H26.04C24.36 27 23.04 28.32 23.04 30ZM24.96 30C24.96 29.4 25.44 29.04 25.92 29.04H27.96C28.56 29.04 28.92 29.52 28.92 30C28.92 30.6 28.44 30.96 27.96 30.96H25.92C25.44 30.96 24.96 30.6 24.96 30Z" fill="#333E50"/>
<path d="M15.96 27C14.28 27 12.96 28.32 12.96 30C12.96 31.68 14.28 33 15.96 33H18C19.68 33 21 31.68 21 30C21 28.32 19.68 27 18 27H15.96ZM15.96 29.04H18C18.6 29.04 18.96 29.52 18.96 30C18.96 30.6 18.48 30.96 18 30.96H15.96C15.36 30.96 15 30.48 15 30C15 29.4 15.48 29.04 15.96 29.04Z" fill="#333E50"/>
<path d="M59.76 10.32C59.88 9.84 60 9.48 60 9C60 6.24 57.6 3.96 54.84 3.96C54.24 3.96 53.76 4.08 53.16 4.2C51.96 1.56 49.32 -0.119995 46.44 -0.119995C43.68 -0.119995 41.04 1.44 39.84 3.96C39.6 3.96 39.36 3.96 39.12 3.84C36.36 3.84 33.96 6 33.96 8.88C33.96 9.36 34.08 9.72001 34.2 10.2C34.32 10.68 34.68 10.92 35.16 10.92H58.8C59.28 11.04 59.76 10.68 59.76 10.32ZM57.96 9H36C36 7.32 37.44 6 39.12 6C39.48 6 39.84 6.12 40.08 6.12C40.56 6.24 41.16 6 41.28 5.52C42 3.36 44.04 1.92 46.32 2.04C48.72 2.04 50.88 3.6 51.48 5.88C51.48 6 51.6 6.12 51.6 6.12C51.84 6.6 52.56 6.72 52.92 6.48C53.64 6.12 54.24 6 54.84 6C56.52 6 57.96 7.32 57.96 9Z" fill="#333E50"/>
<path d="M5.16 53.04C2.4 52.92 0 55.2 0 57.96C0 58.44 0.12 58.8 0.24 59.28C0.24 59.64 0.72 60 1.2 60H24.96C25.44 60 25.8 59.64 25.92 59.28C26.04 58.92 26.04 58.44 26.16 57.96C26.16 55.2 23.76 52.92 21 52.92C20.4 52.92 19.92 53.04 19.32 53.16C18.6 51.6 17.4 50.4 15.96 49.68C12.36 47.88 7.92 49.32 6 52.92C5.64 53.04 5.4 53.04 5.16 53.04ZM2.04 57.96C2.04 56.28 3.48 54.96 5.16 54.96C5.52 54.96 5.88 55.08 6.12 55.08C6.6 55.2 7.2 54.96 7.32 54.48C7.92 52.8 9.24 51.6 10.92 51.12C13.8 50.28 16.68 51.96 17.52 54.84C17.52 54.96 17.64 55.08 17.64 55.08C17.88 55.56 18.6 55.68 18.96 55.44C19.44 55.08 20.04 54.96 20.64 54.96C22.32 54.96 23.76 56.28 23.76 57.96H2.04Z" fill="#333E50"/>
</g>
<defs>
<clipPath id="clip0">
<rect width="60" height="60" fill="white"/>
</clipPath>
</defs>
</svg>
