<svg width="60" height="60" viewBox="0 0 60 60" fill="none" xmlns="http://www.w3.org/2000/svg">
<g clip-path="url(#clip0)">
<path d="M51.7799 1.17999H8.3999V18.46H51.7799V1.17999Z" fill="white"/>
<path d="M22.4999 5.82001H14.3999V13.56H22.4999V5.82001Z" fill="#95CE5A"/>
<path d="M23.5199 3.71998C23.3399 3.65998 23.2199 3.59998 23.0399 3.59998C22.7399 3.59998 22.3799 3.77998 22.2599 4.07998L21.7199 4.97998H14.5199C14.0399 4.97998 13.6199 5.39998 13.6199 5.87998V13.92C13.6199 14.4 14.0399 14.82 14.5199 14.82H22.6199C23.0999 14.82 23.5199 14.4 23.5199 13.92V5.81998C23.5199 5.69998 23.5199 5.63998 23.4599 5.51998L23.8199 4.91998C24.0599 4.49998 23.9399 3.95998 23.5199 3.71998ZM21.6599 12.96H15.4199V6.71998H20.6999L18.8999 9.77998L17.3999 8.33998C17.0399 7.97998 16.4999 7.97998 16.1399 8.33998C15.7799 8.69998 15.7799 9.23998 16.1399 9.59998L18.4199 11.82C18.7799 12.18 19.3199 12.18 19.6799 11.82C19.7399 11.76 19.7999 11.7 19.7999 11.64L21.6599 8.51998V12.96Z" fill="#333E50"/>
<path d="M27.5399 6.71997C27.0599 6.71997 26.6399 7.13997 26.6399 7.61997C26.6399 8.09997 27.0599 8.51997 27.5399 8.51997H45.4799C45.9599 8.51997 46.3799 8.09997 46.3799 7.61997C46.3799 7.13997 45.9599 6.71997 45.4799 6.71997H27.5399Z" fill="#333E50"/>
<path d="M27.5399 11.16C27.0599 11.16 26.6399 11.58 26.6399 12.06C26.6399 12.54 27.0599 12.9 27.5399 12.96H34.4399C34.9199 12.96 35.3399 12.6 35.3399 12.06C35.3399 11.58 34.9799 11.16 34.4399 11.16C34.4399 11.16 34.4399 11.16 34.3799 11.16H27.5399Z" fill="#333E50"/>
<path d="M50.5199 1.74C50.6999 1.74 50.88 1.92 50.88 2.1V17.1C50.88 17.28 50.6999 17.46 50.5199 17.46H9.47995C9.29995 17.46 9.11995 17.28 9.11995 17.1V2.1C9.11995 1.92 9.29995 1.74 9.47995 1.74H50.5199ZM50.5199 0H9.47995C8.21995 0 7.19995 0.9 7.19995 2.1V17.1C7.19995 18.24 8.21995 19.2 9.47995 19.2H50.5199C51.7799 19.2 52.7999 18.3 52.7999 17.1V2.1C52.7999 0.9 51.7799 0 50.5199 0Z" fill="#333E50"/>
<path d="M51.7799 21.18H8.3999V38.46H51.7799V21.18Z" fill="#C3E2FC"/>
<path d="M22.4999 26.28H14.3999V34.02H22.4999V26.28Z" fill="#95CE5A"/>
<path d="M23.5199 24.18C23.3999 24.12 23.2199 24.06 23.0399 24.06C22.7399 24.06 22.3799 24.24 22.2599 24.54L21.7199 25.44H14.5199C14.0399 25.44 13.6199 25.86 13.6199 26.34V34.38C13.6199 34.86 14.0399 35.28 14.5199 35.28H22.6199C23.0999 35.28 23.5199 34.86 23.5199 34.38V26.28C23.5199 26.16 23.5199 26.1 23.4599 25.98L23.8199 25.38C24.0599 24.96 23.9399 24.42 23.5199 24.18ZM21.6599 33.42H15.4199V27.18H20.6999L18.8999 30.24L17.3999 28.74C17.0399 28.38 16.4999 28.38 16.1399 28.74C15.7799 29.1 15.7799 29.64 16.1399 30L18.4199 32.22C18.7799 32.58 19.3199 32.58 19.6799 32.22C19.7399 32.16 19.7999 32.1 19.7999 32.04L21.6599 28.92V33.42Z" fill="#333E50"/>
<path d="M27.5399 27.18C27.0599 27.18 26.6399 27.6 26.6399 28.08C26.6399 28.56 27.0599 28.98 27.5399 28.98H45.4799C45.9599 28.98 46.3799 28.56 46.3799 28.08C46.3799 27.6 45.9599 27.18 45.4799 27.18H27.5399Z" fill="#333E50"/>
<path d="M27.5399 31.6201C27.0599 31.6201 26.6399 32.0401 26.6399 32.5201C26.6399 33.0001 27.0599 33.3601 27.5399 33.4201H34.4399C34.9199 33.4201 35.3399 33.0601 35.3399 32.5201C35.3399 32.0401 34.9799 31.6201 34.4399 31.6201C34.4399 31.6201 34.4399 31.6201 34.3799 31.6201H27.5399Z" fill="#333E50"/>
<path d="M50.5199 22.14C50.6999 22.14 50.88 22.32 50.88 22.5V37.5C50.88 37.68 50.6999 37.86 50.5199 37.86H9.47995C9.29995 37.86 9.11995 37.68 9.11995 37.5V22.5C9.11995 22.32 9.29995 22.14 9.47995 22.14H50.5199ZM50.5199 20.46H9.47995C8.21995 20.46 7.19995 21.36 7.19995 22.56V37.56C7.19995 38.7 8.21995 39.66 9.47995 39.66H50.5199C51.7799 39.66 52.7999 38.76 52.7999 37.56V22.56C52.7999 21.36 51.7799 20.46 50.5199 20.46Z" fill="#333E50"/>
<path d="M51.7799 42.18H8.3999V59.46H51.7799V42.18Z" fill="white"/>
<path d="M22.4999 46.74H14.3999V54.48H22.4999V46.74Z" fill="#95CE5A"/>
<path d="M23.5199 44.58C23.3999 44.52 23.2199 44.46 23.0399 44.46C22.7399 44.46 22.3799 44.64 22.2599 44.94L21.7199 45.84H14.5199C14.0399 45.84 13.6199 46.26 13.6199 46.74V54.78C13.6199 55.26 14.0399 55.68 14.5199 55.68H22.6199C23.0999 55.68 23.5199 55.26 23.5199 54.78V46.68C23.5199 46.56 23.5199 46.5 23.4599 46.38L23.8199 45.78C24.0599 45.42 23.9399 44.88 23.5199 44.58ZM21.6599 53.82H15.4199V47.58H20.6999L18.8999 50.64L17.3999 49.2C17.0399 48.84 16.4999 48.84 16.1399 49.2C15.7799 49.56 15.7799 50.1 16.1399 50.46L18.4199 52.68C18.7799 53.04 19.3199 53.04 19.6799 52.68C19.7399 52.62 19.7999 52.56 19.7999 52.5L21.6599 49.38V53.82Z" fill="#333E50"/>
<path d="M27.5399 47.58C27.0599 47.58 26.6399 48 26.6399 48.48C26.6399 48.96 27.0599 49.38 27.5399 49.38H45.4799C45.9599 49.38 46.3799 48.96 46.3799 48.48C46.3799 48 45.9599 47.58 45.4799 47.58H27.5399Z" fill="#333E50"/>
<path d="M27.5399 52.08C27.0599 52.08 26.6399 52.5 26.6399 52.98C26.6399 53.46 27.0599 53.82 27.5399 53.88H34.4399C34.9199 53.88 35.3399 53.52 35.3399 52.98C35.3399 52.5 34.9799 52.08 34.4399 52.08C34.4399 52.08 34.4399 52.08 34.3799 52.08H27.5399Z" fill="#333E50"/>
<path d="M50.5199 42.6C50.6999 42.6 50.88 42.78 50.88 42.96V57.96C50.88 58.14 50.6999 58.32 50.5199 58.32H9.47995C9.29995 58.32 9.11995 58.14 9.11995 57.96V42.96C9.11995 42.78 9.29995 42.6 9.47995 42.6H50.5199ZM50.5199 40.86H9.47995C8.21995 40.86 7.19995 41.76 7.19995 42.96V57.96C7.19995 59.1 8.21995 60.06 9.47995 60.06H50.5199C51.7799 60.06 52.7999 59.16 52.7999 57.96V42.96C52.7999 41.82 51.7799 40.86 50.5199 40.86Z" fill="#333E50"/>
</g>
<defs>
<clipPath id="clip0">
<rect width="60" height="60" fill="white"/>
</clipPath>
</defs>
</svg>
