<svg width="60" height="60" viewBox="0 0 60 60" fill="none" xmlns="http://www.w3.org/2000/svg">
<path d="M30 57.3C31.4 56.9 37 54.9 42.5 49C48.4 42.8 55.4 30.8 55.4 9.3C55.4 9.2 55.4 9.1 55.4 9C52.3 10 49.1 10.5 45.9 10.5C38.3 10.5 31.9 8.1 29.2 4.5L30 57.3Z" fill="#C3E2FC"/>
<path d="M30.0001 40.9C36.02 40.9 40.9001 36.0199 40.9001 30C40.9001 23.9801 36.02 19.1 30.0001 19.1C23.9802 19.1 19.1001 23.9801 19.1001 30C19.1001 36.0199 23.9802 40.9 30.0001 40.9Z" fill="#95CE5A"/>
<path d="M27.9 35.3C27.5 35.3 27.2 35.1 26.9 34.9L24.1 31.7C23.6 31.2 23.7 30.3 24.2 29.9C24.7 29.4 25.6 29.5 26 30L27.8 32.1L33.9 25.2C34.4 24.7 35.2 24.6 35.7 25.1C36.2 25.6 36.3 26.4 35.8 26.9L28.7 34.9C28.6 35.1 28.2 35.3 27.9 35.3Z" fill="#333E50"/>
<path d="M29.9999 42.4C23.1999 42.5 17.5999 37 17.4999 30.1C17.3999 23.2 22.8999 17.7 29.7999 17.6C36.5999 17.5 42.1999 23 42.2999 29.9V30C42.2999 36.8 36.7999 42.4 29.9999 42.4ZM29.9999 20.2C24.5999 20.1 20.1999 24.5 20.0999 29.9C19.9999 35.3 24.3999 39.7 29.7999 39.8C35.1999 39.9 39.5999 35.5 39.6999 30.1V30C39.6999 24.6 35.3999 20.2 29.9999 20.2Z" fill="#333E50"/>
<path d="M30 60C29.9 60 29.8 60 29.7 60C29.4 59.9 22.6 58.2 15.7 51C9.4 44.4 2 31.8 2 9.3C2 8.7 2 8.2 2 7.7C2 7 2.6 6.4 3.3 6.4C3.4 6.4 3.6 6.4 3.7 6.5C6.6 7.4 9.6 7.9 12.6 7.9C21.3 7.9 27.4 4.4 28 1.2C28.1 0.4 28.6 0 29.2 0C29.8 0 30.4 0.4 30.5 1.1C31.1 4.3 37.2 7.8 45.9 7.8C49.4 7.8 52.9 7.2 56.2 5.9C56.9 5.6 57.6 5.9 57.9 6.6C58 6.7 58 6.9 58 7C58 7.7 58 8.5 58 9.2C58 31.8 50.5 44.3 44.3 50.9C37.4 58.1 30.6 59.8 30.3 59.9C30.2 60 30.1 60 30 60ZM4.6 9.4C4.6 30.9 11.6 42.8 17.5 49C23 54.9 28.7 56.9 30 57.3C31.4 56.9 37 54.9 42.5 49C48.4 42.8 55.4 30.8 55.4 9.3C55.4 9.2 55.4 9.1 55.4 9C52.3 10 49.1 10.5 45.9 10.5C38.3 10.5 31.9 8.1 29.2 4.5C26.5 8.1 20.1 10.5 12.5 10.5C9.9 10.4 7.2 10.1 4.6 9.4Z" fill="#333E50"/>
</svg>
