<svg width="60" height="60" fill="none" xmlns="http://www.w3.org/2000/svg"><g clip-path="url(#clip0)"><path d="M57.3 36.42s0-.06-.06-.06c.06 0 .06.06.06.06zm.12-13.56v-.06.06zm-4.26-6.48c.06.12.06.06 0 0zm-2.76-5.82v-.06.06zm-.24-.42l-.06-.06.06.06zm-.54-.42c-.06 0-.06-.06-.12-.06.06 0 .12 0 .12.06zm-.42-.18h-.12.12zM37.62 2.76c-.06 0-.06 0-.12-.06.06.06.12.06.12.06zm-.84-.12h-.06c0-.06.06-.06.06 0zM22.5 2.7s-.06.06-.12.06c.06-.06.06-.06.12-.06zM10.2 9.78l-.06.06.06-.06zm-.66 1.02v0zm-2.7 5.58c0 .06-.06.12 0 0zm-4.08 6c0 .06 0 .06 0 0 0 .06 0 .06 0 0zm-.12.48v.06c-.06 0 0-.06 0-.06zM3 29.4c0-.06 0-.06 0 0zm-.24 6.9c0 .06-.06.06-.06.12 0-.06 0-.06.06-.12zm-.12.36v.12c-.06 0 0-.06 0-.12zm4.32 7.38v-.12.12zm2.58 5.16v.06-.06zm.3.6c0 .06.06.06.06.12-.06 0-.06-.06-.06-.12zm.54.54c.06 0 .12.06.12.06s-.06-.06-.12-.06zm.36.12h0zm5.28 2.58h.12c-.06.06-.06.06-.12 0zm5.88 3.78s0 .06 0 0c0 .06 0 .06 0 0zm.84.54h.12c-.06.06-.12 0-.12 0zm13.92 0h.18c-.06.06-.12.06-.18 0zm12.54-6.9h.06-.06zm4.44-7.5c.06 0 .06 0 0 0zm3.42-5.04c0-.06.06-.06 0 0 .06-.06 0-.06 0 0zm.3-.66v-.18.18c-.06.06-.06.12-.06.18v.06c-.06.12-.06.12 0-.06 0 .06-.18.36-.24.42v.06l-.12.12s-.06.06-.12.06-.06.06-.12.06c-.12.06-.3.18-.42.24-1.26.72-2.52 1.44-3.72 2.16-1.26.78-2.04 2.1-2.04 3.6V49.2c0 .06-.06.12-.06.18v.06c-.06.12-.06.12 0-.06 0 .12-.18.3-.24.42v.06c-.06.06-.06.06-.12.06l-.18.18c-.12.12-.36.3-.42.3.06 0 .12-.06.12-.06-.06 0-.12.06-.18.06s-.12.06-.18.06h-3.72c-.6 0-1.2-.06-1.8 0-1.38.18-2.52.96-3.24 2.16-.72 1.32-1.5 2.58-2.22 3.9 0 .06-.06.12-.06.12 0 .06-.06.12-.06.12l-.18.18c-.06.06-.3.24-.42.24.06 0 .12-.06.12-.06-.06 0-.06.06-.12.06s-.12.06-.24.06c-.06 0-.3.12-.12 0 .18-.06 0 0-.12 0h-.42c-.06 0-.12-.06-.18-.06h-.06c-.06-.06-.12-.06-.18-.12-.06 0-.06-.06-.12-.06-.24-.18-.54-.3-.78-.48-.78-.42-1.56-.9-2.34-1.32-.66-.42-1.38-.84-2.16-.96-1.02-.18-1.98 0-2.82.48-.18.06-.3.18-.48.24-.78.42-1.5.84-2.28 1.32-.48.3-.96.54-1.44.84-.06.06-.12.06-.18.12-.06 0-.12.06-.18.06h-.06c-.12.06-.36 0-.48 0h-.12c-.06 0-.06 0-.12-.06-.06 0-.12-.06-.18-.06-.12-.06-.24-.18-.36-.24-.06-.06-.12-.06-.12-.12l-.06-.06-.06-.06c-.06-.06-.06-.12-.12-.18-.72-1.2-1.44-2.46-2.1-3.66-.48-.9-1.08-1.68-2.04-2.1-.84-.36-1.68-.42-2.58-.42H11.1h-.18-.12c-.06 0-.18-.06-.24-.06h-.06c-.12-.06-.18-.12-.24-.18l-.12-.12s-.06-.06-.12-.06c-.06-.06-.06-.12-.12-.12-.06-.06-.06-.12-.12-.18v-.06c-.06-.12-.06-.12 0 .06-.18-.06-.18-.36-.24-.42v-.06-.18-.06-1.98-2.46c0-1.2-.36-2.34-1.2-3.24-.54-.54-1.2-.84-1.8-1.2-.78-.42-1.56-.84-2.34-1.32-.24-.12-.48-.3-.72-.42-.06-.06-.12-.06-.18-.12 0 0-.06-.06-.12-.06s-.06-.06-.06-.06l-.18-.18-.06-.06c-.06-.06-.06-.12-.12-.18 0 0 0-.06-.06-.06-.06-.12-.06-.12 0 .06-.06-.12-.12-.3-.12-.42v-.06-.18-.18-.18c0-.06.06-.12.06-.18s.06-.12.06-.18.06-.06.06-.06c0-.06.06-.12.06-.18.72-1.32 1.5-2.58 2.22-3.9.78-1.32.78-2.88.06-4.2-.3-.54-.6-1.02-.9-1.56-.42-.72-.84-1.44-1.26-2.22-.06-.12-.18-.3-.24-.42 0-.06-.06-.12-.06-.12v-.06c0-.06-.06-.18-.06-.24v-.36-.12c0-.06.06-.18.06-.18 0-.06 0-.12.06-.12l.06-.06.18-.36.06-.06.18-.18c.06-.06.12-.06.18-.12.12-.06.3-.18.42-.24.78-.42 1.5-.84 2.28-1.32.48-.3.96-.54 1.44-.84 1.32-.78 2.04-2.16 2.04-3.66v-4.44-.24-.12-.12-.06c0-.06.06-.12.06-.12 0-.06.06-.12.06-.18.06-.06.06-.18.12-.3l.06-.06.18-.18.06-.06h.06c.06 0 .06-.06.12-.06.06-.06.12-.06.18-.12.12 0 .3-.06.42-.12h3.66c.72 0 1.38.06 2.1-.06 1.26-.24 2.28-1.08 2.88-2.16.42-.66.78-1.38 1.2-2.04.36-.6.72-1.26 1.08-1.86.06-.06.12-.18.12-.24v-.06l.12-.12s.12-.06.12-.12c0 0 .06 0 .06-.06.06-.06.18-.12.24-.12s.06-.06.06-.06c.12 0 .24-.06.3-.06h.48c.06 0 .18.06.24.06h.06-.06s.06 0 .06.06c.06.06.18.06.18.06.06 0 .12.06.18.12.3.18.54.3.84.48.78.42 1.56.9 2.34 1.32.78.42 1.5.9 2.4 1.02 1.14.18 2.1-.24 3.06-.78 1.26-.72 2.46-1.5 3.72-2.16 0 0 .06 0 .06-.06h.12s.12-.06.18-.06h.42c.06.06.24.06.3.06h.06c.06 0 .12.06.12.06.06 0 .12.06.18.12l.06.06c.18.12.18.12.06 0 .06 0 .18.12.24.24 0 0 0 .06.06.06.06.06.06.12.12.18.3.48.6 1.02.9 1.5.42.72.84 1.5 1.26 2.22.06.12.18.24.24.42.48.84 1.2 1.44 2.1 1.8.78.3 1.56.24 2.34.24h4.14c.06 0 .18.06.18.06h.12c.06 0 .06.06.12.06.06.06.12.06.18.12l.06.06c.06 0 .06.06.06.06l.18.18v.06l.06.06c0 .06.06.12.06.12s.06.06.06.12v.06c0 .06.06.24.06.3 0-.06 0 0 .06.06v4.62c0 1.2.36 2.4 1.26 3.24.54.48 1.2.84 1.86 1.2.78.42 1.56.9 2.34 1.32.24.12.42.24.66.36.06.06.18.12.24.12.06.06.12.06.12.12l.06.06c.06.06.06.12.12.18s.06.12.12.18c0 .06.06.18.12.3v.48c0 .06 0 .12-.06.12 0 .06-.06.12-.06.18-.06.06-.06.12-.12.18s-.06.12-.12.18c-.36.66-.78 1.32-1.14 2.04-.36.6-.72 1.2-1.08 1.86-.78 1.32-.78 2.88-.06 4.2.72 1.26 1.44 2.46 2.16 3.72.06.12.18.3.24.42.06.06.06.12.12.18 0 .06.06.06.06.06 0 .12 0 .24.06.3v.24c.06.3.06.48 0 .54z" fill="#95CE5A"/><path d="M45.6 28.86c-.06-1.14-.48-2.28-1.38-3-.72-.6-1.56-.9-2.46-1.02-.84-.12-1.68-.06-2.58-.06h-4.14v-1.62c0-1.14.06-2.28-.12-3.36-.24-1.62-.78-3.24-2.22-4.2-.84-.6-1.98-.78-3-.66-.72.06-1.44.24-2.1.6-.36.06-.6.6-.6 1.02V22.8c0 .06 0 .12-.06.18-.06.18-.06.36-.12.54-.06.12-.06.24-.12.36 0 .06-.06.12-.06.18-.12.3-.3.54-.48.84 0 .06-.06.06-.06.06-.06.12-.18.18-.24.3-.18.24-.42.42-.66.6-.06.06-.18.12-.24.18l-.12.12c-.24.18-.48.3-.72.48-.42.24-.78.42-1.2.66 0 0-.06 0-.06.06h.06c-.12.06-.18.06-.3.12-.18.06-.3.12-.48.18-.12.06-.24.06-.42.12-.54.12-.96.66-.96 1.26V41.4c0 1.38.66 2.64 1.86 3.3.78.42 1.62.6 2.46.6h12c.72 0 1.5.06 2.22 0 1.44-.12 2.64-.72 3.54-1.86.42-.6.78-1.32.9-2.04.3-1.32.48-2.7.66-4.02.24-1.38.48-2.82.66-4.2.12-.72.24-1.38.3-2.1.18-.78.3-1.5.24-2.22zM31.38 17.7c-.06-.06-.12-.12 0 0zm-.18-.12s-.06 0 0 0c-.06 0 0 0 0 0z" fill="#fff"/><path d="M20.7 41.34c0 1.38.66 2.64 1.86 3.3.78.42 1.62.6 2.46.6h12c.72 0 1.5.06 2.22 0 1.44-.12 2.64-.72 3.54-1.86.42-.6.78-1.32.9-2.04.3-1.32.48-2.7.66-4.02.24-1.38.48-2.82.66-4.2.12-.72.24-1.38.3-2.1.12-.72.24-1.44.18-2.16-.06-1.14-.48-2.28-1.38-3-.72-.6-1.56-.9-2.46-1.02-.84-.12-1.68-.06-2.58-.06H33.6l1.32 1.32v-2.94c0-1.14.06-2.28-.12-3.36-.24-1.62-.78-3.24-2.22-4.2-.84-.6-1.98-.78-3-.66-.72.06-1.44.24-2.1.6-.24.06-.48.6-.48 1.02V22.8c0 .3.06-.3 0 0 0 .06 0 .18-.06.24-.06.18-.06.36-.12.54-.06.12-.06.24-.12.36-.12.24.12-.3 0-.06-.06.06-.06.12-.12.18-.12.3-.3.54-.48.84-.06.06-.06.12-.12.12l.06-.06c-.12.12-.18.24-.3.3-.18.24-.42.42-.66.6-.06.06-.18.12-.24.24-.18.18.24-.18.06-.06-.06.06-.12.06-.18.12-.24.18-.48.3-.72.48-.42.24-.78.42-1.2.66-.12.06-.48.18 0 0-.12.06-.18.06-.3.12-.18.06-.3.12-.48.18-.12.06-.24.06-.42.12-.54.12-.96.66-.96 1.26v10.8c.06.54.06 1.02.06 1.56 0 .66.6 1.32 1.32 1.32.72-.06 1.32-.6 1.32-1.32V37.2v-6.66-1.56c-.3.42-.66.84-.96 1.26 1.56-.42 3-1.2 4.26-2.22 1.08-.84 1.92-1.92 2.4-3.12.72-1.68.54-3.48.54-5.22v-3.12c-.24.36-.42.78-.66 1.14 0 0 .06 0 .06-.06.12-.06-.42.18-.18.06.06 0 .12-.06.12-.06.24-.12.54-.18.84-.24.06 0 .42-.06.12 0s.06 0 .12 0h.72c.18 0-.36-.06-.18 0 .12 0 .24.06.3.06.12 0 .18.06.3.12-.06 0-.3-.18-.12-.06.06 0 .12.06.18.06.12.06.18.12.3.18-.12-.06-.24-.24-.12-.06l.12.12c.06.06.18.18.24.3 0 0-.18-.3-.12-.12l.06.06c.06.06.06.12.12.18l.18.36c.12.18-.12-.3 0 0 .06.12.06.18.12.3.12.36.18.72.24 1.14.06.36 0-.18 0 .06 0 .12 0 .24.06.36 0 .18 0 .42.06.6v4.98c0 .72.6 1.32 1.32 1.32 2.34 0 4.68.06 7.02 0h.72c.18 0-.42-.06-.12 0 .18 0 .3.06.42.12.06 0 .12.06.18.06.12.06.36.18-.06 0 .18.06.3.18.48.24.24.18-.24-.18-.06-.06l.18.18.18.18c-.24-.24-.12-.18-.06-.06 0 .06.06.12.06.12 0 .06.06.06.06.12.12.24-.06 0-.06-.06 0 .06.06.24.12.3 0 .12.06.18.06.3.06.18 0-.36 0-.06v.24c0 .3.06.6-.06.9.12-.36 0 .12-.06.24 0 .18-.06.3-.06.48-.24 1.38-.42 2.76-.66 4.14-.3 1.92-.6 3.78-.96 5.7-.06.3-.12.54-.18.78 0 .06-.06.12-.06.24.12-.42.06-.12 0-.06-.06.18-.18.36-.3.48 0 .06-.06.12-.12.12 0 0 .24-.24.06-.12-.06.06-.12.18-.24.24-.06.06-.18.12-.24.24.12-.18.18-.12.12-.06s-.12.06-.18.12-.42.18-.18.12c.24-.12 0 0-.06 0s-.12.06-.18.06l-.42.06c0-.06.3 0 .06 0H25.32c-.24 0-.48 0-.72-.06-.18 0 .42.06.12 0-.06 0-.12 0-.24-.06-.18-.06-.36-.12-.6-.18l.18.06c-.06-.06-.12-.06-.18-.06-.06-.06-.18-.06-.24-.12-.3-.18.18.18 0 0 0 0-.18-.24-.24-.24.12 0 .18.3.06.06 0-.06-.06-.12-.06-.12-.18-.3.06.24-.06-.06-.06-.12-.06-.3-.06-.36v-.12c0-.66-.6-1.32-1.32-1.32-.66-.06-1.26.48-1.26 1.26z" fill="#333E50"/><path d="M21.9 28.32h-6.12V42.9h6.12V28.32z" fill="#C3E2FC"/><path d="M21 42.12h-4.38c0-.06.3.12.06 0 .18.06.18.06.06 0l.12.12c-.24-.18.12.24 0 0 0 .06.12.3.06.06.3 1.14 0 .18 0 .18v-.06-1.14-9.78-1.74-.48c0-.12.06-.24 0 0 .06-.3-.18.18 0 0 0 .06-.18.18-.06.06l-.12.12c.12-.06.12-.06 0 0 0 0-.06 0-.06.06.12-.06.12 0-.06 0h3.6c.18 0 .48.06.66 0h-.18c.12.06.12 0 0 0 0 0-.06 0-.06-.06.12.06.12.06-.06-.06.18.12 0 0-.06-.06.18.24-.06-.24 0 0v-.18 12.48c0 .3-.06.66 0 .96 0 .06-.06.18 0-.12-.06.24 0 0 .06-.06-.12.24.18-.18 0 0 .06 0 .24-.18.06-.06.06 0 .12-.06.12-.06.06-.12.06-.12.24-.18-.66.06-1.32.6-1.32 1.32.06.66.6 1.32 1.32 1.32 1.38-.06 2.28-1.14 2.28-2.46v-1.38-5.16-5.16-1.38c0-1.32-.9-2.4-2.28-2.46-1.38-.06-2.82 0-4.2 0-1.32 0-2.4.96-2.4 2.34v13.02c0 .78.12 1.5.72 2.04.78.72 1.74.6 2.64.6H21c.66 0 1.32-.6 1.32-1.32 0-.72-.54-1.32-1.32-1.32z" fill="#333E50"/><path d="M54.78 32.04c.72 1.26 1.44 2.46 2.16 3.72.06.12.18.3.24.42.06.06.06.12.12.18.12.24 0-.06 0-.06.12.06.06.36.12.48v-.18V37.08c0 .06 0 .12-.06.18 0 .06-.06.12-.06.18v.06c-.06.12-.06.12 0-.06 0 .06-.18.36-.24.42-.12.24.06-.06.06-.06 0 .06-.18.18-.18.18l-.12.12c.12-.12.18-.12.06-.06-.06 0-.06.06-.12.06-.12.06-.3.18-.42.24-1.26.72-2.52 1.44-3.72 2.16-1.26.78-2.04 2.1-2.04 3.6V48.96c0 .06 0 .12-.06.18 0 .06-.06.12-.06.18v.06c-.06.12-.06.12 0-.06 0 .12-.18.3-.24.42s0 .06.06-.06c0 .06-.12.12-.12.18l-.18.18c-.18.18.18-.12 0 0-.18.18-.42.36-.48.36.06 0 .12-.06.12-.06-.06 0-.12.06-.18.06s-.12.06-.18.06h-3.72c-.6 0-1.2-.06-1.8 0-1.38.18-2.52.96-3.24 2.16-.72 1.32-1.5 2.58-2.22 3.9 0 .06-.06.12-.06.12-.06.06-.06.18-.12.18.18-.18.06-.12 0-.06l-.18.18c-.18.24.24-.12 0 0-.06.06-.3.24-.42.24.06 0 .12-.06.12-.06-.06 0-.06.06-.12.06s-.12.06-.24.06c-.06 0-.3.12-.12 0 .18-.06 0 0-.12 0h-.3c-.06 0-.42-.12-.48-.12 0 0 .3.12.06 0-.06-.06-.12-.06-.18-.12-.06 0-.06-.06-.12-.06-.24-.18-.54-.3-.78-.48-.78-.42-1.56-.9-2.34-1.32-.66-.42-1.38-.84-2.16-.96-1.02-.18-1.98 0-2.82.48-.18.06-.3.18-.48.24-.78.42-1.5.84-2.28 1.32-.48.3-.96.54-1.44.84-.06.06-.12.06-.24.12-.18.12.3-.06 0 0-.06 0-.12.06-.18.06h-.06c-.12.06-.36 0-.48 0h-.18.06c-.06 0-.06 0-.12-.06-.06 0-.12-.06-.24-.06-.24-.06.12.12 0 0-.12-.06-.3-.18-.42-.24-.18-.06.24.18 0 0-.06-.06-.12-.06-.12-.12l-.06-.06c-.12-.12-.06-.12 0 .06l-.18-.24c-.72-1.2-1.44-2.46-2.1-3.66-.48-.9-1.08-1.68-2.04-2.1-.84-.36-1.68-.42-2.58-.42h-4.2-.06c-.06 0-.18-.06-.24-.06-.24-.06.06 0 .06 0-.12 0-.3-.18-.42-.24-.24-.12.18.18 0 0l-.12-.12c-.06-.06-.18-.12-.18-.18l.12.12c-.06-.06-.06-.12-.12-.12-.06-.06-.06-.12-.12-.18v-.06c-.06-.12-.06-.12 0 .06.12 0 .12-.3.06-.36-.06-.24 0 .06 0 .06-.06-.06 0-.24 0-.3v-.06-1.98-2.46c0-1.2-.36-2.34-1.2-3.24-.54-.54-1.2-.84-1.8-1.2-.78-.42-1.56-.84-2.34-1.32-.24-.12-.48-.3-.72-.42-.06-.06-.12-.06-.18-.12 0 0-.24-.18-.12-.06.18.12-.06-.06-.06-.06l-.18-.18c-.06-.06-.06-.06.06.12-.06-.06-.06-.12-.12-.18s-.06-.12-.12-.18c0 0 0-.06-.06-.06-.06-.12-.06-.12 0 .06-.06-.12-.12-.3-.12-.42-.06-.18-.06-.06 0 .06-.06-.06 0-.24 0-.3v-.18-.18.18s.06-.42.12-.48c0 .06-.06.06-.06.12 0-.06.06-.12.06-.18s.06-.06.06-.06c0-.06.06-.12.06-.18.72-1.32 1.5-2.58 2.22-3.9.78-1.32.78-2.88.06-4.2-.3-.54-.6-1.02-.9-1.56-.42-.72-.84-1.44-1.26-2.22-.06-.12-.18-.3-.24-.42-.06-.06-.06-.12-.12-.24.06.3.06.06 0 0 0-.06-.06-.18-.06-.24-.06-.3 0 .18 0 0v-.42-.12.06l.06-.24c0-.06.06-.24.06-.24s-.12.3 0 .06c.06-.12.12-.3.24-.42-.24.18-.06.06 0 0l.18-.18c.18-.24-.18.12 0 0 .06-.06.12-.06.18-.12.12-.06.3-.18.42-.24.78-.42 1.5-.84 2.28-1.32.48-.3.96-.54 1.44-.84 1.32-.78 2.04-2.16 2.04-3.66V11.1v-.24-.12-.12.06c0-.06.06-.24.06-.3s.06-.12.06-.24c0-.18-.12.24 0 0 .06-.12.12-.36.24-.36-.12.06-.18.18-.06.06l.18-.18.12-.12c-.12.12-.18.12-.06.06.06 0 .06-.06.12-.06.06-.06.12-.06.18-.12.24-.12-.18 0 0 0 .12 0 .3-.06.42-.12.18-.06-.3 0 0 0h3.66c.72 0 1.38.06 2.1-.06 1.26-.24 2.28-1.08 2.88-2.16.42-.66.78-1.38 1.2-2.04.36-.6.72-1.26 1.08-1.86.06-.06.12-.18.12-.24.06-.12.06-.18-.06.06 0-.06.12-.18.18-.18l.12-.12c.06.3.06.3.18.24l.06-.06c.06-.06.18-.12.24-.12.24-.12-.06 0-.06 0 .12-.06.3-.12.42-.12.3-.06-.3 0 0 0h.48c.24 0-.24-.06 0 0 .06 0 .18.06.24.06.24.06 0 0 0 0l.24.12c.06 0 .12.06.18.12.3.18.54.3.84.48.78.42 1.56.9 2.34 1.32.78.42 1.5.9 2.4 1.02 1.14.18 2.1-.24 3.06-.78 1.26-.72 2.46-1.5 3.72-2.16 0 0 .06 0 .06-.06.12-.06.12-.06-.06 0l.18-.06c.06 0 .24-.06.3-.06h-.06.48c.3 0-.18-.06 0 0 .06.06.24.06.3.06 0 0 .12.06.18.06-.06 0-.12-.06-.12-.06.06 0 .12.06.18.06s.12.06.18.12l.06.06c0 .06 0 .06-.12-.06.06 0 .3.3.36.36 0 0-.18-.24-.06-.06.06.06.06.12.12.18.3.48.6 1.02.9 1.5.42.72.84 1.5 1.26 2.22.06.12.18.24.24.42.48.84 1.2 1.44 2.1 1.8.78.3 1.56.24 2.34.24H49.14c.06 0 .24.06.3.06s.18.06.24.06c-.06 0-.12-.06-.12-.06.06 0 .06.06.12.06.06.06.12.06.18.12 0 0 .24.18.06.06s.06.06.06.06l.18.18v.06c.12.12.06.12-.06-.06.06 0 .12.18.12.24s.12.18.12.24c0 0-.12-.3 0-.06 0 .12.06.36.12.42-.12-.12 0-.24 0 0v4.62c0 1.2.36 2.4 1.26 3.24.54.48 1.2.84 1.86 1.2.78.42 1.56.9 2.34 1.32.24.12.42.24.66.36.06.06.18.12.24.12.24.18-.18-.18.06.06.06.06.12.06.12.12.06.06.3.24.06 0 .06.06.12.18.18.24s.06.12.12.18c.12.12-.06-.3 0 0 0 .06.18.42.12.42v-.06.42c0 .06 0 .12-.06.18 0 .06-.06.12-.06.18-.06.3.12-.18 0 0-.06.06-.06.18-.12.24s-.06.12-.12.18c-.36.66-.78 1.32-1.14 2.04-.36.6-.72 1.2-1.08 1.86-.78 1.32-.84 2.88-.12 4.2.3.6 1.2.84 1.8.48.6-.42.84-1.14.48-1.8 0-.06-.18-.36-.06-.12 0-.06-.06-.12-.06-.24-.06-.12-.06-.24-.06-.3.06.24 0 .06 0 0v-.36c0 .24 0 .12 0 0s.06-.24.06-.3c.12-.3-.12.18.06-.12.12-.18.18-.36.3-.48.42-.78.84-1.5 1.32-2.28.3-.48.6-.96.84-1.5.84-1.56.66-3.42-.48-4.74-.48-.6-1.2-.96-1.86-1.32-.78-.48-1.56-.9-2.4-1.38-.24-.18-.54-.3-.78-.48-.06 0-.06-.06-.12-.06-.06-.06-.36-.3-.18-.12l-.18-.18c-.06.06-.24-.24-.06.06-.06-.12-.18-.3-.24-.42.12.24.06.12 0 .06 0-.12-.06-.18-.06-.3-.06-.24 0 0 0 .06v-.36-.78-2.64c0-.72.06-1.44-.06-2.16-.3-1.56-1.62-2.94-3.18-3.18-.72-.12-1.44-.06-2.16-.06h-3.42-.24c-.3 0 .18.06 0 0-.06 0-.18-.06-.24-.06 0 0-.3-.12-.12-.06s-.12-.06-.12-.06c-.06-.06-.18-.12-.24-.18.24.18 0 0-.06-.06l-.12-.12c-.24-.24.12.24-.06-.06-.06-.06-.06-.12-.12-.18 0-.06-.06-.06-.06-.12-.18-.24-.3-.54-.48-.78-.48-.78-.9-1.56-1.38-2.4-.48-.72-.84-1.44-1.44-1.92C38.22-.06 36.42-.3 34.86.6c-1.26.72-2.52 1.44-3.72 2.16-.18.12-.36.18-.48.3-.3.18.12 0-.06 0-.12 0-.18.06-.24.06 0 0-.36.06-.18.06H30h-.18c.18 0-.12-.06-.18-.06-.12 0-.18-.06-.24-.06-.06-.06-.06 0 .06 0-.06-.06-.12-.06-.18-.12-.48-.3-.96-.54-1.5-.84-.72-.42-1.5-.84-2.22-1.32-.84-.48-1.8-.9-2.82-.78-1.38.12-2.58.9-3.3 2.16-.36.66-.78 1.32-1.14 1.98-.36.66-.72 1.26-1.08 1.92 0 .06-.06.06-.06.12-.06.06-.06.12-.12.18-.18.24.18-.18-.06.06l-.12.12c-.06.06-.12.06-.18.12.12-.06.12-.06.06 0s-.12.12-.24.12c0 0-.3.12-.12.06s-.12.06-.12.06c-.06 0-.18.06-.24.06-.18.06.3 0 0 0h-.18-4.56c-1.2 0-2.34.36-3.18 1.26-.84.9-1.14 1.98-1.14 3.12v4.8c0-.06.06-.3 0-.06 0 .12-.06.18-.06.3 0 .06-.12.18 0-.06-.06.06-.06.18-.12.24s-.24.3 0 .06l-.36.36c.24-.24-.06.06-.18.12-.06 0-.12.06-.18.06-.66.42-1.38.78-2.04 1.2-.6.36-1.26.72-1.86 1.08C.9 20.16.18 21.36.06 22.8c-.06 1.02.3 1.92.84 2.76.42.78.9 1.56 1.32 2.28.3.54.66 1.02.9 1.56 0-.06-.06-.24 0 0 .06.12.06.24.06.3s0 .24 0 0v.36c0 .06-.06.24 0 0 0 .12-.06.24-.06.3s-.06.12-.06.24c.12-.3-.06.06-.06.12-.06.12-.18.3-.24.42-.72 1.26-1.5 2.52-2.16 3.78-.84 1.56-.6 3.48.6 4.8.48.54 1.2.9 1.86 1.26.78.48 1.56.9 2.34 1.38.24.12.54.3.78.42.06 0 .06.06.12.06.06.06.18.12.24.18-.06-.06-.18-.18 0 0l.24.24c.24.24-.12-.24.06.06.06.06.12.18.12.24.06.06.06.24 0-.06 0 0 .18.48.12.48v-.12V47.7c0 .72-.06 1.44.12 2.16.36 1.56 1.68 2.82 3.24 3.06.72.12 1.38.06 2.1.06H16.2h-.12c.06 0 .12 0 .18.06.06 0 .12.06.18.06.3.12-.24-.12.06 0 .06.06.12.06.18.12s.12.06.18.12c-.12-.12-.12-.12 0 0 .06.06.36.42.18.18.06.06.12.18.18.24s.06.12.12.18c.18.3.3.54.48.84.48.78.9 1.56 1.38 2.34.42.78.84 1.5 1.62 2.04 1.32.96 3.06 1.02 4.44.24.54-.3 1.02-.6 1.56-.9.72-.42 1.5-.84 2.22-1.26.18-.12.36-.24.54-.3-.24.12.06 0 .12 0s.12-.06.24-.06c.3-.06-.24 0 .12 0h.24c.36 0-.24-.06.12 0 .06 0 .12.06.24.06.06 0 .36.18.12 0 .06.06.12.06.18.12l3.78 2.16c.18.12.3.18.48.3.78.42 1.62.54 2.52.42 1.32-.18 2.4-.96 3.06-2.1.78-1.32 1.5-2.64 2.28-3.9.06-.06.06-.12.12-.18s.06-.12.12-.18c-.18.24 0 0 .06-.06l.12-.12c.12-.12.12-.06 0 0 .06-.06.12-.06.18-.12s.12-.06.18-.12c.3-.18-.24.06.06 0 .06 0 .12-.06.18-.06h.06c.06-.06.3 0 .36 0h4.5c1.2 0 2.4-.42 3.24-1.32.78-.9 1.08-1.92 1.08-3.12v-2.52-1.92-.12-.12.06l.06-.18c0-.12.06-.18.12-.3-.06.24-.06.12 0 .06s.12-.18.12-.24c.18-.24-.18.18.06-.06l.24-.24c.06-.06.18-.12 0 0 .06-.06.18-.12.24-.18s.12-.06.18-.12c1.32-.78 2.64-1.5 3.9-2.28a4.197 4.197 0 002.1-3.48c.06-1.02-.36-1.86-.84-2.64-.72-1.2-1.38-2.4-2.1-3.6-.36-.6-1.2-.84-1.8-.48-.96.36-1.2 1.14-.84 1.74z" fill="#333E50"/></g><defs><clipPath id="clip0"><path fill="#fff" d="M0 0h60v60H0z"/></clipPath></defs></svg>