<svg width="60" height="60" viewBox="0 0 60 60" fill="none" xmlns="http://www.w3.org/2000/svg">
<path d="M6.65991 25.08L9.23991 29.82L12.7799 33.84L12.1799 39.72L14.5799 42.6H20.8799L24.4799 44.1L27.8399 48.24L31.6799 48.06L36.4199 43.38L41.9399 42.54L45.2399 42.48L47.8799 40.02L47.8199 33L51.2999 28.02L53.5799 25.38L52.5599 21.54L47.9399 17.88L47.5799 11.34L45.4799 7.02001L38.2799 6.78001L34.7399 4.56001L30.1799 1.20001L22.9799 6.90001L16.1999 6.84001L13.0799 8.22001L11.9999 15L11.2799 18.9L7.13991 23.04L6.65991 25.08Z" fill="#95CE5A"/>
<path d="M29.9401 15.42L26.3401 21.66L20.3401 22.56L24.9001 27.6L23.6401 33.72L30.0001 30.54L36.0001 33.96L34.3801 27.24L39.7801 22.32L32.5801 21.3L29.9401 15.42Z" fill="white"/>
<path d="M12.4801 44.64C12.1801 41.94 13.6801 41.7 13.6801 41.7L17.8201 43.2L22.9801 43.26L26.4001 47.04L24.2401 50.7C24.2401 50.7 22.9201 47.82 20.7601 46.92C18.5401 46.02 12.7801 47.34 12.4801 44.64Z" fill="#C3E2FC"/>
<path d="M47.7599 45.3C48.4199 42.66 46.9199 42.24 46.9199 42.24L42.5999 43.2L37.4999 42.6L33.6599 45.9L35.3399 49.8C35.3399 49.8 37.0199 47.16 39.2999 46.5C41.5199 45.84 47.0999 47.94 47.7599 45.3Z" fill="#C3E2FC"/>
<path d="M53.1 20.94C52.92 20.76 52.74 20.52 52.56 20.4L50.4 18.48C49.44 17.64 48.9 16.38 48.96 15.06L49.14 12.18C49.26 10.56 48.72 8.99999 47.64 7.79999C46.56 6.59999 45.12 5.87999 43.5 5.75999C43.38 5.75999 43.26 5.75999 43.14 5.75999C43.02 5.75999 42.9 5.75999 42.78 5.75999L39.9 5.93999C39.78 5.93999 39.72 5.93999 39.66 5.93999C38.46 5.93999 37.32 5.39999 36.48 4.49999L34.56 2.33999C33.42 1.01999 31.74 0.299988 30 0.299988C28.26 0.299988 26.58 1.07999 25.44 2.33999L23.52 4.49999C22.74 5.45999 21.6 5.93999 20.4 5.93999C20.34 5.93999 20.22 5.93999 20.16 5.93999L17.28 5.75999C17.16 5.75999 17.04 5.75999 16.86 5.75999C13.68 5.75999 11.04 8.21999 10.86 11.4C10.86 11.64 10.86 11.94 10.86 12.18L11.04 15.06C11.1 16.32 10.62 17.64 9.6 18.48L7.44 20.4C6.24 21.48 5.52 22.92 5.4 24.54C5.28 26.16 5.82 27.72 6.9 28.92C7.08 29.1 7.26 29.34 7.44 29.46L7.62 29.64L9.6 31.38C10.56 32.22 11.1 33.48 11.04 34.8L10.8 37.68C10.74 39 11.1 40.38 11.82 41.46L11.94 41.58L11.88 41.76L7.62 51.72C7.32 52.38 7.32 53.1 7.62 53.76C7.92 54.42 8.4 54.96 9.06 55.2C9.36 55.32 9.72 55.38 10.08 55.38C10.38 55.38 10.62 55.32 10.92 55.26L15.36 53.76L15.6 53.7L15.72 53.94L17.76 58.2C18.18 59.1 19.14 59.7 20.16 59.7H20.28C21.36 59.7 22.26 59.04 22.68 58.08L26.64 48.9L26.76 48.6L27.06 48.78C27.96 49.26 28.98 49.56 30 49.56C31.02 49.56 32.04 49.32 32.94 48.78L33.24 48.6L33.36 48.9L37.32 58.08C37.74 59.04 38.64 59.7 39.72 59.76H39.78C40.8 59.76 41.76 59.16 42.18 58.26L44.22 54L44.34 53.76L44.58 53.82L49.02 55.32C49.26 55.38 49.56 55.44 49.86 55.44C51 55.44 52.02 54.72 52.38 53.58C52.56 52.98 52.56 52.32 52.32 51.72L48.06 41.76L48 41.58L48.12 41.46C48.9 40.32 49.26 39 49.14 37.62L48.96 34.8C48.9 33.54 49.38 32.22 50.4 31.38L52.56 29.46C53.76 28.38 54.48 26.94 54.6 25.32C54.72 23.7 54.18 22.14 53.1 20.94ZM24.78 46.98L20.52 56.94L20.28 57.54L19.98 56.94L17.94 52.68C17.52 51.78 16.62 51.24 15.66 51.24C15.36 51.24 15.12 51.3 14.88 51.36L10.44 52.86L9.78 53.1L10.02 52.5L13.8 43.62L13.92 43.32L14.22 43.44C15.06 43.86 15.96 44.04 16.86 44.04C16.98 44.04 17.16 44.04 17.28 44.04L20.16 43.86C20.22 43.86 20.34 43.86 20.4 43.86C21.6 43.86 22.74 44.4 23.52 45.3L24.66 46.68L24.78 46.8V46.98ZM50.04 52.5L50.28 53.1L49.62 52.86L45.18 51.36C44.94 51.3 44.64 51.24 44.4 51.24C43.44 51.24 42.54 51.78 42.12 52.68L40.08 56.94L39.78 57.54L39.54 56.94L35.28 46.98L35.16 46.8L35.28 46.68L36.48 45.3C37.26 44.4 38.4 43.86 39.6 43.86C39.66 43.86 39.78 43.86 39.84 43.86L42.72 44.04C42.9 44.04 43.02 44.04 43.14 44.04C44.04 44.04 44.94 43.86 45.78 43.44L46.08 43.32L46.2 43.62L50.04 52.5ZM51.3 27.3C51.18 27.42 51.06 27.54 50.94 27.66L48.78 29.58C47.22 30.9 46.38 32.94 46.5 34.98L46.68 37.86C46.8 39.84 45.3 41.52 43.32 41.7C43.26 41.7 43.14 41.7 43.08 41.7C43.02 41.7 42.9 41.7 42.84 41.7L39.96 41.52C39.84 41.52 39.66 41.52 39.54 41.52C37.62 41.52 35.82 42.36 34.56 43.74L32.64 45.96C31.98 46.74 30.96 47.16 29.94 47.16C29.1 47.16 28.26 46.86 27.6 46.26C27.48 46.14 27.36 46.02 27.24 45.9L25.38 43.68C24.12 42.24 22.32 41.4 20.4 41.4H19.98L17.1 41.58C17.04 41.58 16.92 41.58 16.86 41.58C15 41.58 13.44 40.14 13.26 38.22C13.26 38.04 13.26 37.92 13.26 37.74L13.44 34.86C13.56 32.82 12.72 30.78 11.22 29.46L9.06 27.6C8.34 27 7.92 26.1 7.86 25.14C7.8 24.18 8.1 23.28 8.76 22.56C8.88 22.44 9 22.32 9.12 22.2L9.6 21.78V21.84L11.28 20.4C12.84 19.02 13.68 17.04 13.5 15L13.26 12C13.2 11.04 13.5 10.14 14.16 9.41999C14.82 8.69999 15.66 8.27999 16.62 8.21999C16.68 8.21999 16.8 8.21999 16.86 8.21999C16.92 8.21999 17.04 8.21999 17.1 8.21999L19.98 8.39999C20.1 8.39999 20.28 8.39999 20.4 8.39999C22.32 8.39999 24.12 7.55999 25.38 6.11999L27.3 3.95999C27.96 3.17999 28.98 2.75999 30 2.75999C30.84 2.75999 31.68 3.05999 32.34 3.65999C32.46 3.77999 32.58 3.89999 32.7 4.01999L34.62 6.17999C35.88 7.61999 37.74 8.45999 39.6 8.45999C39.72 8.45999 39.9 8.45999 40.02 8.45999L42.9 8.27999C42.96 8.27999 43.08 8.27999 43.14 8.27999C45 8.27999 46.56 9.71999 46.74 11.64C46.74 11.82 46.74 11.94 46.74 12.12L46.56 15C46.44 17.04 47.28 19.08 48.78 20.4L50.94 22.32C52.44 23.52 52.62 25.8 51.3 27.3Z" fill="#333E50"/>
<path d="M40.6199 21.42C40.4399 21.24 40.1999 21.12 39.8999 21.06L33.9599 20.22H33.7799L33.7199 20.1L31.0799 14.7C30.8999 14.28 30.4199 14.04 29.9999 14.04C29.8199 14.04 29.6399 14.1 29.4599 14.16C29.2199 14.28 29.0399 14.46 28.9199 14.7L26.2799 20.1L26.2199 20.22H26.0399L20.0399 21C19.3799 21.12 18.8999 21.72 19.0199 22.38C19.0799 22.62 19.1999 22.92 19.3799 23.1L23.6999 27.3L23.8199 27.42V27.6L22.7999 33.54C22.7399 33.84 22.7999 34.2 22.9799 34.44C23.1599 34.68 23.4599 34.86 23.7599 34.92C23.8199 34.92 23.8799 34.92 23.9999 34.92C24.1799 34.92 24.4199 34.86 24.5999 34.8L29.9399 31.98L30.0599 31.92L30.1799 31.98L35.5199 34.8C35.6999 34.92 35.8799 34.92 36.1199 34.92C36.5999 34.92 37.0199 34.68 37.1999 34.26C37.3199 34.02 37.3799 33.72 37.3199 33.48L36.1799 27.6V27.42L36.2999 27.3L40.5599 23.1C40.7999 22.86 40.9199 22.56 40.9199 22.26C40.9799 21.96 40.8599 21.66 40.6199 21.42ZM36.6599 23.52L34.0199 26.1C33.7199 26.4 33.5999 26.82 33.6599 27.18L34.2599 30.84L34.3799 31.44L33.8399 31.2L30.5399 29.46C30.3599 29.34 30.1799 29.34 29.9399 29.34C29.6999 29.34 29.5199 29.4 29.3399 29.46L26.0999 31.2L25.5599 31.5L25.6799 30.9L26.2799 27.24C26.3399 26.82 26.2199 26.4 25.9199 26.16L23.2799 23.58L22.8599 23.16L23.4599 23.1L27.1799 22.62C27.5999 22.56 27.8999 22.32 28.0799 21.96L29.6999 18.6L29.9399 18.06L30.2399 18.6L31.8599 21.9C32.0399 22.26 32.3999 22.5 32.8199 22.56L36.4799 23.1L37.0799 23.16L36.6599 23.52Z" fill="#333E50"/>
</svg>
