<svg width="60" height="60" viewBox="0 0 60 60" fill="none" xmlns="http://www.w3.org/2000/svg">
<path d="M27 20C27 20 55 19 57.5 21.5C60 24 59.5 46 57.5 48.5C55.5 51 50 50 50 50L49 57.5L41 50C41 50 30 50.5 28 48.5C26 46.5 27 20 27 20Z" fill="white"/>
<path d="M26.9399 20.34H46.6199V35.1C46.6199 39.3 43.1999 42.72 38.9999 42.72H26.9399V20.34Z" fill="#C3E2FC"/>
<path d="M39.4799 38.82H23.3999L12.8999 49.02L12.7199 38.82H6.6599C3.4799 38.82 0.899902 36.24 0.899902 33.06V6.78002C0.899902 3.60002 3.4799 1.02002 6.6599 1.02002H39.4799C42.6599 1.02002 45.2399 3.60002 45.2399 6.78002V33.06C45.1799 36.24 42.5999 38.82 39.4799 38.82Z" fill="#95CE5A"/>
<path d="M59.8199 25.26C59.8199 21.78 56.9999 19.02 53.5799 19.02C53.5799 19.02 49.6305 19.02 47.0999 19.02C46.9125 19.02 46.6199 19.02 46.6199 19.02V18.54V7.2C46.6199 3.24 43.3799 0 39.4199 0H7.37993C3.41993 0 0.179932 3.24 0.179932 7.2V33.18C0.179932 37.14 3.41993 40.38 7.37993 40.38H11.2799H11.7599V40.8V49.62C11.7599 50.22 12.2399 50.7 12.8399 50.7C13.1399 50.7 13.3799 50.58 13.6199 50.4L23.4599 40.5L23.5799 40.38H23.7599H25.6199H26.0999V40.8V44.94C26.0999 48.36 28.9199 51.18 32.3399 51.18H40.0799H40.2599L40.3799 51.3L48.7199 59.64C48.8999 59.82 49.1999 59.94 49.4999 59.94C49.7999 59.94 50.0399 59.82 50.2799 59.64C50.4599 59.46 50.5799 59.16 50.5799 58.86V51.66V51.18H51.0599H53.4599C56.9399 51.18 59.6999 48.36 59.6999 44.94L59.8199 25.26ZM23.0999 38.16C22.7999 38.16 22.5599 38.28 22.3199 38.46L14.6999 46.14L13.8599 46.98V45.78V39.24C13.8599 38.64 13.3799 38.16 12.7799 38.16H7.37993C4.61993 38.16 2.39993 35.94 2.33993 33.18V7.2C2.33993 5.88 2.87993 4.62 3.83993 3.66C4.79993 2.7 6.05993 2.16 7.37993 2.16H39.4799C42.2399 2.16 44.5199 4.44 44.5199 7.2V33.18C44.5199 35.94 42.2399 38.16 39.4799 38.16H23.0999ZM57.6599 44.94C57.6599 47.22 55.7999 49.02 53.5799 49.02H49.6199C49.0199 49.02 48.5399 49.5 48.5399 50.1V55.14V56.34L47.6999 55.5L41.5799 49.38C41.3999 49.2 41.0999 49.08 40.7999 49.08H32.3999H32.3399C30.1199 49.08 28.2599 47.28 28.2599 45V44.94V40.8V40.32H28.7399H39.4199C43.3799 40.32 46.6199 37.08 46.6199 33.12V21.66V21.18H47.0999H53.5799C55.8599 21.18 57.6599 23.04 57.6599 25.26V44.94Z" fill="#333E50"/>
<path d="M29.16 11.7C28.14 9.60003 26.04 8.28003 23.7 8.16003H23.58C23.52 8.16003 23.46 8.16003 23.4 8.16003C19.92 8.16003 17.1 10.92 16.98 14.4C16.98 14.46 16.98 14.52 16.98 14.58C16.98 15.18 17.46 15.66 18.06 15.66C18.66 15.66 19.14 15.18 19.14 14.58C19.14 13.44 19.62 12.3 20.4 11.52C21.18 10.74 22.2 10.32 23.34 10.32C23.4 10.32 23.46 10.32 23.52 10.32C24.66 10.38 25.68 10.86 26.46 11.7C27.24 12.54 27.66 13.62 27.6 14.76C27.54 16.32 26.64 17.7 25.26 18.42C23.46 19.32 22.32 21.06 22.32 23.04V23.1V23.82C22.32 24.42 22.8 24.9 23.4 24.9C24 24.9 24.48 24.42 24.48 23.82V23.1C24.48 21.9 25.2 20.82 26.22 20.34C29.4 18.78 30.72 14.88 29.16 11.7Z" fill="#333E50"/>
<path d="M23.3998 29.22C22.7998 29.22 22.3198 29.7 22.3198 30.3V30.9C22.3198 31.5 22.7998 31.98 23.3998 31.98C23.9998 31.98 24.4798 31.5 24.4798 30.9V30.3C24.4798 29.7 23.9998 29.22 23.3998 29.22Z" fill="#333E50"/>
</svg>
