<svg width="60" height="60" viewBox="0 0 60 60" fill="none" xmlns="http://www.w3.org/2000/svg">
<path d="M4.74004 15.12H38.34L42.9 58.08L0.900024 58.56L4.74004 15.12Z" fill="#C3E2FC"/>
<path d="M43.38 58.56L39.96 14.7C39.96 14.4 39.9 14.22 39.78 14.04C39.6 13.86 39.42 13.8 39.12 13.8H4.44001C3.96001 13.8 3.59999 14.16 3.47999 14.7L0 58.68C0 58.92 0.0600146 59.16 0.240015 59.4C0.360015 59.58 0.6 59.7 0.9 59.7H42.48C42.72 59.7 42.96 59.64 43.14 59.4C43.26 59.16 43.44 58.92 43.38 58.56ZM1.92001 57.78L5.22001 15.72H38.16V16.02L41.46 57.78H1.92001Z" fill="#333E50"/>
<path d="M33.78 22.32C33.96 22.5 34.2 22.68 34.44 22.68C34.98 22.68 35.4 22.26 35.4 21.72V9C35.4 4.08 31.38 0 26.4 0C21.42 0 17.4 4.02 17.4 9V21.72C17.4 22.26 17.82 22.68 18.36 22.68C18.9 22.68 19.32 22.26 19.32 21.72V9C19.32 5.04 22.5 1.8 26.52 1.8C30.48 1.8 33.72 4.98 33.72 9V21.72C33.6 21.96 33.66 22.14 33.78 22.32Z" fill="#333E50"/>
<path d="M28.0799 15.42C28.2599 15.6 28.4399 15.72 28.6799 15.72C29.2199 15.72 29.6399 15.3 29.6399 14.76V9C29.6399 4.08 25.6199 0 20.6399 0C15.7199 0 11.6399 4.02 11.6399 9V14.76C11.6399 15.3 12.0599 15.72 12.5999 15.72C13.1399 15.72 13.5599 15.3 13.5599 14.76V9C13.5599 5.04 16.7399 1.8 20.7599 1.8C24.7199 1.8 27.9599 4.98 27.9599 9V14.7C27.8399 15 27.8999 15.24 28.0799 15.42Z" fill="#333E50"/>
<path d="M55.4398 58.1401H17.5198C15.5398 58.1401 13.9198 56.5201 13.9198 54.5401V34.8001C13.9198 32.8201 15.5398 31.2001 17.5198 31.2001H55.4398C57.4198 31.2001 59.0398 32.8201 59.0398 34.8001V54.4801C58.9798 56.5801 57.4198 58.1401 55.4398 58.1401Z" fill="white"/>
<path d="M58.6798 37.9801H14.0398V42.2401H58.6798V37.9801Z" fill="#C3E2FC"/>
<path d="M20.82 54.6001C20.28 54.6001 19.86 54.1801 19.86 53.6401C19.86 53.1001 20.28 52.6801 20.82 52.6801H31.68C32.22 52.6801 32.64 53.1001 32.64 53.6401C32.64 54.1801 32.22 54.6001 31.68 54.6001H20.82Z" fill="#C3E2FC"/>
<path d="M20.82 53.6401C20.28 53.6401 19.86 53.2201 19.86 52.6801C19.86 52.1401 20.28 51.7201 20.82 51.7201H31.68C32.22 51.7201 32.64 52.1401 32.64 52.6801C32.64 53.2201 32.22 53.6401 31.68 53.6401H20.82Z" fill="#333E50"/>
<path d="M51.9 48.1801H48.36C47.1 48.1801 46.08 49.2601 46.08 50.4601V52.2001C46.08 53.4601 47.16 54.4801 48.36 54.4801H51.9C53.16 54.4801 54.18 53.4001 54.18 52.2001V50.4601C54.12 49.2601 53.1 48.1801 51.9 48.1801Z" fill="#C3E2FC"/>
<path d="M60 39.84V34.74C60 32.46 58.14 30.48 55.74 30.48H33.06H16.86C14.58 30.48 12.6 32.34 12.6 34.74V40.08V50.4V55.5C12.6 57.78 14.46 59.76 16.86 59.76H17.04L39.54 59.7H55.68C57.96 59.7 59.94 57.84 59.94 55.44V50.1L60 39.84ZM14.4 38.22H58.08V41.34H14.4V38.22ZM16.86 32.28H55.86C57.24 32.28 58.26 33.36 58.26 34.74V36.48H14.4V34.74C14.4 33.36 15.42 32.28 16.86 32.28ZM18.96 59.76H35.34H18.96ZM55.74 57.9H16.86C15.48 57.9 14.46 56.82 14.46 55.5V43.08H58.14V55.44C58.14 56.76 57.12 57.9 55.74 57.9Z" fill="#333E50"/>
<path d="M48.3599 53.04H51.8999C52.7399 53.04 53.3999 52.32 53.3999 51.54V49.8C53.3999 48.96 52.6799 48.3 51.8999 48.3H48.3599C47.5199 48.3 46.8599 49.02 46.8599 49.8V51.4801C46.7399 52.3801 47.5199 53.04 48.3599 53.04Z" fill="#95CE5A"/>
<path d="M51.9 53.6401H48.36C47.1 53.6401 46.08 52.5601 46.08 51.3601V49.6201C46.08 48.3601 47.16 47.3401 48.36 47.3401H51.9C53.16 47.3401 54.18 48.4201 54.18 49.6201V51.3601C54.12 52.6201 53.1 53.6401 51.9 53.6401ZM48.36 48.8401C47.82 48.8401 47.4 49.2601 47.4 49.8001V51.4801C47.4 52.0201 47.82 52.4401 48.36 52.4401H51.9C52.44 52.4401 52.86 52.0201 52.86 51.4801V49.7401C52.86 49.2001 52.44 48.7801 51.9 48.7801H48.36V48.8401Z" fill="#333E50"/>
<path d="M20.82 49.8601C20.28 49.8601 19.86 49.4401 19.86 48.9001C19.86 48.3601 20.28 47.9401 20.82 47.9401H26.46C27 47.9401 27.42 48.3601 27.42 48.9001C27.42 49.4401 27 49.8601 26.46 49.8601H20.82Z" fill="#C3E2FC"/>
<path d="M20.82 49.0201C20.28 49.0201 19.86 48.6001 19.86 48.0601C19.86 47.5201 20.28 47.1001 20.82 47.1001H26.46C27 47.1001 27.42 47.5201 27.42 48.0601C27.42 48.6001 27 49.0201 26.46 49.0201H20.82Z" fill="#333E50"/>
</svg>
