<svg width="60" height="60" fill="none" xmlns="http://www.w3.org/2000/svg"><g clip-path="url(#clip0)"><path d="M58.5 59H27l2-8 4-6 10-3.5 7.5 2 6 6.5 2 9z" fill="#C3E2FC"/><path d="M7 1a6 6 0 00-6 6v12a6 6 0 006 6h12.9l7.6 8 .381-8H40a6 6 0 006-6V7a6 6 0 00-6-6H7z" fill="#95CE5A"/><ellipse cx="43" cy="31" rx="9" ry="11" fill="#fff"/><ellipse cx="12" cy="13.5" rx="3" ry="2.5" fill="#fff"/><ellipse cx="24" cy="13.5" rx="3" ry="2.5" fill="#fff"/><ellipse cx="35" cy="13.5" rx="3" ry="2.5" fill="#fff"/><path d="M37.982 18a1.188 1.188 0 01-.46-.097l-2.142-1.071-2.142 1.071a1.07 1.07 0 01-1.07-.107 1.071 1.071 0 01-.429-.996l.3-2.41-1.66-1.758a1.071 1.071 0 01.579-1.79l2.238-.45 1.156-2.142a1.135 1.135 0 011.885 0l1.156 2.143 2.388.45a1.07 1.07 0 01.578 1.789l-1.66 1.757.3 2.41a1.073 1.073 0 01-.428.997 1.07 1.07 0 01-.589.204zm-2.645-3.386c.159 0 .316.033.46.097l.879.417-.129-.964a1.07 1.07 0 01.29-.868l.663-.717-.953-.172a1.069 1.069 0 01-.738-.546l-.472-.847-.47.847a1.072 1.072 0 01-.74.546l-.953.171.664.718a1.071 1.071 0 01.29.868l-.13.964.879-.417c.145-.064.302-.097.46-.097zM26.203 18c-.155 0-.308-.032-.45-.097l-2.195-1.071-2.195 1.071a1.07 1.07 0 01-1.07-.107 1.071 1.071 0 01-.43-.996l.3-2.41-1.66-1.758a1.072 1.072 0 01.58-1.79l2.334-.45 1.156-2.142a1.072 1.072 0 011.885 0l1.156 2.143 2.388.45a1.07 1.07 0 01.578 1.789l-1.66 1.757.3 2.41a1.07 1.07 0 01-1.07 1.2h.053zm-2.645-3.386c.159 0 .316.033.46.096l.879.418-.129-.964a1.072 1.072 0 01.29-.868l.663-.718-.953-.171a1.07 1.07 0 01-.739-.546l-.47-.847-.472.847a1.07 1.07 0 01-.739.546l-.953.171.664.718a1.07 1.07 0 01.29.868l-.13.964.879-.418c.145-.063.302-.096.46-.096zM14.424 18c-.155 0-.308-.032-.45-.097l-2.195-1.071-2.195 1.071a1.07 1.07 0 01-1.07-.107 1.071 1.071 0 01-.43-.996l.3-2.41-1.66-1.758a1.072 1.072 0 01.58-1.79l2.333-.45 1.157-2.142a1.07 1.07 0 011.885 0l1.156 2.143 2.388.45a1.07 1.07 0 01.578 1.789l-1.66 1.757.3 2.41a1.073 1.073 0 01-1.07 1.2h.053zm-2.645-3.386c.159 0 .315.033.46.096l.879.418-.129-.964a1.072 1.072 0 01.29-.868l.663-.718-.953-.171a1.07 1.07 0 01-.739-.546l-.47-.847-.472.847a1.071 1.071 0 01-.739.546l-.953.171.664.718a1.071 1.071 0 01.29.868l-.13.964.879-.418c.145-.063.302-.096.46-.096zM58.895 60H26.771a1.07 1.07 0 01-.846-.408 1.071 1.071 0 01-.193-.921l1.424-5.71a16.169 16.169 0 015.732-8.825A16.153 16.153 0 0158.51 52.96l1.456 5.71a1.072 1.072 0 01-.193.922 1.07 1.07 0 01-.878.407zm-30.754-2.144h29.384l-1.071-4.382a14.026 14.026 0 00-4.972-7.655 14.012 14.012 0 00-22.227 7.655l-1.114 4.383z" fill="#333E50"/><path d="M42.833 42.857a9.635 9.635 0 01-6.815-2.825 9.645 9.645 0 01-2.822-6.818v-4.286a9.475 9.475 0 011.306-4.832 9.639 9.639 0 0110.833-4.464 9.637 9.637 0 017.136 9.296v4.286a9.645 9.645 0 01-2.823 6.818 9.635 9.635 0 01-6.815 2.825zm0-21.429a7.492 7.492 0 00-6.425 3.75 7.384 7.384 0 00-1.07 3.75v4.286a7.494 7.494 0 1014.992 0v-4.286a7.503 7.503 0 00-2.143-5.357 7.666 7.666 0 00-2.955-1.81 7.564 7.564 0 00-2.399-.333z" fill="#333E50"/><path d="M27.842 34.285a1.069 1.069 0 01-.76-.31l-8.246-8.261H7.496A7.494 7.494 0 010 18.214V7.5A7.502 7.502 0 017.496 0H39.62a7.502 7.502 0 017.496 7.5v10.714a7.567 7.567 0 01-.622 3 1.071 1.071 0 01-1.317.59 7.57 7.57 0 00-2.345-.376 7.493 7.493 0 00-6.425 3.75 1.07 1.07 0 01-.931.536h-6.565v7.5a1.073 1.073 0 01-.663.986.898.898 0 01-.407.085zM7.496 2.143A5.353 5.353 0 002.142 7.5v10.714a5.358 5.358 0 005.354 5.357h11.779a1.07 1.07 0 01.76.31l6.736 6.75v-5.988a1.072 1.072 0 011.07-1.072h6.982a9.639 9.639 0 0110.002-4.082c.098-.418.148-.846.15-1.275V7.5a5.359 5.359 0 00-5.354-5.357H7.496zM42.833 38.571a4.28 4.28 0 01-3.03-1.253 1.077 1.077 0 01.76-1.837 1.076 1.076 0 01.76.315 2.141 2.141 0 003.02 0 1.075 1.075 0 111.52 1.522 4.284 4.284 0 01-3.03 1.253zM33.196 60h-.214a1.071 1.071 0 01-.857-1.286l1.07-5.357a1.092 1.092 0 112.142.428l-1.07 5.357a1.07 1.07 0 01-1.071.857zM52.47 60a1.07 1.07 0 01-1.07-.858l-1.07-5.357a1.092 1.092 0 112.14-.428l1.072 5.357a1.072 1.072 0 01-.857 1.285h-.214z" fill="#333E50"/></g><defs><clipPath id="clip0"><path fill="#fff" d="M0 0h60v60H0z"/></clipPath></defs></svg>