<svg width="60" height="60" viewBox="0 0 60 60" fill="none" xmlns="http://www.w3.org/2000/svg">
<path d="M11.8199 38.82H1.13989V53.4H11.8199V38.82Z" fill="#95CE5A"/>
<path d="M39.3 2.22003C44.7001 2.22003 49.5601 4.38003 53.1001 7.86003L39.3 22.8V2.22003Z" fill="#C3E2FC"/>
<path d="M6.66008 44.4C7.25655 44.4 7.74008 43.9165 7.74008 43.32C7.74008 42.7236 7.25655 42.24 6.66008 42.24C6.06361 42.24 5.58008 42.7236 5.58008 43.32C5.58008 43.9165 6.06361 44.4 6.66008 44.4Z" fill="white"/>
<path d="M45.3 48.9C42.54 47.7 37.8 48.66 35.46 49.32C35.16 47.52 32.34 46.08 30.66 45.42C27.66 44.34 22.56 40.2 22.56 40.2C20.1 37.62 16.02 38.16 13.26 38.88V38.58C13.26 38.34 13.2 38.16 13.02 37.98C12.84 37.8 12.66 37.74 12.42 37.74H0.9C0.66 37.74 0.48 37.8 0.3 37.98C0.12 38.16 0 38.34 0 38.58V53.16C0 53.58 0.3 53.94 0.72 54C0.78 54 0.84 54 0.84 54H12.36C12.84 54 13.2 53.64 13.2 53.16V52.26C17.82 53.88 23.7 57.06 23.76 57.06C25.2 57.9 26.64 58.38 28.08 58.62C31.08 59.16 33.84 58.56 35.52 58.02C38.76 57 43.26 56.16 45.72 54.36C46.68 53.7 47.16 52.5 47.04 51.3C46.92 50.22 46.26 49.32 45.3 48.9ZM1.68 52.32V39.48H11.52V52.32H1.68ZM44.7 53.04C42.54 54.6 38.1 55.44 34.98 56.46C32.82 57.12 28.56 57.96 24.6 55.62C24.3 55.5 18.06 52.08 13.26 50.52V40.68C15.36 40.08 19.32 39.24 21.42 41.46C21.66 41.64 26.82 45.9 30.12 47.04C31.14 47.46 34.32 49.02 33.78 49.92C32.04 51.12 29.76 51.24 27.54 49.44C25.74 47.94 23.4 47.16 23.28 47.16C22.86 47.04 22.38 47.28 22.2 47.7C22.08 48.12 22.32 48.6 22.74 48.78C22.74 48.78 24.9 49.44 26.4 50.76C29.1 52.98 32.22 53.1 34.68 51.36C36.66 50.7 42.12 49.38 44.64 50.52C45.18 50.76 45.3 51.36 45.36 51.6C45.36 52.02 45.24 52.62 44.7 53.04Z" fill="#333E50"/>
<path d="M7.20009 40.8C5.88009 40.56 4.62009 41.46 4.38009 42.78C4.14009 44.1 5.04009 45.36 6.36009 45.6C7.68009 45.84 8.94009 44.94 9.18009 43.62C9.42009 42.3 8.52009 41.04 7.20009 40.8ZM6.66009 43.98C6.24009 43.92 6.00009 43.5 6.06009 43.08C6.12009 42.66 6.54009 42.36 6.96009 42.48C7.38009 42.54 7.68009 42.96 7.56009 43.38C7.44009 43.74 7.08009 44.04 6.66009 43.98Z" fill="#333E50"/>
<path d="M59.9999 21.66C59.8799 10.32 50.6399 1.14001 39.2999 1.14001C27.9599 1.14001 18.7199 10.32 18.5999 21.66V22.14C18.6599 27.6 20.8799 32.58 24.4199 36.24L24.8999 36.72C28.5599 40.2 33.4799 42.42 38.8799 42.48H39.5999C44.9999 42.36 49.9199 40.2 53.5799 36.72L54.1199 36.24C57.6599 32.58 59.8799 27.6 59.9399 22.14L59.9999 21.66ZM55.7999 22.74H58.2598C58.0199 27.36 56.2199 31.5 53.2799 34.68L51.5998 32.94C51.2399 32.58 50.7599 32.58 50.3999 32.94C50.0399 33.3 50.0399 33.78 50.3999 34.14L52.0799 35.82C48.8999 38.76 44.7599 40.56 40.1999 40.8V38.4C40.1999 37.92 39.8399 37.56 39.3599 37.56C38.8799 37.56 38.5198 37.92 38.5198 38.4V40.8C33.9599 40.62 29.7599 38.76 26.5799 35.88L28.2599 34.2C28.6199 33.84 28.6199 33.36 28.2599 33C27.8999 32.64 27.4199 32.64 27.0599 33L25.3799 34.68C22.4399 31.5 20.6399 27.36 20.3999 22.74H22.7999C23.2799 22.74 23.6399 22.38 23.6399 21.9C23.6399 21.42 23.2799 21.06 22.7999 21.06H20.3999C20.5799 16.44 22.4399 12.3 25.3199 9.12001L27.0599 10.86C27.2399 11.04 27.4199 11.1 27.6599 11.1C27.8999 11.1 28.0799 11.04 28.2599 10.86C28.6199 10.5 28.6199 10.02 28.2599 9.66001L26.5199 7.92001C29.6999 4.98001 33.8999 3.18001 38.4599 2.94001V5.40001C38.4599 5.88001 38.8199 6.24001 39.2999 6.24001C39.7799 6.24001 40.1999 5.82001 40.1999 5.40001V2.88001C44.8199 3.06001 48.9599 4.92001 52.1399 7.86001L50.3999 9.60001C49.6199 10.38 50.8199 11.58 51.5998 10.8L53.3399 9.06001C56.2799 12.24 58.0798 16.44 58.2598 21H55.7999C55.3199 21 54.9599 21.36 54.9599 21.84C54.9599 22.32 55.3799 22.74 55.7999 22.74Z" fill="#333E50"/>
<path d="M48.6 13.44C48.6 13.38 48.48 13.2 48.42 13.14C48.3 13.02 48.42 13.14 48.3 13.02C48.18 12.9 48.18 12.9 47.94 12.9C47.88 12.9 47.88 12.9 47.82 12.9L44.22 12.72C43.74 12.72 43.38 13.08 43.32 13.5C43.32 13.98 43.68 14.34 44.1 14.4L45.84 14.46L40.08 20.52V10.38L41.4 11.7C41.58 11.88 41.76 11.94 42 11.94C42.24 11.94 42.42 11.88 42.6 11.7C42.96 11.34 42.96 10.86 42.6 10.5L39.84 7.74001C39.78 7.68001 39.66 7.62001 39.54 7.56001C39.36 7.50001 39.12 7.50001 38.88 7.56001C38.76 7.62001 38.7 7.68001 38.58 7.74001L36 10.44C35.64 10.8 35.64 11.28 36 11.64C36.36 12 36.84 12 37.2 11.64L38.52 10.32V22.68C38.52 23.4 39.42 23.82 39.96 23.28L46.92 15.96L46.8 17.28C46.8 17.76 47.16 18.12 47.58 18.18C47.58 18.18 47.58 18.18 47.64 18.18C48.06 18.18 48.48 17.82 48.48 17.4L48.66 13.8C48.66 13.68 48.66 13.5 48.6 13.44Z" fill="#333E50"/>
</svg>
