<svg width="60" height="60" viewBox="0 0 60 60" fill="none" xmlns="http://www.w3.org/2000/svg">
<path d="M50.22 6.72003L47.88 11.22L42.78 13.44L48.18 16.26L50.28 21.36L52.8 16.26L58.08 13.74L52.62 11.16L50.22 6.72003Z" fill="#C3E2FC"/>
<path d="M52.2 54.66C51.18 55.68 49.74 55.68 48.72 54.66L40.92 46.86C40.38 46.32 40.08 45.48 40.26 44.76L40.38 44.28C40.5 43.98 40.38 43.62 40.08 43.44L35.22 38.58C35.1 38.46 35.04 38.22 35.04 38.1C35.04 37.92 35.16 37.74 35.22 37.62C35.34 37.5 35.58 37.44 35.7 37.44C35.82 37.44 36.06 37.56 36.18 37.62L41.04 42.48C41.22 42.66 41.58 42.78 41.88 42.78L42.36 42.66C43.08 42.54 43.98 42.84 44.46 43.32L52.26 51.12C53.16 52.08 53.16 53.76 52.2 54.66Z" fill="#95CE5A"/>
<path d="M45.72 42.12C44.82 41.22 43.3201 40.74 42 40.92L37.5 36.42C37.02 35.94 36.42 35.7 35.76 35.7C35.1 35.7 34.5 36 34.02 36.42C33.54 36.84 33.3 37.5 33.3 38.16C33.3 38.82 33.6 39.42 34.02 39.9L38.52 44.4C38.22 45.78 38.7 47.16 39.72 48.18L47.52 55.98C48.36 56.82 49.4401 57.24 50.5201 57.24C51.6 57.24 52.74 56.76 53.5201 55.98C55.1401 54.36 55.1401 51.6 53.5201 49.92L45.72 42.12ZM52.2001 54.66C51.1801 55.68 49.74 55.68 48.72 54.66L40.92 46.86C40.38 46.32 40.08 45.48 40.26 44.76L40.3801 44.28C40.5001 43.98 40.3801 43.62 40.0801 43.44L35.22 38.58C35.1 38.46 35.0401 38.22 35.0401 38.1C35.0401 37.92 35.16 37.74 35.22 37.62C35.34 37.5 35.58 37.44 35.7 37.44C35.82 37.44 36.06 37.56 36.18 37.62L41.0401 42.48C41.2201 42.66 41.5801 42.78 41.8801 42.78L42.36 42.66C43.08 42.54 43.98 42.84 44.46 43.32L52.26 51.12C53.1601 52.08 53.1601 53.76 52.2001 54.66Z" fill="#333E50"/>
<path d="M19.5 2.76001C8.76 2.76001 0 11.58 0 22.26C0 33 8.76 41.76 19.5 41.76C30.18 41.76 39 33 39 22.26C38.94 11.58 30.18 2.76001 19.5 2.76001ZM19.5 37.8C10.86 37.8 3.96 30.84 3.96 22.26C3.96 13.68 10.92 6.72001 19.5 6.72001C28.08 6.72001 35.04 13.68 35.04 22.26C35.04 30.84 28.08 37.8 19.5 37.8Z" fill="#95CE5A"/>
<path d="M19.5 2.76001C8.76 2.76001 0 11.58 0 22.26C0 32.94 8.76 41.76 19.5 41.76C30.24 41.76 38.94 33 38.94 22.26C38.94 11.52 30.18 2.76001 19.5 2.76001ZM19.5 39.9C9.78 39.9 1.8 31.98 1.8 22.26C1.8 12.54 9.78 4.62001 19.5 4.62001C29.22 4.62001 37.14 12.6 37.14 22.26C37.14 31.92 29.16 39.9 19.5 39.9Z" fill="#333E50"/>
<path d="M19.5 6.72003C10.92 6.72003 3.95996 13.68 3.95996 22.26C3.95996 30.84 10.86 37.8 19.5 37.8C28.14 37.8 35.04 30.84 35.04 22.26C35.04 13.68 28.08 6.72003 19.5 6.72003ZM19.5 36C11.88 36 5.75996 29.88 5.75996 22.26C5.75996 14.64 11.88 8.52003 19.5 8.52003C27.12 8.52003 33.24 14.64 33.24 22.26C33.24 29.88 27.06 36 19.5 36Z" fill="#333E50"/>
<path d="M19.2001 31.32C14.1601 31.32 10.0801 27.18 10.0801 22.2C10.0801 21.66 9.72008 21.3 9.18008 21.3C8.64008 21.3 8.28008 21.66 8.28008 22.2C8.22008 28.2 13.2001 33.18 19.2001 33.18C19.7401 33.18 20.1001 32.82 20.1001 32.28C20.1001 31.74 19.7401 31.32 19.2001 31.32Z" fill="#333E50"/>
<path d="M59.34 12.78L55.32 11.52C54.12 11.16 53.1 10.14 52.68 8.88001L51.42 4.80001C51.3 4.44001 50.94 4.14001 50.52 4.14001C50.04 4.14001 49.8 4.44001 49.62 4.80001L48.36 8.82001C48 10.02 46.98 11.04 45.72 11.46L41.7 12.72C41.34 12.84 41.04 13.2 41.04 13.62C41.04 14.1 41.34 14.34 41.7 14.52L45.72 15.78C46.92 16.14 47.94 17.16 48.36 18.42L49.62 22.44C49.74 22.8 50.1 23.1 50.52 23.1C51 23.1 51.24 22.8 51.42 22.44L52.68 18.42C53.04 17.22 54.06 16.2 55.32 15.78L59.34 14.52C59.7 14.4 60 14.04 60 13.62C60 13.2 59.7 12.96 59.34 12.78ZM54.78 14.16C52.86 14.82 51.42 16.26 50.94 18L50.46 19.26L50.04 18C49.38 16.08 47.94 14.64 46.2 14.16L44.94 13.8L46.2 13.32C48.12 12.66 49.56 11.22 50.04 9.48001L50.4 8.22001L50.88 9.48001C51.54 11.4 52.98 12.84 54.72 13.32L55.98 13.68L54.78 14.16Z" fill="#333E50"/>
</svg>
