<svg width="60" height="60" viewBox="0 0 60 60" fill="none" xmlns="http://www.w3.org/2000/svg">
<path d="M19.0799 29.4L21.7799 27.42L23.6399 26.64L24.2399 25.5L22.7399 24.06L19.9799 20.4L20.2199 17.46L21.8999 13.38L22.2599 12.36L26.6399 13.5L30.9599 14.1L32.2799 17.22L33.1799 19.2L31.7399 22.56L28.8599 25.2L29.2799 26.7L34.1999 29.4L38.3999 25.02L39.5999 17.64L36.5999 10.68L30.4799 6.47999L22.3799 6.35999L15.8999 11.16L13.3799 17.82L14.2799 24.42L19.0799 29.4Z" fill="#95CE5A"/>
<path d="M51.18 58.8H45.48V40.86H54.84V55.14C54.84 57.18 53.22 58.8 51.18 58.8Z" fill="#C3E2FC"/>
<path d="M45.5399 49.74C46.4677 49.74 47.2199 48.9878 47.2199 48.06C47.2199 47.1322 46.4677 46.38 45.5399 46.38C44.612 46.38 43.8599 47.1322 43.8599 48.06C43.8599 48.9878 44.612 49.74 45.5399 49.74Z" fill="white"/>
<path d="M55.7999 40.74C55.4399 40.38 55.0199 40.2 54.5399 40.2H53.3399V37.02C53.3399 34.26 51.8399 31.62 49.4399 30.24C48.8399 29.94 48.4799 29.7 47.4599 29.46C45.1199 28.86 42.5999 29.34 40.6799 30.84C38.7599 32.34 37.6199 34.62 37.6799 37.02V40.2H36.4799C35.4599 40.2 34.6799 41.04 34.6799 42V52.98C34.6799 53.28 34.6799 53.64 34.7399 53.94C34.7999 54.54 35.0999 55.32 35.3399 55.92C36.4799 58.26 38.8799 59.82 41.5199 59.82H49.4999C53.2799 59.82 56.3399 56.76 56.3399 52.98V42C56.3399 41.52 56.0999 41.04 55.7999 40.74ZM39.2999 37.02C39.2999 33.6 42.0599 30.84 45.4799 30.84C48.8999 30.84 51.6599 33.6 51.6599 37.02V40.2H39.2999V37.02ZM54.6599 44.16H52.4999C52.0199 44.16 51.6599 44.52 51.6599 45C51.6599 45.48 52.0199 45.84 52.4999 45.84H54.6599V48.18H52.4999C52.0199 48.18 51.6599 48.54 51.6599 49.02C51.6599 49.5 52.0199 49.86 52.4999 49.86H54.6599V52.2H52.4999C52.0199 52.2 51.6599 52.56 51.6599 53.04C51.6599 53.52 52.0199 53.88 52.4999 53.88H54.5999V54.06C54.1199 56.46 51.9599 58.2 49.4999 58.2H41.5199C39.0599 58.2 36.9599 56.46 36.4199 54.06L36.3599 53.82H38.4599C38.9399 53.82 39.2999 53.46 39.2999 52.98C39.2999 52.5 38.9399 52.14 38.4599 52.14H36.2999V49.8H38.4599C38.9399 49.8 39.2999 49.44 39.2999 48.96C39.2999 48.48 38.9399 48.12 38.4599 48.12H36.2999V45.78H38.4599C38.9399 45.78 39.2999 45.42 39.2999 44.94C39.2999 44.46 38.9399 44.1 38.4599 44.1H36.2999V41.76H54.6599V44.16Z" fill="#333E50"/>
<path d="M5.33991 52.98V2.99999C5.33991 2.33999 5.87991 1.79999 6.53991 1.79999H46.5599C47.2199 1.79999 47.7599 2.33999 47.7599 2.99999V27.18C47.7599 27.18 48.2399 27.3 48.5399 27.48C48.8399 27.6 49.3799 27.96 49.3799 27.96V2.99999C49.3799 1.43999 48.1199 0.179993 46.5599 0.179993H6.47991C4.91991 0.179993 3.65991 1.43999 3.65991 2.99999V52.98C3.65991 54.54 4.91991 55.8 6.47991 55.8H33.1799C33.1799 55.8 32.8799 55.32 32.7599 55.02C32.6399 54.72 32.5199 54.18 32.5199 54.18H6.47991C5.81991 54.18 5.33991 53.64 5.33991 52.98Z" fill="#333E50"/>
<path d="M45.48 53.82C45.96 53.82 46.32 53.46 46.32 52.98V50.64L46.44 50.58C47.76 50.1 48.54 48.78 48.3 47.46C48.06 46.08 46.92 45.12 45.54 45.12C44.16 45.12 43.02 46.08 42.78 47.46C42.54 48.84 43.32 50.16 44.64 50.58L44.76 50.64V52.98C44.7 53.46 45.06 53.82 45.48 53.82ZM44.34 48C44.34 47.34 44.88 46.8 45.54 46.8C46.2 46.8 46.74 47.34 46.74 48C46.74 48.66 46.2 49.2 45.54 49.2C44.82 49.2 44.34 48.66 44.34 48Z" fill="#333E50"/>
<path d="M32.5199 36.18H20.5199C20.0399 36.18 19.6799 36.54 19.6799 37.02C19.6799 37.5 20.0399 37.86 20.5199 37.86H32.5199C32.9999 37.86 33.3599 37.5 33.3599 37.02C33.2999 36.54 32.9399 36.18 32.5199 36.18Z" fill="#333E50"/>
<path d="M31.4999 46.2H20.5199C20.0399 46.2 19.6799 46.56 19.6799 47.04C19.6799 47.52 20.0399 47.88 20.5199 47.88H31.4999C31.9799 47.88 32.3399 47.52 32.3399 47.04C32.3399 46.56 31.9799 46.2 31.4999 46.2Z" fill="#333E50"/>
<path d="M31.4999 41.16H11.5199C11.0399 41.16 10.6799 41.52 10.6799 42C10.6799 42.48 11.0399 42.84 11.5199 42.84H31.4999C31.9799 42.84 32.3399 42.48 32.3399 42C32.3399 41.52 31.9799 41.16 31.4999 41.16Z" fill="#333E50"/>
<path d="M39.7198 14.88C37.9198 9.11997 32.6398 5.21997 26.5798 5.15997C20.5198 5.15997 15.2398 9.05997 13.3798 14.82C11.5798 20.46 13.5598 26.58 18.3598 30.12L18.6598 30.36L18.7198 30.42C23.4598 33.66 29.7598 33.66 34.4398 30.36L34.4998 30.3C39.3598 26.82 41.5198 20.64 39.7198 14.88ZM32.5198 29.58C30.6598 30.66 28.5598 31.2 26.5198 31.2C24.4198 31.2 22.3198 30.66 20.3998 29.58L20.3398 29.52V29.34L20.3998 29.28C20.5198 29.16 20.6398 29.04 20.8198 28.98L24.0598 27.42C24.6598 27.12 25.0198 26.52 25.0198 25.86V25.5C25.0198 25.02 24.7198 24.54 24.2998 24.36C23.0398 23.76 22.1398 22.62 21.8398 21.3C21.7798 21.06 21.5398 20.82 21.2998 20.76C20.9398 20.64 20.7598 20.28 20.8198 19.98V19.14C20.7598 18.9 20.8798 18.6 21.1198 18.42C21.3598 18.3 21.5398 18.06 21.5998 17.76C21.6598 16.98 21.8398 16.26 22.1398 15.54C22.3798 14.94 22.5598 14.34 22.6198 13.68V13.38L22.8598 13.5C23.8798 13.98 25.0198 14.22 26.0998 14.1C26.2198 14.1 26.3398 14.1 26.4598 14.1C30.4798 14.1 31.1998 16.08 31.3798 17.76C31.4398 18 31.5598 18.24 31.7998 18.42C32.0998 18.54 32.2198 18.84 32.2198 19.14V19.8C32.2198 20.16 31.9798 20.46 31.6798 20.58C31.3798 20.64 31.1998 20.88 31.1398 21.18C30.8398 22.5 29.9998 23.64 28.7398 24.24C28.3198 24.48 28.0198 24.9 28.0198 25.38V25.8C28.0198 26.46 28.3798 27.06 28.9798 27.36L32.0398 28.92C32.2198 29.04 32.3998 29.16 32.5198 29.28L32.6998 29.46L32.5198 29.58ZM34.1998 28.44L34.0798 28.56L33.9598 28.44C33.6598 28.08 33.2398 27.72 32.8198 27.54L29.6998 25.98V25.68L29.8198 25.62C31.1998 24.84 32.1598 23.58 32.6398 22.14V22.08L32.6998 22.02C33.4798 21.6 33.8998 20.76 33.8998 19.86V19.02C33.8998 18.3 33.5998 17.58 33.0598 17.1L32.9998 17.04V16.98C32.6398 14.88 31.1998 12.3 26.5198 12.3C26.3398 12.3 26.1598 12.3 26.0398 12.3C25.0798 12.42 24.1198 12.18 23.3398 11.7C23.0398 11.52 22.7998 11.28 22.5598 11.04C22.2598 10.68 21.7798 10.56 21.4198 10.74C20.9998 10.92 20.7598 11.28 20.8198 11.7C20.8198 12 20.8798 12.3 20.9398 12.6C21.0598 13.32 20.9398 13.98 20.6398 14.64C20.3398 15.36 20.0998 16.14 20.0398 16.92V16.98L19.9798 17.04C19.4398 17.52 19.1998 18.18 19.1998 18.9V19.8C19.1998 20.64 19.6198 21.48 20.3398 21.96L20.3998 22.02V22.08C20.8798 23.58 21.9598 24.84 23.3398 25.62L23.6398 25.8L20.0998 27.54C19.6798 27.78 19.3798 28.08 19.0798 28.44L18.9598 28.56L18.8398 28.44C14.8798 25.2 13.4398 19.74 15.1798 14.94C16.9198 10.14 21.5398 6.89997 26.6398 6.89997C31.7998 6.89997 36.3598 10.14 38.0998 15C39.7198 19.74 38.2198 25.2 34.1998 28.44Z" fill="#333E50"/>
</svg>
