<svg width="60" height="60" viewBox="0 0 60 60" fill="none" xmlns="http://www.w3.org/2000/svg">
<g clip-path="url(#clip0)">
<path d="M26.4 21.42H55.32L59.22 58.44L23.04 58.86L26.4 21.42Z" fill="#C3E2FC"/>
<path d="M59.88 58.86L56.88 21.06C56.88 20.82 56.82 20.52 56.7 20.34C56.52 20.16 56.28 20.04 55.98 20.04H26.1C25.56 20.04 25.14 20.46 25.02 21.06L22.02 58.92C22.02 59.22 22.08 59.46 22.26 59.7C22.44 59.94 22.68 60.06 23.04 60.06H58.92C59.04 60.06 59.46 60.06 59.7 59.7C59.82 59.46 60 59.16 59.88 58.86ZM57.84 57.9H24.24L27.06 22.14H54.96L57.84 57.9Z" fill="#333E50"/>
<path d="M45.0601 8.15997C40.6201 8.15997 37.0801 11.76 37.0801 16.14V27.06C37.0801 27.66 37.5601 28.14 38.1601 28.14C38.7601 28.14 39.2401 27.66 39.2401 27.06V16.14C39.2401 12.9 41.8801 10.2 45.1801 10.2C48.4801 10.2 51.1201 12.84 51.1201 16.14V27.06C51.0601 27.3 51.1201 27.6 51.3001 27.78C51.4801 28.02 51.7801 28.2 52.0801 28.2C52.6801 28.2 53.1601 27.72 53.1601 27.12V16.2C53.1001 11.7 49.5001 8.15997 45.0601 8.15997Z" fill="#333E50"/>
<path d="M40.0801 8.15997C35.6401 8.15997 32.1001 11.76 32.1001 16.14V21.12C32.1001 21.72 32.5801 22.2 33.1801 22.2C33.7801 22.2 34.2601 21.72 34.2601 21.12V16.14C34.2601 12.9 36.9001 10.2 40.2001 10.2C43.4401 10.2 46.1401 12.84 46.1401 16.14V21.06C46.0801 21.36 46.2001 21.66 46.3801 21.84C46.5601 22.02 46.8001 22.14 47.1001 22.14C47.7001 22.14 48.1801 21.66 48.1801 21.06V16.08C48.0601 11.7 44.4601 8.15997 40.0801 8.15997Z" fill="#333E50"/>
<path d="M29.0401 10.02H1.14009C0.540088 10.02 0.0600586 10.5 0.0600586 11.1V58.92C0.0600586 59.52 0.540088 60 1.14009 60H8.22008C8.82008 60 9.30007 59.52 9.30007 58.92C9.30007 58.32 8.82008 57.84 8.22008 57.84H2.22008V12.12H27.9601V17.4C28.0201 18.06 28.5001 18.48 29.0401 18.48C29.6401 18.48 30.1201 18 30.1201 17.4V11.04C30.1201 10.56 29.6401 10.02 29.0401 10.02Z" fill="#333E50"/>
<path d="M19.9199 1.38H10.6799V10.44H19.9199V1.38Z" fill="#95CE5A"/>
<path d="M10.3199 6.29999H3.17993V11.28H10.3199V6.29999Z" fill="#95CE5A"/>
<path d="M27.0601 4.38H19.9202V11.28H27.0601V4.38Z" fill="#95CE5A"/>
<path d="M22.1401 25.98H11.1601C10.5601 25.98 10.0801 26.46 10.0801 27.06V58.92C10.0801 59.52 10.5601 60 11.1601 60H19.5001C20.1001 60 20.5801 59.52 20.5801 58.92C20.5801 58.32 20.1001 57.84 19.5001 57.84H12.1801V28.08H21.8401V28.14H22.1401C22.7401 28.14 23.2201 27.66 23.2201 27.06C23.2201 26.52 22.7401 25.98 22.1401 25.98Z" fill="#333E50"/>
<path d="M10.2001 5.04001H3.18009C2.58009 5.04001 2.1001 5.52 2.1001 6.12V11.1C2.1001 11.7 2.58009 12.18 3.18009 12.18H10.2001C10.8001 12.18 11.2801 11.7 11.2801 11.1V6.12C11.2801 5.52 10.8001 5.04001 10.2001 5.04001ZM9.12011 7.14001V10.02H4.26008V7.14001H9.12011Z" fill="#333E50"/>
<path d="M27.1801 2.94H20.1601C19.5601 2.94 19.0801 3.42 19.0801 4.02V11.04C19.0801 11.64 19.5601 12.12 20.1601 12.12H27.1801C27.7801 12.12 28.2601 11.64 28.2601 11.04V4.02C28.2601 3.42 27.7201 2.94 27.1801 2.94ZM26.1001 5.09999V9.95997H21.2401V5.09999H26.1001Z" fill="#333E50"/>
<path d="M20.1001 0H10.1401C9.54009 0 9.06006 0.479993 9.06006 1.07999V11.04C9.06006 11.64 9.54009 12.12 10.1401 12.12H20.1001C20.7001 12.12 21.1801 11.64 21.1801 11.04V1.07999C21.1801 0.479993 20.7001 0 20.1001 0ZM11.2801 9.95999V2.15999H19.0801V9.95999H11.2801Z" fill="#333E50"/>
</g>
<defs>
<clipPath id="clip0">
<rect width="60" height="60" fill="white"/>
</clipPath>
</defs>
</svg>
