<svg width="60" height="60" viewBox="0 0 60 60" fill="none" xmlns="http://www.w3.org/2000/svg">
<path d="M10.32 55.9205L15.72 49.9341L10.98 43.0496L9.29997 33.1719L12.48 22.6357L15.3 19.5227L8.51997 13.8356L3.41997 20.6003L0.719971 32.9923L2.09997 42.7503L5.51997 50.832L10.32 55.9205Z" fill="#95CE5A"/>
<path d="M30.0001 37.3624C31.3256 37.3624 32.4001 36.2903 32.4001 34.9678C32.4001 33.6453 31.3256 32.5732 30.0001 32.5732C28.6746 32.5732 27.6001 33.6453 27.6001 34.9678C27.6001 36.2903 28.6746 37.3624 30.0001 37.3624Z" fill="#C3E2FC"/>
<path d="M30 38.7992C32.1 38.7992 33.84 37.0632 33.84 34.9679C33.84 32.8726 32.1 31.1365 30 31.1365C29.58 31.1365 29.1 31.2562 28.62 31.4358L28.26 31.5556L19.44 22.3364C19.26 22.1568 19.02 22.037 18.72 22.037C18.24 22.0969 17.88 22.516 17.88 22.9949C17.88 23.1745 18 23.4139 18.12 23.5337L26.82 32.693L26.64 33.0522C26.34 33.6509 26.16 34.2495 26.16 34.908C26.16 37.0631 27.9 38.7992 30 38.7992ZM30 32.9924C31.14 32.9924 31.98 33.8903 31.98 34.9679C31.98 36.0455 31.08 36.9434 30 36.9434C28.86 36.9434 28.02 36.0455 28.02 34.9679C28.02 33.8903 28.86 32.9924 30 32.9924Z" fill="#333E50"/>
<path d="M39.06 45.0251C39.3 45.0251 39.54 44.9054 39.72 44.7856C39.9 44.606 40.02 44.3666 40.02 44.1271C40.02 43.8877 39.96 43.6482 39.78 43.4686C39.6 43.289 39.36 43.1693 39.12 43.1693H20.94C20.46 43.1693 20.04 43.5884 20.04 44.0673C20.04 44.5462 20.46 44.9653 20.94 44.9653H39.06C39.06 45.0251 39.06 45.0251 39.06 45.0251Z" fill="#333E50"/>
<path d="M36.06 48.3775C36.24 48.3775 36.36 48.2578 36.48 48.1381C36.6 47.9585 36.66 47.719 36.66 47.4796C36.66 47.2401 36.6 47.0006 36.48 46.8211C36.36 46.6415 36.24 46.5217 36.06 46.5217H23.94C23.58 46.5217 23.34 46.9408 23.34 47.4197C23.34 47.8986 23.58 48.3177 23.94 48.3177H36.06C36.06 48.3775 36.06 48.3775 36.06 48.3775Z" fill="#333E50"/>
<path d="M49.2 56.6988C49.5 57.058 50.1 57.1178 50.46 56.7586L50.52 56.6988C56.52 50.8919 59.88 42.9897 59.94 34.4889L60 34.1297V34.01C60 26.2874 57.18 18.9241 52.2 13.2369L52.08 13.177C46.44 6.83132 38.76 3.23943 30.48 2.99997C30.42 2.99997 30.36 2.99997 30.3 2.99997C30.24 2.99997 30.18 2.99997 30.18 2.99997C30.18 2.99997 30.18 2.99997 30.12 2.99997H30H29.88C29.82 2.99997 29.76 2.99997 29.7 2.99997C29.64 2.99997 29.58 2.99997 29.52 2.99997C21.3 3.23943 13.44 6.8912 7.92 13.1172V13.177L7.74 13.4165C2.76 19.1036 0 26.4071 0 34.01V34.0699C0 34.1297 0 34.1896 0 34.1896C0.06 42.7503 3.42 50.7123 9.48 56.6389L9.54 56.6988C9.9 57.058 10.44 57.058 10.8 56.6988L16.62 50.413C16.92 50.0538 16.92 49.515 16.56 49.1558L16.32 48.9762C12.42 45.085 10.2 39.8768 10.2 34.2495V34.1297C10.2 34.0699 10.2 34.01 10.2 34.01C10.2 28.9215 12.06 24.0724 15.3 20.3608L15.36 20.3009L15.42 20.1812C19.14 15.9907 24.24 13.5961 29.76 13.4165C29.82 13.4165 29.88 13.4165 29.88 13.4165C29.94 13.4165 30 13.4165 30 13.4165C35.58 13.5961 40.68 15.9906 44.4 20.2411C44.4 20.3009 44.46 20.3009 44.46 20.3009L44.52 20.3608C47.76 24.0724 49.56 28.9215 49.62 33.8903V34.1896C49.56 39.8169 47.46 45.0251 43.56 48.9164L43.32 49.1558C43.14 49.3354 43.02 49.515 43.02 49.7545C43.02 49.9939 43.08 50.2334 43.26 50.413L49.2 56.6988ZM14.46 49.3953L14.82 49.7545L10.26 54.7232L9.84 54.3042C5.04 49.1558 2.22 42.5108 1.86 35.5665V34.9678H8.52L8.58 35.5066C8.82 40.655 10.92 45.5639 14.46 49.3953ZM13.26 20.0615C10.5 23.5935 8.88 27.9636 8.58 32.6331L8.52 33.1719H1.92V32.5732C2.22 26.2276 4.44 20.3608 8.22 15.5117L8.58 15.0328L13.5 19.5826L13.26 20.0615ZM29.1 11.6804L28.62 11.7403C23.64 12.1593 18.84 14.4342 15.18 18.0859L14.82 18.4451L9.9 13.8355L10.32 13.4165C15.3 8.32796 21.84 5.27484 28.68 4.79592L29.28 4.73607L29.1 11.6804ZM44.88 17.9662C41.28 14.4342 36.54 12.2192 31.44 11.8001L30.9 11.7403L31.02 4.91565L31.62 4.9755C38.52 5.51429 44.94 8.44769 49.74 13.4165L50.16 13.8355L45.24 18.3853L44.88 17.9662ZM46.68 20.1214L46.38 19.7023L51.3 15.1525L51.66 15.6315C55.56 20.5404 57.84 26.467 58.14 32.6331V33.2317H51.48L51.42 32.693C51.18 28.0834 49.56 23.7731 46.68 20.1214ZM45.54 49.3953C49.02 45.6238 51.06 40.655 51.42 35.5066L51.48 34.9678H58.08V35.5665C57.72 42.5707 54.96 49.2157 50.22 54.3042L49.8 54.7232L45.24 49.7545L45.54 49.3953Z" fill="#333E50"/>
</svg>
