<svg width="60" height="60" viewBox="0 0 60 60" fill="none" xmlns="http://www.w3.org/2000/svg">
<path d="M10.32 55.9206L15.72 49.9341L10.98 43.0496L9.29997 33.172L12.48 22.6357L18 16.5L30 12L39.5 15L46 20.6003L50.5 30V34.5L59.5 34L56 19.5L50.5 13L46 9L40.5 5.5L30 3.5L19 6.5L9.29997 12.5L3.41997 20.6003L0.719971 32.9924L2.09997 42.7503L5.51997 50.8321L10.32 55.9206Z" fill="#95CE5A"/>
<path d="M30.5 36C31.8807 36 33 34.8807 33 33.5C33 32.1193 31.8807 31 30.5 31C29.1193 31 28 32.1193 28 33.5C28 34.8807 29.1193 36 30.5 36Z" fill="#C3E2FC"/>
<path d="M27.7153 30.5702C26.2304 32.0551 26.2276 34.513 27.7092 35.9946C29.1907 37.4762 31.6487 37.4734 33.1336 35.9885C33.4306 35.6915 33.6854 35.2674 33.8978 34.801L34.0677 34.4618L46.8233 34.7441C47.0776 34.7438 47.332 34.6588 47.5441 34.4466C47.8412 34.0649 47.7994 33.514 47.4608 33.1754C47.3338 33.0484 47.0796 32.9639 46.9101 32.9641L34.2816 32.6393L34.1549 32.258C33.9437 31.6226 33.6477 31.072 33.1821 30.6064C31.6582 29.0825 29.2002 29.0852 27.7153 30.5702ZM31.8214 34.6762C31.0153 35.4823 29.7863 35.4413 29.0244 34.6794C28.2624 33.9174 28.2639 32.6461 29.0275 31.8824C29.8336 31.0763 31.0626 31.1173 31.8245 31.8792C32.5865 32.6412 32.6275 33.8701 31.8214 34.6762Z" fill="#333E50"/>
<path d="M39.06 45.0252C39.3 45.0252 39.54 44.9054 39.72 44.7857C39.9 44.6061 40.02 44.3667 40.02 44.1272C40.02 43.8877 39.96 43.6483 39.78 43.4687C39.6 43.2891 39.36 43.1694 39.12 43.1694H20.94C20.46 43.1694 20.04 43.5884 20.04 44.0673C20.04 44.5463 20.46 44.9653 20.94 44.9653H39.06C39.06 45.0252 39.06 45.0252 39.06 45.0252Z" fill="#333E50"/>
<path d="M36.06 48.3776C36.24 48.3776 36.36 48.2578 36.48 48.1381C36.6 47.9585 36.66 47.7191 36.66 47.4796C36.66 47.2402 36.6 47.0007 36.48 46.8211C36.36 46.6415 36.24 46.5218 36.06 46.5218H23.94C23.58 46.5218 23.34 46.9408 23.34 47.4198C23.34 47.8987 23.58 48.3177 23.94 48.3177H36.06C36.06 48.3776 36.06 48.3776 36.06 48.3776Z" fill="#333E50"/>
<path d="M49.2 56.6988C49.5 57.058 50.1 57.1179 50.46 56.7587L50.52 56.6988C56.52 50.8919 59.88 42.9898 59.94 34.489L60 34.1297V34.01C60 26.2874 57.18 18.9241 52.2 13.2369L52.08 13.177C46.44 6.83135 38.76 3.23946 30.48 3C30.42 3 30.36 3 30.3 3C30.24 3 30.18 3 30.18 3C30.18 3 30.18 3 30.12 3H30H29.88C29.82 3 29.76 3 29.7 3C29.64 3 29.58 3 29.52 3C21.3 3.23946 13.44 6.89123 7.92 13.1172V13.177L7.74 13.4165C2.76 19.1037 0 26.4072 0 34.01V34.0699C0 34.1298 0 34.1896 0 34.1896C0.06 42.7503 3.42 50.7123 9.48 56.639L9.54 56.6988C9.9 57.058 10.44 57.058 10.8 56.6988L16.62 50.413C16.92 50.0538 16.92 49.515 16.56 49.1559L16.32 48.9762C12.42 45.085 10.2 39.8768 10.2 34.2495V34.1297C10.2 34.0699 10.2 34.01 10.2 34.01C10.2 28.9215 12.06 24.0724 15.3 20.3608L15.36 20.301L15.42 20.1812C19.14 15.9907 24.24 13.5961 29.76 13.4165C29.82 13.4165 29.88 13.4165 29.88 13.4165C29.94 13.4165 30 13.4165 30 13.4165C35.58 13.5961 40.68 15.9907 44.4 20.2411C44.4 20.3009 44.46 20.301 44.46 20.301L44.52 20.3608C47.76 24.0724 49.56 28.9215 49.62 33.8903V34.1896C49.56 39.8169 47.46 45.0252 43.56 48.9164L43.32 49.1559C43.14 49.3355 43.02 49.515 43.02 49.7545C43.02 49.994 43.08 50.2334 43.26 50.413L49.2 56.6988ZM14.46 49.3953L14.82 49.7545L10.26 54.7232L9.84 54.3042C5.04 49.1558 2.22 42.5108 1.86 35.5665V34.9679H8.52L8.58 35.5066C8.82 40.655 10.92 45.564 14.46 49.3953ZM13.26 20.0615C10.5 23.5935 8.88 27.9637 8.58 32.6331L8.52 33.1719H1.92V32.5733C2.22 26.2276 4.44 20.3608 8.22 15.5118L8.58 15.0329L13.5 19.5826L13.26 20.0615ZM29.1 11.6804L28.62 11.7403C23.64 12.1594 18.84 14.4342 15.18 18.086L14.82 18.4451L9.9 13.8356L10.32 13.4165C15.3 8.32799 21.84 5.27487 28.68 4.79595L29.28 4.7361L29.1 11.6804ZM44.88 17.9662C41.28 14.4342 36.54 12.2192 31.44 11.8001L30.9 11.7403L31.02 4.91568L31.62 4.97553C38.52 5.51432 44.94 8.44772 49.74 13.4165L50.16 13.8356L45.24 18.3853L44.88 17.9662ZM46.68 20.1214L46.38 19.7023L51.3 15.1526L51.66 15.6315C55.56 20.5404 57.84 26.467 58.14 32.6331V33.2318H51.48L51.42 32.693C51.18 28.0834 49.56 23.7731 46.68 20.1214ZM45.54 49.3953C49.02 45.6238 51.06 40.655 51.42 35.5066L51.48 34.9679H58.08V35.5665C57.72 42.5707 54.96 49.2157 50.22 54.3042L49.8 54.7232L45.24 49.7545L45.54 49.3953Z" fill="#333E50"/>
</svg>
