<svg width="60" height="60" viewBox="0 0 60 60" fill="none" xmlns="http://www.w3.org/2000/svg">
<path d="M30 60C46.5685 60 60 46.5685 60 30C60 13.4315 46.5685 0 30 0C13.4315 0 0 13.4315 0 30C0 46.5685 13.4315 60 30 60Z" fill="#95CE5A"/>
<path d="M22.38 32.46V16.62L24.48 14.46L27.48 14.58L28.74 11.58H31.5L32.58 14.28L36.3 14.64L37.2 19.38L40.14 18.78L42.06 20.82L41.76 39L37.86 43.92L26.88 44.94L21.12 41.88L14.58 32.28L13.38 28.26L15.48 26.82L22.38 32.46Z" fill="white"/>
<path d="M30 2.1C45.36 2.1 57.9 14.64 57.9 30C57.9 45.36 45.36 57.9 30 57.9C14.64 57.9 2.1 45.36 2.1 30C2.1 14.64 14.64 2.1 30 2.1ZM30 0C13.44 0 0 13.44 0 30C0 46.56 13.44 60 30 60C46.56 60 60 46.56 60 30C60 13.44 46.56 0 30 0Z" fill="#333E50"/>
<path d="M21.72 30.3827C21.66 30.8627 21.66 30.9827 21.48 30.8027C20.28 29.6627 19.2 28.4027 18 27.3227C17.28 26.6027 16.5 26.1827 15.72 26.1227C14.94 26.0627 14.28 26.4227 13.8 26.7827C13.38 27.1427 13.08 27.4427 12.84 27.8627C12.6 28.2827 12.48 28.7627 12.48 29.2427C12.54 30.2027 13.02 30.9227 13.62 31.9427C15.12 34.5227 16.74 37.1027 18.06 39.3227C19.92 42.3827 23.28 45.6827 27.24 45.6827H32.64C36.66 45.6827 39.3 44.3627 40.86 42.4427C42.42 40.5227 42.84 38.0627 42.96 35.9027V35.8427V21.1427C42.96 19.2827 41.4 17.7227 39.54 17.7227C39 17.7227 38.52 17.8427 38.04 18.0827V16.7627C38.04 15.5627 37.5 14.6027 36.78 14.0627C36.06 13.5227 35.28 13.3427 34.62 13.3427C34.26 13.3427 33.9 13.4027 33.6 13.5227C33.54 12.6227 33.18 11.8427 32.58 11.3027C31.92 10.7027 31.08 10.4027 30.18 10.4027C29.28 10.4027 28.44 10.7027 27.78 11.3027C27.18 11.9027 26.76 12.7427 26.76 13.7027C26.34 13.4627 25.8 13.3427 25.26 13.3427C23.4 13.3427 21.84 14.9027 21.84 16.7627V28.0427L21.72 30.3827ZM23.7 28.0427V16.7627C23.7 15.9227 24.36 15.2627 25.2 15.2627C26.04 15.2627 26.7 15.9227 26.7 16.7627C26.7 20.6627 26.7 24.6227 26.7 28.5227C26.7 29.0627 27.18 29.5427 27.66 29.5427C28.14 29.5427 28.62 29.0627 28.62 28.5227C28.62 23.1227 28.62 18.9227 28.62 13.8227C28.62 13.2827 28.8 12.9227 29.04 12.7427C29.28 12.5027 29.64 12.3827 30.12 12.3827C30.6 12.3827 30.96 12.5027 31.2 12.7427C31.44 12.9827 31.62 13.2827 31.62 13.8227V28.5227C31.62 29.0627 32.1 29.5427 32.58 29.5427C33.06 29.5427 33.54 29.0627 33.54 28.5227V15.6227C33.9 15.2627 34.14 15.2627 34.5 15.2627C34.8 15.2627 35.22 15.3827 35.52 15.5627C35.82 15.7427 36 16.0427 36 16.7027C36 20.6027 36 24.5627 36 28.4627C36 29.0027 36.48 29.4827 36.96 29.4827C37.5 29.4827 37.92 29.0027 37.92 28.4627C37.92 26.0027 37.92 23.5427 37.92 21.0827C37.92 20.2427 38.58 19.5827 39.42 19.5827C40.26 19.5827 40.92 20.2427 40.92 21.0827V35.7227C40.8 37.7027 40.38 39.6827 39.24 41.1227C38.1 42.5627 36.18 43.6427 32.58 43.6427H27.18C24.36 43.6427 21.24 40.8827 19.68 38.2427C18.24 35.7827 16.74 33.3227 15.24 30.8627C14.7 29.9027 14.4 29.2427 14.4 29.0627C14.4 28.9427 14.4 28.9427 14.46 28.8227C14.52 28.7027 14.7 28.5227 15 28.2227C15.24 28.0427 15.42 27.9227 15.54 27.9827C15.72 27.9827 16.02 28.1027 16.62 28.6427C17.76 29.7827 18.9 30.9227 20.04 32.0627C20.34 32.3627 20.88 32.7827 21.3 32.9627C21.78 33.2027 22.2 33.3227 22.68 33.3227C23.22 33.3227 23.64 32.8427 23.64 32.3027L23.7 28.0427ZM26.1 32.9027C25.62 32.9027 25.2 33.2627 25.14 33.7427C25.08 34.2227 25.38 34.7027 25.8 34.8227C27.24 35.3627 28.44 36.3227 29.1 38.6027C29.22 39.1427 29.82 39.5027 30.36 39.3227C30.9 39.1427 31.2 38.5427 30.96 38.0027C30.12 35.1827 28.38 33.6227 26.46 32.9627C26.34 32.9627 26.22 32.9027 26.1 32.9027ZM22.08 45.6827C21.66 45.7427 21.36 46.0427 21.24 46.4027C21.12 46.7627 21.3 47.2427 21.6 47.4227C23.16 48.6827 25.08 49.5827 27.06 49.5827H32.4C35.58 49.5827 37.86 48.7427 39.48 47.4227C39.9 47.1227 40.02 46.4027 39.66 45.9827C39.3 45.5627 38.64 45.5627 38.22 45.9227C37.02 46.8827 35.28 47.6027 32.4 47.6027H27.06C25.68 47.6027 24.18 46.9427 22.8 45.8627C22.62 45.7427 22.32 45.6227 22.08 45.6827Z" fill="#333E50"/>
</svg>
