<svg width="60" height="60" viewBox="0 0 60 60" fill="none" xmlns="http://www.w3.org/2000/svg">
<g clip-path="url(#clip0)">
<path d="M36.6601 54.36L29.8801 56.16L23.3401 54.36V25.38H36.6601V54.36Z" fill="#C3E2FC"/>
<path d="M4.13989 9.24001L29.0399 0.600006L54.8399 8.76001L53.3399 10.56L30.1799 18.36L4.13989 9.24001Z" fill="#95CE5A"/>
<path d="M16.5 14.88L16.68 21.84L18.3 24.36L22.26 25.68L36.36 25.8L40.44 24.54L43.08 21.84L42.84 14.76L16.5 14.88Z" fill="#95CE5A"/>
<path d="M34.62 40.8H34.44C34.2 40.8 33.96 40.98 33.78 41.16C33.6 41.34 33.54 41.64 33.54 41.88C33.54 42.12 33.72 42.36 33.9 42.54C34.08 42.72 34.32 42.78 34.5 42.78H34.56H46.2C46.44 42.78 46.68 42.66 46.92 42.48C47.1 42.3 47.22 42.06 47.22 41.76C47.22 41.52 47.1 41.22 46.92 41.04C46.68 40.92 46.44 40.8 46.2 40.8H34.62Z" fill="#333E50"/>
<path d="M46.2001 49.32C46.4401 49.32 46.6801 49.2 46.9201 49.02C47.1001 48.84 47.2201 48.6 47.2201 48.3C47.2201 48.06 47.1001 47.76 46.9201 47.58C46.7401 47.4 46.5001 47.28 46.2601 47.28H34.6801C34.6201 47.28 34.6201 47.28 34.6201 47.28C34.5601 47.28 34.5601 47.28 34.5001 47.28C34.2601 47.28 34.0201 47.46 33.8401 47.64C33.6601 47.82 33.6001 48.12 33.6001 48.36C33.6001 48.6 33.7801 48.84 33.9601 49.02C34.1401 49.2 34.3801 49.26 34.5601 49.26H34.6201H46.2001V49.32Z" fill="#333E50"/>
<path d="M34.5 29.82C34.56 29.82 34.56 29.82 34.62 29.82H46.2C46.44 29.82 46.68 29.7 46.92 29.52C47.1 29.34 47.22 29.1 47.22 28.8C47.22 28.56 47.1 28.26 46.92 28.08C46.74 27.9 46.5 27.78 46.2 27.78H34.68C34.62 27.78 34.56 27.78 34.5 27.78H34.38C33.84 27.84 33.48 28.38 33.54 28.92C33.6 29.46 34.02 29.82 34.5 29.82Z" fill="#333E50"/>
<path d="M34.5 36.3C34.56 36.3 34.56 36.3 34.62 36.3H46.2C46.44 36.3 46.68 36.18 46.92 36C47.1 35.82 47.22 35.58 47.22 35.28C47.22 35.04 47.1 34.74 46.92 34.56C46.74 34.38 46.5 34.26 46.26 34.26H34.74C34.68 34.26 34.56 34.26 34.56 34.26H34.44C33.9 34.32 33.54 34.86 33.6 35.4C33.6 35.94 34.02 36.3 34.5 36.3Z" fill="#333E50"/>
<path d="M24.96 47.34H13.38C13.32 47.34 13.32 47.34 13.32 47.34C13.26 47.34 13.26 47.34 13.2 47.34C12.96 47.34 12.72 47.52 12.54 47.7C12.36 47.88 12.3 48.18 12.3 48.42C12.3 48.66 12.48 48.9 12.66 49.08C12.84 49.26 13.08 49.32 13.26 49.32H13.32H24.9C25.14 49.32 25.38 49.2 25.62 49.02C25.8 48.84 25.92 48.6 25.92 48.3C25.92 48.06 25.8 47.76 25.62 47.58C25.44 47.46 25.2 47.34 24.96 47.34Z" fill="#333E50"/>
<path d="M24.96 40.8H13.38H13.2C12.96 40.8 12.72 40.98 12.54 41.16C12.36 41.34 12.3 41.64 12.3 41.88C12.36 42.36 12.78 42.78 13.26 42.78H13.32H24.9C25.14 42.78 25.38 42.66 25.62 42.48C25.8 42.3 25.92 42.06 25.92 41.76C25.92 41.52 25.8 41.22 25.62 41.04C25.44 40.92 25.2 40.8 24.96 40.8Z" fill="#333E50"/>
<path d="M56.04 17.4V10.44C56.28 10.2 56.4 9.84001 56.4 9.54001C56.4 9.12001 56.22 8.70001 55.86 8.40001C55.56 8.16001 55.2 8.04001 54.96 7.92001L31.92 0.0600122C31.26 -0.179988 30.48 -0.299988 29.64 -0.299988C28.8 -0.299988 28.02 -0.179988 27.36 0.0600122L4.44 7.92001C4.14 8.04001 3.84 8.16001 3.54 8.40001C3.18 8.70001 3 9.12001 3 9.54001C3 9.96001 3.18 10.38 3.54 10.68C3.84 10.92 4.2 11.04 4.44 11.16L15.66 15V20.28H9.36H9.24C8.76 20.34 8.34 20.76 8.4 21.3V54.78C8.4 55.32 8.88 55.8 9.42 55.8H25.02C26.94 55.8 28.56 57.36 28.8 59.46C28.86 59.64 28.92 59.82 29.04 59.94L29.1 60C29.28 60.24 29.52 60.3 29.82 60.3C29.94 60.3 30.06 60.3 30.18 60.24C30.6 60.12 30.84 59.76 30.9 59.4C31.14 57.3 32.76 55.74 34.68 55.74H50.28C50.82 55.74 51.3 55.26 51.3 54.72V21.24C51.3 20.7 50.82 20.22 50.28 20.22H43.92V14.82L54 11.4V17.4C53.34 17.76 52.92 18.42 52.92 19.2C52.92 20.34 53.88 21.3 55.02 21.3C56.16 21.3 57.06 20.34 57.06 19.2C57.06 18.42 56.64 17.76 56.04 17.4ZM55.08 19.2C55.08 19.26 55.08 19.26 55.02 19.26C54.96 19.26 54.96 19.26 54.96 19.2C54.96 19.14 55.02 19.14 55.02 19.14C55.08 19.08 55.08 19.14 55.08 19.2ZM30.78 26.52H35.4C37.56 26.52 39.6 26.1 41.16 25.32C42.66 24.54 43.62 23.46 43.86 22.26H49.2V53.76H34.62C33.24 53.76 31.86 54.36 30.78 55.38V26.52ZM24.18 26.52H28.8V55.44C27.72 54.36 26.4 53.76 24.96 53.76H10.38V22.26H15.72C15.96 23.46 16.86 24.54 18.36 25.32C19.92 26.1 22.02 26.52 24.18 26.52ZM17.64 21.72V15.66L27.36 19.02C28.74 19.5 30.54 19.5 31.86 19.02L41.88 15.6V21.72C41.88 22.32 41.28 22.98 40.2 23.52C38.94 24.18 37.2 24.54 35.34 24.54H24.18C22.32 24.54 20.58 24.18 19.32 23.52C18.24 22.98 17.64 22.32 17.64 21.72ZM28.08 17.1H28.02L5.82 9.54001L28.02 1.98001C28.38 1.86001 28.98 1.80001 29.64 1.80001C30.3 1.80001 30.9 1.86001 31.26 1.98001L53.46 9.54001L31.26 17.1C30.48 17.4 28.86 17.4 28.08 17.1Z" fill="#333E50"/>
<path d="M13.1999 27.84C12.6599 27.9 12.2399 28.44 12.2999 28.98C12.3599 29.46 12.8399 29.88 13.2599 29.88C13.3199 29.88 13.3199 29.88 13.3799 29.88H24.9599C25.1999 29.88 25.4399 29.76 25.6799 29.58C25.8599 29.4 25.9799 29.16 25.9799 28.86C25.9799 28.62 25.8599 28.32 25.6799 28.14C25.4999 27.96 25.1999 27.84 25.0199 27.84H13.4999C13.3799 27.84 13.2599 27.84 13.1999 27.84Z" fill="#333E50"/>
<path d="M24.9599 34.32H13.4399C13.3799 34.32 13.2599 34.32 13.1999 34.32C12.6599 34.38 12.2399 34.92 12.2999 35.46C12.3599 35.94 12.8399 36.36 13.2599 36.36C13.3199 36.36 13.3199 36.36 13.3799 36.36H24.9599C25.1999 36.36 25.4399 36.24 25.6799 36.06C25.8599 35.88 25.9799 35.64 25.9799 35.34C25.9799 35.1 25.8599 34.8 25.6799 34.62C25.4399 34.44 25.1999 34.32 24.9599 34.32Z" fill="#333E50"/>
<path d="M54.9599 19.98C55.3907 19.98 55.7399 19.6308 55.7399 19.2C55.7399 18.7692 55.3907 18.42 54.9599 18.42C54.5291 18.42 54.1799 18.7692 54.1799 19.2C54.1799 19.6308 54.5291 19.98 54.9599 19.98Z" fill="#95CE5A"/>
</g>
<defs>
<clipPath id="clip0">
<rect width="60" height="60" fill="white"/>
</clipPath>
</defs>
</svg>
