<svg width="60" height="60" viewBox="0 0 60 60" fill="none" xmlns="http://www.w3.org/2000/svg">
<path d="M57.24 50.14H2.75995C1.91995 50.14 1.19995 49.48 1.19995 48.58V13.42C1.19995 12.58 1.85995 11.86 2.75995 11.86H55.62C57.36 11.86 58.8 13.3 58.8 15.04V48.58C58.8 49.48 58.14 50.14 57.24 50.14Z" fill="white"/>
<path d="M0.179932 24.88C0.179932 30.16 4.25993 34.48 9.53993 34.48H50.3399C55.6199 34.48 59.7599 30.16 59.7599 24.88H57.8399C57.8399 29.02 54.4799 32.38 50.3399 32.38H9.53993C5.39993 32.38 2.03993 29.02 2.03993 24.88H0.179932Z" fill="#C3E2FC"/>
<path d="M28.4401 27.2801C29.7601 27.2801 30.9001 28.3601 30.9001 29.7401V34.2401C30.9001 35.5601 29.8201 36.7001 28.4401 36.7001H28.2001C26.8801 36.7001 25.7401 35.6201 25.7401 34.2401V29.7401C25.7401 28.4201 26.8201 27.2801 28.2001 27.2801H28.4401ZM28.4401 25.1801H28.2001C25.6801 25.1801 23.6401 27.2201 23.6401 29.7401V34.2401C23.6401 36.7601 25.6801 38.8001 28.2001 38.8001H28.4401C30.9601 38.8001 33.0001 36.7601 33.0001 34.2401V29.7401C33.0001 27.2201 30.9601 25.1801 28.4401 25.1801Z" fill="#C3E2FC"/>
<path d="M31.02 36.22H29.04C27.78 36.22 26.76 35.2 26.76 33.94V28.12C26.76 26.86 27.78 25.84 29.04 25.84H31.02C32.28 25.84 33.3 26.86 33.3 28.12V33.94C33.3 35.2 32.28 36.22 31.02 36.22Z" fill="#95CE5A"/>
<path d="M56.34 10.6H39.48V7.78C39.48 5.68 37.8 4 35.7 4H24.24C22.14 4 20.46 5.68 20.46 7.78V10.6H3.66C1.62 10.6 0 12.22 0 14.26V47.74C0 49.78 1.62 51.4 3.66 51.4H56.34C58.38 51.4 60 49.78 60 47.74V14.26C60 12.22 58.38 10.6 56.34 10.6ZM22.62 7.72C22.62 6.82 23.34 6.04 24.3 6.04H35.76C36.66 6.04 37.44 6.76 37.44 7.72V10.54H22.62V7.72ZM57.9 47.74C57.9 48.58 57.18 49.3 56.34 49.3H3.66C2.82 49.3 2.1 48.58 2.1 47.74V28.96C3.84 31.18 6.54 32.56 9.6 32.56H25.38V33.64C25.38 36.16 27.42 38.2 29.94 38.2H30.18C32.7 38.2 34.74 36.16 34.74 33.64V32.56H50.4C53.46 32.56 56.16 31.12 57.9 28.96V47.74ZM27.48 33.64V29.14C27.48 27.82 28.56 26.68 29.94 26.68H30.18C31.5 26.68 32.64 27.76 32.64 29.14V33.64C32.64 34.96 31.56 36.1 30.18 36.1H29.94C28.56 36.04 27.48 34.96 27.48 33.64ZM50.4 30.46H34.68V29.14C34.68 26.62 32.64 24.58 30.12 24.58H29.88C27.36 24.58 25.32 26.62 25.32 29.14V30.46H9.6C5.46 30.46 2.1 27.1 2.1 22.96V14.26C2.1 13.42 2.82 12.7 3.66 12.7H56.34C57.18 12.7 57.9 13.42 57.9 14.26V22.96C57.9 27.1 54.54 30.46 50.4 30.46Z" fill="#333E50"/>
<path d="M7.43976 54.16C7.01976 53.74 7.01976 53.08 7.43976 52.66L52.6198 7.41998C53.0398 6.99998 53.6998 6.99998 54.1198 7.41998C54.5398 7.83998 54.5398 8.49998 54.1198 8.91998L8.93976 54.16C8.51976 54.58 7.85976 54.58 7.43976 54.16Z" fill="#333E50"/>
<path d="M53.3398 7.18C53.5798 7.18 53.8798 7.3 54.0598 7.48001C54.4798 7.9 54.4798 8.56 54.0598 8.98001L8.93984 54.16C8.75984 54.34 8.45984 54.46 8.21984 54.46C7.97984 54.46 7.67984 54.34 7.49984 54.16C7.07984 53.74 7.07984 53.08 7.49984 52.66L52.6798 7.42001C52.7998 7.24001 53.0998 7.18 53.3398 7.18ZM53.3398 5.38C52.5598 5.38 51.8398 5.68001 51.2998 6.22001L6.17984 51.4C5.63984 51.94 5.33984 52.66 5.33984 53.44C5.33984 54.22 5.63984 54.94 6.17984 55.48C6.71984 56.02 7.43984 56.32 8.21984 56.32C8.99984 56.32 9.71984 56.02 10.2598 55.48L55.4398 10.24C55.9798 9.7 56.2798 8.98 56.2798 8.2C56.2798 7.42 55.9798 6.70001 55.4398 6.16001C54.8398 5.62001 54.1198 5.38 53.3398 5.38Z" fill="white"/>
</svg>
