<svg width="60" height="60" viewBox="0 0 60 60" fill="none" xmlns="http://www.w3.org/2000/svg">
<path d="M6.25 17.6285H49.5C51.75 17.6285 53.625 19.5214 53.625 21.7928V51.069C53.625 53.3404 51.75 55.2333 49.5 55.2333H6.25C4 55.2333 2.125 53.3404 2.125 51.069V21.919C2.125 19.5214 4 17.6285 6.25 17.6285Z" fill="#C3E2FC"/>
<path d="M6.25 17.6285H49.5C51.75 17.6285 53.625 19.5214 53.625 21.7928V51.069C53.625 53.3404 51.75 55.2333 49.5 55.2333H6.25C4 55.2333 2.125 53.3404 2.125 51.069V21.919C2.125 19.5214 4 17.6285 6.25 17.6285Z" fill="white"/>
<path d="M53.7501 47.9143H38.2501C34.3751 47.9143 31.2501 44.7595 31.2501 40.8476V36.5571H53.7501V47.9143Z" fill="#C3E2FC"/>
<path d="M53.6249 44.6333H38.3749C35.4999 44.6333 33.2499 42.3619 33.2499 39.4595V34.2857C33.2499 31.3833 35.4999 29.1119 38.3749 29.1119H53.7499C56.6249 29.1119 58.8749 31.3833 58.8749 34.2857V39.4595C58.8749 42.2357 56.4999 44.6333 53.6249 44.6333Z" fill="white"/>
<path d="M45.625 12.8333H2.125V17.881H45.625V12.8333Z" fill="#C3E2FC"/>
<path d="M14.3749 16.9976L22.8749 5.26193L31.2499 10.3096L39.1249 17.7548L13.7499 18.2596L14.3749 16.9976Z" fill="#95CE5A"/>
<path d="M23.625 4C23.375 4 23.125 4 22.875 4.12619C21.75 4.37857 21 5.13571 20.375 5.89286L13.125 16.619H7.5C7 16.619 6.625 16.8714 6.375 17.25C6.125 17.6286 6.125 18.1333 6.375 18.5119C6.625 18.8905 7 19.1429 7.5 19.1429H50C51.375 19.1429 52.5 20.2786 52.5 21.6667V24.1905C52.5 24.6952 52.75 25.0738 53.125 25.3262C53.5 25.5786 54 25.5786 54.375 25.3262C54.75 25.0738 55 24.6952 55 24.1905V21.6667C55 18.8905 52.75 16.619 50 16.619H47.5C47.5 13.8429 45.25 11.5714 42.5 11.5714H40.625C40.125 11.5714 39.75 11.8238 39.5 12.2024C39.25 12.581 39.25 13.0857 39.5 13.4643C39.75 13.8429 40.125 14.0952 40.625 14.0952H42.5C43.875 14.0952 45 15.231 45 16.619H40.5L25.875 4.75714C25.25 4.25238 24.375 4 23.625 4ZM23.875 6.52381C24 6.52381 24.125 6.65 24.375 6.77619L36.5 16.619H16.125L22.5 7.28095C22.75 6.90238 23.125 6.65 23.375 6.65C23.625 6.52381 23.75 6.52381 23.875 6.52381ZM5 11.5714C2.25 11.5714 0 13.8429 0 16.619V51.9524C0 54.7286 2.25 57 5 57H50C52.75 57 55 54.7286 55 51.9524V49.4286C55 48.9238 54.75 48.5452 54.375 48.2929C54 48.0405 53.5 48.0405 53.125 48.2929C52.75 48.5452 52.5 48.9238 52.5 49.4286V51.9524C52.5 53.3405 51.375 54.4762 50 54.4762H5C3.625 54.4762 2.5 53.3405 2.5 51.9524V16.619C2.5 15.231 3.625 14.0952 5 14.0952H11.25C11.75 14.0952 12.125 13.8429 12.375 13.4643C12.625 13.0857 12.625 12.581 12.375 12.2024C12.125 11.8238 11.75 11.5714 11.25 11.5714H5ZM40 27.9762C36.875 27.9762 34 29.6167 32.375 32.3929C30.75 35.169 30.875 38.45 32.375 41.2262C33.875 44.0024 36.875 45.6429 40 45.6429H55C57.75 45.6429 60 43.3714 60 40.5952V33.0238C60 30.2476 57.75 27.9762 55 27.9762H40ZM40 30.5H55C56.375 30.5 57.5 31.6357 57.5 33.0238V40.5952C57.5 41.9833 56.375 43.119 55 43.119H40C37.75 43.119 35.75 41.8571 34.625 39.9643C33.5 38.0714 33.5 35.5476 34.625 33.6548C35.75 31.7619 37.75 30.5 40 30.5ZM40 33.0238C38 33.0238 36.25 34.7905 36.25 36.8095C36.25 38.8286 38 40.5952 40 40.5952C42 40.5952 43.75 38.8286 43.75 36.8095C43.75 34.7905 42 33.0238 40 33.0238ZM40 35.5476C40.75 35.5476 41.25 36.0524 41.25 36.8095C41.25 37.5667 40.75 38.0714 40 38.0714C39.25 38.0714 38.75 37.5667 38.75 36.8095C38.75 36.0524 39.25 35.5476 40 35.5476Z" fill="#333E50"/>
</svg>
