<svg width="61" height="60" viewBox="0 0 61 60" fill="none" xmlns="http://www.w3.org/2000/svg">
<path d="M60.1 30.4513V23.9469C60.1 21.0929 57.777 18.5708 54.7239 18.5708L26.1177 18.5044H5.47608C2.6221 18.5044 0.0999756 20.8274 0.0999756 23.8805V30.6504V43.7256V50.2301C0.0999756 53.084 2.42298 55.6062 5.47608 55.6062H34.215H54.7239C57.5778 55.6725 60.1 53.2832 60.1 50.2964V43.4601V30.4513ZM57.7106 50.1637C57.7106 51.8894 56.3832 53.1504 54.7239 53.1504H5.47608C3.75042 53.1504 2.48936 51.823 2.48936 50.1637V23.8805C2.48936 22.1548 3.81679 20.8938 5.47608 20.8938H54.8566C56.5823 20.8938 57.8433 22.2212 57.7106 23.8805V50.1637Z" fill="#333E50"/>
<path d="M10.9849 41.0044H51.2061C52.0026 41.0044 52.5336 41.6681 52.5336 42.3318C52.5336 43.1283 51.8699 43.6593 51.2061 43.6593H10.9849C10.1884 43.6593 9.65747 42.9955 9.65747 42.3318C9.65747 41.6681 10.1884 41.0044 10.9849 41.0044Z" fill="#C3E2FC"/>
<path d="M10.9849 46.5132H34.215C35.0115 46.5132 35.5424 47.177 35.5424 47.8407C35.5424 48.6371 34.8787 49.1681 34.215 49.1681H10.9849C10.1884 49.1681 9.65747 48.5044 9.65747 47.8407C9.65747 47.177 10.1884 46.5132 10.9849 46.5132Z" fill="#C3E2FC"/>
<path d="M12.1133 34.5H16.162C17.2239 34.5 18.0204 33.7035 18.0204 32.6416V30.6504C18.0204 29.5885 17.2239 28.792 16.162 28.792H12.1133C11.0513 28.792 10.2549 29.5885 10.2549 30.6504V32.6416C10.3213 33.7035 11.1177 34.5 12.1133 34.5Z" fill="#95CE5A"/>
<path d="M16.0291 35.2301H11.9805C10.5203 35.2301 9.39197 34.0354 9.39197 32.6416V30.6504C9.39197 29.1903 10.5867 28.062 11.9805 28.062H16.0291C17.4893 28.062 18.6176 29.2566 18.6176 30.6504V32.6416C18.684 34.1018 17.4893 35.2301 16.0291 35.2301ZM12.1132 29.6549C11.5822 29.6549 11.0513 30.1858 11.0513 30.7168V32.708C11.0513 33.2389 11.5822 33.7699 12.1132 33.7699H16.1619C16.6929 33.7699 17.2238 33.2389 17.2238 32.708V30.7168C17.2238 30.1858 16.6929 29.6549 16.1619 29.6549H12.1132Z" fill="#333E50"/>
<path d="M30.1664 47.7743C29.5027 47.7743 28.9717 47.2434 28.9717 46.5796C28.9717 45.9159 29.5027 45.3849 30.1664 45.3849H34.4805C35.1442 45.3849 35.6752 45.9159 35.6752 46.5796C35.6752 47.2434 35.1442 47.7743 34.4805 47.7743H30.1664Z" fill="#333E50"/>
<path d="M10.5867 47.9071C9.92294 47.9071 9.39197 47.3761 9.39197 46.7124C9.39197 46.0487 9.92294 45.5177 10.5867 45.5177H24.3256C24.9893 45.5177 25.5203 46.0487 25.5203 46.7124C25.5203 47.3761 24.9893 47.9071 24.3256 47.9071H10.5867Z" fill="#333E50"/>
<path d="M44.3035 42.0664C43.6397 42.0664 43.1088 41.5354 43.1088 40.8717C43.1088 40.208 43.6397 39.677 44.3035 39.677H51.4716C52.1353 39.677 52.6663 40.208 52.6663 40.8717C52.6663 41.5354 52.1353 42.0664 51.4716 42.0664H44.3035Z" fill="#333E50"/>
<path d="M33.0204 42.0664C32.3567 42.0664 31.8257 41.5354 31.8257 40.8717C31.8257 40.208 32.3567 39.677 33.0204 39.677H40.1885C40.8522 39.677 41.3832 40.208 41.3832 40.8717C41.3832 41.5354 40.8522 42.0664 40.1885 42.0664H33.0204Z" fill="#333E50"/>
<path d="M21.8036 42.0664C21.1399 42.0664 20.6089 41.5354 20.6089 40.8717C20.6089 40.208 21.1399 39.677 21.8036 39.677H28.9717C29.6354 39.677 30.1664 40.208 30.1664 40.8717C30.1664 41.5354 29.6354 42.0664 28.9717 42.0664H21.8036Z" fill="#333E50"/>
<path d="M10.5867 42.0664C9.92294 42.0664 9.39197 41.5354 9.39197 40.8717C9.39197 40.208 9.92294 39.677 10.5867 39.677H17.7548C18.4185 39.677 18.9495 40.208 18.9495 40.8717C18.9495 41.5354 18.4185 42.0664 17.7548 42.0664H10.5867Z" fill="#333E50"/>
<path d="M34.1486 13.1947L33.8831 24.9424L30.6309 25.3407L36.7371 33.438L42.7769 25.938L39.1264 25.2079L39.2592 12.9955L34.1486 13.1947Z" fill="#95CE5A"/>
<path d="M44.5026 24.7434C44.3035 24.2788 43.8389 24.0133 43.3743 24.0133H41.2504C40.8521 24.0133 40.5203 23.6815 40.5203 23.2832V12.8629C40.5203 12.1328 39.9229 11.6018 39.2592 11.6018H34.3477C33.6176 11.6018 33.0867 12.1992 33.0867 12.8629V23.2169C33.0867 23.6151 32.7548 23.9469 32.3566 23.9469H30.1663C29.7017 23.9469 29.2371 24.2124 29.038 24.677C28.8389 25.1416 28.8389 25.6062 29.1707 26.0045L35.8079 34.6328C36.0734 34.9646 36.4052 35.1638 36.8035 35.1638C37.2017 35.1638 37.5999 34.9646 37.799 34.6328L44.4362 26.0045C44.7017 25.6726 44.7681 25.1416 44.5026 24.7434ZM39.5247 26.2699H39.8566C40.1221 26.2699 40.3875 26.4027 40.5203 26.6682C40.653 26.9337 40.653 27.1992 40.4539 27.4646L37.3344 31.5133C37.069 31.9115 36.4052 31.9115 36.1398 31.5133L33.0203 27.4646C32.8875 27.2655 32.8875 26.9337 33.0203 26.6682C33.153 26.4027 33.4185 26.2699 33.684 26.2699H34.0822C34.8123 26.2699 35.3433 25.6726 35.3433 25.0089V14.6549C35.3433 14.2567 35.6752 13.9248 36.0734 13.9248H37.4672C37.8654 13.9248 38.1973 14.2567 38.1973 14.6549V25.0089C38.2636 25.6726 38.7946 26.2699 39.5247 26.2699Z" fill="#333E50"/>
<path d="M39.5247 7.88495H34.1486C33.5512 7.88495 33.0203 8.41592 33.0203 9.01327C33.0203 9.61061 33.5512 10.1416 34.1486 10.1416H39.5247C40.122 10.1416 40.653 9.61061 40.653 9.01327C40.653 8.41592 40.122 7.88495 39.5247 7.88495Z" fill="#333E50"/>
<path d="M39.5247 4.5H34.1486C33.5512 4.5 33.0203 5.03097 33.0203 5.62832C33.0203 6.22566 33.5512 6.75664 34.1486 6.75664H39.5247C40.122 6.75664 40.653 6.22566 40.653 5.62832C40.653 5.03097 40.122 4.5 39.5247 4.5Z" fill="#333E50"/>
</svg>
