<svg width="60" height="60" viewBox="0 0 60 60" fill="none" xmlns="http://www.w3.org/2000/svg">
<g clip-path="url(#clip0)">
<path d="M54.72 60.0001H5.27997C4.49997 60.0001 3.83997 59.3401 3.83997 58.5601C3.83997 57.7801 4.49997 57.1201 5.27997 57.1201H54.66C55.44 57.1201 56.1 57.7801 56.1 58.5601C56.16 59.3401 55.5 60.0001 54.72 60.0001Z" fill="#333E50"/>
<path d="M54.72 54.6001H5.27997C4.49997 54.6001 3.83997 53.9401 3.83997 53.1601C3.83997 52.3801 4.49997 51.7201 5.27997 51.7201H54.66C55.44 51.7201 56.1 52.3801 56.1 53.1601C56.16 53.9401 55.5 54.6001 54.72 54.6001Z" fill="#333E50"/>
<path d="M54.72 49.2001H5.27997C4.49997 49.2001 3.83997 48.5401 3.83997 47.7601C3.83997 46.9801 4.49997 46.3201 5.27997 46.3201H54.66C55.44 46.3201 56.1 46.9801 56.1 47.7601C56.16 48.5401 55.5 49.2001 54.72 49.2001Z" fill="#333E50"/>
<path d="M11.2082 4.85242H20.5068V23.849H11.2082V4.85242Z" fill="#95CE5A"/>
<path d="M20.2787 23.7348L27.923 28.5267C27.923 28.5267 23.1881 21.7952 23.1881 15.2919C23.1881 8.78854 27.4666 3.42615 27.4666 3.42615L20.2787 6.7919V23.7348Z" fill="#C3E2FC"/>
<path d="M49.3154 16.7751C49.3154 17.6308 49.0302 18.4865 48.5168 19.114C49.4295 19.7986 50 20.9395 50 22.1945C50 24.3623 48.2886 26.0737 46.1208 26.0737C44.5806 26.0737 42.4128 26.0737 40.5302 26.0167C39.6745 25.9596 37.9631 25.9596 35.5672 26.0737C36.594 29.1542 37.849 33.0334 38.0772 34.4025C38.4766 36.3992 37.3356 38.1676 35.2249 38.7951C33.1142 39.4226 31.0034 38.5669 30.2618 36.7985C29.0639 33.8891 25.4129 27.1006 21.4196 24.5905C21.3625 24.5335 21.2485 24.4764 21.1914 24.3623C20.6209 24.8187 19.9364 25.1039 19.1948 25.1039H13.2619C11.4935 25.1039 10.1243 23.6777 10.1243 21.9663V6.50669C10.1243 4.73824 11.5505 3.36912 13.2619 3.36912H19.0807C20.0505 3.36912 20.9062 3.82549 21.5337 4.51006C23.2451 3.19798 26.2686 2 29.8055 2H44.0671C46.2349 2 47.9463 3.7114 47.9463 5.87918C47.9463 6.73488 47.6611 7.59058 47.1477 8.21809C48.0604 8.9597 48.6309 10.0436 48.6309 11.2986C48.6309 12.1543 48.3456 13.01 47.8322 13.6375C48.745 14.3791 49.3154 15.5201 49.3154 16.7751ZM19.9364 6.50669C19.9364 6.05032 19.5371 5.65099 19.0807 5.65099H13.2049C12.7485 5.65099 12.3492 6.05032 12.3492 6.50669V21.9093C12.3492 22.3657 12.7485 22.765 13.2049 22.765H19.0807C19.5371 22.765 19.9364 22.3657 19.9364 21.9093V6.50669ZM46.1208 20.5972H46.0067C45.4363 20.5972 44.9799 20.1979 44.9799 19.6274V19.4563C44.9228 18.8858 45.2651 18.4295 45.7785 18.2583C46.4631 18.0301 46.9765 17.5167 47.0336 16.8892C47.0906 15.9764 46.4061 15.1778 45.4933 15.1778H45.3792C44.8087 15.1778 44.3524 14.7785 44.3524 14.208V14.0369C44.2953 13.4664 44.6376 13.01 45.151 12.8389C45.7785 12.6677 46.349 12.0973 46.349 11.4698C46.4061 10.557 45.7215 9.75835 44.8087 9.75835H44.6947C44.1242 9.75835 43.6678 9.35903 43.6678 8.78856V8.61742C43.6108 8.04695 43.953 7.59058 44.4665 7.41944C45.094 7.2483 45.6644 6.67783 45.6644 6.05032C45.7215 5.13757 45.0369 4.33892 44.1242 4.33892H29.8055C25.6981 4.33892 22.7887 6.16441 22.2182 6.90602L22.2753 22.0234C22.2753 22.2516 22.3894 22.4798 22.6176 22.5939C27.4665 25.5603 31.4598 33.3757 32.4296 35.8857C32.7148 36.6274 33.7417 36.7414 34.5974 36.5133C35.0538 36.3992 36.0806 35.9428 35.8524 34.7448C35.6813 33.8321 34.8256 30.8656 33.3994 26.7583C33.3424 26.5301 33.2853 26.1878 33.2853 25.9596C33.3424 24.5905 34.4262 23.6207 35.6242 23.6207C38.0202 23.6207 39.6745 23.6207 40.6443 23.6207C42.4698 23.6778 44.6376 23.6777 46.1208 23.6777C46.8624 23.6777 47.547 23.1643 47.7181 22.4227C47.8322 21.4529 47.0906 20.5972 46.1208 20.5972Z" fill="#333E50"/>
<path d="M16.1713 11.2416C15.2577 11.2416 14.517 10.5009 14.517 9.58722C14.517 8.67354 15.2577 7.93286 16.1713 7.93286C17.085 7.93286 17.8257 8.67354 17.8257 9.58722C17.8257 10.5009 17.085 11.2416 16.1713 11.2416Z" fill="#333E50"/>
</g>
<defs>
<clipPath id="clip0">
<rect width="60" height="60" fill="white"/>
</clipPath>
</defs>
</svg>
