<svg width="40" height="40" viewBox="0 0 40 40" fill="none" xmlns="http://www.w3.org/2000/svg">
<path d="M37.8295 36.3237H1.98535V39.1609H37.8295V36.3237Z" fill="#C3E2FC"/>
<path d="M20.3563 0.926603L3.66406 11.7622L4.38208 12.8683L21.0743 2.03271L20.3563 0.926603Z" fill="#C3E2FC"/>
<path d="M5.14215 35.4845V32.8072L6.14115 32.6473V19.7003L5.14215 19.0609V15.5444H8.09919V35.4845H5.14215Z" fill="#C3E2FC"/>
<path d="M16.7307 35.4845V32.8072L17.7297 32.6473V19.7003L16.7307 19.0609V15.5444H19.7277V35.4845H16.7307Z" fill="#C3E2FC"/>
<path d="M28.3589 35.4845V32.8072L29.3579 32.6473V19.7003L28.3589 19.0609V15.5444H31.1961V35.4845H28.3589Z" fill="#C3E2FC"/>
<path d="M36.351 34.965H35.5118V34.1259C35.5118 32.967 34.8325 32.1279 33.8335 31.8082V19.8601C34.8325 19.5405 35.5118 18.5415 35.5118 17.5425V16.7033H36.351C36.8305 16.7033 37.1902 16.3836 37.1902 15.8641V13.3866H38.0293C38.349 13.3866 38.7086 13.2268 38.8685 12.7073C39.0283 12.2278 38.8685 12.028 38.5488 11.7083L20.2471 0.11988C19.9274 -0.03996 19.5678 -0.03996 19.4079 0.11988L15.7716 2.5974C15.7716 2.5974 14.9324 3.27672 15.4519 3.91608C15.9314 4.3956 16.7706 3.91608 16.7706 3.91608L19.7676 1.91808L35.1922 11.7083H4.30305C4.30305 11.7083 13.5738 5.83417 13.7736 5.71429C13.8135 5.71429 14.6127 5.23477 14.0933 4.55544C13.7736 3.87612 12.7746 4.3956 12.7746 4.3956L0.986367 11.9081C0.666687 12.0679 0.666687 12.3876 0.666687 12.7473C0.826527 13.2268 1.14621 13.4266 1.50585 13.4266H2.34501V15.9041C2.34501 16.3836 2.66469 16.7433 3.18417 16.7433H4.02333V17.5824C4.02333 18.7413 4.70265 19.5804 5.70165 19.9001V31.8482C4.70265 32.1678 4.02333 33.1668 4.02333 34.1658V35.005H3.14421C1.82553 35.005 0.666687 36.1638 0.666687 37.4825V39.1608C0.666687 39.6404 0.986367 40 1.50585 40H24.0833C24.0833 40 25.402 40 25.402 39.1608C25.402 38.3217 24.0833 38.3217 24.0833 38.3217H2.30505V37.4825C2.30505 37.003 2.62473 36.6434 3.14421 36.6434H36.351C36.8305 36.6434 37.1902 36.963 37.1902 37.4825V38.3217H30.6767C30.6767 38.3217 29.358 38.3217 29.358 39.1608C29.358 40 30.6767 40 30.6767 40H37.9894C38.4689 40 38.8285 39.6803 38.8285 39.1608V37.4825C38.8285 36.1239 37.6697 34.965 36.351 34.965ZM33.8335 17.5425C33.8335 18.022 33.5138 18.3816 32.9944 18.3816H29.6777C29.1982 18.3816 28.8385 18.0619 28.8385 17.5425V16.7033H33.8335V17.5425ZM32.1952 20.0599V31.6883H30.5168V20.0599H32.1952ZM3.98337 15.0649V13.3866H35.5118V15.0649H3.98337ZM18.0893 18.3816C17.6097 18.3816 17.2501 18.0619 17.2501 17.5425V16.7033H22.2451V17.5425C22.2451 18.022 21.9254 18.3816 21.4059 18.3816H18.0893ZM20.5668 20.0599V31.6883H18.8885V20.0599H20.5668ZM6.46089 18.3816C5.98137 18.3816 5.62173 18.0619 5.62173 17.5425V16.7033H10.6167V17.5425C10.6167 18.022 10.2971 18.3816 9.77758 18.3816H6.46089ZM8.93842 20.0599V31.6883H7.26009V20.0599H8.93842ZM10.6167 34.965H5.62173V34.1259C5.62173 33.6464 5.94141 33.2867 6.46089 33.2867H9.77758C10.2571 33.2867 10.6167 33.6064 10.6167 34.1259V34.965ZM15.5718 34.1658V35.005H12.2551V34.1658C12.2551 33.007 11.5758 32.1678 10.5768 31.8482V19.8601C11.5758 19.5405 12.2551 18.5415 12.2551 17.5425V16.7033H15.5718V17.5425C15.5718 18.7013 16.2511 19.5405 17.2501 19.8601V31.8082C16.2511 32.1678 15.5718 33.007 15.5718 34.1658ZM22.2051 34.965H17.2501V34.1259C17.2501 33.6464 17.5698 33.2867 18.0893 33.2867H21.4059C21.8855 33.2867 22.2451 33.6064 22.2451 34.1259L22.2051 34.965ZM27.2002 34.1658V35.005H23.8835V34.1658C23.8835 33.007 23.2041 32.1678 22.2051 31.8482V19.8601C23.2041 19.5405 23.8835 18.5415 23.8835 17.5425V16.7033H27.2002V17.5425C27.2002 18.7013 27.8795 19.5405 28.8785 19.8601V31.8082C27.8795 32.1678 27.2002 33.007 27.2002 34.1658ZM33.8335 34.965H28.8785V34.1259C28.8785 33.6464 29.1982 33.2867 29.7176 33.2867H33.0343C33.5138 33.2867 33.8735 33.6064 33.8735 34.1259V34.965H33.8335Z" fill="#333E50"/>
<path d="M19.7277 10.0699C21.0077 10.0699 22.0453 9.03227 22.0453 7.75225C22.0453 6.47223 21.0077 5.43457 19.7277 5.43457C18.4476 5.43457 17.41 6.47223 17.41 7.75225C17.41 9.03227 18.4476 10.0699 19.7277 10.0699Z" fill="#95CE5A"/>
<path d="M19.7276 10.9091C17.8895 10.9091 16.5708 9.43062 16.5708 7.7523C16.5708 6.07398 18.0493 4.59546 19.7276 4.59546C21.5658 4.59546 22.8845 6.07398 22.8845 7.7523C22.8845 9.43062 21.5658 10.9091 19.7276 10.9091ZM19.7276 5.91414C18.7286 5.91414 17.8895 6.7533 17.8895 7.7523C17.8895 8.7513 18.7286 9.59046 19.7276 9.59046C20.7266 9.59046 21.5658 8.7513 21.5658 7.7523C21.5658 6.7533 20.7266 5.91414 19.7276 5.91414Z" fill="#333E50"/>
</svg>
