<svg width="40" height="40" viewBox="0 0 40 40" fill="none" xmlns="http://www.w3.org/2000/svg">
<path d="M6.55341 24.3627C7.36998 24.3627 8.03193 23.6985 8.03193 22.8792C8.03193 22.0599 7.36998 21.3958 6.55341 21.3958C5.73685 21.3958 5.07489 22.0599 5.07489 22.8792C5.07489 23.6985 5.73685 24.3627 6.55341 24.3627Z" fill="#95CE5A"/>
<path d="M33.2867 24.3627C34.1033 24.3627 34.7652 23.6985 34.7652 22.8792C34.7652 22.0599 34.1033 21.3958 33.2867 21.3958C32.4701 21.3958 31.8082 22.0599 31.8082 22.8792C31.8082 23.6985 32.4701 24.3627 33.2867 24.3627Z" fill="#95CE5A"/>
<path d="M8.95106 7.20288L31.4086 7.72409V9.04717C31.4086 9.04717 21.2188 8.80661 18.8212 10.0896C16.4236 11.3726 10.989 17.8276 10.989 17.8276L4.9151 16.9054L8.95106 7.20288Z" fill="#C3E2FC"/>
<path d="M10.5894 28.5725H4.35565V30.497H10.5894V28.5725Z" fill="#C3E2FC"/>
<path d="M35.3646 28.5725H29.1309V30.497H35.3646V28.5725Z" fill="#C3E2FC"/>
<path d="M34.5654 29.4145H5.39461C2.43756 29.4145 0 26.9688 0 24.0019V19.2308C0 17.8676 0.799201 16.6648 2.07792 16.1837L4.27572 15.3417L7.47253 8.48578C8.19181 6.96224 9.71029 6 11.3886 6H28.6114C30.2897 6 31.8082 7.00233 32.5275 8.52587L35.6444 15.3016L38.042 16.304C39.2408 16.8252 40 17.9879 40 19.311V23.9618C39.96 26.9688 37.5225 29.4145 34.5654 29.4145ZM11.3487 7.68392C10.3497 7.68392 9.39061 8.28532 8.95105 9.20746L5.63437 16.3441C5.55445 16.5445 5.39461 16.7049 5.19481 16.7851L2.67732 17.7473C2.07792 17.9879 1.67832 18.5492 1.67832 19.2308V23.9618C1.67832 26.0466 3.35664 27.7305 5.43457 27.7305H34.5654C36.6434 27.7305 38.3217 26.0466 38.3217 23.9618V19.311C38.3217 18.6695 37.962 18.1082 37.3626 17.8676L34.6853 16.7049C34.4855 16.6247 34.3257 16.4643 34.2458 16.304L31.009 9.24755C30.5694 8.32541 29.6504 7.72401 28.6114 7.72401C28.5714 7.68392 11.3487 7.68392 11.3487 7.68392Z" fill="#333E50"/>
<path d="M20.02 19.5115C11.5884 19.5115 4.07595 17.8276 0.919108 15.2216C0.559468 14.9409 0.519508 14.4197 0.799228 14.0589C1.07895 13.698 1.59843 13.6579 1.95807 13.9386C4.79523 16.264 12.068 17.8677 19.98 17.8677C27.8122 17.8677 35.045 16.3041 37.9221 14.0188C38.2817 13.7381 38.8012 13.7782 39.0809 14.139C39.3607 14.4999 39.3207 15.0211 38.9611 15.3017C35.8042 17.8677 28.3317 19.5115 20.02 19.5115Z" fill="#333E50"/>
<path d="M6.55343 25.3249C5.19479 25.3249 4.03595 24.2023 4.03595 22.7991C4.03595 21.4359 5.15483 20.2732 6.55343 20.2732C7.95203 20.2732 9.07091 21.3958 9.07091 22.7991C9.07091 24.2023 7.95203 25.3249 6.55343 25.3249ZM6.55343 21.9972C6.11387 21.9972 5.71427 22.358 5.71427 22.8392C5.71427 23.2802 6.07391 23.6811 6.55343 23.6811C7.03295 23.6811 7.39259 23.3203 7.39259 22.8392C7.39259 22.358 7.03295 21.9972 6.55343 21.9972Z" fill="#333E50"/>
<path d="M33.2069 25.3249C31.8482 25.3249 30.6894 24.2023 30.6894 22.7991C30.6894 21.4359 31.8083 20.2732 33.2069 20.2732C34.5655 20.2732 35.7244 21.3958 35.7244 22.7991C35.6844 24.2023 34.5655 25.3249 33.2069 25.3249ZM33.2069 21.9972C32.7673 21.9972 32.3677 22.358 32.3677 22.8392C32.3677 23.2802 32.7274 23.6811 33.2069 23.6811C33.6464 23.6811 34.046 23.3203 34.046 22.8392C34.046 22.358 33.6464 21.9972 33.2069 21.9972Z" fill="#333E50"/>
<path d="M7.51247 34.6666C5.23475 34.6666 3.35663 32.7822 3.35663 30.4969V27.7305H5.03495V30.4969C5.03495 31.8601 6.15383 33.0228 7.55243 33.0228C8.95103 33.0228 10.0699 31.9002 10.0699 30.4969V27.7305H11.7482V30.4969C11.6683 32.8223 9.79019 34.6666 7.51247 34.6666Z" fill="#333E50"/>
<path d="M32.4874 34.6666C30.2097 34.6666 28.3316 32.7822 28.3316 30.4969V27.7305H29.97V30.4969C29.97 31.8601 31.0888 33.0228 32.4874 33.0228C33.886 33.0228 35.0049 31.9002 35.0049 30.4969V27.7305H36.6833V30.4969C36.6433 32.8223 34.7652 34.6666 32.4874 34.6666Z" fill="#333E50"/>
<path d="M26.6533 24.4029H13.3066C12.8271 24.4029 12.4675 24.0421 12.4675 23.561C12.4675 23.0798 12.8271 22.719 13.3066 22.719H26.6133C27.0529 22.719 27.4525 23.0798 27.4525 23.561C27.4525 24.0421 27.0928 24.4029 26.6533 24.4029Z" fill="#333E50"/>
<path d="M9.98998 11.9338C9.75022 11.9338 9.55042 11.8536 9.35062 11.6531C9.03093 11.2923 9.0709 10.7711 9.43054 10.4904L11.2287 8.88668C11.5884 8.56593 12.1079 8.60602 12.3876 8.96686C12.7073 9.3277 12.6673 9.84892 12.3077 10.1296L10.5095 11.7333C10.3896 11.8937 10.1898 11.9338 9.98998 11.9338Z" fill="#333E50"/>
<path d="M9.99009 15.1412C9.75033 15.1412 9.55053 15.061 9.39069 14.8605C9.07101 14.5398 9.07101 13.9785 9.43065 13.6978L14.5056 8.88665C14.8253 8.5659 15.3847 8.5659 15.6644 8.92674C15.9841 9.24749 15.9841 9.80879 15.6245 10.0894L10.5495 14.9006C10.3897 15.061 10.1899 15.1412 9.99009 15.1412Z" fill="#333E50"/>
</svg>
