<svg width="40" height="40" viewBox="0 0 40 40" fill="none" xmlns="http://www.w3.org/2000/svg">
<path d="M38.0798 27.9344V23.8276L38.1598 23.7479C39.7198 22.9504 40.4398 21.0765 39.7198 19.5215L38.0798 16.0127V12.1053C38.0798 10.3908 36.6798 8.87565 34.8399 8.87565H34.7599L33.1199 5.16756C32.3199 3.61255 30.4399 2.89485 28.8799 3.61255L17.6 8.83577H5.16014C3.44016 8.83577 1.92018 10.2313 1.92018 12.0654V16.1323L1.84018 16.2121C0.280192 17.0095 -0.439801 18.8835 0.280192 20.4385L1.92018 23.9871V27.8946C1.92018 29.6091 3.32016 31.1242 5.16014 31.1242H5.32014L7.04013 34.8323C7.84012 36.3873 9.7201 37.105 11.2801 36.3873L22.48 31.1242H34.8399C36.5598 31.1641 38.0798 29.7287 38.0798 27.9344ZM38.1598 19.2025L38.5598 20.0797C38.8798 20.7974 38.7198 21.6347 38.1598 22.1929V19.2025ZM2.00017 19.9202L1.68018 20.0797L1.60018 19.8404C1.28018 19.1227 1.44018 18.2854 2.00017 17.7272V19.9202ZM29.3999 4.84858C30.3599 4.44986 31.4399 4.84858 31.8399 5.72576L31.9199 5.96499L25.7599 8.7959L20.84 8.83577L29.3999 4.84858ZM10.7601 35.0715C9.8001 35.4702 8.72011 35.0715 8.32011 34.1943L6.80013 31.1641L19.32 31.0843L10.7601 35.0715ZM36.6398 27.8547C36.6398 28.8914 35.8398 29.6489 34.8399 29.6489H5.16014C4.12015 29.6489 3.36016 28.8515 3.36016 27.8547V12.0654C3.36016 11.0287 4.16015 10.2712 5.16014 10.2712H34.9199C35.9598 10.2712 36.7198 11.0686 36.6398 12.0654V27.8547Z" fill="#333E50"/>
<path d="M8.48011 22.3523H32.7199C33.1999 22.3523 33.5199 22.751 33.5199 23.1497C33.5199 23.6282 33.1199 23.9472 32.7199 23.9472H8.48011C8.00011 23.9472 7.68011 23.5485 7.68011 23.1497C7.68011 22.751 8.00011 22.3523 8.48011 22.3523Z" fill="#C3E2FC"/>
<path d="M24.8399 13.9395H32.9598C33.4398 13.9395 33.7598 14.3382 33.7598 14.7369C33.7598 15.2154 33.3598 15.5343 32.9598 15.5343H24.8399C24.3599 15.5343 24.0399 15.1356 24.0399 14.7369C23.9599 14.3382 24.3599 13.9395 24.8399 13.9395Z" fill="#C3E2FC"/>
<path d="M8.48011 25.6616H22.48C22.96 25.6616 23.28 26.0603 23.28 26.4591C23.28 26.9375 22.88 27.2565 22.48 27.2565H8.48011C8.00011 27.2565 7.68011 26.8578 7.68011 26.4591C7.68011 26.0603 8.00011 25.6616 8.48011 25.6616Z" fill="#C3E2FC"/>
<path d="M9.16015 18.4449H11.6001C12.2401 18.4449 12.7201 17.9664 12.7201 17.3284V16.1323C12.7201 15.4943 12.2401 15.0159 11.6001 15.0159H9.16015C8.52016 15.0159 8.04016 15.4943 8.04016 16.1323V17.3284C8.08016 17.9664 8.56016 18.4449 9.16015 18.4449Z" fill="#95CE5A"/>
<path d="M11.5202 18.8836H9.08019C8.2002 18.8836 7.5202 18.1659 7.5202 17.3286V16.1324C7.5202 15.2552 8.2402 14.5774 9.08019 14.5774H11.5202C12.4002 14.5774 13.0801 15.2951 13.0801 16.1324V17.3286C13.1201 18.2057 12.4002 18.8836 11.5202 18.8836ZM9.16019 15.5343C8.84019 15.5343 8.52019 15.8533 8.52019 16.1723V17.3684C8.52019 17.6874 8.84019 18.0064 9.16019 18.0064H11.6002C11.9202 18.0064 12.2402 17.6874 12.2402 17.3684V16.1723C12.2402 15.8533 11.9202 15.5343 11.6002 15.5343H9.16019Z" fill="#333E50"/>
<path d="M24.68 14.7369C24.28 14.7369 23.96 14.4179 23.96 14.0192C23.96 13.6205 24.28 13.3015 24.68 13.3015H32.9599C33.3599 13.3015 33.6799 13.6205 33.6799 14.0192C33.6799 14.4179 33.3599 14.7369 32.9599 14.7369H24.68Z" fill="#333E50"/>
<path d="M20.0401 26.4193C19.6401 26.4193 19.3201 26.1003 19.3201 25.7016C19.3201 25.3029 19.6401 24.9839 20.0401 24.9839H22.64C23.04 24.9839 23.36 25.3029 23.36 25.7016C23.36 26.1003 23.04 26.4193 22.64 26.4193H20.0401Z" fill="#333E50"/>
<path d="M8.2402 26.4991C7.8402 26.4991 7.5202 26.1801 7.5202 25.7814C7.5202 25.3827 7.8402 25.0637 8.2402 25.0637H16.5201C16.9201 25.0637 17.2401 25.3827 17.2401 25.7814C17.2401 26.1801 16.9201 26.4991 16.5201 26.4991H8.2402Z" fill="#333E50"/>
<path d="M28.5599 22.9903C28.1599 22.9903 27.8399 22.6713 27.8399 22.2726C27.8399 21.8739 28.1599 21.5549 28.5599 21.5549H32.8799C33.2799 21.5549 33.5998 21.8739 33.5998 22.2726C33.5998 22.6713 33.2799 22.9903 32.8799 22.9903H28.5599Z" fill="#333E50"/>
<path d="M21.76 22.9903C21.36 22.9903 21.04 22.6713 21.04 22.2726C21.04 21.8739 21.36 21.5549 21.76 21.5549H26.0799C26.4799 21.5549 26.7999 21.8739 26.7999 22.2726C26.7999 22.6713 26.4799 22.9903 26.0799 22.9903H21.76Z" fill="#333E50"/>
<path d="M15.0001 22.9903C14.6001 22.9903 14.2801 22.6713 14.2801 22.2726C14.2801 21.8739 14.6001 21.5549 15.0001 21.5549H19.32C19.72 21.5549 20.04 21.8739 20.04 22.2726C20.04 22.6713 19.72 22.9903 19.32 22.9903H15.0001Z" fill="#333E50"/>
<path d="M8.2402 22.9903C7.8402 22.9903 7.5202 22.6713 7.5202 22.2726C7.5202 21.8739 7.8402 21.5549 8.2402 21.5549H12.5602C12.9601 21.5549 13.2801 21.8739 13.2801 22.2726C13.2801 22.6713 12.9601 22.9903 12.5602 22.9903H8.2402Z" fill="#333E50"/>
</svg>
