<?xml version="1.0" encoding="utf-8"?>
<!-- Generator: Adobe Illustrator 21.1.0, SVG Export Plug-In . SVG Version: 6.00 Build 0)  -->
<svg version="1.1" id="Layer_1" xmlns="http://www.w3.org/2000/svg" xmlns:xlink="http://www.w3.org/1999/xlink" x="0px" y="0px"
	 viewBox="0 0 100 100" style="enable-background:new 0 0 100 100;" xml:space="preserve">
<style type="text/css">
	.st0{fill:#C3E2FC;}
	.st1{fill:#333E50;}
	.st2{fill:#95CE5A;}
</style>
<g>
	<rect x="7.6" y="36.4" class="st0" width="85.1" height="8.1"/>
	<path class="st0" d="M20.5,68.1c-1,0-1.8-0.8-1.8-1.8l0,0l0,0c0-1,0.8-1.8,1.8-1.8l0,0h20.6c1,0,1.8,0.8,1.8,1.8l0,0l0,0
		c0,1-0.8,1.8-1.8,1.8l0,0H20.5z"/>
	<path class="st1" d="M20.5,66.3c-1,0-1.8-0.8-1.8-1.8l0,0l0,0c0-1,0.8-1.8,1.8-1.8l0,0h20.6c1,0,1.8,0.8,1.8,1.8l0,0l0,0
		c0,1-0.8,1.8-1.8,1.8l0,0H20.5z"/>
	<path class="st0" d="M79.7,55.9H73c-2.4,0-4.3,2-4.3,4.3v3.3c0,2.4,2,4.3,4.3,4.3h6.7c2.4,0,4.3-2,4.3-4.3v-3.3
		C84,57.9,82,55.9,79.7,55.9z"/>
	<path class="st1" d="M99.3,48.8L95.2,40v-9.8c0-4.3-3.5-8.1-8.1-8.1h-0.2l-4.3-9.2c-2-3.9-6.7-5.7-10.6-3.9L43.9,22.1h-31
		c-4.3,0-8.1,3.5-8.1,8.1v10.2l-0.2,0.2c-3.9,2-5.7,6.7-3.9,10.6L4.8,60v9.8c0,4.3,3.5,8.1,8.1,8.1h0.4l4.3,9.2
		c2,3.9,6.7,5.7,10.6,3.9l27.9-13.2h30.8c4.3,0,8.1-3.5,8.1-8.1V59.6l0.2-0.2C99.3,57.5,101.1,52.8,99.3,48.8z M8.3,36.8h83.3v5.9
		H8.3C8.3,42.7,8.3,36.8,8.3,36.8z M73.4,12.1c2.4-1,5.1,0,6.1,2.2l0.2,0.6l-15.3,7.1H52L73.4,12.1z M12.9,25.6h74.3
		c2.6,0,4.5,2,4.5,4.7v3.3H8.3v-3.3C8.3,27.6,10.3,25.6,12.9,25.6z M5,49.8l-0.8,0.4L4,49.6c-0.8-1.8-0.4-3.9,1-5.3V49.8z
		 M26.8,87.7c-2.4,1-5.1,0-6.1-2.2L17,77.9h31.2L26.8,87.7z M87.1,74.4H12.9c-2.6,0-4.5-2-4.5-4.5V46.1h83.3v23.6
		C91.7,72.2,89.7,74.4,87.1,74.4z M95.2,55.5V48l1,2.2C97,52,96.6,54.1,95.2,55.5z"/>
	<path class="st2" d="M73,65.1h6.7c1.6,0,2.9-1.4,2.9-2.9v-3.3c0-1.6-1.4-2.9-2.9-2.9H73c-1.6,0-2.9,1.4-2.9,2.9v3.3
		C70,63.8,71.4,65.1,73,65.1z"/>
	<path class="st1" d="M79.7,66.3H73c-2.4,0-4.3-2-4.3-4.3v-3.3c0-2.4,2-4.3,4.3-4.3h6.7c2.4,0,4.3,2,4.3,4.3V62
		C84,64.3,82,66.3,79.7,66.3z M73,57.1c-1,0-1.8,0.8-1.8,1.8v3.3c0,1,0.8,1.8,1.8,1.8h6.7c1,0,1.8-0.8,1.8-1.8v-3.3
		c0-1-0.8-1.8-1.8-1.8H73z"/>
	<path class="st0" d="M20.5,59c-1,0-1.8-0.8-1.8-1.8l0,0l0,0c0-1,0.8-1.8,1.8-1.8l0,0h10.8c1,0,1.8,0.8,1.8,1.8l0,0l0,0
		c0,1-0.8,1.8-1.8,1.8l0,0H20.5z"/>
	<path class="st1" d="M20.5,57.5c-1,0-1.8-0.8-1.8-1.8l0,0l0,0c0-1,0.8-1.8,1.8-1.8l0,0h10.8c1,0,1.8,0.8,1.8,1.8l0,0l0,0
		c0,1-0.8,1.8-1.8,1.8l0,0H20.5z"/>
</g>
</svg>
