<svg width="40" height="40" viewBox="0 0 40 40" fill="none" xmlns="http://www.w3.org/2000/svg">
<path d="M37.5333 1.32007H2.73334V36.1201H37.5333V1.32007Z" fill="white"/>
<path d="M29.6132 34.32H8.61324C6.41324 34.32 4.57324 32.52 4.57324 30.28V9.27999C4.57324 7.07999 6.37324 5.23999 8.61324 5.23999H29.6132C31.8132 5.23999 33.6532 7.03999 33.6532 9.27999V30.28C33.6532 32.56 31.8132 34.32 29.6132 34.32Z" fill="#C3E2FC"/>
<path d="M4.29324 10.1201H7.65324C8.05324 10.1201 8.37324 10.4401 8.37324 10.8401C8.37324 11.2401 8.05324 11.5601 7.65324 11.5601H4.29324C3.89324 11.5601 3.57324 11.2401 3.57324 10.8401C3.57324 10.4401 3.89324 10.1201 4.29324 10.1201Z" fill="#C3E2FC"/>
<path d="M4.65329 27.1201H8.01329C8.41329 27.1201 8.73329 27.4401 8.73329 27.8401C8.73329 28.2401 8.41329 28.5601 8.01329 28.5601H4.65329C4.25329 28.5601 3.93329 28.2401 3.93329 27.8401C3.97329 27.4401 4.29329 27.1201 4.65329 27.1201Z" fill="#C3E2FC"/>
<path d="M35.0533 0H5.13331C3.05331 0 1.33331 1.72 1.33331 3.84V33.72C1.33331 35.56 2.61331 37.08 4.41331 37.44V38.2C4.41331 39.16 5.21331 40 6.21331 40H9.13331C10.0933 40 10.9333 39.2 10.9333 38.2V37.48H29.8933V38.2C29.8933 39.16 30.6933 40 31.6933 40H34.6133C35.5733 40 36.4133 39.2 36.4133 38.2V37.28C37.9333 36.72 38.9733 35.28 38.9733 33.64V3.84C38.8533 1.68 37.1333 0 35.0533 0ZM9.33331 38.2C9.33331 38.36 9.21331 38.44 9.09331 38.44H6.17331C6.01331 38.44 5.93331 38.32 5.93331 38.2V37.48H9.37331V38.2H9.33331ZM34.5333 38.48H31.6133C31.4533 38.48 31.3733 38.36 31.3733 38.24V37.52H34.8133V38.24C34.7733 38.36 34.6933 38.48 34.5333 38.48ZM37.3333 33.72C37.3333 35 36.2933 36 35.0533 36H5.13331C3.85331 36 2.85331 34.96 2.85331 33.72V3.84C2.85331 2.56 3.89331 1.56 5.13331 1.56H35.0133C36.2933 1.56 37.2933 2.6 37.2933 3.84V33.72H37.3333Z" fill="#333E50"/>
<path d="M31.4533 31.8399H8.89329C7.81329 31.8399 6.93329 30.9599 6.93329 29.8799V6.87992C6.93329 5.79992 7.81329 4.91992 8.89329 4.91992H31.5333C32.6133 4.91992 33.4933 5.79992 33.4933 6.87992V29.9199C33.4133 30.9599 32.5333 31.8399 31.4533 31.8399Z" fill="white"/>
<mask id="mask0" mask-type="alpha" maskUnits="userSpaceOnUse" x="6" y="4" width="28" height="28">
<path d="M31.4533 31.8399H8.89329C7.81329 31.8399 6.93329 30.9599 6.93329 29.8799V6.87992C6.93329 5.79992 7.81329 4.91992 8.89329 4.91992H31.5333C32.6133 4.91992 33.4933 5.79992 33.4933 6.87992V29.9199C33.4133 30.9599 32.5333 31.8399 31.4533 31.8399Z" fill="white"/>
</mask>
<g mask="url(#mask0)">
<path d="M24.9788 3.05544L3.70514 34.3491L6.64926 36.3506L27.9229 5.05688L24.9788 3.05544Z" fill="#47C0EA"/>
<path d="M23.2444 0.594259L1.9707 31.8879L3.16158 32.6975L24.4352 1.40383L23.2444 0.594259Z" fill="#47C0EA"/>
<path d="M18.5707 -3.7678L-2.70294 27.5259L0.241178 29.5273L21.5148 -1.76637L18.5707 -3.7678Z" fill="#47C0EA"/>
<path d="M34.489 5.64529L13.2153 36.939L13.8439 37.3662L35.1175 6.07256L34.489 5.64529Z" fill="#47C0EA"/>
<path d="M32.4516 3.4678L11.1779 34.7615L11.8064 35.1887L33.0801 3.89507L32.4516 3.4678Z" fill="#47C0EA"/>
<path d="M36.1649 6.77761L14.8913 38.0713L17.8354 40.0727L39.1091 8.77904L36.1649 6.77761Z" fill="#47C0EA"/>
<path d="M41.9883 8.48122L20.7146 39.7749L23.6587 41.7763L44.9324 10.4827L41.9883 8.48122Z" fill="#47C0EA"/>
</g>
<path d="M12.7733 4.47998H9.69335C7.61334 4.47998 5.85334 6.19998 5.85334 8.31998V9.59998H4.81334C4.41334 9.59998 4.05334 9.95998 4.05334 10.36C4.05334 10.76 4.41334 11.12 4.81334 11.12H5.85334V26.36H4.81334C4.41334 26.36 4.05334 26.72 4.05334 27.12C4.05334 27.52 4.41334 27.88 4.81334 27.88H5.85334V29.16C5.85334 31.24 7.57334 33 9.69335 33H30.5333C32.6133 33 34.3733 31.28 34.3733 29.16V8.31998C34.3733 6.23998 32.6533 4.47998 30.5333 4.47998H17.8133C17.8133 4.47998 17.0133 4.59998 17.0133 5.23998C17.0133 5.87998 17.8933 5.99998 17.8933 5.99998H30.4933C31.7733 5.99998 32.7733 7.03998 32.7733 8.27998V29.12C32.7733 30.4 31.7333 31.4 30.4933 31.4H9.69335C8.41334 31.4 7.41334 30.36 7.41334 29.12V27.84H8.45334C8.85334 27.84 9.21334 27.48 9.21334 27.08C9.21334 26.68 8.85334 26.32 8.45334 26.32H7.41334V11.12H8.45334C8.85334 11.12 9.21334 10.76 9.21334 10.36C9.21334 9.95998 8.85334 9.59998 8.45334 9.59998H7.41334V8.31998C7.41334 7.03998 8.45334 6.03998 9.69335 6.03998H12.7733C12.7733 6.03998 13.6533 6.03998 13.6533 5.27998C13.6533 4.51998 12.7733 4.47998 12.7733 4.47998Z" fill="#333E50"/>
<path d="M27.4932 13.3999L27.3732 13.3599L27.2532 13.3199C23.9332 11.3599 19.6532 12.4399 17.6932 15.7599C15.7332 19.0799 16.8132 23.3599 20.1332 25.3199C22.1732 26.5599 24.7332 26.5999 26.8132 25.5199H26.8932H26.9332C30.3732 23.7199 31.6132 19.4799 29.8532 16.1199C29.3732 14.9599 28.5332 14.0399 27.4932 13.3999ZM23.8132 13.8399C24.5332 13.8399 25.2932 13.9999 25.9732 14.2799L23.6932 18.1199C23.4932 18.1599 23.2932 18.2399 23.1332 18.3599L18.7732 17.4799C19.4532 15.2799 21.4932 13.8399 23.8132 13.8399ZM18.3732 19.2399C18.3732 19.1199 18.3732 19.0399 18.3732 18.9199L22.7332 19.7999C22.8932 20.1199 23.1732 20.3599 23.5332 20.3999L25.5732 24.3199C22.7732 25.2799 19.6532 23.7999 18.6932 20.9999C18.4932 20.4799 18.3732 19.8799 18.3732 19.2399ZM26.9732 23.6399L24.9332 19.7199C25.0532 19.4799 25.0532 19.1199 24.9332 18.8399L27.2132 14.9999C29.4932 16.8799 29.8532 20.3199 27.9732 22.5999C27.6932 23.0799 27.3332 23.3999 26.9732 23.6399Z" fill="#333E50"/>
<path d="M23.8133 19.8399C24.1447 19.8399 24.4133 19.5713 24.4133 19.2399C24.4133 18.9085 24.1447 18.6399 23.8133 18.6399C23.4819 18.6399 23.2133 18.9085 23.2133 19.2399C23.2133 19.5713 23.4819 19.8399 23.8133 19.8399Z" fill="#95CE5A"/>
</svg>
