<svg width="40" height="40" viewBox="0 0 40 40" fill="none" xmlns="http://www.w3.org/2000/svg">
<g clip-path="url(#clip0)">
<path d="M20 26.08C21.922 26.08 23.48 24.5219 23.48 22.6C23.48 20.678 21.922 19.12 20 19.12C18.0781 19.12 16.52 20.678 16.52 22.6C16.52 24.5219 18.0781 26.08 20 26.08Z" fill="#95CE5A"/>
<path d="M8.07996 17.4V20.8L10.4 20L12.12 17.16L10.6 16.6L8.07996 17.4Z" fill="#C3E2FC"/>
<path d="M8.72004 28.52H12.12L11.32 26.16L8.48004 24.44L7.92004 25.96L8.72004 28.52Z" fill="#C3E2FC"/>
<path d="M32.04 27.76V24.36L29.72 25.16L27.96 28.04L29.52 28.56L32.04 27.76Z" fill="#C3E2FC"/>
<path d="M31.36 16.68H27.96L28.8 19L31.64 20.72L32.16 19.2L31.36 16.68Z" fill="#C3E2FC"/>
<path d="M30.64 29.2551C31.76 29.2551 32.64 28.3351 32.64 27.2551V18.0551V14.6151V11.1751C32.64 10.0551 31.72 9.17511 30.64 9.17511H21.16C20.84 9.17511 20.56 9.45512 20.56 9.73512C20.56 10.0551 20.84 10.2951 21.16 10.2951H30.64C31.12 10.2951 31.52 10.6551 31.52 11.1751V12.8151C31.24 12.6951 30.96 12.6151 30.64 12.6151H9.35999C9.03999 12.6151 8.75999 12.6951 8.47999 12.8151V11.1751C8.47999 10.6951 8.83999 10.2951 9.35999 10.2951H18.84C19.16 10.2951 19.44 10.0151 19.44 9.73512C19.44 9.41512 19.16 9.17511 18.84 9.17511H9.35999C8.23999 9.17511 7.35999 10.0951 7.35999 11.1751V14.6151V14.6551V18.0551V18.0951V27.2551C7.35999 28.3751 8.27999 29.2551 9.35999 29.2551H30.64ZM30.64 28.1351H28.64C28.76 26.6151 29.96 25.4151 31.48 25.2551V27.2551C31.52 27.7351 31.12 28.1351 30.64 28.1351ZM27.48 28.1351H12.52C12.36 25.9751 10.64 24.2551 8.51999 24.1351V21.2151C10.68 21.0551 12.4 19.3351 12.52 17.2151H27.48C27.64 19.3751 29.36 21.0951 31.48 21.2151V24.1351C29.36 24.2551 27.64 25.9751 27.48 28.1351ZM11.36 28.1351H9.35999C8.87999 28.1351 8.47999 27.7751 8.47999 27.2551V25.2551C9.99999 25.3751 11.2 26.5751 11.36 28.1351ZM20 26.9751C22.36 26.9751 24.32 25.0551 24.32 22.6551C24.32 20.2951 22.4 18.3351 20 18.3351C17.6 18.3351 15.68 20.2551 15.68 22.6551C15.68 25.0151 17.64 26.9751 20 26.9751ZM20 25.8151C18.24 25.8151 16.84 24.4151 16.84 22.6551C16.84 20.8951 18.24 19.4951 20 19.4951C21.76 19.4951 23.16 20.8951 23.16 22.6551C23.16 24.4151 21.76 25.8151 20 25.8151ZM28.96 23.2151C29.28 23.2151 29.52 22.8951 29.52 22.6151C29.52 22.2951 29.2 22.0551 28.92 22.0551H26.04C25.72 22.0551 25.44 22.3351 25.44 22.6151C25.44 22.9351 25.72 23.1751 26.04 23.1751C27 23.2151 28 23.2151 28.96 23.2151ZM14 23.2151C14.32 23.2151 14.56 22.8951 14.56 22.6151C14.56 22.2951 14.24 22.0551 13.96 22.0551H11.08C10.76 22.0551 10.48 22.3351 10.48 22.6151C10.48 22.9351 10.76 23.1751 11.08 23.1751C12.04 23.2151 13.04 23.2151 14 23.2151ZM31.52 20.0551C30 19.9351 28.8 18.7351 28.68 17.2151H30.68C31.16 17.2151 31.56 17.5751 31.56 18.0951V18.1351V20.0551H31.52ZM8.51999 20.0551L8.47999 18.0551C8.47999 17.5751 8.83999 17.1751 9.35999 17.1751H11.36C11.2 18.6951 10.04 19.8951 8.51999 20.0551ZM31.52 16.2151C31.24 16.0951 30.96 16.0151 30.64 16.0151H9.35999C9.03999 16.0151 8.75999 16.0951 8.47999 16.2151V14.5751C8.47999 14.0951 8.83999 13.6951 9.35999 13.6951H30.64C31.12 13.6951 31.52 14.0551 31.52 14.5751V14.6151V16.2151Z" fill="#333E50"/>
<path d="M40 20C40 8.96 31.04 0 20 0C8.96 0 0 8.96 0 20C0 31.04 8.96 40 20 40C24.48 40 28.72 38.56 32.24 35.8L33.12 35.12V39.44C33.12 39.76 33.4 40.04 33.72 40.04C34.04 40.04 34.32 39.76 34.32 39.44V33.76C34.28 33.56 34.2 33.24 33.88 33.16L28.36 31.68C28.04 31.6 27.72 31.8 27.64 32.08C27.56 32.4 27.76 32.72 28.04 32.8L32.56 34L31.72 34.68C28.36 37.4 24.32 38.8 20 38.8C9.6 38.8 1.16 30.36 1.16 20C1.16 9.6 9.6 1.16 20 1.16C30.4 1.16 38.84 9.6 38.84 20C38.84 20.32 39.12 20.6 39.44 20.6C39.76 20.6 40 20.32 40 20Z" fill="#333E50"/>
</g>
<defs>
<clipPath id="clip0">
<path d="M0 0H40V40H0V0Z" fill="white"/>
</clipPath>
</defs>
</svg>
