<svg width="40" height="40" viewBox="0 0 40 40" fill="none" xmlns="http://www.w3.org/2000/svg">
<path d="M13.4667 39H0.933319V30.1333C0.933319 26.6666 3.73332 23.8666 7.19999 23.8666C10.6667 23.8666 13.4667 26.6666 13.4667 30.1333V39Z" fill="white"/>
<path d="M26.2667 39H13.7333V23.7333C13.7333 20.2667 16.5333 17.4667 20 17.4667C23.4667 17.4667 26.2667 20.2667 26.2667 23.7333V39Z" fill="#C3E2FC"/>
<path d="M39 39H26.4667V17.2667C26.4667 13.8 29.2667 11 32.7333 11C36.2 11 39 13.8 39 17.2667V39Z" fill="#95CE5A"/>
<path d="M21.9333 13.8C22.7434 13.8 23.4 13.1433 23.4 12.3333C23.4 11.5233 22.7434 10.8666 21.9333 10.8666C21.1233 10.8666 20.4667 11.5233 20.4667 12.3333C20.4667 13.1433 21.1233 13.8 21.9333 13.8Z" fill="#C3E2FC"/>
<path d="M12.9333 8.06669C13.7434 8.06669 14.4 7.41005 14.4 6.60003C14.4 5.79001 13.7434 5.13336 12.9333 5.13336C12.1233 5.13336 11.4667 5.79001 11.4667 6.60003C11.4667 7.41005 12.1233 8.06669 12.9333 8.06669Z" fill="#C3E2FC"/>
<path d="M37.4667 12C35.8667 10.6667 33.7333 10.0667 31.6 10.4C28.2 10.9334 25.6667 14.0667 25.6667 17.6667V19.5334C24.1333 17.5334 21.6667 16.4667 19.1333 16.8C15.7333 17.2 12.8 20.5334 12.8 24.1334V26C11.2667 24 8.8 22.9334 6.26667 23.2667C2.86667 23.5334 0 26.9334 0 30.4667V38.2C0 39.2 0.8 40 1.8 40H38.2C39.2 40 40 39.2 40 38.2V17.4C40 15.3334 39.0667 13.3334 37.4667 12ZM38.4667 18.4C38.0667 20.7334 36.2 22.6667 33.8 23.0667C31.9333 23.4 30.1333 22.8 28.8 21.4667C27.4667 20.1334 26.9333 18.3334 27.2 16.4667C27.6 14.1334 29.4667 12.2 31.8667 11.8C33.7333 11.4667 35.5333 12.0667 36.8667 13.4C38.1333 14.7334 38.7333 16.5334 38.4667 18.4ZM32.8667 24.6C35.0667 24.6 37.2 23.5334 38.5333 21.8V38.5334H27.2V21.8C28.5333 23.5334 30.6 24.6 32.8667 24.6ZM25.6 24.8C25.2 27.1334 23.3333 29.0667 20.9333 29.4667C19.0667 29.8 17.2667 29.2 15.9333 27.8667C14.6 26.5334 14.0667 24.7334 14.3333 22.8667C14.7333 20.5334 16.6 18.6 19 18.2C20.8667 17.8667 22.6667 18.4667 24 19.8C25.3333 21.1334 25.9333 22.9334 25.6 24.8ZM20 31C22.2 31 24.3333 29.9334 25.6667 28.2V38.5334H14.3333V28.2C15.6667 30 17.8 31 20 31ZM12.7333 31.2667C12.3333 33.6 10.4667 35.5334 8.06667 35.9334C6.2 36.2667 4.4 35.6667 3.06667 34.3334C1.73333 33 1.2 31.2 1.46667 29.3334C1.86667 27 3.73333 25.0667 6.13333 24.6667C8 24.3334 9.8 24.9334 11.1333 26.2667C12.4667 27.6 13.0667 29.4 12.7333 31.2667ZM7.13333 37.4C9.33333 37.4 11.4667 36.3334 12.8 34.6V38.4667H1.46667V34.6C2.86667 36.4 4.93333 37.4 7.13333 37.4Z" fill="#333E50"/>
<path d="M34.6 0.466667C34.4667 0.2 34.1333 0 33.8 0H29.6C29.2 0 28.8667 0.333333 28.8667 0.733333C28.8667 1.13333 29.2 1.46667 29.6 1.46667H31.1333L2.26668 17.1333C2.06668 17.2 1.93335 17.4 1.93335 17.6C1.86668 17.8 1.86668 18 2.00001 18.1333C2.06668 18.3333 2.26668 18.4667 2.46668 18.4667C2.53335 18.4667 2.60001 18.4667 2.66668 18.4667C2.80001 18.4667 2.93335 18.4667 3.00001 18.4L32.2 2.6L31.2667 4.26667C31.2 4.46667 31.1333 4.66667 31.2 4.8C31.2 5.06667 31.3333 5.2 31.5333 5.33333C31.7333 5.4 31.9333 5.46667 32.0667 5.4C32.2667 5.33333 32.4 5.2 32.5333 5.06667L34.6 1.33333C34.8 1.06667 34.8 0.733333 34.6 0.466667Z" fill="#333E50"/>
<path d="M15 4.86664C14.4667 4.19997 13.7333 3.86664 12.9333 3.86664C12.1333 3.86664 11.3333 4.3333 10.8 5.06664C10.2 5.86664 10.2667 6.5333 10.3333 6.99997L3.53334 10.6666C3.33334 10.7333 3.20001 10.9333 3.20001 11.1333C3.13334 11.3333 3.13334 11.5333 3.26668 11.6666C3.40001 11.9333 3.66668 12.0666 3.93334 12.0666C4.06668 12.0666 4.20001 12.0666 4.26668 12L11.0667 8.33331C11.7333 9.06664 12.7333 9.33331 13.6667 9.06664C14.6 8.79997 15.4 8.06664 15.6 7.13331C15.7333 6.3333 15.5333 5.46664 15 4.86664ZM14.1333 6.53331C14.1333 7.19997 13.6 7.73331 12.9333 7.73331C12.2667 7.73331 11.7333 7.19997 11.7333 6.53331C11.7333 5.86664 12.2667 5.3333 12.9333 5.3333C13.6 5.3333 14.1333 5.86664 14.1333 6.53331Z" fill="#333E50"/>
<path d="M2.13334 12.2667C2.06667 12.0667 1.86667 11.9333 1.73334 11.8667C1.53334 11.8 1.33334 11.8 1.2 11.9333L1 12C0.800004 12.0667 0.66667 12.2667 0.600004 12.4C0.533337 12.6 0.533337 12.8 0.66667 12.9333C0.800004 13.2 1.06667 13.3333 1.33334 13.3333C1.46667 13.3333 1.53334 13.3333 1.66667 13.2667L1.8 13.2C2.13334 13.0667 2.26667 12.6 2.13334 12.2667Z" fill="#333E50"/>
<path d="M24 10.6667C23.4667 10 22.7333 9.66669 21.9333 9.66669C21.1333 9.66669 20.3333 10.1334 19.8 10.8667C19.2 11.6667 19.2667 12.3334 19.3333 12.8L12.5333 16.4667C12.2 16.6667 12.0667 17.1334 12.2 17.4667C12.2667 17.6667 12.4667 17.8 12.6667 17.8C12.7333 17.8 12.8 17.8 12.8667 17.8C13 17.8 13.1333 17.8 13.2 17.7334L20 14.1334C20.6667 14.8667 21.6667 15.1334 22.6 14.8667C23.5333 14.6 24.3333 13.8667 24.5333 12.9334C24.7333 12.1334 24.5333 11.2667 24 10.6667ZM23.1333 12.2667C23.1333 12.9334 22.6 13.4667 21.9333 13.4667C21.2667 13.4667 20.7333 12.9334 20.7333 12.2667C20.7333 11.6 21.2667 11.0667 21.9333 11.0667C22.6 11.0667 23.1333 11.6667 23.1333 12.2667Z" fill="#333E50"/>
<path d="M11.1333 18C11.0667 17.8 10.8667 17.6667 10.7333 17.6C10.5333 17.5333 10.3333 17.5333 10.2 17.6667L10 17.7333C9.8 17.8 9.66667 18 9.6 18.1333C9.53334 18.3333 9.53334 18.5333 9.66667 18.6667C9.73334 18.8667 9.93334 19 10.0667 19.0667C10.1333 19.0667 10.2 19.1333 10.3333 19.1333C10.4667 19.1333 10.5333 19.1333 10.6667 19.0667L10.8 19C11 18.9333 11.1333 18.7333 11.2 18.6C11.2 18.4 11.2 18.2 11.1333 18Z" fill="#333E50"/>
<path d="M23.2667 21.4C23.1333 21.1333 22.9333 20.9333 22.7333 20.7333C22.5333 20.5333 22.2667 20.4667 22 20.3333C21.7333 20.2667 21.4 20.2 21.0667 20.2H18.6667C18.6 20.2 18.4667 20.2667 18.4 20.3333C18.3333 20.4 18.2667 20.4667 18.2667 20.6V23.4667H17.6C17.4 23.4667 17.2667 23.6 17.2667 23.8V24.2667C17.2667 24.4667 17.4 24.6 17.6 24.6H18.2667V24.8667H17.6C17.4 24.8667 17.2667 25 17.2667 25.2V25.6667C17.2667 25.8667 17.4 26 17.6 26H18.2667V26.6667C18.2667 26.7333 18.3333 26.8667 18.4 26.9333C18.4667 27 18.5333 27.0667 18.6667 27.0667H19.0667C19.1333 27.0667 19.2667 27 19.3333 26.9333C19.4 26.8667 19.4667 26.8 19.4667 26.6667V25.8H21.4C21.6 25.8 21.7333 25.6667 21.7333 25.4667V25C21.7333 24.8 21.6 24.6667 21.4 24.6667H19.4667V24.4H21.1333C21.4667 24.4 21.7333 24.3333 22.0667 24.2667C22.3333 24.2 22.6 24.0667 22.8 23.8667C23 23.6667 23.2 23.4667 23.3333 23.2C23.4667 22.9333 23.5333 22.6 23.5333 22.2667C23.4667 21.9333 23.4 21.6667 23.2667 21.4ZM22.4 22.3333C22.4 22.7333 22.2667 23 22.0667 23.1333C21.8667 23.3333 21.5333 23.4 21.0667 23.4H19.4667V21.2667H21.0667C21.4667 21.2667 21.8 21.3333 22.0667 21.5333C22.2667 21.6667 22.4 21.9333 22.4 22.3333Z" fill="#333E50"/>
<path d="M36.3333 15.2667C36.2 15 36 14.8 35.8 14.6C35.6 14.4 35.3333 14.2666 35.0667 14.2C34.8 14.1333 34.4667 14.0667 34.1333 14.0667H31.7333C31.6667 14.0667 31.5333 14.1333 31.4667 14.2C31.4 14.2666 31.3333 14.3333 31.3333 14.4667V17.3333H30.6667C30.4667 17.3333 30.3333 17.4667 30.3333 17.6667V18C30.3333 18.2 30.4667 18.3333 30.6667 18.3333H31.3333V18.6H30.6667C30.4667 18.6 30.3333 18.7333 30.3333 18.9333V19.3333C30.3333 19.5333 30.4667 19.6667 30.6667 19.6667H31.3333V20.5333C31.3333 20.6 31.4 20.7333 31.4667 20.8C31.5333 20.8667 31.6 20.9333 31.7333 20.9333H32.1333C32.2 20.9333 32.3333 20.8667 32.4 20.8C32.4667 20.7333 32.5333 20.6667 32.5333 20.5333V19.6667H34.4667C34.6667 19.6667 34.8 19.5333 34.8 19.3333V18.8667C34.8 18.6667 34.6667 18.5333 34.4667 18.5333H32.5333V18.2667H34.2C34.5333 18.2667 34.8 18.2 35.1333 18.1333C35.4 18.0667 35.6667 17.9333 35.8667 17.7333C36.0667 17.5333 36.2667 17.3333 36.4 17.0667C36.5333 16.8 36.6 16.4667 36.6 16.1333C36.5333 15.8 36.4667 15.5333 36.3333 15.2667ZM35.4 16.2C35.4 16.6 35.2667 16.8667 35.0667 17C34.8667 17.2 34.5333 17.2667 34.0667 17.2667H32.4667V15.1333H34.0667C34.4667 15.1333 34.8 15.2 35.0667 15.4C35.2667 15.5333 35.4 15.8 35.4 16.2Z" fill="#333E50"/>
<path d="M10.4667 28.0666C10.3333 27.8 10.1333 27.6 9.93334 27.4C9.73334 27.2 9.46667 27.1333 9.20001 27C8.93334 26.9333 8.60001 26.8666 8.26667 26.8666H5.86668C5.80001 26.8666 5.66667 26.9333 5.60001 27C5.53334 27.0666 5.46667 27.1333 5.46667 27.2666V30.1333H4.80001C4.60001 30.1333 4.46667 30.2666 4.46667 30.4666V30.9333C4.46667 31.1333 4.60001 31.2666 4.80001 31.2666H5.46667V31.5333H4.80001C4.60001 31.5333 4.46667 31.6666 4.46667 31.8666V32.3333C4.46667 32.5333 4.60001 32.6666 4.80001 32.6666H5.46667V33.5333C5.46667 33.6 5.53334 33.7333 5.60001 33.8C5.66667 33.8666 5.73334 33.9333 5.86668 33.9333H6.26667C6.33334 33.9333 6.46668 33.8666 6.53334 33.8C6.60001 33.7333 6.66667 33.6666 6.66667 33.5333V32.6666H8.60001C8.80001 32.6666 8.93334 32.5333 8.93334 32.3333V31.8666C8.93334 31.6666 8.80001 31.5333 8.60001 31.5333H6.66667V31.2666H8.33334C8.66667 31.2666 8.93334 31.2 9.26667 31.1333C9.53334 31.0666 9.80001 30.9333 10 30.7333C10.2 30.5333 10.4 30.3333 10.5333 30.0666C10.6667 29.8 10.7333 29.4666 10.7333 29.1333C10.6667 28.6666 10.6 28.3333 10.4667 28.0666ZM9.53334 29C9.53334 29.4 9.40001 29.6666 9.20001 29.8C9.00001 30 8.66667 30.0666 8.20001 30.0666H6.66667V27.9333H8.26667C8.66667 27.9333 9.00001 28 9.26667 28.2C9.46667 28.4 9.53334 28.6666 9.53334 29Z" fill="#333E50"/>
</svg>
