<svg width="40" height="40" viewBox="0 0 40 40" fill="none" xmlns="http://www.w3.org/2000/svg">
<path d="M2.42538 14.28H10.4572C10.9343 14.28 11.3319 13.88 11.3319 13.4C11.3319 12.92 10.9343 12.52 10.4572 12.52H2.42538C1.94824 12.52 1.55063 12.92 1.55063 13.4C1.55063 13.88 1.94824 14.28 2.42538 14.28Z" fill="#333E50"/>
<path d="M0.874752 18.3999H8.90657C9.38371 18.3999 9.78132 17.9999 9.78132 17.5199C9.78132 17.0399 9.38371 16.6399 8.90657 16.6399H0.874752C0.397615 16.6399 0 17.0399 0 17.5199C0 17.9999 0.397615 18.3999 0.874752 18.3999Z" fill="#333E50"/>
<path d="M9.78132 21.6C9.78132 21.12 9.38371 20.72 8.90657 20.72H0.874752C0.397615 20.72 0 21.12 0 21.6C0 22.08 0.397615 22.48 0.874752 22.48H8.90657C9.38371 22.48 9.78132 22.08 9.78132 21.6Z" fill="#333E50"/>
<path d="M10.4572 24.8401H2.42537C1.94823 24.8401 1.55061 25.2401 1.55061 25.7201C1.55061 26.2001 1.94823 26.6001 2.42537 26.6001H10.4572C10.9343 26.6001 11.3319 26.2001 11.3319 25.7201C11.3319 25.2401 10.9343 24.8401 10.4572 24.8401Z" fill="#333E50"/>
<path d="M24.7713 20.9601C24.9702 21.2401 25.328 21.4401 25.6859 21.4401L32.2067 21.4001C32.4851 21.4001 32.7634 21.2801 33.002 21.0801C33.2008 20.8801 33.3201 20.6001 33.3201 20.2801C33.3201 20.0001 33.2008 19.7201 33.002 19.4801C32.8032 19.2801 32.5248 19.1601 32.2067 19.1601L26.163 19.2001L23.0218 16.0801C22.664 15.7201 22.1073 15.6401 21.6699 15.9201C21.5904 15.9601 21.5109 16.0401 21.4314 16.0801C20.994 16.5201 20.994 17.2401 21.4314 17.6401L24.7713 20.9601Z" fill="#C3E2FC"/>
<path d="M26.0836 6.80005C18.6482 6.80005 12.5647 12.8801 12.5647 20.4001C12.5647 27.8801 18.6084 34.0001 26.0836 34.0001C33.5189 34.0001 39.6024 27.9201 39.6024 20.4001C39.5627 12.9201 33.5189 6.80005 26.0836 6.80005ZM37.3758 20.4001C37.3758 26.6801 32.3261 31.7601 26.0836 31.7601C19.841 31.7601 14.7913 26.6801 14.7913 20.4001C14.7913 14.1201 19.841 9.04005 26.0836 9.04005C32.2863 9.04005 37.3758 14.1201 37.3758 20.4001Z" fill="#C3E2FC"/>
<path d="M25.169 20.16C25.3678 20.44 25.7256 20.64 26.0835 20.64L32.6044 20.6C32.8827 20.6 33.161 20.48 33.3996 20.28C33.5984 20.08 33.7177 19.8 33.7177 19.48C33.7177 19.2 33.5984 18.92 33.3996 18.68C33.2008 18.48 32.9225 18.36 32.6044 18.36L26.5606 18.4L23.4195 15.28C23.0616 14.92 22.505 14.84 22.0676 15.12C21.9881 15.16 21.9085 15.24 21.829 15.28C21.3916 15.72 21.3916 16.44 21.829 16.84L25.169 20.16Z" fill="#333E50"/>
<path d="M26.4811 6C19.0457 6 12.9622 12.08 12.9622 19.6C12.9622 27.08 19.006 33.2 26.4811 33.2C33.9165 33.2 40 27.12 40 19.6C40 12.12 33.9165 6 26.4811 6ZM37.7734 19.6C37.7734 25.88 32.7237 30.96 26.4811 30.96C20.2386 30.96 15.1889 25.88 15.1889 19.6C15.1889 13.32 20.2386 8.24 26.4811 8.24C32.6839 8.24 37.7734 13.32 37.7734 19.6Z" fill="#333E50"/>
<path d="M20.1193 14.5599C20.5805 14.5599 20.9543 14.1838 20.9543 13.7199C20.9543 13.256 20.5805 12.8799 20.1193 12.8799C19.6582 12.8799 19.2843 13.256 19.2843 13.7199C19.2843 14.1838 19.6582 14.5599 20.1193 14.5599Z" fill="#95CE5A"/>
<path d="M20.1194 13.1999C20.3978 13.1999 20.6363 13.4399 20.6363 13.7199C20.6363 13.9999 20.3978 14.2399 20.1194 14.2399C19.8411 14.2399 19.6025 13.9999 19.6025 13.7199C19.6025 13.4399 19.8411 13.1999 20.1194 13.1999ZM20.1194 12.5999C19.4832 12.5999 19.0061 13.1199 19.0061 13.7199C19.0061 14.3599 19.523 14.8399 20.1194 14.8399C20.7158 14.8399 21.2327 14.3199 21.2327 13.7199C21.2725 13.0799 20.7556 12.5999 20.1194 12.5999Z" fill="#333E50"/>
<path d="M35.5071 20.4C35.9682 20.4 36.3421 20.0239 36.3421 19.56C36.3421 19.0961 35.9682 18.72 35.5071 18.72C35.0459 18.72 34.6721 19.0961 34.6721 19.56C34.6721 20.0239 35.0459 20.4 35.5071 20.4Z" fill="#95CE5A"/>
<path d="M35.507 19.0399C35.7854 19.0399 36.0239 19.2799 36.0239 19.5599C36.0239 19.8399 35.7854 20.0799 35.507 20.0799C35.2287 20.0799 34.9901 19.8399 34.9901 19.5599C34.9901 19.2799 35.2287 19.0399 35.507 19.0399ZM35.507 18.4399C34.8709 18.4399 34.3937 18.9599 34.3937 19.5599C34.3937 20.1999 34.9106 20.6799 35.507 20.6799C36.1035 20.6799 36.6204 20.1599 36.6204 19.5599C36.6601 18.9599 36.1432 18.4399 35.507 18.4399Z" fill="#333E50"/>
</svg>
