<svg width="40" height="40" viewBox="0 0 40 40" fill="none" xmlns="http://www.w3.org/2000/svg">
<g clip-path="url(#clip0)">
<path d="M19.9999 31C23.0706 31 25.5599 28.5107 25.5599 25.44C25.5599 22.3693 23.0706 19.88 19.9999 19.88C16.9292 19.88 14.4399 22.3693 14.4399 25.44C14.4399 28.5107 16.9292 31 19.9999 31Z" fill="#95CE5A"/>
<path d="M0.920044 17.08V22.52L4.64004 21.24L7.40005 16.72L4.96004 15.8L0.920044 17.08Z" fill="#C3E2FC"/>
<path d="M1.44001 34.92H7.40001L6.08001 31.12L1.56001 28.36L0.640015 30.8L1.44001 34.92Z" fill="#C3E2FC"/>
<path d="M38.88 33.16L39.28 28.24L35.56 29.52L32.76 34.12L33.48 35.44L37.04 35.08C38 34.96 38.8 34.16 38.88 33.16Z" fill="#C3E2FC"/>
<path d="M38.2 15.92H32.76L34.08 19.64L38.64 22.4L39.48 19.96L38.2 15.92Z" fill="#C3E2FC"/>
<path d="M35.0001 25.44C35.0001 25.08 34.6001 24.8 34.2801 24.8H29.6801C29.2801 24.8 28.9601 25.16 28.9601 25.44C28.9601 25.8 29.2801 26.08 29.6801 26.08C31.2401 26.16 32.8001 26.16 34.3601 26.16C34.7201 26.16 35.0001 25.76 35.0001 25.44Z" fill="#333E50"/>
<path d="M37.04 4.16H21.84C21.44 4.16 21.12 4.52 21.12 4.8C21.12 5.16 21.44 5.44 21.84 5.44H37.04C38 5.44 38.68 6.16 38.68 7.08V9.72V10.08L38.36 9.92C37.88 9.72 37.48 9.6 37.04 9.6H2.96C2.52 9.6 2.12 9.68 1.64 9.92L1.32 10.08V9.72V7.08C1.32 6.12 2.04 5.44 2.96 5.44H18.16C18.56 5.44 18.88 5.08 18.88 4.8C18.88 4.44 18.56 4.16 18.16 4.16H2.96C1.32 4.16 0 5.48 0 7.12V12.64V12.72V18.16V18.24V32.92C0 34.56 1.32 35.88 2.96 35.88H37.04C38.68 35.88 40 34.56 40 32.92V18.16V12.64V7.12C40 5.48 38.68 4.16 37.04 4.16ZM1.32 15.2V12.56C1.32 11.6 2.04 10.92 2.96 10.92H37.04C38 10.92 38.68 11.64 38.68 12.56V12.64V15.2V15.56L38.36 15.4C37.88 15.2 37.48 15.08 37.04 15.08H2.96C2.52 15.08 2.12 15.16 1.64 15.4L1.32 15.56V15.2ZM6.44 16.48L6.4 16.76C6.12 19.32 4.16 21.32 1.64 21.6H1.36V21.32L1.28 18.12C1.28 17.16 2 16.48 2.92 16.48H6.12H6.44ZM6.16 34.52H2.96C2 34.52 1.32 33.8 1.32 32.88V29.68V29.4L1.6 29.44C4.12 29.64 6.16 31.68 6.44 34.28L6.48 34.56H6.16V34.52ZM38.64 29.68V32.88C38.68 33.28 38.52 33.68 38.24 34C37.92 34.32 37.52 34.52 37.04 34.52H33.84H33.56L33.6 34.24C33.8 31.72 35.8 29.68 38.36 29.4L38.64 29.36V29.68ZM38.64 23.2V27.88V28.12H38.4C35.12 28.32 32.48 30.96 32.24 34.32V34.56H32H8.04H7.8V34.32C7.56 31 4.88 28.32 1.64 28.12H1.4V27.88V23.2V22.96H1.64C4.96 22.72 7.64 20.04 7.84 16.8V16.56H8.08H32.04H32.28V16.8C32.52 20.12 35.2 22.8 38.44 23H38.68V23.2H38.64ZM38.76 18.28V21.36V21.6H38.52H38.44C35.88 21.4 33.88 19.4 33.68 16.84L33.64 16.56H33.92H37.12C38.08 16.56 38.76 17.28 38.76 18.2V18.28Z" fill="#333E50"/>
<path d="M5.72 26.08C7.28 26.16 8.84 26.16 10.4 26.16C10.76 26.16 11.04 25.76 11.04 25.44C11.04 25.08 10.64 24.8 10.32 24.8H5.72C5.32 24.8 5 25.16 5 25.44C5 25.8 5.32 26.08 5.72 26.08Z" fill="#333E50"/>
<path d="M19.9999 18.84C16.3199 18.84 13.3199 21.84 13.3199 25.52C13.3199 29.12 16.3599 32.2 19.9999 32.2C23.6799 32.2 26.6799 29.2 26.6799 25.52C26.6799 21.84 23.6799 18.84 19.9999 18.84ZM19.9999 30.8C17.0399 30.8 14.6799 28.48 14.6799 25.48C14.6799 22.48 17.0399 20.2 19.9999 20.2C22.9599 20.2 25.3199 22.52 25.3199 25.52C25.3199 28.52 22.9599 30.8 19.9999 30.8Z" fill="#333E50"/>
</g>
<defs>
<clipPath id="clip0">
<path d="M0 0H40V40H0V0Z" fill="white"/>
</clipPath>
</defs>
</svg>
