<svg width="40" height="40" viewBox="0 0 40 40" fill="none" xmlns="http://www.w3.org/2000/svg">
<path d="M4.48077 3.00007V36.1201L5.36227 38.5201L7.36568 39.6001H31.0861L33.37 38.7201L34.7723 36.7201V9.60007L25.4364 0.320068H7.28555C7.28555 0.320068 4.64105 2.84007 4.48077 3.00007Z" fill="white"/>
<path d="M34.7324 11.1201H27.6804C25.7972 11.1201 24.2746 9.60006 24.2746 7.72006V0.560059L25.6369 0.680059L25.7571 6.56006L27.0794 9.16006L34.5721 9.60006L34.7324 11.1201Z" fill="#C3E2FC"/>
<path d="M34.7323 34.96H4.96161V36.72H34.7323V34.96Z" fill="#C3E2FC"/>
<path d="M11.1722 31.7601V19.5201L19.6266 13.3601L28.0008 19.6801V32.0801L22.7118 32.2801L22.792 24.0001L16.4612 23.8801L16.381 32.2801L11.1722 31.7601Z" fill="#95CE5A"/>
<path d="M35.2532 9.52C35.2532 9.48 35.2532 9.4 35.2131 9.36C35.2131 9.32 35.2131 9.32 35.1731 9.32C35.133 9.24 35.0929 9.2 35.0529 9.12L26.1176 0.2C26.0776 0.16 25.9974 0.12 25.9173 0.08C25.9173 0.08 25.8772 0.08 25.8772 0.04C25.8372 0.04 25.757 0 25.717 0H25.6769H7.72634C5.6428 0 4 1.68 4 3.76V35.04V36.24C4 38.32 5.68286 40 7.76641 40H31.5669C33.6505 40 35.3333 38.32 35.3333 36.24L35.2532 9.52C35.2532 9.56 35.2532 9.56 35.2532 9.52ZM26.318 2.16L33.1296 8.96H28.8423C27.48 8.96 26.318 7.84 26.318 6.44V2.16ZM34.0111 34.44H29.5234C29.1628 34.44 28.8824 34.72 28.8824 35.08C28.8824 35.4 29.1628 35.72 29.5234 35.72H34.0111V36.28C34.0111 37.64 32.8892 38.8 31.4868 38.8H7.72634C6.36402 38.8 5.20205 37.68 5.20205 36.28V35.72H26.4382C26.7988 35.72 27.0793 35.44 27.0793 35.08C27.0793 34.76 26.7988 34.44 26.4382 34.44H5.20205V3.76C5.20205 2.4 6.32396 1.24 7.72634 1.24H25.0759V6.44C25.0759 8.52 26.7587 10.2 28.8423 10.2H34.0511L34.0111 34.44Z" fill="#333E50"/>
<path d="M19.9872 12.6801C19.7468 12.5201 19.4663 12.5201 19.2259 12.6801L10.8517 19.0401C10.6914 19.1601 10.6113 19.3201 10.6113 19.5201V32.0801C10.6113 32.4401 10.8917 32.7201 11.2524 32.7201H16.4212H22.8321H28.0009C28.3615 32.7201 28.642 32.4401 28.642 32.0801V19.5601C28.642 19.3601 28.5618 19.2001 28.4016 19.0801L19.9872 12.6801ZM17.0622 31.4801L17.1023 24.4401H22.231L22.2711 31.4801H17.0622ZM27.3598 31.4801H23.4331V24.4801C23.4331 23.7601 22.8721 23.2001 22.1509 23.2001H17.0622C16.341 23.2001 15.7801 23.7601 15.7801 24.4801V31.4801H11.8534V19.8801L19.6266 14.0001L27.3598 19.8801V31.4801Z" fill="#333E50"/>
<path d="M11.4126 5.56003H17.9437C18.3043 5.56003 18.5848 5.28003 18.5848 4.92003C18.5848 4.60003 18.3043 4.28003 17.9437 4.28003H11.4126C11.052 4.28003 10.7715 4.56003 10.7715 4.92003C10.7715 5.28003 11.052 5.56003 11.4126 5.56003Z" fill="#333E50"/>
<path d="M11.4126 9.32004H17.9437C18.3043 9.32004 18.5848 9.04004 18.5848 8.68004C18.5848 8.32004 18.3043 8.04004 17.9437 8.04004H11.4126C11.052 8.04004 10.7715 8.32004 10.7715 8.68004C10.7715 9.04004 11.052 9.32004 11.4126 9.32004Z" fill="#333E50"/>
</svg>
