<svg width="60" height="60" viewBox="0 0 60 60" fill="none" xmlns="http://www.w3.org/2000/svg">
<path d="M60 30.3514V23.847C60 20.993 57.677 18.4709 54.6239 18.4709L26.0177 18.4045H5.37611C2.52212 18.4045 0 20.7276 0 23.7806V30.5506V43.6258V50.1302C0 52.9842 2.32301 55.5063 5.37611 55.5063H34.115H54.6239C57.4779 55.5727 60 53.1833 60 50.1966V43.3603V30.3514V30.3514ZM57.6106 50.0638C57.6106 51.7895 56.2832 53.0506 54.6239 53.0506H5.37611C3.65044 53.0506 2.38938 51.7231 2.38938 50.0638V23.7806C2.38938 22.055 3.71681 20.7939 5.37611 20.7939H54.7566C56.4823 20.7939 57.7434 22.1214 57.6106 23.7806V50.0638Z" fill="#333E50"/>
<path d="M10.8849 40.9045H51.1062C51.9026 40.9045 52.4336 41.5683 52.4336 42.232C52.4336 43.0284 51.7699 43.5594 51.1062 43.5594H10.8849C10.0885 43.5594 9.5575 42.8957 9.5575 42.232C9.5575 41.5683 10.0885 40.9045 10.8849 40.9045Z" fill="#C3E2FC"/>
<path d="M10.8849 46.4135H34.115C34.9115 46.4135 35.4425 47.0772 35.4425 47.7409C35.4425 48.5373 34.7787 49.0683 34.115 49.0683H10.8849C10.0885 49.0683 9.5575 48.4046 9.5575 47.7409C9.5575 47.0772 10.0885 46.4135 10.8849 46.4135Z" fill="#C3E2FC"/>
<path d="M12.0133 34.4001H16.062C17.1239 34.4001 17.9204 33.6036 17.9204 32.5417V30.5505C17.9204 29.4886 17.1239 28.6921 16.062 28.6921H12.0133C10.9514 28.6921 10.1549 29.4886 10.1549 30.5505V32.5417C10.2213 33.6036 11.0177 34.4001 12.0133 34.4001Z" fill="#95CE5A"/>
<path d="M15.9292 35.1302H11.8805C10.4203 35.1302 9.29199 33.9355 9.29199 32.5417V30.5505C9.29199 29.0904 10.4867 27.962 11.8805 27.962H15.9292C17.3893 27.962 18.5177 29.1567 18.5177 30.5505V32.5417C18.584 34.0019 17.3893 35.1302 15.9292 35.1302ZM12.0132 29.555C11.4823 29.555 10.9513 30.0859 10.9513 30.6169V32.6081C10.9513 33.139 11.4823 33.67 12.0132 33.67H16.0619C16.5929 33.67 17.1239 33.139 17.1239 32.6081V30.6169C17.1239 30.0859 16.5929 29.555 16.0619 29.555H12.0132Z" fill="#333E50"/>
<path d="M30.0664 47.6744C29.4027 47.6744 28.8717 47.1434 28.8717 46.4797C28.8717 45.816 29.4027 45.285 30.0664 45.285H34.3806C35.0443 45.285 35.5752 45.816 35.5752 46.4797C35.5752 47.1434 35.0443 47.6744 34.3806 47.6744H30.0664Z" fill="#333E50"/>
<path d="M10.4867 47.8072C9.82297 47.8072 9.29199 47.2763 9.29199 46.6125C9.29199 45.9488 9.82297 45.4178 10.4867 45.4178H24.2256C24.8893 45.4178 25.4203 45.9488 25.4203 46.6125C25.4203 47.2763 24.8893 47.8072 24.2256 47.8072H10.4867Z" fill="#333E50"/>
<path d="M44.2035 41.9665C43.5398 41.9665 43.0088 41.4356 43.0088 40.7718C43.0088 40.1081 43.5398 39.5771 44.2035 39.5771H51.3716C52.0353 39.5771 52.5663 40.1081 52.5663 40.7718C52.5663 41.4356 52.0353 41.9665 51.3716 41.9665H44.2035Z" fill="#333E50"/>
<path d="M32.9204 41.9665C32.2567 41.9665 31.7257 41.4356 31.7257 40.7718C31.7257 40.1081 32.2567 39.5771 32.9204 39.5771H40.0885C40.7523 39.5771 41.2832 40.1081 41.2832 40.7718C41.2832 41.4356 40.7523 41.9665 40.0885 41.9665H32.9204Z" fill="#333E50"/>
<path d="M21.7036 41.9665C21.0399 41.9665 20.5089 41.4356 20.5089 40.7718C20.5089 40.1081 21.0399 39.5771 21.7036 39.5771H28.8717C29.5355 39.5771 30.0664 40.1081 30.0664 40.7718C30.0664 41.4356 29.5355 41.9665 28.8717 41.9665H21.7036Z" fill="#333E50"/>
<path d="M10.4867 41.9665C9.82297 41.9665 9.29199 41.4356 9.29199 40.7718C9.29199 40.1081 9.82297 39.5771 10.4867 39.5771H17.6548C18.3185 39.5771 18.8495 40.1081 18.8495 40.7718C18.8495 41.4356 18.3185 41.9665 17.6548 41.9665H10.4867Z" fill="#333E50"/>
<path d="M38.5 32.7486C45.8764 32.7486 51.8562 26.7688 51.8562 19.3924C51.8562 12.016 45.8764 6.03625 38.5 6.03625C31.1236 6.03625 25.1438 12.016 25.1438 19.3924C25.1438 26.7688 31.1236 32.7486 38.5 32.7486Z" fill="white"/>
<path d="M38.5 33.9C30.5554 33.9 23.9924 27.4522 23.9924 19.3924C23.9924 11.3327 30.5554 5 38.5 5C46.4446 5 53.0076 11.4478 53.0076 19.5076C53.0076 27.5673 46.4446 33.9 38.5 33.9ZM38.5 7.30279C31.8219 7.30279 26.2952 12.7143 26.2952 19.5076C26.2952 26.3008 31.7068 31.7124 38.5 31.7124C45.2932 31.7124 50.7048 26.0705 50.7048 19.3924C50.7048 12.7143 45.1781 7.30279 38.5 7.30279Z" fill="#333E50"/>
<path d="M35.7367 25.3797C36.0821 25.61 36.4276 25.61 36.773 25.3797C36.8881 25.2646 37.2335 24.9192 37.2335 24.9192C37.4638 24.6889 37.579 24.5737 37.6941 24.4586C37.8092 24.3435 38.0395 24.1132 38.1547 23.998L38.6152 23.5375C38.9606 23.1921 39.1909 22.9618 39.5363 22.6164L43.1057 19.047C43.4511 18.7016 43.7965 18.3562 44.1419 18.1259L44.4873 17.7805C44.7176 17.5502 45.063 17.2048 45.2933 16.9745L46.2144 16.0534C46.4447 15.8231 46.4447 15.3626 46.2144 15.0172C45.9841 14.7869 45.6387 14.4415 45.4084 14.2112C45.2933 14.096 45.1782 13.9809 44.9479 13.7506L44.6025 13.4052C44.4873 13.2901 44.257 13.1749 44.1419 13.1749C43.9116 13.1749 43.7965 13.2901 43.6814 13.4052C43.6814 13.4052 43.5662 13.4052 43.5662 13.5203L41.2634 15.8231C40.5726 16.514 39.7666 17.3199 38.9606 18.0108L37.0033 19.9682C36.8881 20.0833 36.773 20.1984 36.6578 20.3136L36.3124 20.659L33.5491 18.0108C33.4339 17.8956 33.3188 17.7805 33.3188 17.7805C33.2037 17.6654 33.0885 17.6654 32.9734 17.6654C32.7431 17.6654 32.628 17.7805 32.3977 17.8956L30.7857 19.5076C30.6706 19.6227 30.6706 19.6227 30.5555 19.7379C30.3252 19.9682 30.4403 20.3136 30.6706 20.659C30.7857 20.7741 30.9009 21.0044 31.1311 21.1195C31.2463 21.2347 31.2463 21.2347 31.3614 21.3498C31.3614 21.2347 35.7367 25.3797 35.7367 25.3797Z" fill="#95CE5A"/>
<path d="M36.1973 26.7614C35.7367 26.7614 35.2762 26.6463 34.9308 26.3009L30.3252 21.8104C30.3252 21.8104 30.0949 21.6953 29.9798 21.465L29.7495 21.2347C29.2889 20.5439 29.1738 19.7379 29.5192 19.1622C29.6343 18.9319 29.8646 18.7017 29.8646 18.5865L31.4766 16.9746C31.822 16.6292 32.2825 16.3989 32.8582 16.3989C33.0885 16.3989 33.5491 16.3989 33.8945 16.7443L34.2399 17.0897L36.1973 18.9319L38.0395 17.0897C38.3849 16.7443 38.8455 16.3989 39.1909 15.9383C39.5363 15.5929 39.9969 15.2475 40.3423 14.7869L42.6451 12.4841C42.7602 12.369 42.8754 12.2539 42.8754 12.2539C43.6814 11.7933 44.4873 11.7933 45.1782 12.369L46.3296 13.5204C46.5598 13.7507 46.7901 13.981 46.9053 14.0961C47.2507 14.4415 47.3658 14.9021 47.3658 15.3626C47.3658 15.8232 47.1355 16.2837 46.7901 16.7443L45.869 17.6654C45.7539 17.7806 45.6387 17.8957 45.4084 18.126C45.2933 18.2411 45.1782 18.3562 45.063 18.4714L44.7176 18.8168C44.4873 19.0471 44.3722 19.1622 44.2571 19.2774C44.0268 19.5076 43.9116 19.6228 43.6814 19.7379L40.112 23.3072C39.8818 23.5375 39.6515 23.7678 39.5363 23.9981L37.9244 25.61C37.9244 25.61 37.579 25.9555 37.4638 26.0706C37.1184 26.6463 36.6578 26.7614 36.1973 26.7614ZM31.822 19.9682C31.822 20.0833 31.9371 20.0833 31.822 19.9682L36.1973 24.2284C36.3124 24.1132 36.4276 23.9981 36.4276 23.9981L38.0395 22.3861C38.2698 22.1559 38.3849 22.0407 38.6152 21.8104L42.2997 18.2411C42.53 18.126 42.6451 17.8957 42.7602 17.7806C42.9905 17.5503 43.1057 17.4351 43.3359 17.2049L43.6814 16.8594C43.7965 16.7443 43.9116 16.6292 44.1419 16.3989C44.257 16.2837 44.3722 16.1686 44.4873 16.0535L45.063 15.4778C44.9479 15.3626 44.9479 15.3626 44.8327 15.2475L44.1419 14.5566L42.0694 16.6292C41.724 16.9746 41.3786 17.32 40.918 17.7806C40.5726 18.126 40.112 18.4714 39.7666 18.9319L36.3124 22.3861L32.9734 19.1622L31.822 19.9682Z" fill="#333E50"/>
</svg>
