<?xml version="1.0" encoding="utf-8"?>
<!-- Generator: Adobe Illustrator 21.1.0, SVG Export Plug-In . SVG Version: 6.00 Build 0)  -->
<svg version="1.1" id="Layer_1" xmlns="http://www.w3.org/2000/svg" xmlns:xlink="http://www.w3.org/1999/xlink" x="0px" y="0px"
	 viewBox="0 0 60 60" style="enable-background:new 0 0 60 60;" xml:space="preserve">
<style type="text/css">
	.st0{fill:#C3E2FC;}
	.st1{fill:#333E50;}
	.st2{fill:#95CE5A;}
</style>
<g>
	<path class="st0" d="M58.5,34.9H1.4V9.6c0-2.5,2-4.5,4.5-4.5H54c2.5,0,4.5,2,4.5,4.5V34.9z"/>
	<path class="st1" d="M53.5,2.9h-47C2.9,2.9,0,5.8,0,9.4v29.8c0,3.6,2.9,6.5,6.5,6.5h15l-1.8,8.8H14c-0.7,0-1.3,0.6-1.3,1.3
		c0,0.7,0.6,1.3,1.3,1.3H46c0.7,0,1.3-0.6,1.3-1.3c0-0.7-0.6-1.3-1.3-1.3h-5.8l-1.8-8.8h15c3.6,0,6.5-2.9,6.5-6.5V9.4
		C60,5.8,57.1,2.9,53.5,2.9z M37.5,54.4H22.5l1.8-8.8h11.5L37.5,54.4z M2.7,36.5h54.6v2.7c0,2.1-1.7,3.8-3.8,3.8h-47
		c-2.1,0-3.8-1.7-3.8-3.8V36.5z M10.7,30.6c0-0.7-0.6-1.3-1.3-1.3H2.7V9.4c0-2.1,1.7-3.8,3.8-3.8h47c2.1,0,3.8,1.7,3.8,3.8v24.4H2.7
		v-1.9h6.7C10.1,31.9,10.7,31.3,10.7,30.6z"/>
	<circle class="st1" cx="30" cy="39.7" r="1.8"/>
	<polygon class="st2" points="27.5,17.6 30,27.1 32.5,25.3 36.3,27.8 38.4,26.1 35.1,22.7 38.4,19.7 	"/>
	<g>
		<path class="st1" d="M39.4,25l-2.3-2.3L37,22.6l0.1-0.1l1.9-1.9c0.3-0.3,0.4-0.7,0.3-1.1c-0.1-0.4-0.4-0.7-0.8-0.8l-10.5-2.4
			c-0.1,0-0.2,0-0.3,0c-0.3,0-0.6,0.1-0.8,0.3c-0.3,0.3-0.4,0.7-0.3,1.1l2.4,10.5c0.1,0.4,0.4,0.7,0.8,0.8c0.1,0,0.2,0,0.3,0
			c0.3,0,0.6-0.1,0.8-0.3l1.9-1.9l0.1-0.1l0.1,0.1l2.3,2.3c0.2,0.2,0.5,0.3,0.8,0.3c0.3,0,0.6-0.1,0.8-0.3l2.4-2.4
			c0.2-0.2,0.3-0.5,0.3-0.8S39.6,25.2,39.4,25z M36.8,26l-0.5,0.5l-0.1,0.1L36,26.5l-2.3-2.3c-0.2-0.2-0.5-0.3-0.8-0.3
			c-0.3,0-0.6,0.1-0.8,0.3L31,25.3l-0.3,0.3l-0.1-0.4l-1.4-6.1l-0.1-0.3l0.3,0.1l6.1,1.4l0.4,0.1l-0.3,0.3l-1.1,1.1
			c-0.2,0.2-0.3,0.5-0.3,0.8s0.1,0.6,0.3,0.8l2.3,2.3l0.1,0.1L36.8,26z"/>
	</g>
	<path class="st1" d="M25.4,13.2l-1.1-1.1c-0.5-0.5-1.4-0.5-1.9,0c-0.3,0.3-0.4,0.6-0.4,1c0,0.4,0.1,0.7,0.4,1l1.1,1.1
		c0.3,0.3,0.6,0.4,1,0.4c0.4,0,0.7-0.1,1-0.4C25.9,14.6,25.9,13.7,25.4,13.2z"/>
	<path class="st1" d="M23,16.2h-1.6c-0.7,0-1.3,0.6-1.3,1.3c0,0.7,0.6,1.3,1.3,1.3H23c0.7,0,1.3-0.6,1.3-1.3
		C24.4,16.9,23.8,16.2,23,16.2z"/>
	<path class="st1" d="M25.4,20.1c-0.5-0.5-1.4-0.5-1.9,0l-1.1,1.1c-0.3,0.3-0.4,0.6-0.4,1c0,0.4,0.1,0.7,0.4,1
		c0.3,0.3,0.6,0.4,1,0.4c0.4,0,0.7-0.1,1-0.4l1.1-1.1C25.9,21.5,25.9,20.6,25.4,20.1z"/>
	<path class="st1" d="M33.4,12.1c-0.5-0.5-1.4-0.5-1.9,0l-1.1,1.1c-0.3,0.3-0.4,0.6-0.4,1c0,0.4,0.1,0.7,0.4,1
		c0.3,0.3,0.6,0.4,1,0.4c0.4,0,0.7-0.1,1-0.4l1.1-1.1c0.3-0.3,0.4-0.6,0.4-1S33.7,12.3,33.4,12.1z"/>
	<path class="st1" d="M27.9,9.8c-0.7,0-1.3,0.6-1.3,1.3v1.6c0,0.7,0.6,1.3,1.3,1.3c0.7,0,1.3-0.6,1.3-1.3v-1.6
		C29.3,10.4,28.7,9.8,27.9,9.8z"/>
	<path class="st1" d="M14.1,30.3c0-0.1,0-0.2-0.1-0.3c0-0.1-0.1-0.2-0.1-0.2c0-0.1-0.1-0.1-0.2-0.2c-0.1-0.1-0.1-0.1-0.2-0.2
		c-0.1,0-0.2-0.1-0.2-0.1c-0.1,0-0.2-0.1-0.3-0.1c-0.2,0-0.4,0-0.5,0c-0.1,0-0.2,0-0.3,0.1c-0.1,0-0.2,0.1-0.2,0.1
		c-0.1,0-0.1,0.1-0.2,0.2c-0.1,0.1-0.1,0.1-0.2,0.2c0,0.1-0.1,0.2-0.1,0.2c0,0.1-0.1,0.2-0.1,0.3c0,0.1,0,0.2,0,0.3
		c0,0.1,0,0.2,0,0.3c0,0.1,0,0.2,0.1,0.3c0,0.1,0.1,0.2,0.1,0.2c0,0.1,0.1,0.1,0.2,0.2c0.1,0.1,0.1,0.1,0.2,0.2
		c0.1,0,0.2,0.1,0.2,0.1c0.1,0,0.2,0.1,0.3,0.1c0.1,0,0.2,0,0.3,0c0.1,0,0.2,0,0.3,0c0.1,0,0.2,0,0.2-0.1c0.1,0,0.2-0.1,0.2-0.1
		c0.1-0.1,0.1-0.1,0.2-0.2c0.1-0.1,0.1-0.1,0.2-0.2c0-0.1,0.1-0.2,0.1-0.2c0-0.1,0.1-0.2,0.1-0.3c0-0.1,0-0.2,0-0.3
		C14.2,30.5,14.1,30.4,14.1,30.3z"/>
</g>
</svg>
