<svg width="40" height="40" viewBox="0 0 40 40" fill="none" xmlns="http://www.w3.org/2000/svg">
<g clip-path="url(#clip0)">
<path d="M6.88001 20.2C7.74157 20.2 8.44001 19.5016 8.44001 18.64C8.44001 17.7785 7.74157 17.08 6.88001 17.08C6.01844 17.08 5.32001 17.7785 5.32001 18.64C5.32001 19.5016 6.01844 20.2 6.88001 20.2Z" fill="#C3E2FC"/>
<path d="M13.2 20.44C14.1941 20.44 15 19.6341 15 18.64C15 17.6459 14.1941 16.84 13.2 16.84C12.2059 16.84 11.4 17.6459 11.4 18.64C11.4 19.6341 12.2059 20.44 13.2 20.44Z" fill="#C3E2FC"/>
<path d="M5.31995 25C5.31995 25 1.63995 26.6 1.67995 29.76C1.71995 32.92 1.67995 37 1.67995 37L18.4799 36.88V29.84C18.4799 29.84 18.16 26.44 16.76 25.92C15.4 25.4 13.2 26.04 13.2 26.04L13.32 28.24C13.32 28.24 13.24 31.32 10.04 31.16C6.83995 31 6.75995 28.64 6.75995 28.64L7.07995 26.16L5.31995 25Z" fill="#95CE5A"/>
<path d="M23.44 22.92C23.44 22.92 21.28 24.32 21.24 26.36C21.2 28.4 21.24 36.76 21.24 36.76H38.28V27.04C38.28 27.04 37.44 23.32 36.08 22.88C34.72 22.44 33.76 25.8 33.76 25.8L31.68 25.4L29.84 27.08L28.08 25.6L26.16 26L23.44 22.92Z" fill="#95CE5A"/>
<path d="M39.9199 13.68C39.6799 12.68 38.8399 11.92 37.8399 11.76L37.6799 10.24C37.1999 6.12001 33.6399 3.08001 29.5199 3.24001C25.6399 3.40001 22.4799 6.36001 22.0399 10.2L21.8799 11.72C21.3599 11.8 20.8399 12.04 20.4799 12.44C19.9999 12.92 19.7199 13.56 19.7599 14.24C19.7599 15.28 20.3999 16.2 21.3599 16.6L21.2399 17.2V17.24C21.3199 18.36 21.7599 19.48 22.4799 20.36C22.1599 20.48 21.9199 20.76 21.8799 21.12C21.8799 21.36 21.9599 21.6 22.1199 21.76C22.3599 22.04 22.6399 22.28 22.9199 22.48C21.4399 23.72 20.6399 25.48 20.6399 27.4V36.76C20.6399 37 20.7199 37.2 20.8799 37.36C21.0399 37.52 21.2399 37.6 21.4799 37.6H38.1599C38.6399 37.6 39.0399 37.2 39.0399 36.72V27.36C39.0399 25.44 38.1999 23.68 36.7599 22.44C37.0399 22.24 37.3199 22 37.5599 21.72C37.8799 21.36 37.8399 20.84 37.5199 20.52C37.4399 20.44 37.3199 20.36 37.1999 20.32C37.9199 19.44 38.3599 18.36 38.4399 17.2V17.16L38.3999 16.64C38.9199 16.44 39.3199 16.08 39.5999 15.6C39.9599 15 40.0799 14.32 39.9199 13.68ZM38.6399 14.32C38.6399 14.64 38.4799 14.92 38.2399 15.16L38.0399 13.24C38.1599 13.32 38.2399 13.4 38.3199 13.48C38.5199 13.72 38.6399 14 38.6399 14.32ZM27.1599 24.52C26.9599 24.68 26.8799 24.96 26.8799 25.2C26.8799 25.24 26.8799 25.28 26.8799 25.32C26.1199 24.88 25.5599 24.16 25.2399 23.36C26.9599 23.6 28.6799 22.92 29.8399 21.6C30.9599 22.92 32.7199 23.56 34.4399 23.36C34.1199 24.16 33.5599 24.88 32.7999 25.32C32.7999 25.28 32.7999 25.24 32.7999 25.2C32.7999 24.96 32.7599 24.76 32.5999 24.56C32.4399 24.4 32.2399 24.28 31.9999 24.28C31.7599 24.24 31.4799 24.36 31.3199 24.56C30.7599 25.12 30.2799 25.76 29.8399 26.4C29.3999 25.76 28.9199 25.12 28.3599 24.56C28.1999 24.4 27.9999 24.32 27.7599 24.28C27.5199 24.24 27.3199 24.36 27.1599 24.52ZM24.8399 27.04C24.4799 27.04 24.1599 27.36 24.1599 27.72V36.2H22.0399V27.36C22.0399 25.88 22.7199 24.44 23.8799 23.48C24.3199 25 25.3999 26.2 26.8799 26.84L26.9599 26.88H26.9999C27.3599 27 27.7599 26.84 27.9599 26.52C27.9999 26.44 28.0399 26.36 28.0799 26.28C28.4799 26.76 28.7999 27.28 29.1199 27.84C29.1199 27.88 29.1599 27.92 29.1999 27.92V36.24H25.5599V27.72C25.5199 27.36 25.1999 27.04 24.8399 27.04ZM34.8799 27.04C34.5199 27.04 34.1999 27.36 34.1999 27.72V36.2H30.5599V27.88C30.5999 27.84 30.5999 27.8 30.6399 27.8C30.9599 27.28 31.2799 26.76 31.6799 26.28C31.7199 26.36 31.7599 26.44 31.7999 26.52C31.9999 26.84 32.4399 27 32.7999 26.88L32.8799 26.84C34.3199 26.2 35.3999 25 35.8799 23.48C37.0399 24.44 37.7199 25.88 37.7199 27.36V36.2H35.5999V27.72C35.5599 27.32 35.2399 27.04 34.8799 27.04ZM29.3999 20.04C29.2799 20.12 29.1999 20.2 29.1599 20.28C28.0399 22 25.7599 22.52 23.9999 21.48C24.8799 21.16 25.5999 20.48 25.9199 19.6C26.3199 18.96 26.9999 18.6 27.7599 18.56H27.7999C28.3599 18.56 28.8799 18.76 29.2799 19.12C29.5999 19.4 30.1199 19.4 30.4399 19.12C30.8799 18.76 31.3999 18.52 31.9599 18.56C32.7199 18.56 33.3999 18.96 33.7999 19.56C34.1599 20.48 34.8399 21.12 35.7599 21.44C35.1599 21.8 34.4799 22 33.7999 22C32.7999 22 31.8399 21.6 31.1199 20.88C30.9199 20.68 30.7599 20.48 30.6399 20.28C30.5199 20.08 30.3199 19.96 30.0799 19.92C29.9999 19.92 29.9599 19.92 29.8799 19.92C29.6799 19.88 29.5199 19.96 29.3999 20.04ZM35.0399 19.04L34.9999 18.96C34.5199 18.12 33.7199 17.56 32.7999 17.32C32.5199 17.24 32.1999 17.2 31.9199 17.2C31.2799 17.2 30.6399 17.36 30.0799 17.72C29.9999 17.76 29.9199 17.8 29.8399 17.88C29.1599 17.4 28.3599 17.16 27.5199 17.24C26.5599 17.32 25.6799 17.76 25.0799 18.48C24.9599 18.64 24.7999 18.8 24.7199 19L24.6799 19.08C24.5599 19.44 24.3199 19.76 23.9999 19.96C23.9199 19.84 23.7999 19.76 23.7199 19.68C23.0799 19 22.6799 18.12 22.5999 17.24L23.3999 10.4C23.7599 7.20001 26.3599 4.80001 29.5599 4.64001C32.9599 4.48001 35.9199 7.04001 36.3199 10.4L37.1199 17.24C37.0399 18.16 36.6399 19.04 36.0399 19.68C35.9199 19.76 35.8399 19.88 35.7599 19.96C35.3999 19.72 35.1599 19.4 35.0399 19.04ZM21.4799 15.16C21.1599 14.88 20.9999 14.4 21.1199 13.96C21.1999 13.64 21.3999 13.4 21.6799 13.24L21.4799 15.16Z" fill="#333E50"/>
<path d="M18.36 14.72L18.28 13.6C18.04 11.08 16.64 8.8 14.52 7.44C14.84 5.16 13.32 3 11.04 2.52C10.72 2.44 10.36 2.44 10.04 2.44C7.59998 2.48 5.63998 4.52 5.71998 6.96C5.71998 7.12 5.71998 7.28 5.75998 7.44C3.63998 8.8 2.23998 11.08 1.99998 13.6L1.87998 14.72C1.31998 14.88 0.879982 15.2 0.519982 15.64C0.0799821 16.2 -0.0800179 16.88 -1.78535e-05 17.56C0.119982 18.44 0.679982 19.24 1.51998 19.6C1.63998 21.56 2.55998 23.36 4.07998 24.6L4.39998 24.8C2.27998 25.8 0.919982 27.96 0.919982 30.28V36.68C0.919982 37.16 1.31998 37.56 1.79998 37.56H18.48C18.96 37.56 19.32 37.16 19.36 36.68V30.28C19.36 27.92 18 25.8 15.88 24.8L16.2 24.56C17.72 23.32 18.64 21.52 18.76 19.56C19.96 19.04 20.56 17.72 20.2 16.44C19.92 15.6 19.24 14.96 18.36 14.72ZM18.88 17.44C18.84 17.6 18.76 17.8 18.68 17.92L18.52 16.32C18.8 16.6 18.96 17.04 18.88 17.44ZM13.04 10.92C12.92 10.68 12.72 10.48 12.44 10.4C12.32 10.36 12.2 10.32 12.08 10.32C11.92 10.32 11.8 10.36 11.64 10.4C11.52 10.48 11.4 10.56 11.32 10.64C9.35998 12.84 6.27998 13.76 3.43998 13.04C4.03998 9.84 6.71998 7.6 9.99998 7.52C13.52 7.44 16.52 10.12 16.88 13.6C15.24 13.48 13.76 12.44 13.04 10.92ZM7.63998 25.64L4.91998 23.48C3.47998 22.32 2.71998 20.56 2.87998 18.72L2.95998 17.68L4.19998 18.92C4.27998 19.6 4.59998 20.2 5.07998 20.64C5.63998 21.12 6.31998 21.4 7.03998 21.36C8.23998 21.32 9.27998 20.48 9.55998 19.32H10.6C10.76 19.88 11.08 20.4 11.52 20.76C12.08 21.2 12.8 21.44 13.52 21.36C14.84 21.24 15.84 20.24 15.96 18.92L17.2 17.68L17.28 18.72C17.44 20.56 16.68 22.32 15.24 23.48L12.52 25.64C11.16 26.8 9.11998 26.84 7.63998 25.64ZM13.32 20.04C12.92 20.04 12.6 19.92 12.32 19.64C12.04 19.4 11.92 19.04 11.88 18.68V18.6C11.88 17.84 12.48 17.24 13.2 17.24C13.96 17.24 14.56 17.84 14.6 18.56V18.6C14.68 19.4 14.08 20 13.32 20.04ZM15.72 17.32C15.12 16.24 13.88 15.68 12.68 15.96C11.72 16.2 10.92 16.96 10.68 17.96H9.59998C9.23998 16.64 7.99998 15.76 6.63998 15.92C5.75998 16 4.95998 16.56 4.55998 17.32L3.15998 15.92L3.27998 14.44C6.39998 15.16 9.71998 14.2 12 11.92C13 13.72 14.92 14.92 17 15.04L17.08 15.92L15.72 17.32ZM5.59998 18.64C5.59998 17.88 6.19998 17.28 6.91998 17.28H6.95998C7.67998 17.28 8.31998 17.88 8.31998 18.6V18.64C8.31998 19.4 7.71998 20.04 6.95998 20.04C6.59998 20.04 6.23998 19.92 5.99998 19.64C5.71998 19.4 5.59998 19.04 5.55998 18.68V18.64H5.59998ZM12.56 28.76C12.28 29.4 11.8 29.92 11.16 30.16C10.52 30.44 9.79998 30.44 9.15998 30.16C8.51998 29.88 7.99998 29.4 7.75998 28.76C7.55998 28.28 7.51998 27.76 7.59998 27.24C9.19998 28.12 11.12 28.12 12.72 27.24C12.8 27.76 12.76 28.24 12.56 28.76ZM5.47998 30.2C5.31998 30.08 5.11998 30 4.99998 30C4.63998 30 4.31998 30.32 4.31998 30.68V36.16H2.31998V30.28C2.31998 28.24 3.67998 26.36 5.63998 25.76L6.39998 26.4C6.07998 27.28 6.07998 28.24 6.39998 29.12C6.75998 30.12 7.51998 30.92 8.47998 31.36C9.43998 31.8 10.52 31.84 11.52 31.48C12.52 31.12 13.32 30.36 13.76 29.4C14.2 28.44 14.24 27.36 13.88 26.4L14.64 25.8C16.6 26.4 17.96 28.24 17.96 30.32V36.2H15.92V30.68C15.92 30.48 15.84 30.32 15.68 30.2C15.56 30.08 15.36 30 15.2 30.04C14.84 30.08 14.6 30.36 14.56 30.72V36.2H5.67998V30.68C5.67998 30.52 5.59998 30.36 5.47998 30.2ZM7.07998 6.76C7.07998 6.16 7.27998 5.56 7.63998 5.08C8.11998 4.4 8.83998 4 9.63998 3.84C9.75998 3.8 9.87998 3.8 10.04 3.8C10.08 3.8 10.12 3.8 10.12 3.8C10.88 3.8 11.64 4.08 12.2 4.64C12.8 5.2 13.12 5.96 13.16 6.76C11.24 6 9.03998 6 7.07998 6.76ZM1.75998 16.32L1.59998 17.96C1.55998 17.88 1.47998 17.8 1.43998 17.72C1.31998 17.44 1.31998 17.08 1.43998 16.8C1.51998 16.6 1.59998 16.44 1.75998 16.32Z" fill="#333E50"/>
<path d="M26.68 13.08C26.32 13.08 25.96 13.2 25.68 13.48C25.4 13.76 25.28 14.08 25.28 14.48C25.28 14.84 25.4 15.2 25.68 15.48C25.92 15.76 26.28 15.88 26.64 15.88C27.4 15.88 28 15.28 28 14.52V14.48C28 14.12 27.88 13.76 27.6 13.52C27.4 13.24 27.04 13.08 26.68 13.08Z" fill="#333E50"/>
<path d="M33.04 13.08C32.68 13.08 32.32 13.24 32.08 13.48C31.8 13.76 31.68 14.08 31.68 14.44C31.68 14.8 31.84 15.16 32.08 15.4C32.36 15.68 32.68 15.8 33.04 15.8C33.4 15.8 33.76 15.64 34 15.4C34.28 15.12 34.4 14.8 34.4 14.44C34.44 13.68 33.8 13.08 33.04 13.08Z" fill="#333E50"/>
<path d="M11.36 22.28C10.68 22.92 9.59999 22.92 8.95999 22.28C8.67999 22 8.23999 22 7.99999 22.28C7.87999 22.4 7.79999 22.6 7.79999 22.76C7.79999 22.96 7.87999 23.12 7.99999 23.24C8.55999 23.8 9.35999 24.12 10.16 24.12C11 24.12 11.76 23.8 12.32 23.24C12.44 23.12 12.52 22.92 12.52 22.76C12.52 22.56 12.44 22.4 12.32 22.28C12.04 22.04 11.6 22.04 11.36 22.28Z" fill="#333E50"/>
</g>
<defs>
<clipPath id="clip0">
<path d="M0 0H40V40H0V0Z" fill="white"/>
</clipPath>
</defs>
</svg>
