<svg width="40" height="40" viewBox="0 0 40 40" fill="none" xmlns="http://www.w3.org/2000/svg">
<path d="M17.96 13.5601H31.08V23.4001C31.08 26.2001 28.8 28.4801 26 28.4801H17.96V13.5601Z" fill="#C3E2FC"/>
<path d="M26.32 25.8799H15.6L8.59999 32.6799L8.47999 25.8799H4.43999C2.31999 25.8799 0.599991 24.1599 0.599991 22.0399V4.51993C0.599991 2.39993 2.31999 0.679932 4.43999 0.679932H26.32C28.44 0.679932 30.16 2.39993 30.16 4.51993V22.0399C30.12 24.1599 28.4 25.8799 26.32 25.8799Z" fill="#95CE5A"/>
<path d="M39.88 16.84C39.88 14.52 38 12.68 35.72 12.68C35.72 12.68 33.087 12.68 31.4 12.68C31.275 12.68 31.08 12.68 31.08 12.68V12.36V4.8C31.08 2.16 28.92 0 26.28 0H4.91998C2.27998 0 0.11998 2.16 0.11998 4.8V22.12C0.11998 24.76 2.27998 26.92 4.91998 26.92H7.51998H7.83998V27.2V33.08C7.83998 33.48 8.15998 33.8 8.55998 33.8C8.75998 33.8 8.91998 33.72 9.07998 33.6L15.64 27L15.72 26.92H15.84H17.08H17.4V27.2V29.96C17.4 32.24 19.28 34.12 21.56 34.12H26.72H26.84L26.92 34.2L32.48 39.76C32.6 39.88 32.8 39.96 33 39.96C33.2 39.96 33.36 39.88 33.52 39.76C33.64 39.64 33.72 39.44 33.72 39.24V34.44V34.12H34.04H35.64C37.96 34.12 39.8 32.24 39.8 29.96V16.84H39.88ZM15.4 25.44C15.2 25.44 15.04 25.52 14.88 25.64L9.79998 30.76L9.23998 31.32V30.52V26.16C9.23998 25.76 8.91998 25.44 8.51998 25.44H4.91998C3.07998 25.44 1.59998 23.96 1.55998 22.12V4.8C1.55998 3.92 1.91998 3.08 2.55998 2.44C3.19998 1.8 4.03998 1.44 4.91998 1.44H26.32C28.16 1.44 29.68 2.96 29.68 4.8V22.12C29.68 23.96 28.16 25.44 26.32 25.44H15.4ZM38.44 29.96C38.44 31.48 37.2 32.68 35.72 32.68H33.08C32.68 32.68 32.36 33 32.36 33.4V36.76V37.56L31.8 37L27.72 32.92C27.6 32.8 27.4 32.72 27.2 32.72H21.6H21.56C20.08 32.72 18.84 31.52 18.84 30V29.96V27.2V26.88H19.16H26.28C28.92 26.88 31.08 24.72 31.08 22.08V14.44V14.12H31.4H35.72C37.24 14.12 38.44 15.36 38.44 16.84V29.96Z" fill="#333E50"/>
<path d="M19.44 7.79994C18.76 6.39994 17.36 5.51994 15.8 5.43994H15.72C15.68 5.43994 15.64 5.43994 15.6 5.43994C13.28 5.43994 11.4 7.27994 11.32 9.59994C11.32 9.63994 11.32 9.67994 11.32 9.71994C11.32 10.1199 11.64 10.4399 12.04 10.4399C12.44 10.4399 12.76 10.1199 12.76 9.71994C12.76 8.95994 13.08 8.19994 13.6 7.67994C14.12 7.15994 14.8 6.87994 15.56 6.87994C15.6 6.87994 15.64 6.87994 15.68 6.87994C16.44 6.91994 17.12 7.23994 17.64 7.79994C18.16 8.35994 18.44 9.07994 18.4 9.83994C18.36 10.8799 17.76 11.7999 16.84 12.2799C15.64 12.8799 14.88 14.0399 14.88 15.3599V15.3999V15.8799C14.88 16.2799 15.2 16.5999 15.6 16.5999C16 16.5999 16.32 16.2799 16.32 15.8799V15.3999C16.32 14.5999 16.8 13.8799 17.48 13.5599C19.6 12.5199 20.48 9.91994 19.44 7.79994Z" fill="#333E50"/>
<path d="M15.6 19.48C15.2 19.48 14.88 19.8 14.88 20.2V20.6C14.88 21 15.2 21.32 15.6 21.32C16 21.32 16.32 21 16.32 20.6V20.2C16.32 19.8 16 19.48 15.6 19.48Z" fill="#333E50"/>
</svg>
