<svg width="41" height="40" viewBox="0 0 41 40" fill="none" xmlns="http://www.w3.org/2000/svg">
<path d="M40.0666 20.3008V15.9645C40.0666 14.0618 38.518 12.3804 36.4826 12.3804L17.4118 12.3362H3.65072C1.74807 12.3362 0.0666504 13.8849 0.0666504 15.9203V20.4335V29.1503V33.4866C0.0666504 35.3893 1.61532 37.0707 3.65072 37.0707H22.81H36.4826C38.3852 37.1149 40.0666 35.522 40.0666 33.5309V28.9733V20.3008ZM38.4737 33.4424C38.4737 34.5928 37.5888 35.4335 36.4826 35.4335H3.65072C2.50028 35.4335 1.65957 34.5486 1.65957 33.4424V15.9203C1.65957 14.7698 2.54453 13.9291 3.65072 13.9291H36.5711C37.7215 13.9291 38.5622 14.8141 38.4737 15.9203V33.4424Z" fill="#333E50"/>
<path d="M7.32331 27.3362H34.1375C34.6684 27.3362 35.0224 27.7787 35.0224 28.2211C35.0224 28.7521 34.5799 29.1061 34.1375 29.1061H7.32331C6.79234 29.1061 6.43835 28.6636 6.43835 28.2211C6.43835 27.7787 6.79234 27.3362 7.32331 27.3362Z" fill="#C3E2FC"/>
<path d="M7.32331 31.0088H22.81C23.341 31.0088 23.695 31.4513 23.695 31.8937C23.695 32.4247 23.2525 32.7787 22.81 32.7787H7.32331C6.79234 32.7787 6.43835 32.3362 6.43835 31.8937C6.43835 31.4513 6.79234 31.0088 7.32331 31.0088Z" fill="#C3E2FC"/>
<path d="M8.07549 22.9999H10.7746C11.4826 22.9999 12.0135 22.4689 12.0135 21.761V20.4335C12.0135 19.7256 11.4826 19.1946 10.7746 19.1946H8.07549C7.36752 19.1946 6.83655 19.7256 6.83655 20.4335V21.761C6.8808 22.4689 7.41177 22.9999 8.07549 22.9999Z" fill="#95CE5A"/>
<path d="M10.6861 23.4865H7.98702C7.01356 23.4865 6.26135 22.6901 6.26135 21.7609V20.4334C6.26135 19.46 7.05781 18.7078 7.98702 18.7078H10.6861C11.6596 18.7078 12.4118 19.5042 12.4118 20.4334V21.7609C12.456 22.7343 11.6596 23.4865 10.6861 23.4865ZM8.07551 19.7697C7.72153 19.7697 7.36755 20.1237 7.36755 20.4777V21.8051C7.36755 22.1591 7.72153 22.5131 8.07551 22.5131H10.7746C11.1286 22.5131 11.4826 22.1591 11.4826 21.8051V20.4777C11.4826 20.1237 11.1286 19.7697 10.7746 19.7697H8.07551Z" fill="#333E50"/>
<path d="M20.1109 31.8495C19.6684 31.8495 19.3145 31.4955 19.3145 31.0531C19.3145 30.6106 19.6684 30.2566 20.1109 30.2566H22.987C23.4295 30.2566 23.7835 30.6106 23.7835 31.0531C23.7835 31.4955 23.4295 31.8495 22.987 31.8495H20.1109Z" fill="#333E50"/>
<path d="M7.05781 31.9379C6.61534 31.9379 6.26135 31.5839 6.26135 31.1414C6.26135 30.699 6.61534 30.345 7.05781 30.345H16.2171C16.6596 30.345 17.0136 30.699 17.0136 31.1414C17.0136 31.5839 16.6596 31.9379 16.2171 31.9379H7.05781Z" fill="#333E50"/>
<path d="M29.5357 28.0441C29.0932 28.0441 28.7392 27.6901 28.7392 27.2476C28.7392 26.8052 29.0932 26.4512 29.5357 26.4512H34.3144C34.7569 26.4512 35.1109 26.8052 35.1109 27.2476C35.1109 27.6901 34.7569 28.0441 34.3144 28.0441H29.5357Z" fill="#333E50"/>
<path d="M22.0136 28.0441C21.5711 28.0441 21.2171 27.6901 21.2171 27.2476C21.2171 26.8052 21.5711 26.4512 22.0136 26.4512H26.7923C27.2348 26.4512 27.5888 26.8052 27.5888 27.2476C27.5888 27.6901 27.2348 28.0441 26.7923 28.0441H22.0136Z" fill="#333E50"/>
<path d="M14.5357 28.0441C14.0932 28.0441 13.7393 27.6901 13.7393 27.2476C13.7393 26.8052 14.0932 26.4512 14.5357 26.4512H19.3145C19.757 26.4512 20.1109 26.8052 20.1109 27.2476C20.1109 27.6901 19.757 28.0441 19.3145 28.0441H14.5357Z" fill="#333E50"/>
<path d="M7.05781 28.0441C6.61534 28.0441 6.26135 27.6901 6.26135 27.2476C6.26135 26.8052 6.61534 26.4512 7.05781 26.4512H11.8366C12.2791 26.4512 12.633 26.8052 12.633 27.2476C12.633 27.6901 12.2791 28.0441 11.8366 28.0441H7.05781Z" fill="#333E50"/>
<path d="M22.7657 8.79656L22.5887 16.6284L20.4206 16.8939L24.4914 22.2921L28.5179 17.2921L26.0843 16.8054L26.1728 8.66382L22.7657 8.79656Z" fill="#95CE5A"/>
<path d="M29.6684 16.4957C29.5357 16.1859 29.2259 16.009 28.9162 16.009H27.5003C27.2348 16.009 27.0135 15.7877 27.0135 15.5222V8.57533C27.0135 8.0886 26.6153 7.73462 26.1728 7.73462H22.8985C22.4118 7.73462 22.0578 8.13285 22.0578 8.57533V15.478C22.0578 15.7435 21.8365 15.9647 21.571 15.9647H20.1109C19.8011 15.9647 19.4914 16.1417 19.3587 16.4514C19.2259 16.7612 19.2259 17.0709 19.4472 17.3364L23.8719 23.0886C24.0489 23.3098 24.2702 23.4426 24.5356 23.4426C24.8011 23.4426 25.0666 23.3098 25.1994 23.0886L29.6241 17.3364C29.8011 17.1152 29.8454 16.7612 29.6684 16.4957ZM26.3498 17.5134H26.571C26.748 17.5134 26.925 17.6019 27.0135 17.7789C27.102 17.9559 27.102 18.1328 26.9693 18.3098L24.8896 21.009C24.7126 21.2744 24.2702 21.2744 24.0932 21.009L22.0135 18.3098C21.925 18.1771 21.925 17.9559 22.0135 17.7789C22.102 17.6019 22.279 17.5134 22.456 17.5134H22.7215C23.2082 17.5134 23.5622 17.1152 23.5622 16.6727V9.77002C23.5622 9.50453 23.7834 9.28329 24.0489 9.28329H24.9781C25.2436 9.28329 25.4649 9.50453 25.4649 9.77002V16.6727C25.5091 17.1152 25.8631 17.5134 26.3498 17.5134Z" fill="#333E50"/>
<path d="M26.3498 5.25659H22.7657C22.3675 5.25659 22.0135 5.61057 22.0135 6.0088C22.0135 6.40703 22.3675 6.76102 22.7657 6.76102H26.3498C26.748 6.76102 27.102 6.40703 27.102 6.0088C27.102 5.61057 26.748 5.25659 26.3498 5.25659Z" fill="#333E50"/>
<path d="M26.3498 3H22.7657C22.3675 3 22.0135 3.35398 22.0135 3.75221C22.0135 4.15044 22.3675 4.50442 22.7657 4.50442H26.3498C26.748 4.50442 27.102 4.15044 27.102 3.75221C27.102 3.35398 26.748 3 26.3498 3Z" fill="#333E50"/>
</svg>
