<svg width="60" height="60" viewBox="0 0 60 60" fill="none" xmlns="http://www.w3.org/2000/svg">
<path d="M51.0937 52.9688C52.0644 52.9688 52.8515 52.1817 52.8515 51.211V5.50792C52.8515 4.53714 52.0644 3.75011 51.0937 3.75011H34.4581C33.2772 1.52203 30.9345 0.00012207 28.2421 0.00012207H22.9687C21.9979 0.00012207 21.2109 0.787152 21.2109 1.75793V3.75011H12.4219C9.5141 3.75011 7.14844 6.11577 7.14844 9.02354V54.7266C7.14844 57.6343 9.5141 60 12.4219 60H51.0937C52.0644 60 52.8515 59.213 52.8515 58.2422C52.8515 57.2714 52.0644 56.4844 51.0937 56.4844H49.3358V52.9688H51.0937ZM49.3358 49.4531H34.3274C34.9278 48.418 35.2734 47.2178 35.2734 45.9375V42.4219H44.0624C45.0332 42.4219 45.8202 41.6349 45.8202 40.6641C45.8202 39.6933 45.0332 38.9063 44.0624 38.9063H35.2734V35.3907H44.0624C45.0332 35.3907 45.8202 34.6036 45.8202 33.6329C45.8202 32.6621 45.0332 31.8751 44.0624 31.8751H35.2734V28.3594H44.0624C45.0332 28.3594 45.8202 27.5724 45.8202 26.6016C45.8202 25.6308 45.0332 24.8438 44.0624 24.8438H35.2734V21.3282H44.0624C45.0332 21.3282 45.8202 20.5412 45.8202 19.5704V12.5392C45.8202 11.5684 45.0332 10.7813 44.0624 10.7813H35.2734V7.26573H49.3358V49.4531ZM35.2734 14.297H42.3046V17.8126H35.2734V14.297ZM24.7265 3.51574H28.2421C30.4624 3.51574 31.7578 5.42542 31.7578 7.03136V39.8522C30.7226 39.2519 29.5224 38.9063 28.2421 38.9063H24.7265V3.51574ZM12.4219 7.26573H21.2109V40.6641C21.2109 41.6349 21.9979 42.4219 22.9687 42.4219H28.2421C30.1807 42.4219 31.7578 43.999 31.7578 45.9375C31.7578 47.876 30.1807 49.4531 28.2421 49.4531H12.4219C11.8057 49.4531 11.2142 49.5604 10.6641 49.7555V9.02354C10.6641 8.05429 11.4526 7.26573 12.4219 7.26573ZM45.8202 56.4844H12.4219C11.4526 56.4844 10.6641 55.6958 10.6641 54.7266C10.6641 53.7573 11.4526 52.9688 12.4219 52.9688H45.8202V56.4844Z" fill="#95CE5A"/>
</svg>
