<svg width="60" height="60" viewBox="0 0 60 60" fill="none" xmlns="http://www.w3.org/2000/svg">
<path d="M25.9246 17.2426C26.1108 17.3186 26.31 17.3572 26.5111 17.3562C26.7121 17.3551 26.911 17.3145 27.0963 17.2366C27.2817 17.1588 27.4498 17.0451 27.5912 16.9022C27.7327 16.7593 27.8445 16.59 27.9205 16.4038C28.0974 15.9639 28.3787 15.5736 28.7403 15.2668C29.1018 14.96 29.5326 14.7458 29.9954 14.6427C30.4583 14.5397 30.9392 14.5509 31.3968 14.6755C31.8543 14.8 32.2747 15.034 32.6215 15.3574C32.9683 15.6808 33.2311 16.0837 33.3873 16.5314C33.5435 16.9791 33.5883 17.4582 33.5178 17.9271C33.4474 18.396 33.2638 18.8407 32.983 19.2228C32.7022 19.6049 32.3325 19.9128 31.906 20.12C31.0631 20.5271 30.3519 21.1634 29.8538 21.9559C29.3557 22.7485 29.091 23.6654 29.0898 24.6014V25.7157C29.0898 26.1216 29.2511 26.5109 29.5381 26.798C29.8251 27.085 30.2144 27.2462 30.6204 27.2462C31.0263 27.2462 31.4156 27.085 31.7026 26.798C31.9897 26.5109 32.1509 26.1216 32.1509 25.7157V24.6137C32.1536 24.2467 32.2602 23.8879 32.4585 23.5791C32.6568 23.2703 32.9387 23.024 33.2713 22.8689C34.3934 22.3174 35.3145 21.4282 35.9051 20.3262C36.4957 19.2241 36.7262 17.9647 36.564 16.725C36.4019 15.4853 35.8553 14.3275 35.0011 13.4144C34.147 12.5014 33.0282 11.8789 31.802 11.6346C30.4355 11.3634 29.0174 11.5745 27.7893 12.2321C26.5612 12.8897 25.5992 13.953 25.0675 15.2406C24.9911 15.4282 24.9526 15.6291 24.9544 15.8317C24.9562 16.0342 24.9981 16.2344 25.0779 16.4206C25.1576 16.6069 25.2735 16.7754 25.4189 16.9165C25.5642 17.0576 25.7361 17.1684 25.9246 17.2426Z" fill="#95CE5A"/>
<path d="M30.6326 29.5848C30.2267 29.5848 29.8374 29.7461 29.5503 30.0331C29.2633 30.3202 29.1021 30.7095 29.1021 31.1154C29.1021 31.5213 29.2633 31.9106 29.5503 32.1977C29.8374 32.4847 30.2267 32.6459 30.6326 32.6459C31.0385 32.6459 31.4278 32.4847 31.7149 32.1977C32.0019 31.9106 32.1632 31.5213 32.1632 31.1154C32.1632 30.7095 32.0019 30.3202 31.7149 30.0331C31.4278 29.7461 31.0385 29.5848 30.6326 29.5848Z" fill="#95CE5A"/>
<path d="M26.2675 54.49C26.2675 55.5798 26.5906 56.6451 27.1961 57.5512C27.8015 58.4573 28.662 59.1636 29.6689 59.5806C30.6757 59.9976 31.7836 60.1067 32.8524 59.8941C33.9212 59.6815 34.903 59.1568 35.6736 58.3862C36.4442 57.6156 36.9689 56.6338 37.1816 55.565C37.3942 54.4961 37.285 53.3883 36.868 52.3814C36.451 51.3746 35.7447 50.5141 34.8386 49.9086C33.9325 49.3032 32.8672 48.98 31.7774 48.98C30.3161 48.98 28.9146 49.5606 27.8813 50.5939C26.848 51.6272 26.2675 53.0287 26.2675 54.49ZM34.1773 54.49C34.1773 54.9744 34.0337 55.4478 33.7646 55.8506C33.4955 56.2533 33.1131 56.5671 32.6656 56.7525C32.2181 56.9378 31.7257 56.9863 31.2507 56.8919C30.7757 56.7974 30.3393 56.5641 29.9968 56.2216C29.6544 55.8792 29.4211 55.4428 29.3266 54.9678C29.2321 54.4927 29.2806 54.0004 29.466 53.5529C29.6513 53.1054 29.9652 52.7229 30.3679 52.4539C30.7707 52.1848 31.2441 52.0411 31.7285 52.0411C32.3779 52.0411 33.0008 52.2991 33.4601 52.7584C33.9193 53.2177 34.1773 53.8405 34.1773 54.49Z" fill="#95CE5A"/>
<path d="M14.672 33.8888C14.8495 35.9196 15.4769 37.8855 16.5087 39.6436C15.7325 41.2166 15.584 43.0259 16.0933 44.7044C16.6025 46.3828 17.7314 47.8046 19.2506 48.6812C20.7699 49.5577 22.5658 49.8232 24.2738 49.4239C25.9817 49.0246 27.4738 47.9904 28.447 46.5311C30.8689 46.5206 33.2456 45.8737 35.3387 44.6552C37.4319 43.4367 39.168 41.6895 40.373 39.5886C42.9643 40.3623 45.7369 40.2727 48.2729 39.3334C50.8089 38.394 52.9708 36.6557 54.4327 34.3806C55.8947 32.1055 56.5774 29.4168 56.3781 26.7198C56.1788 24.0227 55.1082 21.4636 53.3276 19.4281C54.0097 17.7524 54.359 15.96 54.3561 14.1508C54.3577 11.5641 53.6498 9.02656 52.3095 6.81423C50.9691 4.6019 49.0477 2.79955 46.7543 1.60328C44.4609 0.407009 41.8833 -0.13735 39.302 0.0294328C36.7207 0.196216 34.2346 1.06775 32.1142 2.54921C30.1806 1.17002 27.9216 0.317142 25.559 0.0742492C23.1964 -0.168643 20.8112 0.20679 18.6374 1.16372C16.4636 2.12065 14.5759 3.62621 13.1595 5.53271C11.7431 7.4392 10.8466 9.68115 10.5579 12.0386C8.26558 13.1292 6.39865 14.9478 5.24829 17.2108C4.09794 19.4737 3.72884 22.0537 4.19856 24.5484C4.66828 27.0431 5.95041 29.3122 7.84498 31.0018C9.73955 32.6914 12.14 33.7065 14.672 33.8888ZM22.6921 46.5311C21.9302 46.5323 21.1851 46.3075 20.551 45.8851C19.9169 45.4627 19.4224 44.8617 19.13 44.1582C18.8376 43.4546 18.7605 42.6802 18.9084 41.9328C19.0563 41.1854 19.4225 40.4986 19.9608 39.9595C20.4991 39.4203 21.1853 39.0529 21.9325 38.9038C22.6796 38.7548 23.4542 38.8307 24.1582 39.1219C24.8622 39.4132 25.464 39.9068 25.8874 40.5402C26.3108 41.1736 26.5368 41.9184 26.5368 42.6803C26.5368 43.7005 26.132 44.6791 25.4111 45.4011C24.6903 46.1231 23.7124 46.5295 22.6921 46.5311ZM12.5415 14.5181C12.8194 14.4127 13.0606 14.2286 13.2357 13.9883C13.4107 13.748 13.512 13.462 13.5272 13.1651C13.6271 11.1746 14.2842 9.25211 15.4234 7.61675C16.5627 5.98139 18.1383 4.69888 19.9709 3.91531C21.8035 3.13175 23.8193 2.87864 25.7887 3.1848C27.7581 3.49097 29.6019 4.34412 31.1101 5.64705C31.3869 5.88255 31.7385 6.01187 32.1019 6.01187C32.4654 6.01187 32.8169 5.88255 33.0937 5.64705C34.7106 4.29119 36.681 3.42518 38.7733 3.15086C40.8655 2.87654 42.9926 3.2053 44.9044 4.0985C46.8162 4.99169 48.4332 6.41218 49.5653 8.19293C50.6974 9.97368 51.2975 12.0406 51.295 14.1508C51.2945 15.851 50.8984 17.5278 50.1379 19.0486C49.9968 19.3387 49.9511 19.6661 50.0071 19.9838C50.0632 20.3016 50.2183 20.5935 50.4502 20.8179C52.0599 22.3391 53.0815 24.3793 53.3351 26.5796C53.5887 28.7798 53.0581 30.999 51.8367 32.8465C50.6152 34.6941 48.7812 36.0516 46.6574 36.6801C44.5337 37.3086 42.2563 37.1678 40.2261 36.2826C39.8564 36.1238 39.439 36.1171 39.0644 36.2637C38.6897 36.4104 38.3878 36.6987 38.2241 37.0662C37.4603 38.7777 36.2625 40.2599 34.7494 41.366C33.2363 42.472 31.4605 43.1636 29.5979 43.3721C29.5979 43.1455 29.6347 42.9129 29.6347 42.6803C29.641 41.3994 29.2906 40.1421 28.6228 39.0491C27.955 37.9561 26.9961 37.0705 25.8535 36.4916C24.7109 35.9127 23.4297 35.6632 22.1534 35.7712C20.8771 35.8792 19.656 36.3403 18.627 37.1029C18.002 35.7196 17.6786 34.2191 17.678 32.7011V32.6092C17.678 32.5358 17.678 32.4684 17.678 32.395C17.6844 32.1819 17.6463 31.9698 17.5659 31.7723C17.4856 31.5748 17.365 31.3963 17.2116 31.2482C17.0583 31.1001 16.8758 30.9856 16.6756 30.9121C16.4755 30.8387 16.2622 30.8078 16.0495 30.8216H15.9148C15.774 30.8216 15.6332 30.8216 15.4924 30.8216C13.5171 30.8196 11.605 30.125 10.0889 28.8588C8.57284 27.5926 7.54876 25.8348 7.19489 23.8915C6.84102 21.9481 7.17978 19.9422 8.15221 18.2228C9.12464 16.5035 10.6692 15.1795 12.517 14.4814L12.5415 14.5181Z" fill="#95CE5A"/>
</svg>
